<?xml version="1.0" encoding="UTF-8"?>
<!DOCTYPE svg PUBLIC "-//W3C//DTD SVG 1.1//EN" "http://www.w3.org/Graphics/SVG/1.1/DTD/svg11.dtd">
<svg xmlns="http://www.w3.org/2000/svg" version="1.1" width="970px" height="287px" style="shape-rendering:geometricPrecision; text-rendering:geometricPrecision; image-rendering:optimizeQuality; fill-rule:evenodd; clip-rule:evenodd" xmlns:xlink="http://www.w3.org/1999/xlink">
<g><path style="opacity:1" fill="#24519f" d="M -0.5,-0.5 C 250.167,-0.5 500.833,-0.5 751.5,-0.5C 751.5,2.16667 751.5,4.83333 751.5,7.5C 754.167,7.5 756.833,7.5 759.5,7.5C 759.5,10.1667 759.5,12.8333 759.5,15.5C 762.167,15.5 764.833,15.5 767.5,15.5C 767.5,16.8333 767.5,18.1667 767.5,19.5C 763.404,20.2847 760.07,19.118 757.5,16C 755.527,15.5045 753.527,15.3379 751.5,15.5C 751.171,21.2055 751.505,26.8722 752.5,32.5C 753.736,33.2458 755.07,33.5792 756.5,33.5C 753.123,39.1909 754.123,43.8576 759.5,47.5C 769.843,49.6556 774.009,45.6556 772,35.5C 771.292,34.6195 770.458,33.9528 769.5,33.5C 766.663,31.5977 763.329,30.931 759.5,31.5C 759.5,30.5 759.5,29.5 759.5,28.5C 761.342,28.2767 763.175,27.9434 765,27.5C 767.36,28.78 769.86,29.4467 772.5,29.5C 772.5,28.5 772.5,27.5 772.5,26.5C 773.5,26.5 774.5,26.5 775.5,26.5C 775.5,27.8333 775.5,29.1667 775.5,30.5C 774.448,30.3505 773.448,30.5172 772.5,31C 773.938,31.2189 775.271,31.7189 776.5,32.5C 774.364,35.599 774.03,38.9323 775.5,42.5C 777.258,44.7925 778.424,47.4591 779,50.5C 780.11,52.0368 781.61,52.7035 783.5,52.5C 783.5,50.8333 783.5,49.1667 783.5,47.5C 779.843,47.026 779.676,45.6926 783,43.5C 783.49,42.2068 783.657,40.8734 783.5,39.5C 786.167,39.5 788.833,39.5 791.5,39.5C 791.5,42.1667 791.5,44.8333 791.5,47.5C 794.167,47.5 796.833,47.5 799.5,47.5C 799.5,50.1667 799.5,52.8333 799.5,55.5C 802.167,55.5 804.833,55.5 807.5,55.5C 807.5,58.1667 807.5,60.8333 807.5,63.5C 810.167,63.5 812.833,63.5 815.5,63.5C 815.5,66.1667 815.5,68.8333 815.5,71.5C 818.167,71.5 820.833,71.5 823.5,71.5C 823.5,74.1667 823.5,76.8333 823.5,79.5C 826.167,79.5 828.833,79.5 831.5,79.5C 831.5,84.8333 831.5,90.1667 831.5,95.5C 834.167,95.5 836.833,95.5 839.5,95.5C 839.5,98.1667 839.5,100.833 839.5,103.5C 842.167,103.5 844.833,103.5 847.5,103.5C 847.5,108.833 847.5,114.167 847.5,119.5C 850.167,119.5 852.833,119.5 855.5,119.5C 855.5,124.833 855.5,130.167 855.5,135.5C 858.167,135.5 860.833,135.5 863.5,135.5C 863.5,138.167 863.5,140.833 863.5,143.5C 866.167,143.5 868.833,143.5 871.5,143.5C 871.5,148.833 871.5,154.167 871.5,159.5C 874.167,159.5 876.833,159.5 879.5,159.5C 879.5,167.5 879.5,175.5 879.5,183.5C 882.167,183.5 884.833,183.5 887.5,183.5C 887.5,188.833 887.5,194.167 887.5,199.5C 890.167,199.5 892.833,199.5 895.5,199.5C 895.5,207.5 895.5,215.5 895.5,223.5C 898.167,223.5 900.833,223.5 903.5,223.5C 903.5,234.167 903.5,244.833 903.5,255.5C 906.167,255.5 908.833,255.5 911.5,255.5C 911.5,265.833 911.5,276.167 911.5,286.5C 879.5,286.5 847.5,286.5 815.5,286.5C 815.5,284.167 815.5,281.833 815.5,279.5C 812.833,279.5 810.167,279.5 807.5,279.5C 807.5,271.5 807.5,263.5 807.5,255.5C 804.833,255.5 802.167,255.5 799.5,255.5C 799.5,247.5 799.5,239.5 799.5,231.5C 796.833,231.5 794.167,231.5 791.5,231.5C 791.816,223.248 791.482,215.081 790.5,207C 791.094,206.536 791.761,206.369 792.5,206.5C 795.259,207.968 797.926,207.634 800.5,205.5C 802.323,206.747 804.323,207.414 806.5,207.5C 809.616,202.105 812.616,196.605 815.5,191C 813.955,189.312 812.955,187.312 812.5,185C 810.527,184.505 808.527,184.338 806.5,184.5C 806.997,182.403 807.33,180.57 807.5,179C 804.854,178.503 802.187,178.336 799.5,178.5C 799.5,177.5 799.5,176.5 799.5,175.5C 802.807,175.063 805.807,175.73 808.5,177.5C 810.931,176.194 810.597,175.194 807.5,174.5C 807.533,161.183 807.866,147.85 808.5,134.5C 810.827,134.753 812.827,134.086 814.5,132.5C 814.168,130.082 814.168,127.748 814.5,125.5C 813.476,126.853 812.143,127.52 810.5,127.5C 810.5,124.5 810.5,121.5 810.5,118.5C 805.706,119.097 801.373,118.43 797.5,116.5C 798.931,115.22 799.598,113.553 799.5,111.5C 798.041,111.567 796.708,111.234 795.5,110.5C 799.298,109.517 803.298,109.183 807.5,109.5C 807.5,104.833 807.5,100.167 807.5,95.5C 800.087,96.1279 793.087,95.4612 786.5,93.5C 780.981,88.2819 774.314,86.1153 766.5,87C 763.493,89.9152 763.16,92.9152 765.5,96C 757.841,96.4997 750.174,96.6664 742.5,96.5C 741.833,98.1667 741.167,99.8333 740.5,101.5C 734.833,101.5 729.167,101.5 723.5,101.5C 724.929,98.6916 725.595,95.6916 725.5,92.5C 719.101,91.8223 712.768,90.8223 706.5,89.5C 703.405,103.208 699.071,116.541 693.5,129.5C 694.798,132.131 696.798,134.131 699.5,135.5C 699.5,137.167 699.5,138.833 699.5,140.5C 697.5,140.5 695.5,140.5 693.5,140.5C 693.5,141.5 693.5,142.5 693.5,143.5C 695.199,143.34 696.866,143.506 698.5,144C 696.082,148.253 694.248,152.753 693,157.5C 691.456,155.532 690.289,153.365 689.5,151C 689.167,150.833 688.833,150.667 688.5,150.5C 687.749,151.376 687.249,152.376 687,153.5C 687.466,144.946 687.632,136.279 687.5,127.5C 688.5,127.5 689.5,127.5 690.5,127.5C 690.292,125.08 690.626,122.747 691.5,120.5C 691,120.167 690.5,119.833 690,119.5C 688.403,120.885 686.57,121.551 684.5,121.5C 684.351,120.448 684.517,119.448 685,118.5C 686.512,117.743 687.846,116.743 689,115.5C 691.15,110.881 692.983,106.215 694.5,101.5C 693.178,101.33 692.011,101.663 691,102.5C 690,105.5 689,108.5 688,111.5C 686.67,110.418 685.17,109.751 683.5,109.5C 673.5,109.5 663.5,109.5 653.5,109.5C 653.5,107.5 653.5,105.5 653.5,103.5C 661.206,103.245 668.872,102.578 676.5,101.5C 675.657,96.4616 674.657,91.4616 673.5,86.5C 673.5,85.5 673.5,84.5 673.5,83.5C 671.143,83.6633 668.81,83.4966 666.5,83C 667.167,82.6667 667.833,82.3333 668.5,82C 666.744,81.7978 665.078,81.2978 663.5,80.5C 666.106,79.3483 668.773,79.1816 671.5,80C 669.405,80.5556 669.238,81.0556 671,81.5C 673.595,79.8542 676.428,79.1875 679.5,79.5C 679.5,76.8333 679.5,74.1667 679.5,71.5C 676.833,71.5 674.167,71.5 671.5,71.5C 671.5,68.8333 671.5,66.1667 671.5,63.5C 666.167,63.5 660.833,63.5 655.5,63.5C 655.5,60.8333 655.5,58.1667 655.5,55.5C 650.167,55.5 644.833,55.5 639.5,55.5C 639.5,52.8333 639.5,50.1667 639.5,47.5C 636.833,47.5 634.167,47.5 631.5,47.5C 631.5,44.8333 631.5,42.1667 631.5,39.5C 623.5,39.5 615.5,39.5 607.5,39.5C 607.5,36.8333 607.5,34.1667 607.5,31.5C 602.167,31.5 596.833,31.5 591.5,31.5C 591.5,28.8333 591.5,26.1667 591.5,23.5C 583.5,23.5 575.5,23.5 567.5,23.5C 567.5,20.8333 567.5,18.1667 567.5,15.5C 554.167,15.5 540.833,15.5 527.5,15.5C 527.5,12.8333 527.5,10.1667 527.5,7.5C 490.167,7.5 452.833,7.5 415.5,7.5C 415.5,10.1667 415.5,12.8333 415.5,15.5C 402.167,15.5 388.833,15.5 375.5,15.5C 375.5,18.1667 375.5,20.8333 375.5,23.5C 367.5,23.5 359.5,23.5 351.5,23.5C 351.5,26.1667 351.5,28.8333 351.5,31.5C 346.167,31.5 340.833,31.5 335.5,31.5C 335.5,34.1667 335.5,36.8333 335.5,39.5C 330.167,39.5 324.833,39.5 319.5,39.5C 319.5,42.1667 319.5,44.8333 319.5,47.5C 314.167,47.5 308.833,47.5 303.5,47.5C 303.5,50.1667 303.5,52.8333 303.5,55.5C 298.167,55.5 292.833,55.5 287.5,55.5C 287.5,58.1667 287.5,60.8333 287.5,63.5C 284.833,63.5 282.167,63.5 279.5,63.5C 279.5,66.1667 279.5,68.8333 279.5,71.5C 274.167,71.5 268.833,71.5 263.5,71.5C 263.5,74.1667 263.5,76.8333 263.5,79.5C 260.833,79.5 258.167,79.5 255.5,79.5C 255.5,82.1667 255.5,84.8333 255.5,87.5C 252.833,87.5 250.167,87.5 247.5,87.5C 247.5,90.1667 247.5,92.8333 247.5,95.5C 244.833,95.5 242.167,95.5 239.5,95.5C 239.053,99.1834 238.387,102.85 237.5,106.5C 238.765,111.051 239.432,115.718 239.5,120.5C 239.167,122.833 238.833,125.167 238.5,127.5C 236.575,119.542 234.909,111.542 233.5,103.5C 232.5,103.5 231.5,103.5 230.5,103.5C 230.5,106.167 230.5,108.833 230.5,111.5C 229.167,111.5 227.833,111.5 226.5,111.5C 224.553,105.72 221.553,100.554 217.5,96C 215.167,95.3333 212.833,95.3333 210.5,96C 206.551,102.68 202.884,109.514 199.5,116.5C 196.322,114.161 192.822,112.494 189,111.5C 183.996,112.499 182.33,115.499 184,120.5C 184.918,122.376 186.418,123.376 188.5,123.5C 182.021,124.491 175.354,124.824 168.5,124.5C 164.702,121.204 161.036,117.704 157.5,114C 148.405,113.354 146.405,116.854 151.5,124.5C 143.515,124.63 141.015,128.296 144,135.5C 145.945,136.863 148.112,137.697 150.5,138C 147.905,141.139 147.905,144.306 150.5,147.5C 153.167,148.833 155.833,148.833 158.5,147.5C 161.317,144.182 164.317,141.015 167.5,138C 176.16,137.5 184.827,137.334 193.5,137.5C 189.664,156.805 189.664,176.138 193.5,195.5C 184.853,196.665 176.186,196.832 167.5,196C 164.13,192.965 161.13,189.632 158.5,186C 153.372,183.644 150.039,185.144 148.5,190.5C 148.813,192.981 149.813,195.147 151.5,197C 147.703,200.814 147.703,204.814 151.5,209C 147.608,212.892 147.608,216.726 151.5,220.5C 151.714,222.144 151.38,223.644 150.5,225C 148.62,224.49 146.787,224.657 145,225.5C 144.982,227.797 145.149,230.131 145.5,232.5C 143.833,232.5 142.167,232.5 140.5,232.5C 140.5,231.5 140.5,230.5 140.5,229.5C 141.5,229.5 142.5,229.5 143.5,229.5C 143.5,228.167 143.5,226.833 143.5,225.5C 141.549,225.773 140.049,225.107 139,223.5C 137.174,225.074 135.007,225.907 132.5,226C 134.473,226.495 136.473,226.662 138.5,226.5C 138.5,227.5 138.5,228.5 138.5,229.5C 131.122,229.913 130.789,231.58 137.5,234.5C 135.109,235.982 132.776,237.649 130.5,239.5C 129.203,241.973 129.203,244.307 130.5,246.5C 130.944,248.113 131.944,249.28 133.5,250C 136.221,250.602 138.887,250.435 141.5,249.5C 143.269,250.962 144.936,252.629 146.5,254.5C 146,254.833 145.5,255.167 145,255.5C 143.908,254.704 142.741,254.037 141.5,253.5C 139.666,254.754 137.666,255.421 135.5,255.5C 135.5,263.5 135.5,271.5 135.5,279.5C 132.833,279.5 130.167,279.5 127.5,279.5C 127.5,281.833 127.5,284.167 127.5,286.5C 84.8333,286.5 42.1667,286.5 -0.5,286.5C -0.5,190.833 -0.5,95.1667 -0.5,-0.5 Z"/></g>
<g><path style="opacity:1" fill="#22509e" d="M 751.5,-0.5 C 824.167,-0.5 896.833,-0.5 969.5,-0.5C 969.5,95.1667 969.5,190.833 969.5,286.5C 950.167,286.5 930.833,286.5 911.5,286.5C 911.5,276.167 911.5,265.833 911.5,255.5C 908.833,255.5 906.167,255.5 903.5,255.5C 903.5,244.833 903.5,234.167 903.5,223.5C 900.833,223.5 898.167,223.5 895.5,223.5C 895.5,215.5 895.5,207.5 895.5,199.5C 892.833,199.5 890.167,199.5 887.5,199.5C 887.5,194.167 887.5,188.833 887.5,183.5C 884.833,183.5 882.167,183.5 879.5,183.5C 879.5,175.5 879.5,167.5 879.5,159.5C 876.833,159.5 874.167,159.5 871.5,159.5C 871.5,154.167 871.5,148.833 871.5,143.5C 868.833,143.5 866.167,143.5 863.5,143.5C 863.5,140.833 863.5,138.167 863.5,135.5C 860.833,135.5 858.167,135.5 855.5,135.5C 855.5,130.167 855.5,124.833 855.5,119.5C 852.833,119.5 850.167,119.5 847.5,119.5C 847.5,114.167 847.5,108.833 847.5,103.5C 844.833,103.5 842.167,103.5 839.5,103.5C 839.5,100.833 839.5,98.1667 839.5,95.5C 836.833,95.5 834.167,95.5 831.5,95.5C 831.5,90.1667 831.5,84.8333 831.5,79.5C 828.833,79.5 826.167,79.5 823.5,79.5C 823.5,76.8333 823.5,74.1667 823.5,71.5C 820.833,71.5 818.167,71.5 815.5,71.5C 815.5,68.8333 815.5,66.1667 815.5,63.5C 812.833,63.5 810.167,63.5 807.5,63.5C 807.5,60.8333 807.5,58.1667 807.5,55.5C 804.833,55.5 802.167,55.5 799.5,55.5C 799.5,52.8333 799.5,50.1667 799.5,47.5C 796.833,47.5 794.167,47.5 791.5,47.5C 791.5,44.8333 791.5,42.1667 791.5,39.5C 788.833,39.5 786.167,39.5 783.5,39.5C 783.657,40.8734 783.49,42.2068 783,43.5C 779.676,45.6926 779.843,47.026 783.5,47.5C 783.5,49.1667 783.5,50.8333 783.5,52.5C 781.61,52.7035 780.11,52.0368 779,50.5C 778.424,47.4591 777.258,44.7925 775.5,42.5C 774.03,38.9323 774.364,35.599 776.5,32.5C 775.271,31.7189 773.938,31.2189 772.5,31C 773.448,30.5172 774.448,30.3505 775.5,30.5C 775.5,29.1667 775.5,27.8333 775.5,26.5C 774.5,26.5 773.5,26.5 772.5,26.5C 772.5,27.5 772.5,28.5 772.5,29.5C 769.86,29.4467 767.36,28.78 765,27.5C 763.175,27.9434 761.342,28.2767 759.5,28.5C 759.5,29.5 759.5,30.5 759.5,31.5C 757.973,31.427 756.973,32.0937 756.5,33.5C 755.07,33.5792 753.736,33.2458 752.5,32.5C 751.505,26.8722 751.171,21.2055 751.5,15.5C 753.527,15.3379 755.527,15.5045 757.5,16C 760.07,19.118 763.404,20.2847 767.5,19.5C 767.5,18.1667 767.5,16.8333 767.5,15.5C 764.833,15.5 762.167,15.5 759.5,15.5C 759.5,12.8333 759.5,10.1667 759.5,7.5C 756.833,7.5 754.167,7.5 751.5,7.5C 751.5,4.83333 751.5,2.16667 751.5,-0.5 Z"/></g>
<g><path style="opacity:1" fill="#2754a1" d="M 673.5,86.5 C 653.156,88.7513 632.823,91.0847 612.5,93.5C 612.5,96.8333 612.5,100.167 612.5,103.5C 619.833,103.5 627.167,103.5 634.5,103.5C 634.5,105.5 634.5,107.5 634.5,109.5C 624.442,108.86 614.775,109.527 605.5,111.5C 604.167,111.5 602.833,111.5 601.5,111.5C 596.293,105.556 590.626,100.056 584.5,95C 582.365,94.3653 580.365,94.6986 578.5,96C 575.545,97.4482 573.545,99.6149 572.5,102.5C 573.219,104.764 573.552,107.097 573.5,109.5C 570.86,109.553 568.36,110.22 566,111.5C 565.167,111.167 564.333,110.833 563.5,110.5C 561.938,107.026 561.105,103.36 561,99.5C 558.393,98.8767 555.893,98.21 553.5,97.5C 554.684,96.3121 554.684,95.1455 553.5,94C 548.832,91.4149 543.998,89.2482 539,87.5C 536.06,87.94 534.226,89.6066 533.5,92.5C 534.406,94.7475 535.739,96.7475 537.5,98.5C 534.572,99.4841 531.572,99.8174 528.5,99.5C 528.5,96.8333 528.5,94.1667 528.5,91.5C 522.355,90.5098 516.022,90.1765 509.5,90.5C 509.5,93.1667 509.5,95.8333 509.5,98.5C 500.014,99.4938 490.348,99.8271 480.5,99.5C 480.5,103.833 480.5,108.167 480.5,112.5C 483.625,113.479 486.958,113.813 490.5,113.5C 489.198,115.028 487.531,116.028 485.5,116.5C 484.669,131.661 484.169,146.995 484,162.5C 481.392,163.973 479.225,163.473 477.5,161C 478.434,155.215 478.768,149.382 478.5,143.5C 473.5,142.997 473.833,142.664 479.5,142.5C 479.891,139.162 478.724,138.162 476,139.5C 474.72,139.387 473.887,138.72 473.5,137.5C 476.409,136.823 479.242,136.489 482,136.5C 482.82,129.986 482.653,123.653 481.5,117.5C 478.5,117.5 475.5,117.5 472.5,117.5C 472.5,108.833 472.5,100.167 472.5,91.5C 465.833,91.5 459.167,91.5 452.5,91.5C 452.5,100.167 452.5,108.833 452.5,117.5C 449.5,117.5 446.5,117.5 443.5,117.5C 442.833,123.679 442.167,130.012 441.5,136.5C 440.336,130.193 440.169,123.859 441,117.5C 441.36,115.579 442.194,113.912 443.5,112.5C 440.682,111.119 439.182,112.119 439,115.5C 438.592,113.59 437.425,112.59 435.5,112.5C 430.878,113.385 426.211,113.718 421.5,113.5C 423.962,110.536 426.629,107.703 429.5,105C 423.075,99.368 415.908,94.868 408,91.5C 405.291,93.8735 402.791,96.5401 400.5,99.5C 404.929,103.593 408.596,108.259 411.5,113.5C 406.544,114.494 401.544,114.827 396.5,114.5C 396.5,107.167 396.5,99.8333 396.5,92.5C 389.687,91.5088 382.687,91.1755 375.5,91.5C 375.5,95.5 375.5,99.5 375.5,103.5C 375.5,106.167 375.5,108.833 375.5,111.5C 374.244,111.904 373.077,112.571 372,113.5C 370.667,112.833 369.333,112.167 368,111.5C 366.324,114.16 364.657,114.16 363,111.5C 362.833,108.833 362.667,106.167 362.5,103.5C 362.601,100.3 363.268,97.3004 364.5,94.5C 349.339,93.1738 334.339,93.1738 319.5,94.5C 319.5,100.167 319.5,105.833 319.5,111.5C 322.833,111.5 326.167,111.5 329.5,111.5C 329.5,117.5 329.5,123.5 329.5,129.5C 326.5,129.5 323.5,129.5 320.5,129.5C 320.5,135.833 320.5,142.167 320.5,148.5C 323.5,148.5 326.5,148.5 329.5,148.5C 329.5,156.833 329.5,165.167 329.5,173.5C 327.265,173.205 325.265,173.539 323.5,174.5C 320.07,173.755 318.403,175.089 318.5,178.5C 319.604,183.786 320.27,189.119 320.5,194.5C 332.619,192.683 343.952,188.683 354.5,182.5C 355.041,184.523 354.541,186.523 353,188.5C 350.64,191.36 348.473,194.36 346.5,197.5C 348.745,201.757 352.078,204.257 356.5,205C 375.379,189.645 387.379,170.145 392.5,146.5C 393.494,155.986 393.827,165.652 393.5,175.5C 388.17,180.663 382.67,185.663 377,190.5C 377.495,194.484 379.328,197.817 382.5,200.5C 383.434,201.568 383.768,202.901 383.5,204.5C 382.5,204.5 381.5,204.5 380.5,204.5C 380.5,205.5 380.5,206.5 380.5,207.5C 382.477,206.851 384.31,206.851 386,207.5C 387.974,205.628 390.141,205.295 392.5,206.5C 391.593,209.421 391.26,212.421 391.5,215.5C 386.167,215.5 380.833,215.5 375.5,215.5C 375.5,218.167 375.5,220.833 375.5,223.5C 372.833,223.5 370.167,223.5 367.5,223.5C 367.5,226.167 367.5,228.833 367.5,231.5C 364.833,231.5 362.167,231.5 359.5,231.5C 359.5,234.167 359.5,236.833 359.5,239.5C 356.833,239.5 354.167,239.5 351.5,239.5C 351.5,242.167 351.5,244.833 351.5,247.5C 348.833,247.5 346.167,247.5 343.5,247.5C 343.5,250.167 343.5,252.833 343.5,255.5C 340.833,255.5 338.167,255.5 335.5,255.5C 335.5,260.833 335.5,266.167 335.5,271.5C 332.833,271.5 330.167,271.5 327.5,271.5C 327.5,276.5 327.5,281.5 327.5,286.5C 260.833,286.5 194.167,286.5 127.5,286.5C 127.5,284.167 127.5,281.833 127.5,279.5C 130.167,279.5 132.833,279.5 135.5,279.5C 135.5,271.5 135.5,263.5 135.5,255.5C 137.666,255.421 139.666,254.754 141.5,253.5C 142.741,254.037 143.908,254.704 145,255.5C 145.5,255.167 146,254.833 146.5,254.5C 144.936,252.629 143.269,250.962 141.5,249.5C 144.349,247.15 147.515,245.15 151,243.5C 154.491,235.655 151.991,232.489 143.5,234C 139.962,236.269 136.295,238.269 132.5,240C 130.771,241.789 130.104,243.956 130.5,246.5C 129.203,244.307 129.203,241.973 130.5,239.5C 132.776,237.649 135.109,235.982 137.5,234.5C 130.789,231.58 131.122,229.913 138.5,229.5C 138.5,228.5 138.5,227.5 138.5,226.5C 136.473,226.662 134.473,226.495 132.5,226C 135.007,225.907 137.174,225.074 139,223.5C 140.049,225.107 141.549,225.773 143.5,225.5C 143.5,226.833 143.5,228.167 143.5,229.5C 142.5,229.5 141.5,229.5 140.5,229.5C 140.5,230.5 140.5,231.5 140.5,232.5C 142.167,232.5 143.833,232.5 145.5,232.5C 145.149,230.131 144.982,227.797 145,225.5C 146.787,224.657 148.62,224.49 150.5,225C 151.38,223.644 151.714,222.144 151.5,220.5C 153.92,220.708 156.253,220.374 158.5,219.5C 161.521,215.812 164.854,212.479 168.5,209.5C 175.022,209.177 181.355,209.51 187.5,210.5C 182.63,213.897 182.297,217.731 186.5,222C 191.364,222.244 195.697,220.744 199.5,217.5C 202.465,223.625 205.632,229.625 209,235.5C 211.21,238.29 214.044,239.123 217.5,238C 224.906,226.351 230.572,213.851 234.5,200.5C 250.71,192.921 267.044,185.421 283.5,178C 288.521,175.827 293.188,173.16 297.5,170C 299.185,166.74 298.518,164.073 295.5,162C 275.136,152.484 254.803,142.984 234.5,133.5C 232.395,125.957 229.728,118.624 226.5,111.5C 227.833,111.5 229.167,111.5 230.5,111.5C 230.5,108.833 230.5,106.167 230.5,103.5C 231.5,103.5 232.5,103.5 233.5,103.5C 234.909,111.542 236.575,119.542 238.5,127.5C 238.833,125.167 239.167,122.833 239.5,120.5C 239.432,115.718 238.765,111.051 237.5,106.5C 238.387,102.85 239.053,99.1834 239.5,95.5C 242.167,95.5 244.833,95.5 247.5,95.5C 247.5,92.8333 247.5,90.1667 247.5,87.5C 250.167,87.5 252.833,87.5 255.5,87.5C 255.5,84.8333 255.5,82.1667 255.5,79.5C 258.167,79.5 260.833,79.5 263.5,79.5C 263.5,76.8333 263.5,74.1667 263.5,71.5C 268.833,71.5 274.167,71.5 279.5,71.5C 279.5,68.8333 279.5,66.1667 279.5,63.5C 282.167,63.5 284.833,63.5 287.5,63.5C 287.5,60.8333 287.5,58.1667 287.5,55.5C 292.833,55.5 298.167,55.5 303.5,55.5C 303.5,52.8333 303.5,50.1667 303.5,47.5C 308.833,47.5 314.167,47.5 319.5,47.5C 319.5,44.8333 319.5,42.1667 319.5,39.5C 324.833,39.5 330.167,39.5 335.5,39.5C 335.5,36.8333 335.5,34.1667 335.5,31.5C 340.833,31.5 346.167,31.5 351.5,31.5C 351.5,28.8333 351.5,26.1667 351.5,23.5C 359.5,23.5 367.5,23.5 375.5,23.5C 375.5,20.8333 375.5,18.1667 375.5,15.5C 388.833,15.5 402.167,15.5 415.5,15.5C 415.5,12.8333 415.5,10.1667 415.5,7.5C 452.833,7.5 490.167,7.5 527.5,7.5C 527.5,10.1667 527.5,12.8333 527.5,15.5C 540.833,15.5 554.167,15.5 567.5,15.5C 567.5,18.1667 567.5,20.8333 567.5,23.5C 575.5,23.5 583.5,23.5 591.5,23.5C 591.5,26.1667 591.5,28.8333 591.5,31.5C 596.833,31.5 602.167,31.5 607.5,31.5C 607.5,34.1667 607.5,36.8333 607.5,39.5C 615.5,39.5 623.5,39.5 631.5,39.5C 631.5,42.1667 631.5,44.8333 631.5,47.5C 634.167,47.5 636.833,47.5 639.5,47.5C 639.5,50.1667 639.5,52.8333 639.5,55.5C 644.833,55.5 650.167,55.5 655.5,55.5C 655.5,58.1667 655.5,60.8333 655.5,63.5C 660.833,63.5 666.167,63.5 671.5,63.5C 671.5,66.1667 671.5,68.8333 671.5,71.5C 674.167,71.5 676.833,71.5 679.5,71.5C 679.5,74.1667 679.5,76.8333 679.5,79.5C 676.428,79.1875 673.595,79.8542 671,81.5C 669.238,81.0556 669.405,80.5556 671.5,80C 668.773,79.1816 666.106,79.3483 663.5,80.5C 665.078,81.2978 666.744,81.7978 668.5,82C 667.833,82.3333 667.167,82.6667 666.5,83C 668.81,83.4966 671.143,83.6633 673.5,83.5C 673.5,84.5 673.5,85.5 673.5,86.5 Z"/></g>
<g><path style="opacity:1" fill="#9aa6c0" d="M 759.5,31.5 C 763.329,30.931 766.663,31.5977 769.5,33.5C 756.425,31.2399 753.092,35.9066 759.5,47.5C 754.123,43.8576 753.123,39.1909 756.5,33.5C 756.973,32.0937 757.973,31.427 759.5,31.5 Z"/></g>
<g><path style="opacity:1" fill="#eae6e3" d="M 769.5,33.5 C 770.458,33.9528 771.292,34.6195 772,35.5C 774.009,45.6556 769.843,49.6556 759.5,47.5C 753.092,35.9066 756.425,31.2399 769.5,33.5 Z"/></g>
<g><path style="opacity:1" fill="#889fca" d="M 528.5,91.5 C 522.5,91.5 516.5,91.5 510.5,91.5C 510.802,94.0593 510.468,96.3926 509.5,98.5C 509.5,95.8333 509.5,93.1667 509.5,90.5C 516.022,90.1765 522.355,90.5098 528.5,91.5 Z"/></g>
<g><path style="opacity:1" fill="#bdc1d7" d="M 396.5,92.5 C 389.833,92.5 383.167,92.5 376.5,92.5C 376.815,96.3714 376.482,100.038 375.5,103.5C 375.5,99.5 375.5,95.5 375.5,91.5C 382.687,91.1755 389.687,91.5088 396.5,92.5 Z"/></g>
<g><path style="opacity:1" fill="#ede8e5" d="M 133.5,83.5 C 140.531,84.0969 146.697,86.7636 152,91.5C 153.817,98.8556 150.983,101.689 143.5,100C 140.327,97.9128 136.994,96.0795 133.5,94.5C 129.526,90.7516 129.526,87.0849 133.5,83.5 Z"/></g>
<g><path style="opacity:1" fill="#dce2ef" d="M 472.5,117.5 C 471.5,117.5 470.5,117.5 469.5,117.5C 470.347,109.344 470.68,101.344 470.5,93.5C 465.208,92.5052 459.875,92.1718 454.5,92.5C 454.428,100.893 454.595,109.226 455,117.5C 454.5,118 454,118.5 453.5,119C 450.081,119.248 446.747,119.748 443.5,120.5C 443.5,119.5 443.5,118.5 443.5,117.5C 446.5,117.5 449.5,117.5 452.5,117.5C 452.5,108.833 452.5,100.167 452.5,91.5C 459.167,91.5 465.833,91.5 472.5,91.5C 472.5,100.167 472.5,108.833 472.5,117.5 Z"/></g>
<g><path style="opacity:1" fill="#f2eae5" d="M 553.5,97.5 C 552.711,97.7828 552.044,98.2828 551.5,99C 554.146,99.4974 556.813,99.6641 559.5,99.5C 559.5,103.833 559.5,108.167 559.5,112.5C 549.167,112.5 538.833,112.5 528.5,112.5C 528.157,114.483 528.824,115.817 530.5,116.5C 537.648,117.492 544.981,117.825 552.5,117.5C 552.176,131.745 552.51,145.912 553.5,160C 547.843,160.499 542.176,160.666 536.5,160.5C 536.5,159.5 536.5,158.5 536.5,157.5C 533.833,157.5 531.167,157.5 528.5,157.5C 528.5,158.833 528.5,160.167 528.5,161.5C 522.824,161.666 517.157,161.499 511.5,161C 509.331,158.797 506.665,157.964 503.5,158.5C 503.5,159.5 503.5,160.5 503.5,161.5C 497.5,161.5 491.5,161.5 485.5,161.5C 485.5,146.5 485.5,131.5 485.5,116.5C 493.583,116.731 501.583,116.731 509.5,116.5C 510.434,115.432 510.768,114.099 510.5,112.5C 500.5,112.5 490.5,112.5 480.5,112.5C 480.5,108.167 480.5,103.833 480.5,99.5C 490.348,99.8271 500.014,99.4938 509.5,98.5C 510.468,96.3926 510.802,94.0593 510.5,91.5C 516.5,91.5 522.5,91.5 528.5,91.5C 528.5,94.1667 528.5,96.8333 528.5,99.5C 531.572,99.8174 534.572,99.4841 537.5,98.5C 535.739,96.7475 534.406,94.7475 533.5,92.5C 534.226,89.6066 536.06,87.94 539,87.5C 543.998,89.2482 548.832,91.4149 553.5,94C 554.684,95.1455 554.684,96.3121 553.5,97.5 Z"/></g>
<g><path style="opacity:1" fill="#f1eae9" d="M 786.5,93.5 C 785.522,93.811 784.855,94.4777 784.5,95.5C 791.803,96.4973 799.137,96.8306 806.5,96.5C 806.5,100.5 806.5,104.5 806.5,108.5C 802.116,108.174 797.783,108.508 793.5,109.5C 793.957,110.298 794.624,110.631 795.5,110.5C 796.708,111.234 798.041,111.567 799.5,111.5C 799.598,113.553 798.931,115.22 797.5,116.5C 796.733,117.172 796.066,118.005 795.5,119C 800.155,119.499 804.821,119.666 809.5,119.5C 809.5,122.167 809.5,124.833 809.5,127.5C 808.532,125.393 808.198,123.059 808.5,120.5C 807.167,120.5 805.833,120.5 804.5,120.5C 804.5,122.833 804.5,125.167 804.5,127.5C 803.5,127.5 802.5,127.5 801.5,127.5C 801.5,126.167 801.5,124.833 801.5,123.5C 797.375,123.723 796.709,125.223 799.5,128C 794.177,128.499 788.844,128.666 783.5,128.5C 783.5,127.167 783.5,125.833 783.5,124.5C 774.395,123.859 774.395,122.692 783.5,121C 779.789,120.175 776.122,120.341 772.5,121.5C 773.641,122.425 773.641,123.259 772.5,124C 770.866,124.494 769.199,124.66 767.5,124.5C 767.5,122.833 767.5,121.167 767.5,119.5C 772.695,119.821 777.695,119.487 782.5,118.5C 783.434,117.432 783.768,116.099 783.5,114.5C 783.629,112.784 783.962,111.117 784.5,109.5C 778.322,108.183 771.988,108.183 765.5,109.5C 765.863,110.183 766.196,110.85 766.5,111.5C 763.734,111.33 761.067,110.664 758.5,109.5C 757.5,109.833 756.5,110.167 755.5,110.5C 754.713,113.744 754.379,116.911 754.5,120C 750.459,120.173 746.459,120.673 742.5,121.5C 745.168,122.738 747.834,122.738 750.5,121.5C 751.833,122.5 751.833,123.5 750.5,124.5C 748.983,123.089 747.649,123.256 746.5,125C 747.025,125.692 747.692,126.192 748.5,126.5C 750.729,125.423 753.063,124.756 755.5,124.5C 755.5,125.5 755.5,126.5 755.5,127.5C 757.167,127.5 758.833,127.5 760.5,127.5C 760.5,125.167 760.5,122.833 760.5,120.5C 761.5,120.5 762.5,120.5 763.5,120.5C 763.5,122.833 763.5,125.167 763.5,127.5C 775.025,128.648 768.692,128.648 744.5,127.5C 744.5,128.5 744.5,129.5 744.5,130.5C 766.212,130.811 787.879,130.478 809.5,129.5C 809.5,130.167 809.5,130.833 809.5,131.5C 786.167,131.5 762.833,131.5 739.5,131.5C 739.5,127.5 739.5,123.5 739.5,119.5C 744.167,119.5 748.833,119.5 753.5,119.5C 753.784,117.585 753.451,115.919 752.5,114.5C 752.5,112.833 752.5,111.167 752.5,109.5C 749.375,108.521 746.042,108.187 742.5,108.5C 742.5,104.5 742.5,100.5 742.5,96.5C 750.174,96.6664 757.841,96.4997 765.5,96C 763.16,92.9152 763.493,89.9152 766.5,87C 774.314,86.1153 780.981,88.2819 786.5,93.5 Z"/></g>
<g><path style="opacity:1" fill="#ebe5e5" d="M 159.5,97.5 C 167.074,98.2038 173.574,101.204 179,106.5C 179.494,113.324 176.328,115.824 169.5,114C 165.993,111.746 162.327,109.746 158.5,108C 155.811,104.241 156.145,100.741 159.5,97.5 Z"/></g>
<g><path style="opacity:1" fill="#ece8e7" d="M 601.5,111.5 C 601.719,112.675 601.386,113.675 600.5,114.5C 594.744,117.126 589.244,120.126 584,123.5C 580.445,116.325 576.612,109.325 572.5,102.5C 573.545,99.6149 575.545,97.4482 578.5,96C 580.365,94.6986 582.365,94.3653 584.5,95C 590.626,100.056 596.293,105.556 601.5,111.5 Z"/></g>
<g><path style="opacity:1" fill="#6f7fa3" d="M 742.5,96.5 C 742.5,100.5 742.5,104.5 742.5,108.5C 746.042,108.187 749.375,108.521 752.5,109.5C 748.833,109.5 745.167,109.5 741.5,109.5C 741.806,112.385 741.473,115.052 740.5,117.5C 740.5,112.167 740.5,106.833 740.5,101.5C 741.167,99.8333 741.833,98.1667 742.5,96.5 Z"/></g>
<g><path style="opacity:1" fill="#949ebd" d="M 784.5,109.5 C 778.402,108.883 772.735,109.55 767.5,111.5C 767.167,111.5 766.833,111.5 766.5,111.5C 766.196,110.85 765.863,110.183 765.5,109.5C 771.988,108.183 778.322,108.183 784.5,109.5 Z"/></g>
<g><path style="opacity:1" fill="#8491b0" d="M 786.5,93.5 C 793.087,95.4612 800.087,96.1279 807.5,95.5C 807.5,100.167 807.5,104.833 807.5,109.5C 803.298,109.183 799.298,109.517 795.5,110.5C 794.624,110.631 793.957,110.298 793.5,109.5C 797.783,108.508 802.116,108.174 806.5,108.5C 806.5,104.5 806.5,100.5 806.5,96.5C 799.137,96.8306 791.803,96.4973 784.5,95.5C 784.855,94.4777 785.522,93.811 786.5,93.5 Z"/></g>
<g><path style="opacity:1" fill="#8ea2c2" d="M 634.5,109.5 C 624.932,110.19 615.265,110.857 605.5,111.5C 614.775,109.527 624.442,108.86 634.5,109.5 Z"/></g>
<g><path style="opacity:1" fill="#97a8ca" d="M 653.5,103.5 C 653.5,105.5 653.5,107.5 653.5,109.5C 663.5,109.5 673.5,109.5 683.5,109.5C 683.5,109.833 683.5,110.167 683.5,110.5C 673.167,110.5 662.833,110.5 652.5,110.5C 652.198,107.941 652.532,105.607 653.5,103.5 Z"/></g>
<g><path style="opacity:1" fill="#2f569d" d="M 553.5,97.5 C 555.893,98.21 558.393,98.8767 561,99.5C 561.105,103.36 561.938,107.026 563.5,110.5C 564.333,110.833 565.167,111.167 566,111.5C 568.36,110.22 570.86,109.553 573.5,109.5C 573.552,107.097 573.219,104.764 572.5,102.5C 576.612,109.325 580.445,116.325 584,123.5C 589.244,120.126 594.744,117.126 600.5,114.5C 601.386,113.675 601.719,112.675 601.5,111.5C 602.833,111.5 604.167,111.5 605.5,111.5C 605.5,115.5 605.5,119.5 605.5,123.5C 609.846,123.334 614.179,123.501 618.5,124C 613.667,128.578 608.333,132.412 602.5,135.5C 601.539,133.735 601.205,131.735 601.5,129.5C 591.167,129.5 580.833,129.5 570.5,129.5C 570.5,135.167 570.5,140.833 570.5,146.5C 574.5,146.5 578.5,146.5 582.5,146.5C 582.667,157.838 582.5,169.172 582,180.5C 581.292,181.381 580.458,182.047 579.5,182.5C 579.586,181.504 579.252,180.671 578.5,180C 579.967,178.902 580.801,177.402 581,175.5C 581.832,166.149 581.665,156.816 580.5,147.5C 577.222,147.482 573.889,147.815 570.5,148.5C 571.668,150.217 573.335,150.884 575.5,150.5C 575.5,151.5 575.5,152.5 575.5,153.5C 570.402,152.309 565.068,150.642 559.5,148.5C 559.5,146.167 559.5,143.833 559.5,141.5C 563.5,142.167 565.167,140.5 564.5,136.5C 562.833,136.5 561.167,136.5 559.5,136.5C 559.5,133.5 559.5,130.5 559.5,127.5C 558.5,127.5 557.5,127.5 556.5,127.5C 556.667,138.505 556.5,149.505 556,160.5C 555.617,161.056 555.117,161.389 554.5,161.5C 554.5,146.5 554.5,131.5 554.5,116.5C 546.5,116.5 538.5,116.5 530.5,116.5C 528.824,115.817 528.157,114.483 528.5,112.5C 538.833,112.5 549.167,112.5 559.5,112.5C 559.5,108.167 559.5,103.833 559.5,99.5C 556.813,99.6641 554.146,99.4974 551.5,99C 552.044,98.2828 552.711,97.7828 553.5,97.5 Z"/></g>
<g><path style="opacity:1" fill="#707fa8" d="M 480.5,112.5 C 490.5,112.5 500.5,112.5 510.5,112.5C 510.768,114.099 510.434,115.432 509.5,116.5C 509.5,115.5 509.5,114.5 509.5,113.5C 503.167,113.5 496.833,113.5 490.5,113.5C 486.958,113.813 483.625,113.479 480.5,112.5 Z"/></g>
<g><path style="opacity:1" fill="#3e599c" d="M 490.5,113.5 C 496.833,113.5 503.167,113.5 509.5,113.5C 509.5,114.5 509.5,115.5 509.5,116.5C 501.583,116.731 493.583,116.731 485.5,116.5C 487.531,116.028 489.198,115.028 490.5,113.5 Z"/></g>
<g><path style="opacity:1" fill="#2c4ea2" d="M 784.5,109.5 C 783.962,111.117 783.629,112.784 783.5,114.5C 780.507,115.135 777.507,115.301 774.5,115C 773.167,114 773.167,113 774.5,112C 772.527,111.505 770.527,111.338 768.5,111.5C 768.167,111.5 767.833,111.5 767.5,111.5C 772.735,109.55 778.402,108.883 784.5,109.5 Z"/></g>
<g><path style="opacity:1" fill="#2e5696" d="M 768.5,111.5 C 770.527,111.338 772.527,111.505 774.5,112C 773.167,113 773.167,114 774.5,115C 777.507,115.301 780.507,115.135 783.5,114.5C 783.768,116.099 783.434,117.432 782.5,118.5C 777.637,118.819 772.97,118.486 768.5,117.5C 769.478,117.189 770.145,116.522 770.5,115.5C 769.37,114.378 768.703,113.044 768.5,111.5 Z"/></g>
<g><path style="opacity:1" fill="#305597" d="M 319.5,94.5 C 334.339,93.1738 349.339,93.1738 364.5,94.5C 363.268,97.3004 362.601,100.3 362.5,103.5C 362.667,106.167 362.833,108.833 363,111.5C 364.657,114.16 366.324,114.16 368,111.5C 369.333,112.167 370.667,112.833 372,113.5C 373.077,112.571 374.244,111.904 375.5,111.5C 375.5,112.5 375.5,113.5 375.5,114.5C 370.833,114.5 366.167,114.5 361.5,114.5C 361.5,120.833 361.5,127.167 361.5,133.5C 365.167,133.5 368.833,133.5 372.5,133.5C 372.01,139.809 370.677,145.809 368.5,151.5C 368.073,147.176 367.739,142.842 367.5,138.5C 368.5,138.5 369.5,138.5 370.5,138.5C 370.5,137.167 370.5,135.833 370.5,134.5C 367.167,135.833 363.833,135.833 360.5,134.5C 360.5,136.833 360.5,139.167 360.5,141.5C 362.451,141.227 363.951,141.893 365,143.5C 365.498,146.817 365.665,150.15 365.5,153.5C 364.167,153.5 362.833,153.5 361.5,153.5C 362.553,150.148 362.553,146.815 361.5,143.5C 360.83,145.291 360.163,146.958 359.5,148.5C 359.5,142.167 359.5,135.833 359.5,129.5C 356.5,129.5 353.5,129.5 350.5,129.5C 350.5,123.5 350.5,117.5 350.5,111.5C 354.167,111.5 357.833,111.5 361.5,111.5C 361.5,105.833 361.5,100.167 361.5,94.5C 347.5,94.5 333.5,94.5 319.5,94.5 Z"/></g>
<g><path style="opacity:1" fill="#8597c2" d="M 752.5,114.5 C 753.451,115.919 753.784,117.585 753.5,119.5C 748.833,119.5 744.167,119.5 739.5,119.5C 743.634,118.515 747.968,118.182 752.5,118.5C 752.5,117.167 752.5,115.833 752.5,114.5 Z"/></g>
<g><path style="opacity:1" fill="#8e9dc9" d="M 768.5,117.5 C 772.97,118.486 777.637,118.819 782.5,118.5C 777.695,119.487 772.695,119.821 767.5,119.5C 767.328,118.508 767.662,117.842 768.5,117.5 Z"/></g>
<g><path style="opacity:1" fill="#879bc3" d="M 797.5,116.5 C 801.373,118.43 805.706,119.097 810.5,118.5C 810.5,121.5 810.5,124.5 810.5,127.5C 810.768,129.099 810.434,130.432 809.5,131.5C 809.5,130.833 809.5,130.167 809.5,129.5C 809.5,128.833 809.5,128.167 809.5,127.5C 809.5,124.833 809.5,122.167 809.5,119.5C 804.821,119.666 800.155,119.499 795.5,119C 796.066,118.005 796.733,117.172 797.5,116.5 Z"/></g>
<g><path style="opacity:1" fill="#2f569b" d="M 699.5,135.5 C 700.117,135.389 700.617,135.056 701,134.5C 701.49,135.793 701.657,137.127 701.5,138.5C 704.167,138.5 706.833,138.5 709.5,138.5C 709.5,141.833 709.5,145.167 709.5,148.5C 705.5,148.5 701.5,148.5 697.5,148.5C 697.5,153.833 697.5,159.167 697.5,164.5C 695.744,163.448 695.077,161.781 695.5,159.5C 692.5,159.5 689.5,159.5 686.5,159.5C 686.828,164.875 686.495,170.208 685.5,175.5C 684.294,165.869 683.627,156.203 683.5,146.5C 682.325,146.281 681.325,146.614 680.5,147.5C 681.818,156.961 681.818,166.295 680.5,175.5C 680.5,167.167 680.5,158.833 680.5,150.5C 678.097,149.869 675.764,148.869 673.5,147.5C 672.476,148.853 671.143,149.52 669.5,149.5C 669.354,146.446 670.687,144.446 673.5,143.5C 676.041,144.649 678.541,144.649 681,143.5C 682.971,139.26 684.305,134.927 685,130.5C 678.712,128.777 672.546,126.611 666.5,124C 672.157,123.501 677.824,123.334 683.5,123.5C 683.5,119.167 683.5,114.833 683.5,110.5C 683.5,110.167 683.5,109.833 683.5,109.5C 685.17,109.751 686.67,110.418 688,111.5C 689,108.5 690,105.5 691,102.5C 692.011,101.663 693.178,101.33 694.5,101.5C 692.983,106.215 691.15,110.881 689,115.5C 687.846,116.743 686.512,117.743 685,118.5C 684.517,119.448 684.351,120.448 684.5,121.5C 686.57,121.551 688.403,120.885 690,119.5C 690.5,119.833 691,120.167 691.5,120.5C 690.626,122.747 690.292,125.08 690.5,127.5C 689.5,127.5 688.5,127.5 687.5,127.5C 687.632,136.279 687.466,144.946 687,153.5C 687.249,152.376 687.749,151.376 688.5,150.5C 688.833,150.667 689.167,150.833 689.5,151C 690.289,153.365 691.456,155.532 693,157.5C 694.248,152.753 696.082,148.253 698.5,144C 696.866,143.506 695.199,143.34 693.5,143.5C 693.5,142.5 693.5,141.5 693.5,140.5C 695.5,140.5 697.5,140.5 699.5,140.5C 699.5,138.833 699.5,137.167 699.5,135.5 Z"/></g>
<g><path style="opacity:1" fill="#dcdfed" d="M 530.5,116.5 C 538.5,116.5 546.5,116.5 554.5,116.5C 554.5,131.5 554.5,146.5 554.5,161.5C 549.833,161.5 545.167,161.5 540.5,161.5C 539.167,161.5 537.833,161.5 536.5,161.5C 536.5,161.167 536.5,160.833 536.5,160.5C 542.176,160.666 547.843,160.499 553.5,160C 552.51,145.912 552.176,131.745 552.5,117.5C 544.981,117.825 537.648,117.492 530.5,116.5 Z"/></g>
<g><path style="opacity:1" fill="#dfe3ee" d="M 723.5,101.5 C 729.167,101.5 734.833,101.5 740.5,101.5C 740.5,106.833 740.5,112.167 740.5,117.5C 732.167,117.5 723.833,117.5 715.5,117.5C 715.714,119.144 715.38,120.644 714.5,122C 722.159,122.5 729.826,122.666 737.5,122.5C 737.5,127.833 737.5,133.167 737.5,138.5C 734.5,138.5 731.5,138.5 728.5,138.5C 728.5,141.833 728.5,145.167 728.5,148.5C 732.167,148.5 735.833,148.5 739.5,148.5C 739.5,153.833 739.5,159.167 739.5,164.5C 735.833,164.5 732.167,164.5 728.5,164.5C 728.5,169.833 728.5,175.167 728.5,180.5C 731.945,179.907 735.279,178.907 738.5,177.5C 741.998,179.491 743.498,182.491 743,186.5C 735.588,193.425 727.088,198.425 717.5,201.5C 720.429,199.46 723.596,197.46 727,195.5C 727.448,193.591 726.615,192.424 724.5,192C 727.482,191.502 730.482,191.335 733.5,191.5C 733.5,190.167 733.5,188.833 733.5,187.5C 730.223,187.216 727.057,187.549 724,188.5C 723.493,186.165 724.16,184.165 726,182.5C 726.807,176.584 726.641,170.75 725.5,165C 727.321,163.257 729.321,161.757 731.5,160.5C 732.499,163.174 734.166,163.841 736.5,162.5C 737.833,158.833 737.833,155.167 736.5,151.5C 733.579,150.593 730.579,150.26 727.5,150.5C 726.603,145.86 726.436,141.194 727,136.5C 730.022,135.763 733.022,136.096 736,137.5C 736.667,134.5 736.667,131.5 736,128.5C 735.444,130.595 734.944,130.762 734.5,129C 735.148,127.56 735.481,126.06 735.5,124.5C 727.833,124.5 720.167,124.5 712.5,124.5C 712.779,121.882 713.446,119.382 714.5,117C 722.827,116.5 731.16,116.334 739.5,116.5C 739.5,115.5 739.5,114.5 739.5,113.5C 734.421,113.218 734.254,112.218 739,110.5C 739.497,107.854 739.664,105.187 739.5,102.5C 733.974,102.821 728.64,102.488 723.5,101.5 Z"/></g>
<g><path style="opacity:1" fill="#f3ecdc" d="M 766.5,111.5 C 766.833,111.5 767.167,111.5 767.5,111.5C 767.833,111.5 768.167,111.5 768.5,111.5C 768.703,113.044 769.37,114.378 770.5,115.5C 770.145,116.522 769.478,117.189 768.5,117.5C 767.662,117.842 767.328,118.508 767.5,119.5C 767.5,121.167 767.5,122.833 767.5,124.5C 769.199,124.66 770.866,124.494 772.5,124C 773.641,123.259 773.641,122.425 772.5,121.5C 776.122,120.341 779.789,120.175 783.5,121C 774.395,122.692 774.395,123.859 783.5,124.5C 783.5,125.833 783.5,127.167 783.5,128.5C 788.844,128.666 794.177,128.499 799.5,128C 796.709,125.223 797.375,123.723 801.5,123.5C 801.5,124.833 801.5,126.167 801.5,127.5C 802.5,127.5 803.5,127.5 804.5,127.5C 804.5,125.167 804.5,122.833 804.5,120.5C 805.833,120.5 807.167,120.5 808.5,120.5C 808.198,123.059 808.532,125.393 809.5,127.5C 809.5,128.167 809.5,128.833 809.5,129.5C 787.879,130.478 766.212,130.811 744.5,130.5C 744.5,129.5 744.5,128.5 744.5,127.5C 768.692,128.648 775.025,128.648 763.5,127.5C 763.5,125.167 763.5,122.833 763.5,120.5C 762.5,120.5 761.5,120.5 760.5,120.5C 760.5,122.833 760.5,125.167 760.5,127.5C 758.833,127.5 757.167,127.5 755.5,127.5C 755.5,126.5 755.5,125.5 755.5,124.5C 753.063,124.756 750.729,125.423 748.5,126.5C 747.692,126.192 747.025,125.692 746.5,125C 747.649,123.256 748.983,123.089 750.5,124.5C 751.833,123.5 751.833,122.5 750.5,121.5C 747.834,122.738 745.168,122.738 742.5,121.5C 746.459,120.673 750.459,120.173 754.5,120C 754.379,116.911 754.713,113.744 755.5,110.5C 756.5,110.167 757.5,109.833 758.5,109.5C 761.067,110.664 763.734,111.33 766.5,111.5 Z"/></g>
<g><path style="opacity:1" fill="#aebccf" d="M 431.5,132.5 C 419.678,133.495 407.678,133.828 395.5,133.5C 395.5,134.833 395.5,136.167 395.5,137.5C 401.358,137.178 407.025,137.511 412.5,138.5C 406.5,138.5 400.5,138.5 394.5,138.5C 394.5,136.5 394.5,134.5 394.5,132.5C 406.833,132.5 419.167,132.5 431.5,132.5 Z"/></g>
<g><path style="opacity:1" fill="#b0bfda" d="M 602.5,135.5 C 602.5,136.167 602.5,136.833 602.5,137.5C 601.504,152.991 601.17,168.658 601.5,184.5C 600.503,166.674 600.17,148.674 600.5,130.5C 590.833,130.5 581.167,130.5 571.5,130.5C 571.5,135.5 571.5,140.5 571.5,145.5C 575.371,145.185 579.038,145.518 582.5,146.5C 578.5,146.5 574.5,146.5 570.5,146.5C 570.5,140.833 570.5,135.167 570.5,129.5C 580.833,129.5 591.167,129.5 601.5,129.5C 601.205,131.735 601.539,133.735 602.5,135.5 Z"/></g>
<g><path style="opacity:1" fill="#345696" d="M 752.5,109.5 C 752.5,111.167 752.5,112.833 752.5,114.5C 752.5,115.833 752.5,117.167 752.5,118.5C 747.968,118.182 743.634,118.515 739.5,119.5C 739.5,123.5 739.5,127.5 739.5,131.5C 762.833,131.5 786.167,131.5 809.5,131.5C 810.434,130.432 810.768,129.099 810.5,127.5C 812.143,127.52 813.476,126.853 814.5,125.5C 814.168,127.748 814.168,130.082 814.5,132.5C 812.827,134.086 810.827,134.753 808.5,134.5C 807.866,147.85 807.533,161.183 807.5,174.5C 810.597,175.194 810.931,176.194 808.5,177.5C 805.807,175.73 802.807,175.063 799.5,175.5C 799.5,176.5 799.5,177.5 799.5,178.5C 802.187,178.336 804.854,178.503 807.5,179C 807.33,180.57 806.997,182.403 806.5,184.5C 808.527,184.338 810.527,184.505 812.5,185C 812.955,187.312 813.955,189.312 815.5,191C 812.616,196.605 809.616,202.105 806.5,207.5C 804.323,207.414 802.323,206.747 800.5,205.5C 797.926,207.634 795.259,207.968 792.5,206.5C 790.416,205.524 787.75,204.524 784.5,203.5C 791.175,203.666 797.842,203.5 804.5,203C 806.32,202.8 807.653,201.966 808.5,200.5C 809.736,198.351 810.736,196.018 811.5,193.5C 812.468,191.393 812.802,189.059 812.5,186.5C 809.794,186.425 807.127,186.092 804.5,185.5C 804.5,183.5 804.5,181.5 804.5,179.5C 803.167,179.5 801.833,179.5 800.5,179.5C 800.5,182.833 800.5,186.167 800.5,189.5C 799.5,189.5 798.5,189.5 797.5,189.5C 797.5,184.5 797.5,179.5 797.5,174.5C 799.833,174.5 802.167,174.5 804.5,174.5C 805.83,168.202 806.497,161.535 806.5,154.5C 806.5,147.658 806.166,140.991 805.5,134.5C 793.495,134.333 781.495,134.5 769.5,135C 766.388,135.625 764.555,137.458 764,140.5C 763.505,138.527 763.338,136.527 763.5,134.5C 757.5,134.5 751.5,134.5 745.5,134.5C 745.5,147.833 745.5,161.167 745.5,174.5C 744.751,162.649 744.084,150.649 743.5,138.5C 741.5,138.5 739.5,138.5 737.5,138.5C 737.5,133.167 737.5,127.833 737.5,122.5C 729.826,122.666 722.159,122.5 714.5,122C 715.38,120.644 715.714,119.144 715.5,117.5C 723.833,117.5 732.167,117.5 740.5,117.5C 741.473,115.052 741.806,112.385 741.5,109.5C 745.167,109.5 748.833,109.5 752.5,109.5 Z"/></g>
<g><path style="opacity:1" fill="#f3ece5" d="M 472.5,117.5 C 475.5,117.5 478.5,117.5 481.5,117.5C 481.5,123.167 481.5,128.833 481.5,134.5C 478.167,134.5 474.833,134.5 471.5,134.5C 471.5,158.167 471.5,181.833 471.5,205.5C 465.5,205.5 459.5,205.5 453.5,205.5C 453.5,181.833 453.5,158.167 453.5,134.5C 450.167,134.5 446.833,134.5 443.5,134.5C 443.5,129.833 443.5,125.167 443.5,120.5C 446.747,119.748 450.081,119.248 453.5,119C 454,118.5 454.5,118 455,117.5C 454.595,109.226 454.428,100.893 454.5,92.5C 459.875,92.1718 465.208,92.5052 470.5,93.5C 470.68,101.344 470.347,109.344 469.5,117.5C 470.5,117.5 471.5,117.5 472.5,117.5 Z"/></g>
<g><path style="opacity:1" fill="#30579c" d="M 485.5,116.5 C 485.5,131.5 485.5,146.5 485.5,161.5C 491.5,161.5 497.5,161.5 503.5,161.5C 503.5,160.5 503.5,159.5 503.5,158.5C 506.665,157.964 509.331,158.797 511.5,161C 517.157,161.499 522.824,161.666 528.5,161.5C 531.08,159.006 533.747,159.006 536.5,161.5C 537.833,161.5 539.167,161.5 540.5,161.5C 542.167,162.167 543.833,162.833 545.5,163.5C 539.5,163.5 533.5,163.5 527.5,163.5C 527.5,164.5 527.5,165.5 527.5,166.5C 510.833,166.5 494.167,166.5 477.5,166.5C 477.5,171.167 477.5,175.833 477.5,180.5C 481.971,179.911 485.971,180.577 489.5,182.5C 489.196,183.15 488.863,183.817 488.5,184.5C 489.524,185.852 490.524,187.185 491.5,188.5C 490.504,188.414 489.671,188.748 489,189.5C 486.385,187.861 483.552,186.527 480.5,185.5C 482.396,184.534 484.396,184.201 486.5,184.5C 486.5,183.5 486.5,182.5 486.5,181.5C 483.606,181.042 481.106,181.709 479,183.5C 478.586,183.043 478.086,182.709 477.5,182.5C 476.67,176.862 476.17,171.196 476,165.5C 475.667,165.833 475.333,166.167 475,166.5C 473.872,179.245 473.039,191.912 472.5,204.5C 472.5,181.5 472.5,158.5 472.5,135.5C 475.713,135.81 478.713,135.477 481.5,134.5C 481.5,128.833 481.5,123.167 481.5,117.5C 482.653,123.653 482.82,129.986 482,136.5C 479.242,136.489 476.409,136.823 473.5,137.5C 473.887,138.72 474.72,139.387 476,139.5C 478.724,138.162 479.891,139.162 479.5,142.5C 473.833,142.664 473.5,142.997 478.5,143.5C 478.768,149.382 478.434,155.215 477.5,161C 479.225,163.473 481.392,163.973 484,162.5C 484.169,146.995 484.669,131.661 485.5,116.5 Z"/></g>
<g><path style="opacity:1" fill="#f1eae6" d="M 673.5,86.5 C 674.657,91.4616 675.657,96.4616 676.5,101.5C 668.872,102.578 661.206,103.245 653.5,103.5C 652.532,105.607 652.198,107.941 652.5,110.5C 662.833,110.5 673.167,110.5 683.5,110.5C 683.5,114.833 683.5,119.167 683.5,123.5C 677.824,123.334 672.157,123.501 666.5,124C 672.546,126.611 678.712,128.777 685,130.5C 684.305,134.927 682.971,139.26 681,143.5C 678.541,144.649 676.041,144.649 673.5,143.5C 672.035,142.263 670.368,141.263 668.5,140.5C 663.068,137.692 658.235,134.026 654,129.5C 653.502,132.817 653.335,136.15 653.5,139.5C 647.167,139.5 640.833,139.5 634.5,139.5C 634.799,137.396 634.466,135.396 633.5,133.5C 630.1,135.856 626.767,138.189 623.5,140.5C 621.692,140.491 620.025,140.991 618.5,142C 635.163,142.5 651.83,142.667 668.5,142.5C 667.908,145.127 667.575,147.794 667.5,150.5C 671.833,150.5 676.167,150.5 680.5,150.5C 680.5,158.833 680.5,167.167 680.5,175.5C 678.75,176.659 677.75,178.326 677.5,180.5C 675.628,181.511 673.628,182.345 671.5,183C 666.177,183.499 660.844,183.666 655.5,183.5C 655.977,180.083 654.977,177.416 652.5,175.5C 652.167,175.5 651.833,175.5 651.5,175.5C 651.5,174.167 651.5,172.833 651.5,171.5C 655.371,171.815 659.038,171.482 662.5,170.5C 662.5,167.833 662.5,165.167 662.5,162.5C 657.833,162.5 653.167,162.5 648.5,162.5C 649.092,159.873 649.425,157.206 649.5,154.5C 646.482,154.335 643.482,154.502 640.5,155C 637.466,166.201 631.133,175.034 621.5,181.5C 618.965,182.349 616.465,183.349 614,184.5C 610.465,182.649 608.132,179.982 607,176.5C 609.04,174.63 610.873,172.63 612.5,170.5C 613.794,169.71 614.961,168.71 616,167.5C 618.57,163.56 620.07,159.227 620.5,154.5C 618.167,154.5 615.833,154.5 613.5,154.5C 613.5,150.833 613.5,147.167 613.5,143.5C 610.426,143.873 607.426,144.539 604.5,145.5C 604.037,142.779 603.371,140.112 602.5,137.5C 602.5,136.833 602.5,136.167 602.5,135.5C 608.333,132.412 613.667,128.578 618.5,124C 614.179,123.501 609.846,123.334 605.5,123.5C 605.5,119.5 605.5,115.5 605.5,111.5C 615.265,110.857 624.932,110.19 634.5,109.5C 634.5,107.5 634.5,105.5 634.5,103.5C 627.167,103.5 619.833,103.5 612.5,103.5C 612.5,100.167 612.5,96.8333 612.5,93.5C 632.823,91.0847 653.156,88.7513 673.5,86.5 Z"/></g>
<g><path style="opacity:1" fill="#2f5399" d="M 668.5,140.5 C 653.5,141.833 638.5,141.833 623.5,140.5C 626.767,138.189 630.1,135.856 633.5,133.5C 634.466,135.396 634.799,137.396 634.5,139.5C 640.833,139.5 647.167,139.5 653.5,139.5C 653.335,136.15 653.502,132.817 654,129.5C 658.235,134.026 663.068,137.692 668.5,140.5 Z"/></g>
<g><path style="opacity:1" fill="#f2eae5" d="M 421.5,113.5 C 424.625,114.479 427.958,114.813 431.5,114.5C 431.5,120.5 431.5,126.5 431.5,132.5C 419.167,132.5 406.833,132.5 394.5,132.5C 394.5,134.5 394.5,136.5 394.5,138.5C 400.5,138.5 406.5,138.5 412.5,138.5C 412.335,142.182 412.501,145.848 413,149.5C 414.709,146.582 416.542,143.748 418.5,141C 420.066,140.7 421.399,141.2 422.5,142.5C 422.842,143.338 423.508,143.672 424.5,143.5C 427.373,146.111 430.039,148.944 432.5,152C 426.705,160.292 420.372,168.125 413.5,175.5C 412.511,179.107 412.177,182.774 412.5,186.5C 414.833,186.5 417.167,186.5 419.5,186.5C 419.5,182.167 419.5,177.833 419.5,173.5C 421.167,173.5 422.833,173.5 424.5,173.5C 424.5,175.833 424.5,178.167 424.5,180.5C 428.154,180.942 431.821,181.276 435.5,181.5C 435.834,189.333 433.501,196.166 428.5,202C 419.576,203.58 410.576,203.913 401.5,203C 398.301,200.056 395.468,196.89 393,193.5C 389.365,195.727 385.865,198.06 382.5,200.5C 379.328,197.817 377.495,194.484 377,190.5C 382.67,185.663 388.17,180.663 393.5,175.5C 394.659,164.007 394.826,152.341 394,140.5C 393.187,142.436 392.687,144.436 392.5,146.5C 387.379,170.145 375.379,189.645 356.5,205C 352.078,204.257 348.745,201.757 346.5,197.5C 348.473,194.36 350.64,191.36 353,188.5C 354.541,186.523 355.041,184.523 354.5,182.5C 343.952,188.683 332.619,192.683 320.5,194.5C 320.27,189.119 319.604,183.786 318.5,178.5C 318.403,175.089 320.07,173.755 323.5,174.5C 325.833,174.5 328.167,174.5 330.5,174.5C 330.5,165.5 330.5,156.5 330.5,147.5C 327.5,147.5 324.5,147.5 321.5,147.5C 321.5,141.833 321.5,136.167 321.5,130.5C 324.5,130.5 327.5,130.5 330.5,130.5C 330.823,123.978 330.49,117.645 329.5,111.5C 326.167,111.5 322.833,111.5 319.5,111.5C 319.5,105.833 319.5,100.167 319.5,94.5C 333.5,94.5 347.5,94.5 361.5,94.5C 361.5,100.167 361.5,105.833 361.5,111.5C 357.833,111.5 354.167,111.5 350.5,111.5C 349.51,117.645 349.177,123.978 349.5,130.5C 352.5,130.5 355.5,130.5 358.5,130.5C 358.5,135.833 358.5,141.167 358.5,146.5C 356.208,146.244 354.041,146.577 352,147.5C 351.667,146.167 351.333,144.833 351,143.5C 348.51,152.633 347.843,161.966 349,171.5C 349.667,172.833 350.333,174.167 351,175.5C 351.483,174.552 351.649,173.552 351.5,172.5C 354.872,171.551 358.205,171.551 361.5,172.5C 362.298,172.043 362.631,171.376 362.5,170.5C 364.013,166.12 365.68,161.787 367.5,157.5C 368.15,155.565 368.483,153.565 368.5,151.5C 370.677,145.809 372.01,139.809 372.5,133.5C 368.833,133.5 365.167,133.5 361.5,133.5C 361.5,127.167 361.5,120.833 361.5,114.5C 366.167,114.5 370.833,114.5 375.5,114.5C 375.5,113.5 375.5,112.5 375.5,111.5C 375.5,108.833 375.5,106.167 375.5,103.5C 376.482,100.038 376.815,96.3714 376.5,92.5C 383.167,92.5 389.833,92.5 396.5,92.5C 396.5,99.8333 396.5,107.167 396.5,114.5C 401.544,114.827 406.544,114.494 411.5,113.5C 408.596,108.259 404.929,103.593 400.5,99.5C 402.791,96.5401 405.291,93.8735 408,91.5C 415.908,94.868 423.075,99.368 429.5,105C 426.629,107.703 423.962,110.536 421.5,113.5 Z"/></g>
<g><path style="opacity:1" fill="#2952a6" d="M 368.5,151.5 C 368.483,153.565 368.15,155.565 367.5,157.5C 363.528,158.108 359.528,158.608 355.5,159C 356.448,159.483 357.448,159.649 358.5,159.5C 358.5,161.167 358.5,162.833 358.5,164.5C 356.801,164.34 355.134,164.506 353.5,165C 354.337,166.011 354.67,167.178 354.5,168.5C 353.5,168.5 352.5,168.5 351.5,168.5C 351.334,164.154 351.501,159.821 352,155.5C 353.744,154.351 353.911,153.017 352.5,151.5C 354.621,149.982 356.954,148.982 359.5,148.5C 360.163,146.958 360.83,145.291 361.5,143.5C 362.553,146.815 362.553,150.148 361.5,153.5C 362.833,153.5 364.167,153.5 365.5,153.5C 365.665,150.15 365.498,146.817 365,143.5C 363.951,141.893 362.451,141.227 360.5,141.5C 360.5,139.167 360.5,136.833 360.5,134.5C 363.833,135.833 367.167,135.833 370.5,134.5C 370.5,135.833 370.5,137.167 370.5,138.5C 369.5,138.5 368.5,138.5 367.5,138.5C 367.739,142.842 368.073,147.176 368.5,151.5 Z"/></g>
<g><path style="opacity:1" fill="#305596" d="M 359.5,148.5 C 356.954,148.982 354.621,149.982 352.5,151.5C 353.911,153.017 353.744,154.351 352,155.5C 351.501,159.821 351.334,164.154 351.5,168.5C 352.5,168.5 353.5,168.5 354.5,168.5C 354.67,167.178 354.337,166.011 353.5,165C 355.134,164.506 356.801,164.34 358.5,164.5C 358.5,162.833 358.5,161.167 358.5,159.5C 357.448,159.649 356.448,159.483 355.5,159C 359.528,158.608 363.528,158.108 367.5,157.5C 365.68,161.787 364.013,166.12 362.5,170.5C 358.542,169.55 354.542,169.55 350.5,170.5C 350.5,163.167 350.5,155.833 350.5,148.5C 353.5,148.5 356.5,148.5 359.5,148.5 Z"/></g>
<g><path style="opacity:1" fill="#7086ad" d="M 329.5,111.5 C 330.49,117.645 330.823,123.978 330.5,130.5C 327.5,130.5 324.5,130.5 321.5,130.5C 321.5,136.167 321.5,141.833 321.5,147.5C 324.5,147.5 327.5,147.5 330.5,147.5C 330.5,156.5 330.5,165.5 330.5,174.5C 328.167,174.5 325.833,174.5 323.5,174.5C 325.265,173.539 327.265,173.205 329.5,173.5C 329.5,165.167 329.5,156.833 329.5,148.5C 326.5,148.5 323.5,148.5 320.5,148.5C 320.5,142.167 320.5,135.833 320.5,129.5C 323.5,129.5 326.5,129.5 329.5,129.5C 329.5,123.5 329.5,117.5 329.5,111.5 Z"/></g>
<g><path style="opacity:1" fill="#d6dced" d="M 350.5,111.5 C 350.5,117.5 350.5,123.5 350.5,129.5C 353.5,129.5 356.5,129.5 359.5,129.5C 359.5,135.833 359.5,142.167 359.5,148.5C 356.5,148.5 353.5,148.5 350.5,148.5C 350.5,155.833 350.5,163.167 350.5,170.5C 354.542,169.55 358.542,169.55 362.5,170.5C 362.631,171.376 362.298,172.043 361.5,172.5C 358.205,171.551 354.872,171.551 351.5,172.5C 351.649,173.552 351.483,174.552 351,175.5C 350.333,174.167 349.667,172.833 349,171.5C 347.843,161.966 348.51,152.633 351,143.5C 351.333,144.833 351.667,146.167 352,147.5C 354.041,146.577 356.208,146.244 358.5,146.5C 358.5,141.167 358.5,135.833 358.5,130.5C 355.5,130.5 352.5,130.5 349.5,130.5C 349.177,123.978 349.51,117.645 350.5,111.5 Z"/></g>
<g><path style="opacity:1" fill="#bbc7e7" d="M 805.5,134.5 C 806.166,140.991 806.5,147.658 806.5,154.5C 806.497,161.535 805.83,168.202 804.5,174.5C 805.481,161.246 805.814,147.913 805.5,134.5 Z"/></g>
<g><path style="opacity:1" fill="#92a3bd" d="M 393.5,175.5 C 393.827,165.652 393.494,155.986 392.5,146.5C 392.687,144.436 393.187,142.436 394,140.5C 394.826,152.341 394.659,164.007 393.5,175.5 Z"/></g>
<g><path style="opacity:1" fill="#f0e9e7" d="M 805.5,134.5 C 805.814,147.913 805.481,161.246 804.5,174.5C 802.167,174.5 799.833,174.5 797.5,174.5C 797.5,179.5 797.5,184.5 797.5,189.5C 798.5,189.5 799.5,189.5 800.5,189.5C 800.5,186.167 800.5,182.833 800.5,179.5C 801.833,179.5 803.167,179.5 804.5,179.5C 804.5,181.5 804.5,183.5 804.5,185.5C 807.127,186.092 809.794,186.425 812.5,186.5C 812.802,189.059 812.468,191.393 811.5,193.5C 809.434,186.199 805.934,185.532 801,191.5C 799.374,191.146 797.541,191.146 795.5,191.5C 795.828,186.125 795.495,180.792 794.5,175.5C 791.331,172.949 787.664,171.449 783.5,171C 785.39,169.888 787.39,169.054 789.5,168.5C 791.167,169.833 792.833,169.833 794.5,168.5C 797.679,170.069 801.012,171.069 804.5,171.5C 804.5,169.833 804.5,168.167 804.5,166.5C 802.799,166.034 801.299,166.034 800,166.5C 799.902,164.381 799.069,162.714 797.5,161.5C 795.051,161.98 792.885,162.98 791,164.5C 790.586,164.043 790.086,163.709 789.5,163.5C 781.521,164.198 773.521,164.865 765.5,165.5C 761.364,164.261 760.698,162.261 763.5,159.5C 763.5,160.5 763.5,161.5 763.5,162.5C 771.5,162.5 779.5,162.5 787.5,162.5C 787.5,161.5 787.5,160.5 787.5,159.5C 791.514,159.666 795.514,159.499 799.5,159C 795.08,157.957 790.746,156.624 786.5,155C 790.819,154.924 795.152,155.091 799.5,155.5C 799.5,154.5 799.5,153.5 799.5,152.5C 794.167,151.833 794.167,151.167 799.5,150.5C 799.5,149.5 799.5,148.5 799.5,147.5C 795.909,147.312 792.576,148.145 789.5,150C 780.167,150.667 770.833,150.667 761.5,150C 760.54,148.581 759.707,147.081 759,145.5C 757.956,146.623 757.29,147.956 757,149.5C 755.374,149.146 753.541,149.146 751.5,149.5C 751.5,148.167 751.5,146.833 751.5,145.5C 754.789,144.59 758.122,143.59 761.5,142.5C 760.626,140.253 760.292,137.92 760.5,135.5C 757.102,135.18 753.768,135.513 750.5,136.5C 750.833,137.167 751.167,137.833 751.5,138.5C 759.663,140.952 759.329,142.619 750.5,143.5C 749.505,148.792 749.172,154.125 749.5,159.5C 748.5,159.5 747.5,159.5 746.5,159.5C 746.18,162.898 746.513,166.232 747.5,169.5C 748.736,170.246 750.07,170.579 751.5,170.5C 751.5,169.5 751.5,168.5 751.5,167.5C 753.821,167.229 755.821,167.896 757.5,169.5C 758.086,169.291 758.586,168.957 759,168.5C 760.24,175.489 762.407,175.989 765.5,170C 762.668,168.092 763.001,167.259 766.5,167.5C 766.684,171.079 766.017,174.413 764.5,177.5C 765.5,177.5 766.5,177.5 767.5,177.5C 767.5,176.167 767.5,174.833 767.5,173.5C 772.833,173.5 778.167,173.5 783.5,173.5C 783.662,175.527 783.495,177.527 783,179.5C 782.51,178.207 782.343,176.873 782.5,175.5C 781.5,175.5 780.5,175.5 779.5,175.5C 779.294,181.865 779.627,188.198 780.5,194.5C 782.907,201.262 783.907,200.929 783.5,193.5C 790.305,193.185 796.971,193.852 803.5,195.5C 803.5,197.167 803.5,198.833 803.5,200.5C 805.167,200.5 806.833,200.5 808.5,200.5C 807.653,201.966 806.32,202.8 804.5,203C 797.842,203.5 791.175,203.666 784.5,203.5C 780.964,202.119 779.13,199.452 779,195.5C 778.5,188.508 778.334,181.508 778.5,174.5C 776.856,174.286 775.356,174.62 774,175.5C 770.211,190.792 760.711,200.792 745.5,205.5C 743.196,203.062 741.53,200.229 740.5,197C 743.653,193.178 746.82,189.345 750,185.5C 752.332,182.178 753.498,178.511 753.5,174.5C 750.833,174.5 748.167,174.5 745.5,174.5C 745.5,161.167 745.5,147.833 745.5,134.5C 751.5,134.5 757.5,134.5 763.5,134.5C 763.338,136.527 763.505,138.527 764,140.5C 764.555,137.458 766.388,135.625 769.5,135C 781.495,134.5 793.495,134.333 805.5,134.5 Z"/></g>
<g><path style="opacity:1" fill="#395a97" d="M 763.5,159.5 C 771.5,159.5 779.5,159.5 787.5,159.5C 787.5,160.5 787.5,161.5 787.5,162.5C 779.5,162.5 771.5,162.5 763.5,162.5C 763.5,161.5 763.5,160.5 763.5,159.5 Z"/></g>
<g><path style="opacity:1" fill="#3e5d9c" d="M 763.5,146.5 C 771.833,146.5 780.167,146.5 788.5,146.5C 788.5,147.5 788.5,148.5 788.5,149.5C 780.167,149.5 771.833,149.5 763.5,149.5C 763.5,148.5 763.5,147.5 763.5,146.5 Z"/></g>
<g><path style="opacity:1" fill="#3e5d9d" d="M 602.5,137.5 C 603.371,140.112 604.037,142.779 604.5,145.5C 607.426,144.539 610.426,143.873 613.5,143.5C 613.5,147.167 613.5,150.833 613.5,154.5C 608.794,149.765 607.461,150.598 609.5,157C 608.734,158.797 608.068,160.631 607.5,162.5C 608.664,165.067 609.33,167.734 609.5,170.5C 610.5,170.5 611.5,170.5 612.5,170.5C 610.873,172.63 609.04,174.63 607,176.5C 608.132,179.982 610.465,182.649 614,184.5C 616.465,183.349 618.965,182.349 621.5,181.5C 620.972,182.721 620.305,183.887 619.5,185C 630.495,185.5 641.495,185.667 652.5,185.5C 651.785,182.093 651.785,178.76 652.5,175.5C 654.977,177.416 655.977,180.083 655.5,183.5C 660.844,183.666 666.177,183.499 671.5,183C 673.628,182.345 675.628,181.511 677.5,180.5C 677.056,182.113 676.056,183.28 674.5,184C 668.141,184.169 661.807,184.669 655.5,185.5C 665.325,186.167 674.992,186.833 684.5,187.5C 660.498,187.667 636.498,187.5 612.5,187C 608.653,186.367 604.986,185.533 601.5,184.5C 601.17,168.658 601.504,152.991 602.5,137.5 Z"/></g>
<g><path style="opacity:1" fill="#f2ebe6" d="M 601.5,184.5 C 604.986,185.533 608.653,186.367 612.5,187C 636.498,187.5 660.498,187.667 684.5,187.5C 685.434,188.568 685.768,189.901 685.5,191.5C 683.833,191.5 682.167,191.5 680.5,191.5C 679.833,195.5 679.167,199.5 678.5,203.5C 655.498,203.667 632.498,203.5 609.5,203C 602.285,201.309 595.785,198.142 590,193.5C 585.983,197.019 582.483,201.019 579.5,205.5C 575.101,201.432 571.435,196.765 568.5,191.5C 571.974,188.263 575.641,185.263 579.5,182.5C 580.458,182.047 581.292,181.381 582,180.5C 582.5,169.172 582.667,157.838 582.5,146.5C 579.038,145.518 575.371,145.185 571.5,145.5C 571.5,140.5 571.5,135.5 571.5,130.5C 581.167,130.5 590.833,130.5 600.5,130.5C 600.17,148.674 600.503,166.674 601.5,184.5 Z"/></g>
<g><path style="opacity:1" fill="#efe7e3" d="M 226.5,111.5 C 229.728,118.624 232.395,125.957 234.5,133.5C 254.803,142.984 275.136,152.484 295.5,162C 298.518,164.073 299.185,166.74 297.5,170C 293.188,173.16 288.521,175.827 283.5,178C 267.044,185.421 250.71,192.921 234.5,200.5C 230.572,213.851 224.906,226.351 217.5,238C 214.044,239.123 211.21,238.29 209,235.5C 205.632,229.625 202.465,223.625 199.5,217.5C 195.697,220.744 191.364,222.244 186.5,222C 182.297,217.731 182.63,213.897 187.5,210.5C 188.756,210.539 189.756,210.039 190.5,209C 182.988,208.178 175.655,208.345 168.5,209.5C 164.854,212.479 161.521,215.812 158.5,219.5C 156.253,220.374 153.92,220.708 151.5,220.5C 147.608,216.726 147.608,212.892 151.5,209C 147.703,204.814 147.703,200.814 151.5,197C 149.813,195.147 148.813,192.981 148.5,190.5C 150.039,185.144 153.372,183.644 158.5,186C 161.13,189.632 164.13,192.965 167.5,196C 176.186,196.832 184.853,196.665 193.5,195.5C 189.664,176.138 189.664,156.805 193.5,137.5C 184.827,137.334 176.16,137.5 167.5,138C 164.317,141.015 161.317,144.182 158.5,147.5C 155.833,148.833 153.167,148.833 150.5,147.5C 147.905,144.306 147.905,141.139 150.5,138C 148.112,137.697 145.945,136.863 144,135.5C 141.015,128.296 143.515,124.63 151.5,124.5C 146.405,116.854 148.405,113.354 157.5,114C 161.036,117.704 164.702,121.204 168.5,124.5C 175.655,125.655 182.988,125.822 190.5,125C 189.956,124.283 189.289,123.783 188.5,123.5C 186.418,123.376 184.918,122.376 184,120.5C 182.33,115.499 183.996,112.499 189,111.5C 192.822,112.494 196.322,114.161 199.5,116.5C 202.884,109.514 206.551,102.68 210.5,96C 212.833,95.3333 215.167,95.3333 217.5,96C 221.553,100.554 224.553,105.72 226.5,111.5 Z"/></g>
<g><path style="opacity:1" fill="#2b539f" d="M 237.5,148.5 C 250.733,154.951 264.066,161.117 277.5,167C 264.286,172.684 251.286,178.851 238.5,185.5C 238.759,173.189 238.426,160.855 237.5,148.5 Z"/></g>
<g><path style="opacity:1" fill="#2954a0" d="M 205.5,137.5 C 212.792,136.347 218.958,138.347 224,143.5C 225.548,156.791 225.881,170.125 225,183.5C 223.207,193.673 217.041,197.84 206.5,196C 204.019,186.709 202.686,177.209 202.5,167.5C 202.891,157.408 203.891,147.408 205.5,137.5 Z"/></g>
<g><path style="opacity:1" fill="#8e9ec1" d="M 188.5,123.5 C 189.289,123.783 189.956,124.283 190.5,125C 182.988,125.822 175.655,125.655 168.5,124.5C 175.354,124.824 182.021,124.491 188.5,123.5 Z"/></g>
<g><path style="opacity:1" fill="#40599f" d="M 213.5,115.5 C 214.376,115.369 215.043,115.702 215.5,116.5C 216.801,119.427 217.801,122.427 218.5,125.5C 215.833,125.5 213.167,125.5 210.5,125.5C 210.924,121.988 211.924,118.655 213.5,115.5 Z"/></g>
<g><path style="opacity:1" fill="#2b55a2" d="M 443.5,117.5 C 443.5,118.5 443.5,119.5 443.5,120.5C 443.5,125.167 443.5,129.833 443.5,134.5C 446.287,135.477 449.287,135.81 452.5,135.5C 452.169,159.006 452.502,182.339 453.5,205.5C 459.5,205.5 465.5,205.5 471.5,205.5C 472.167,205.5 472.5,205.167 472.5,204.5C 473.039,191.912 473.872,179.245 475,166.5C 475.333,166.167 475.667,165.833 476,165.5C 476.17,171.196 476.67,176.862 477.5,182.5C 478.086,182.709 478.586,183.043 479,183.5C 481.106,181.709 483.606,181.042 486.5,181.5C 486.5,182.5 486.5,183.5 486.5,184.5C 484.396,184.201 482.396,184.534 480.5,185.5C 483.552,186.527 486.385,187.861 489,189.5C 489.671,188.748 490.504,188.414 491.5,188.5C 494.811,192.147 498.145,195.813 501.5,199.5C 504.565,196.76 507.565,194.093 510.5,191.5C 511.232,192.808 512.066,194.142 513,195.5C 513.238,199.222 513.738,202.889 514.5,206.5C 519.116,208.167 519.949,207.5 517,204.5C 516.833,203.333 516.667,202.167 516.5,201C 516.309,199.027 516.976,197.527 518.5,196.5C 519.833,199.573 521.166,202.573 522.5,205.5C 529.257,205.877 535.924,205.377 542.5,204C 544.43,201.742 545.93,199.242 547,196.5C 547.499,191.177 547.666,185.844 547.5,180.5C 551.5,180.5 555.5,180.5 559.5,180.5C 560.486,176.03 560.819,171.363 560.5,166.5C 556.5,166.5 552.5,166.5 548.5,166.5C 548.737,165.209 548.404,164.209 547.5,163.5C 546.833,163.5 546.167,163.5 545.5,163.5C 543.833,162.833 542.167,162.167 540.5,161.5C 545.167,161.5 549.833,161.5 554.5,161.5C 555.117,161.389 555.617,161.056 556,160.5C 556.5,149.505 556.667,138.505 556.5,127.5C 557.5,127.5 558.5,127.5 559.5,127.5C 559.5,130.5 559.5,133.5 559.5,136.5C 561.167,136.5 562.833,136.5 564.5,136.5C 565.167,140.5 563.5,142.167 559.5,141.5C 559.5,143.833 559.5,146.167 559.5,148.5C 565.068,150.642 570.402,152.309 575.5,153.5C 575.5,152.5 575.5,151.5 575.5,150.5C 573.335,150.884 571.668,150.217 570.5,148.5C 573.889,147.815 577.222,147.482 580.5,147.5C 581.665,156.816 581.832,166.149 581,175.5C 580.801,177.402 579.967,178.902 578.5,180C 579.252,180.671 579.586,181.504 579.5,182.5C 575.641,185.263 571.974,188.263 568.5,191.5C 571.435,196.765 575.101,201.432 579.5,205.5C 582.483,201.019 585.983,197.019 590,193.5C 595.785,198.142 602.285,201.309 609.5,203C 632.498,203.5 655.498,203.667 678.5,203.5C 679.167,199.5 679.833,195.5 680.5,191.5C 682.167,191.5 683.833,191.5 685.5,191.5C 685.768,189.901 685.434,188.568 684.5,187.5C 674.992,186.833 665.325,186.167 655.5,185.5C 661.807,184.669 668.141,184.169 674.5,184C 676.056,183.28 677.056,182.113 677.5,180.5C 677.75,178.326 678.75,176.659 680.5,175.5C 681.818,166.295 681.818,156.961 680.5,147.5C 681.325,146.614 682.325,146.281 683.5,146.5C 683.627,156.203 684.294,165.869 685.5,175.5C 686.495,170.208 686.828,164.875 686.5,159.5C 689.5,159.5 692.5,159.5 695.5,159.5C 695.077,161.781 695.744,163.448 697.5,164.5C 697.611,165.117 697.944,165.617 698.5,166C 701.224,166.27 703.891,166.77 706.5,167.5C 707.495,173.128 707.829,178.794 707.5,184.5C 705.517,184.157 704.183,184.824 703.5,186.5C 704.3,193.4 706.467,199.733 710,205.5C 712.784,204.527 715.284,203.194 717.5,201.5C 727.088,198.425 735.588,193.425 743,186.5C 743.498,182.491 741.998,179.491 738.5,177.5C 735.279,178.907 731.945,179.907 728.5,180.5C 728.5,175.167 728.5,169.833 728.5,164.5C 732.167,164.5 735.833,164.5 739.5,164.5C 739.5,159.167 739.5,153.833 739.5,148.5C 735.833,148.5 732.167,148.5 728.5,148.5C 728.5,145.167 728.5,141.833 728.5,138.5C 731.5,138.5 734.5,138.5 737.5,138.5C 739.5,138.5 741.5,138.5 743.5,138.5C 744.084,150.649 744.751,162.649 745.5,174.5C 748.167,174.5 750.833,174.5 753.5,174.5C 753.498,178.511 752.332,182.178 750,185.5C 746.82,189.345 743.653,193.178 740.5,197C 741.53,200.229 743.196,203.062 745.5,205.5C 760.711,200.792 770.211,190.792 774,175.5C 775.356,174.62 776.856,174.286 778.5,174.5C 778.334,181.508 778.5,188.508 779,195.5C 779.13,199.452 780.964,202.119 784.5,203.5C 787.75,204.524 790.416,205.524 792.5,206.5C 791.761,206.369 791.094,206.536 790.5,207C 791.482,215.081 791.816,223.248 791.5,231.5C 794.167,231.5 796.833,231.5 799.5,231.5C 799.5,239.5 799.5,247.5 799.5,255.5C 802.167,255.5 804.833,255.5 807.5,255.5C 807.5,263.5 807.5,271.5 807.5,279.5C 810.167,279.5 812.833,279.5 815.5,279.5C 815.5,281.833 815.5,284.167 815.5,286.5C 652.833,286.5 490.167,286.5 327.5,286.5C 327.5,281.5 327.5,276.5 327.5,271.5C 330.167,271.5 332.833,271.5 335.5,271.5C 335.5,266.167 335.5,260.833 335.5,255.5C 338.167,255.5 340.833,255.5 343.5,255.5C 343.5,252.833 343.5,250.167 343.5,247.5C 346.167,247.5 348.833,247.5 351.5,247.5C 351.5,244.833 351.5,242.167 351.5,239.5C 354.167,239.5 356.833,239.5 359.5,239.5C 359.5,236.833 359.5,234.167 359.5,231.5C 362.167,231.5 364.833,231.5 367.5,231.5C 367.5,228.833 367.5,226.167 367.5,223.5C 370.167,223.5 372.833,223.5 375.5,223.5C 375.5,220.833 375.5,218.167 375.5,215.5C 380.833,215.5 386.167,215.5 391.5,215.5C 391.26,212.421 391.593,209.421 392.5,206.5C 390.141,205.295 387.974,205.628 386,207.5C 384.31,206.851 382.477,206.851 380.5,207.5C 380.5,206.5 380.5,205.5 380.5,204.5C 381.5,204.5 382.5,204.5 383.5,204.5C 383.768,202.901 383.434,201.568 382.5,200.5C 385.865,198.06 389.365,195.727 393,193.5C 395.468,196.89 398.301,200.056 401.5,203C 410.576,203.913 419.576,203.58 428.5,202C 433.501,196.166 435.834,189.333 435.5,181.5C 431.821,181.276 428.154,180.942 424.5,180.5C 424.5,178.167 424.5,175.833 424.5,173.5C 422.833,173.5 421.167,173.5 419.5,173.5C 419.5,177.833 419.5,182.167 419.5,186.5C 417.167,186.5 414.833,186.5 412.5,186.5C 412.177,182.774 412.511,179.107 413.5,175.5C 420.372,168.125 426.705,160.292 432.5,152C 430.039,148.944 427.373,146.111 424.5,143.5C 425.404,142.791 425.737,141.791 425.5,140.5C 428.817,140.781 431.983,140.781 435,140.5C 435.667,139.167 436.333,137.833 437,136.5C 437.527,130.468 437.86,124.468 438,118.5C 437.333,117.167 436.667,117.167 436,118.5C 435.26,124.158 434.594,129.825 434,135.5C 433.667,134.833 433.333,134.167 433,133.5C 427.917,134.307 422.75,134.807 417.5,135C 418.563,136.188 419.897,136.688 421.5,136.5C 421.517,138.565 421.85,140.565 422.5,142.5C 421.399,141.2 420.066,140.7 418.5,141C 416.542,143.748 414.709,146.582 413,149.5C 412.501,145.848 412.335,142.182 412.5,138.5C 407.025,137.511 401.358,137.178 395.5,137.5C 395.5,136.167 395.5,134.833 395.5,133.5C 407.678,133.828 419.678,133.495 431.5,132.5C 431.5,126.5 431.5,120.5 431.5,114.5C 427.958,114.813 424.625,114.479 421.5,113.5C 426.211,113.718 430.878,113.385 435.5,112.5C 437.425,112.59 438.592,113.59 439,115.5C 439.182,112.119 440.682,111.119 443.5,112.5C 442.194,113.912 441.36,115.579 441,117.5C 440.169,123.859 440.336,130.193 441.5,136.5C 442.167,130.012 442.833,123.679 443.5,117.5 Z"/></g>
<g><path style="opacity:1" fill="#2c53a0" d="M 662.5,170.5 C 658.5,170.5 654.5,170.5 650.5,170.5C 650.216,172.415 650.549,174.081 651.5,175.5C 651.833,175.5 652.167,175.5 652.5,175.5C 651.785,178.76 651.785,182.093 652.5,185.5C 641.495,185.667 630.495,185.5 619.5,185C 620.305,183.887 620.972,182.721 621.5,181.5C 631.133,175.034 637.466,166.201 640.5,155C 643.482,154.502 646.482,154.335 649.5,154.5C 649.425,157.206 649.092,159.873 648.5,162.5C 653.167,162.5 657.833,162.5 662.5,162.5C 662.5,165.167 662.5,167.833 662.5,170.5 Z"/></g>
<g><path style="opacity:1" fill="#859ecd" d="M 547.5,163.5 C 548.404,164.209 548.737,165.209 548.5,166.5C 552.5,166.5 556.5,166.5 560.5,166.5C 560.819,171.363 560.486,176.03 559.5,180.5C 559.5,176.167 559.5,171.833 559.5,167.5C 555.5,167.5 551.5,167.5 547.5,167.5C 547.5,166.167 547.5,164.833 547.5,163.5 Z"/></g>
<g><path style="opacity:1" fill="#89a1bb" d="M 662.5,170.5 C 659.038,171.482 655.371,171.815 651.5,171.5C 651.5,172.833 651.5,174.167 651.5,175.5C 650.549,174.081 650.216,172.415 650.5,170.5C 654.5,170.5 658.5,170.5 662.5,170.5 Z"/></g>
<g><path style="opacity:1" fill="#f2eae6" d="M 545.5,163.5 C 546.167,163.5 546.833,163.5 547.5,163.5C 547.5,164.833 547.5,166.167 547.5,167.5C 551.5,167.5 555.5,167.5 559.5,167.5C 559.5,171.833 559.5,176.167 559.5,180.5C 555.5,180.5 551.5,180.5 547.5,180.5C 547.666,185.844 547.499,191.177 547,196.5C 545.93,199.242 544.43,201.742 542.5,204C 535.924,205.377 529.257,205.877 522.5,205.5C 521.833,201.833 521.167,198.167 520.5,194.5C 518.833,194.5 517.167,194.5 515.5,194.5C 515.5,193.167 515.5,191.833 515.5,190.5C 519.5,190.5 523.5,190.5 527.5,190.5C 527.5,187.167 527.5,183.833 527.5,180.5C 518.161,180.334 508.827,180.5 499.5,181C 503.167,183.5 506.833,186 510.5,188.5C 511.562,189.425 511.562,190.425 510.5,191.5C 507.565,194.093 504.565,196.76 501.5,199.5C 498.145,195.813 494.811,192.147 491.5,188.5C 490.524,187.185 489.524,185.852 488.5,184.5C 488.863,183.817 489.196,183.15 489.5,182.5C 490.404,181.791 490.737,180.791 490.5,179.5C 486.5,179.5 482.5,179.5 478.5,179.5C 478.5,175.5 478.5,171.5 478.5,167.5C 495.009,167.83 511.342,167.496 527.5,166.5C 527.5,165.5 527.5,164.5 527.5,163.5C 533.5,163.5 539.5,163.5 545.5,163.5 Z"/></g>
<g><path style="opacity:1" fill="#455e92" d="M 697.5,164.5 C 701.5,164.5 705.5,164.5 709.5,164.5C 709.83,171.532 709.497,178.532 708.5,185.5C 706.929,186.309 705.262,186.643 703.5,186.5C 704.183,184.824 705.517,184.157 707.5,184.5C 707.829,178.794 707.495,173.128 706.5,167.5C 703.891,166.77 701.224,166.27 698.5,166C 697.944,165.617 697.611,165.117 697.5,164.5 Z"/></g>
<g><path style="opacity:1" fill="#8d9dc9" d="M 527.5,166.5 C 511.342,167.496 495.009,167.83 478.5,167.5C 478.5,171.5 478.5,175.5 478.5,179.5C 482.5,179.5 486.5,179.5 490.5,179.5C 490.737,180.791 490.404,181.791 489.5,182.5C 485.971,180.577 481.971,179.911 477.5,180.5C 477.5,175.833 477.5,171.167 477.5,166.5C 494.167,166.5 510.833,166.5 527.5,166.5 Z"/></g>
<g><path style="opacity:1" fill="#2a55a4" d="M 613.5,154.5 C 615.833,154.5 618.167,154.5 620.5,154.5C 620.07,159.227 618.57,163.56 616,167.5C 614.961,168.71 613.794,169.71 612.5,170.5C 611.5,170.5 610.5,170.5 609.5,170.5C 609.33,167.734 608.664,165.067 607.5,162.5C 608.068,160.631 608.734,158.797 609.5,157C 607.461,150.598 608.794,149.765 613.5,154.5 Z"/></g>
<g><path style="opacity:1" fill="#4f6a9c" d="M 536.5,160.5 C 536.5,160.833 536.5,161.167 536.5,161.5C 533.747,159.006 531.08,159.006 528.5,161.5C 528.5,160.167 528.5,158.833 528.5,157.5C 531.167,157.5 533.833,157.5 536.5,157.5C 536.5,158.5 536.5,159.5 536.5,160.5 Z"/></g>
<g><path style="opacity:1" fill="#355184" d="M 528.5,143.5 C 531.167,143.5 533.833,143.5 536.5,143.5C 536.5,144.5 536.5,145.5 536.5,146.5C 533.833,146.5 531.167,146.5 528.5,146.5C 528.5,145.5 528.5,144.5 528.5,143.5 Z"/></g>
<g><path style="opacity:1" fill="#335483" d="M 503.5,143.5 C 505.5,143.5 507.5,143.5 509.5,143.5C 509.5,144.5 509.5,145.5 509.5,146.5C 507.5,146.5 505.5,146.5 503.5,146.5C 503.5,145.5 503.5,144.5 503.5,143.5 Z"/></g>
<g><path style="opacity:1" fill="#4c6595" d="M 623.5,140.5 C 638.5,141.833 653.5,141.833 668.5,140.5C 670.368,141.263 672.035,142.263 673.5,143.5C 670.687,144.446 669.354,146.446 669.5,149.5C 671.143,149.52 672.476,148.853 673.5,147.5C 675.764,148.869 678.097,149.869 680.5,150.5C 676.167,150.5 671.833,150.5 667.5,150.5C 667.575,147.794 667.908,145.127 668.5,142.5C 651.83,142.667 635.163,142.5 618.5,142C 620.025,140.991 621.692,140.491 623.5,140.5 Z"/></g>
<g><path style="opacity:1" fill="#b7c4e1" d="M 481.5,134.5 C 478.713,135.477 475.713,135.81 472.5,135.5C 472.5,158.5 472.5,181.5 472.5,204.5C 472.5,205.167 472.167,205.5 471.5,205.5C 471.5,181.833 471.5,158.167 471.5,134.5C 474.833,134.5 478.167,134.5 481.5,134.5 Z"/></g>
<g><path style="opacity:1" fill="#b4c1dc" d="M 443.5,134.5 C 446.833,134.5 450.167,134.5 453.5,134.5C 453.5,158.167 453.5,181.833 453.5,205.5C 452.502,182.339 452.169,159.006 452.5,135.5C 449.287,135.81 446.287,135.477 443.5,134.5 Z"/></g>
<g><path style="opacity:1" fill="#2b52a6" d="M 424.5,143.5 C 423.508,143.672 422.842,143.338 422.5,142.5C 421.85,140.565 421.517,138.565 421.5,136.5C 419.897,136.688 418.563,136.188 417.5,135C 422.75,134.807 427.917,134.307 433,133.5C 433.333,134.167 433.667,134.833 434,135.5C 434.594,129.825 435.26,124.158 436,118.5C 436.667,117.167 437.333,117.167 438,118.5C 437.86,124.468 437.527,130.468 437,136.5C 436.333,137.833 435.667,139.167 435,140.5C 431.983,140.781 428.817,140.781 425.5,140.5C 425.737,141.791 425.404,142.791 424.5,143.5 Z"/></g>
<g><path style="opacity:1" fill="#426298" d="M 503.5,128.5 C 505.833,128.5 508.167,128.5 510.5,128.5C 510.5,129.5 510.5,130.5 510.5,131.5C 508.167,131.5 505.833,131.5 503.5,131.5C 503.5,130.5 503.5,129.5 503.5,128.5 Z"/></g>
<g><path style="opacity:1" fill="#35558b" d="M 528.5,128.5 C 531.167,128.5 533.833,128.5 536.5,128.5C 536.5,129.5 536.5,130.5 536.5,131.5C 533.833,131.5 531.167,131.5 528.5,131.5C 528.5,130.5 528.5,129.5 528.5,128.5 Z"/></g>
<g><path style="opacity:1" fill="#f5ebe2" d="M 787.5,159.5 C 779.5,159.5 771.5,159.5 763.5,159.5C 760.698,162.261 761.364,164.261 765.5,165.5C 773.521,164.865 781.521,164.198 789.5,163.5C 790.086,163.709 790.586,164.043 791,164.5C 792.885,162.98 795.051,161.98 797.5,161.5C 799.069,162.714 799.902,164.381 800,166.5C 801.299,166.034 802.799,166.034 804.5,166.5C 804.5,168.167 804.5,169.833 804.5,171.5C 801.012,171.069 797.679,170.069 794.5,168.5C 792.833,169.833 791.167,169.833 789.5,168.5C 787.39,169.054 785.39,169.888 783.5,171C 787.664,171.449 791.331,172.949 794.5,175.5C 795.495,180.792 795.828,186.125 795.5,191.5C 797.541,191.146 799.374,191.146 801,191.5C 805.934,185.532 809.434,186.199 811.5,193.5C 810.736,196.018 809.736,198.351 808.5,200.5C 806.833,200.5 805.167,200.5 803.5,200.5C 803.5,198.833 803.5,197.167 803.5,195.5C 796.971,193.852 790.305,193.185 783.5,193.5C 783.907,200.929 782.907,201.262 780.5,194.5C 779.627,188.198 779.294,181.865 779.5,175.5C 780.5,175.5 781.5,175.5 782.5,175.5C 782.343,176.873 782.51,178.207 783,179.5C 783.495,177.527 783.662,175.527 783.5,173.5C 778.167,173.5 772.833,173.5 767.5,173.5C 767.5,174.833 767.5,176.167 767.5,177.5C 766.5,177.5 765.5,177.5 764.5,177.5C 766.017,174.413 766.684,171.079 766.5,167.5C 763.001,167.259 762.668,168.092 765.5,170C 762.407,175.989 760.24,175.489 759,168.5C 758.586,168.957 758.086,169.291 757.5,169.5C 755.821,167.896 753.821,167.229 751.5,167.5C 751.5,168.5 751.5,169.5 751.5,170.5C 750.07,170.579 748.736,170.246 747.5,169.5C 746.513,166.232 746.18,162.898 746.5,159.5C 747.5,159.5 748.5,159.5 749.5,159.5C 749.172,154.125 749.505,148.792 750.5,143.5C 759.329,142.619 759.663,140.952 751.5,138.5C 751.167,137.833 750.833,137.167 750.5,136.5C 753.768,135.513 757.102,135.18 760.5,135.5C 760.292,137.92 760.626,140.253 761.5,142.5C 758.122,143.59 754.789,144.59 751.5,145.5C 751.5,146.833 751.5,148.167 751.5,149.5C 753.541,149.146 755.374,149.146 757,149.5C 757.29,147.956 757.956,146.623 759,145.5C 759.707,147.081 760.54,148.581 761.5,150C 770.833,150.667 780.167,150.667 789.5,150C 792.576,148.145 795.909,147.312 799.5,147.5C 799.5,148.5 799.5,149.5 799.5,150.5C 794.167,151.167 794.167,151.833 799.5,152.5C 799.5,153.5 799.5,154.5 799.5,155.5C 795.152,155.091 790.819,154.924 786.5,155C 790.746,156.624 795.08,157.957 799.5,159C 795.514,159.499 791.514,159.666 787.5,159.5 Z"/></g>
<g><path style="opacity:1" fill="#305798" d="M 522.5,205.5 C 521.166,202.573 519.833,199.573 518.5,196.5C 516.976,197.527 516.309,199.027 516.5,201C 516.667,202.167 516.833,203.333 517,204.5C 519.949,207.5 519.116,208.167 514.5,206.5C 513.738,202.889 513.238,199.222 513,195.5C 512.066,194.142 511.232,192.808 510.5,191.5C 511.562,190.425 511.562,189.425 510.5,188.5C 506.833,186 503.167,183.5 499.5,181C 508.827,180.5 518.161,180.334 527.5,180.5C 527.5,183.833 527.5,187.167 527.5,190.5C 523.5,190.5 519.5,190.5 515.5,190.5C 515.5,191.833 515.5,193.167 515.5,194.5C 517.167,194.5 518.833,194.5 520.5,194.5C 521.167,198.167 521.833,201.833 522.5,205.5 Z"/></g>
<g><path style="opacity:1" fill="#f3ebe4" d="M 723.5,101.5 C 728.64,102.488 733.974,102.821 739.5,102.5C 739.664,105.187 739.497,107.854 739,110.5C 734.254,112.218 734.421,113.218 739.5,113.5C 739.5,114.5 739.5,115.5 739.5,116.5C 731.16,116.334 722.827,116.5 714.5,117C 713.446,119.382 712.779,121.882 712.5,124.5C 720.167,124.5 727.833,124.5 735.5,124.5C 735.481,126.06 735.148,127.56 734.5,129C 734.944,130.762 735.444,130.595 736,128.5C 736.667,131.5 736.667,134.5 736,137.5C 733.022,136.096 730.022,135.763 727,136.5C 726.436,141.194 726.603,145.86 727.5,150.5C 730.579,150.26 733.579,150.593 736.5,151.5C 737.833,155.167 737.833,158.833 736.5,162.5C 734.166,163.841 732.499,163.174 731.5,160.5C 729.321,161.757 727.321,163.257 725.5,165C 726.641,170.75 726.807,176.584 726,182.5C 724.16,184.165 723.493,186.165 724,188.5C 727.057,187.549 730.223,187.216 733.5,187.5C 733.5,188.833 733.5,190.167 733.5,191.5C 730.482,191.335 727.482,191.502 724.5,192C 726.615,192.424 727.448,193.591 727,195.5C 723.596,197.46 720.429,199.46 717.5,201.5C 715.284,203.194 712.784,204.527 710,205.5C 706.467,199.733 704.3,193.4 703.5,186.5C 705.262,186.643 706.929,186.309 708.5,185.5C 709.497,178.532 709.83,171.532 709.5,164.5C 705.5,164.5 701.5,164.5 697.5,164.5C 697.5,159.167 697.5,153.833 697.5,148.5C 701.5,148.5 705.5,148.5 709.5,148.5C 709.5,145.167 709.5,141.833 709.5,138.5C 706.833,138.5 704.167,138.5 701.5,138.5C 701.657,137.127 701.49,135.793 701,134.5C 700.617,135.056 700.117,135.389 699.5,135.5C 696.798,134.131 694.798,132.131 693.5,129.5C 699.071,116.541 703.405,103.208 706.5,89.5C 712.768,90.8223 719.101,91.8223 725.5,92.5C 725.595,95.6916 724.929,98.6916 723.5,101.5 Z"/></g>
<g><path style="opacity:1" fill="#f6eddd" d="M 671.5,193.5 C 673.017,193.511 674.184,194.177 675,195.5C 675.414,195.043 675.914,194.709 676.5,194.5C 677.777,197.034 677.777,199.534 676.5,202C 656.158,202.833 635.825,202.666 615.5,201.5C 634.155,200.5 652.821,200.167 671.5,200.5C 671.5,199.5 671.5,198.5 671.5,197.5C 653.164,197.667 634.83,197.5 616.5,197C 617.623,195.956 618.956,195.29 620.5,195C 637.672,194.832 654.672,194.332 671.5,193.5 Z"/></g>
<g><path style="opacity:1" fill="#949eb9" d="M 168.5,209.5 C 175.655,208.345 182.988,208.178 190.5,209C 189.756,210.039 188.756,210.539 187.5,210.5C 181.355,209.51 175.022,209.177 168.5,209.5 Z"/></g>
<g><path style="opacity:1" fill="#435d9c" d="M 209.5,208.5 C 212.5,208.5 215.5,208.5 218.5,208.5C 217.735,212.035 216.401,215.369 214.5,218.5C 212.295,215.423 210.628,212.09 209.5,208.5 Z"/></g>
<g><path style="opacity:1" fill="#ea8b5e" d="M 622.5,223.5 C 625.167,223.5 627.833,223.5 630.5,223.5C 628.492,225.083 626.159,226.083 623.5,226.5C 622.596,225.791 622.263,224.791 622.5,223.5 Z"/></g>
<g><path style="opacity:1" fill="#efe8e4" d="M 169.5,219.5 C 176.327,218.174 179.494,220.84 179,227.5C 174.786,230.696 170.286,233.529 165.5,236C 159.204,236.698 156.704,233.865 158,227.5C 161.812,224.688 165.646,222.021 169.5,219.5 Z"/></g>
<g><path style="opacity:1" fill="#b59277" d="M 630.5,223.5 C 634.067,224.456 635.734,226.79 635.5,230.5C 633.176,230.338 631.509,229.172 630.5,227C 628.19,226.503 625.857,226.337 623.5,226.5C 626.159,226.083 628.492,225.083 630.5,223.5 Z"/></g>
<g><path style="opacity:1" fill="#c79172" d="M 656.5,223.5 C 663.516,221.909 668.516,224.243 671.5,230.5C 671.5,234.167 671.5,237.833 671.5,241.5C 669.732,244.59 667.065,246.59 663.5,247.5C 651.627,248.489 646.793,243.156 649,231.5C 650.955,228.283 653.455,225.617 656.5,223.5 Z"/></g>
<g><path style="opacity:1" fill="#c58f73" d="M 528.5,223.5 C 534.028,223 539.362,223.667 544.5,225.5C 548.011,228.364 548.344,231.531 545.5,235C 545.639,236.301 546.305,237.134 547.5,237.5C 548.426,241.93 547.093,245.263 543.5,247.5C 538.5,247.5 533.5,247.5 528.5,247.5C 528.5,239.5 528.5,231.5 528.5,223.5 Z"/></g>
<g><path style="opacity:1" fill="#3a5694" d="M 532.5,226.5 C 535.518,226.335 538.518,226.502 541.5,227C 542.833,229 542.833,231 541.5,233C 538.518,233.498 535.518,233.665 532.5,233.5C 532.5,231.167 532.5,228.833 532.5,226.5 Z"/></g>
<g><path style="opacity:1" fill="#b59085" d="M 609.5,223.5 C 610.833,223.5 612.167,223.5 613.5,223.5C 613.5,231.5 613.5,239.5 613.5,247.5C 612.167,247.5 610.833,247.5 609.5,247.5C 609.5,239.5 609.5,231.5 609.5,223.5 Z"/></g>
<g><path style="opacity:1" fill="#475683" d="M 675.5,223.5 C 675.5,226.833 675.5,230.167 675.5,233.5C 673.319,235.764 671.985,238.431 671.5,241.5C 671.5,237.833 671.5,234.167 671.5,230.5C 672.5,230.5 673.5,230.5 674.5,230.5C 674.682,228.409 674.348,226.409 673.5,224.5C 673.957,223.702 674.624,223.369 675.5,223.5 Z"/></g>
<g><path style="opacity:1" fill="#d9976e" d="M 438.5,223.5 C 438.5,230.833 438.5,238.167 438.5,245.5C 442.555,245.176 446.555,245.509 450.5,246.5C 445.544,247.494 440.544,247.827 435.5,247.5C 435.5,239.5 435.5,231.5 435.5,223.5C 436.5,223.5 437.5,223.5 438.5,223.5 Z"/></g>
<g><path style="opacity:1" fill="#cc997b" d="M 641.5,223.5 C 642.5,223.5 643.5,223.5 644.5,223.5C 644.5,231.5 644.5,239.5 644.5,247.5C 643.5,247.5 642.5,247.5 641.5,247.5C 641.5,239.5 641.5,231.5 641.5,223.5 Z"/></g>
<g><path style="opacity:1" fill="#c59171" d="M 675.5,223.5 C 678.082,223.025 680.082,223.692 681.5,225.5C 682.218,227.137 682.384,228.803 682,230.5C 680.989,229.663 679.822,229.33 678.5,229.5C 679.117,235.598 678.45,241.265 676.5,246.5C 675.515,242.366 675.182,238.032 675.5,233.5C 675.5,230.167 675.5,226.833 675.5,223.5 Z"/></g>
<g><path style="opacity:1" fill="#b28585" d="M 681.5,225.5 C 683.245,227.033 684.245,229.033 684.5,231.5C 683.662,231.842 683.328,232.508 683.5,233.5C 682.206,232.71 681.039,231.71 680,230.5C 679.501,236.157 679.334,241.824 679.5,247.5C 678.209,247.737 677.209,247.404 676.5,246.5C 678.45,241.265 679.117,235.598 678.5,229.5C 679.822,229.33 680.989,229.663 682,230.5C 682.384,228.803 682.218,227.137 681.5,225.5 Z"/></g>
<g><path style="opacity:1" fill="#a18482" d="M 690.5,246.5 C 691.833,246.5 693.167,246.5 694.5,246.5C 694.666,240.158 694.5,233.825 694,227.5C 693.667,227.167 693.333,226.833 693,226.5C 692.825,231.019 692.325,235.353 691.5,239.5C 691.5,234.167 691.5,228.833 691.5,223.5C 692.833,223.5 694.167,223.5 695.5,223.5C 695.5,231.5 695.5,239.5 695.5,247.5C 693.585,247.784 691.919,247.451 690.5,246.5 Z"/></g>
<g><path style="opacity:1" fill="#c69377" d="M 570.5,226.5 C 571.79,227.058 572.623,228.058 573,229.5C 573.808,233.027 573.641,236.36 572.5,239.5C 570.971,235.91 569.638,232.076 568.5,228C 568.836,226.97 569.503,226.47 570.5,226.5 Z"/></g>
<g><path style="opacity:1" fill="#bc8d7a" d="M 585.5,223.5 C 586.833,223.5 588.167,223.5 589.5,223.5C 590.627,229.814 592.627,235.814 595.5,241.5C 596.584,240.335 597.417,239.002 598,237.5C 599.078,232.775 600.244,228.109 601.5,223.5C 602.833,223.5 604.167,223.5 605.5,223.5C 603.127,231.251 600.46,238.918 597.5,246.5C 595.604,247.466 593.604,247.799 591.5,247.5C 590.566,239.22 588.566,231.22 585.5,223.5 Z"/></g>
<g><path style="opacity:1" fill="#696273" d="M 641.5,223.5 C 641.5,231.5 641.5,239.5 641.5,247.5C 642.5,247.5 643.5,247.5 644.5,247.5C 643.432,248.434 642.099,248.768 640.5,248.5C 639.861,247.903 639.528,247.07 639.5,246C 640.085,238.345 640.752,230.845 641.5,223.5 Z"/></g>
<g><path style="opacity:1" fill="#345499" d="M 657.5,226.5 C 661.079,226.316 664.413,226.983 667.5,228.5C 669.537,234.85 668.204,240.35 663.5,245C 654.05,245.469 650.55,240.969 653,231.5C 654.025,229.313 655.525,227.646 657.5,226.5 Z"/></g>
<g><path style="opacity:1" fill="#c88e6d" d="M 690.5,246.5 C 688.316,242.186 685.983,237.853 683.5,233.5C 683.328,232.508 683.662,231.842 684.5,231.5C 686.49,234.503 688.823,237.17 691.5,239.5C 692.325,235.353 692.825,231.019 693,226.5C 693.333,226.833 693.667,227.167 694,227.5C 694.5,233.825 694.666,240.158 694.5,246.5C 693.167,246.5 691.833,246.5 690.5,246.5 Z"/></g>
<g><path style="opacity:1" fill="#d6986b" d="M 610.5,225.5 C 611.222,225.918 611.722,226.584 612,227.5C 612.831,233.859 612.664,240.193 611.5,246.5C 610.503,239.532 610.17,232.532 610.5,225.5 Z"/></g>
<g><path style="opacity:1" fill="#cc8c6e" d="M 484.5,230.5 C 484.44,229.957 484.107,229.624 483.5,229.5C 482.833,235.167 482.167,240.833 481.5,246.5C 480.503,239.532 480.17,232.532 480.5,225.5C 481.833,225.5 483.167,225.5 484.5,225.5C 485.794,226.29 486.961,227.29 488,228.5C 489.33,233.17 491.663,237.17 495,240.5C 495.499,234.843 495.666,229.176 495.5,223.5C 496.833,223.5 498.167,223.5 499.5,223.5C 500.073,231.56 500.073,239.56 499.5,247.5C 497.533,247.739 495.699,247.406 494,246.5C 491.289,240.827 488.122,235.494 484.5,230.5 Z"/></g>
<g><path style="opacity:1" fill="#33559e" d="M 543.5,239.5 C 543.5,241.167 543.5,242.833 543.5,244.5C 540.5,244.5 537.5,244.5 534.5,244.5C 533.631,242.283 533.298,239.95 533.5,237.5C 537.179,237.06 540.512,237.727 543.5,239.5 Z"/></g>
<g><path style="opacity:1" fill="#ca9071" d="M 469.5,223.5 C 476.726,230.541 477.392,238.207 471.5,246.5C 467.342,248.665 463.009,248.998 458.5,247.5C 456.113,245.742 454.446,243.409 453.5,240.5C 452.833,240.5 452.5,240.167 452.5,239.5C 451.525,227.133 457.192,221.8 469.5,223.5 Z"/></g>
<g><path style="opacity:1" fill="#e3965c" d="M 456.5,239.5 C 456.196,241.796 455.196,242.129 453.5,240.5C 453.125,237.603 453.625,234.937 455,232.5C 455.186,235.036 455.686,237.369 456.5,239.5 Z"/></g>
<g><path style="opacity:1" fill="#3555a1" d="M 456.5,239.5 C 455.175,227.084 460.009,223.751 471,229.5C 473.763,235.585 472.596,240.752 467.5,245C 462.105,246.303 458.438,244.47 456.5,239.5 Z"/></g>
<g><path style="opacity:1" fill="#4c5f88" d="M 469.5,223.5 C 472.056,224.543 474.223,226.21 476,228.5C 476.499,232.821 476.666,237.154 476.5,241.5C 477.5,241.5 478.5,241.5 479.5,241.5C 479.5,242.167 479.5,242.833 479.5,243.5C 476.355,243.493 473.689,244.493 471.5,246.5C 477.392,238.207 476.726,230.541 469.5,223.5 Z"/></g>
<g><path style="opacity:1" fill="#9c766e" d="M 484.5,225.5 C 483.167,225.5 481.833,225.5 480.5,225.5C 480.17,232.532 480.503,239.532 481.5,246.5C 482.167,240.833 482.833,235.167 483.5,229.5C 484.107,229.624 484.44,229.957 484.5,230.5C 483.511,235.975 483.178,241.642 483.5,247.5C 482.167,247.5 480.833,247.5 479.5,247.5C 479.5,246.167 479.5,244.833 479.5,243.5C 479.5,242.833 479.5,242.167 479.5,241.5C 479.5,235.5 479.5,229.5 479.5,223.5C 481.781,223.077 483.448,223.744 484.5,225.5 Z"/></g>
<g><path style="opacity:1" fill="#445385" d="M 528.5,223.5 C 528.5,231.5 528.5,239.5 528.5,247.5C 533.5,247.5 538.5,247.5 543.5,247.5C 542.737,248.268 541.737,248.768 540.5,249C 541.624,249.249 542.624,249.749 543.5,250.5C 541.392,251.944 539.059,252.61 536.5,252.5C 536.5,251.167 536.5,249.833 536.5,248.5C 533.5,248.5 530.5,248.5 527.5,248.5C 527.827,243.456 527.494,238.456 526.5,233.5C 523.579,232.593 520.579,232.26 517.5,232.5C 517.483,230.435 517.15,228.435 516.5,226.5C 518.727,227.401 519.727,229.067 519.5,231.5C 520.833,231.5 522.167,231.5 523.5,231.5C 523.5,230.5 523.5,229.5 523.5,228.5C 524.482,229.141 525.482,229.807 526.5,230.5C 527.168,228.031 527.835,225.698 528.5,223.5 Z"/></g>
<g><path style="opacity:1" fill="#635970" d="M 543.5,239.5 C 540.512,237.727 537.179,237.06 533.5,237.5C 533.298,239.95 533.631,242.283 534.5,244.5C 532.631,242.365 531.964,239.698 532.5,236.5C 536.167,236.5 539.833,236.5 543.5,236.5C 543.5,237.5 543.5,238.5 543.5,239.5 Z"/></g>
<g><path style="opacity:1" fill="#c18c76" d="M 523.5,228.5 C 523.5,229.5 523.5,230.5 523.5,231.5C 522.167,231.5 520.833,231.5 519.5,231.5C 519.727,229.067 518.727,227.401 516.5,226.5C 512.923,226.205 509.757,227.205 507,229.5C 506.333,233.5 506.333,237.5 507,241.5C 510.321,245.969 514.321,246.636 519,243.5C 520.128,241.655 520.628,239.655 520.5,237.5C 518.076,237.808 515.743,237.474 513.5,236.5C 513.709,235.914 514.043,235.414 514.5,235C 517.817,234.502 521.15,234.335 524.5,234.5C 524.5,238.5 524.5,242.5 524.5,246.5C 518.848,247.302 513.182,247.469 507.5,247C 506.421,246.044 505.255,245.211 504,244.5C 503.333,239.167 503.333,233.833 504,228.5C 504.833,226.333 506.333,224.833 508.5,224C 514.658,222.254 519.658,223.754 523.5,228.5 Z"/></g>
<g><path style="opacity:1" fill="#f0e8e3" d="M 141.5,249.5 C 138.887,250.435 136.221,250.602 133.5,250C 131.944,249.28 130.944,248.113 130.5,246.5C 130.104,243.956 130.771,241.789 132.5,240C 136.295,238.269 139.962,236.269 143.5,234C 151.991,232.489 154.491,235.655 151,243.5C 147.515,245.15 144.349,247.15 141.5,249.5 Z"/></g>
<g><path style="opacity:1" fill="#425a90" d="M 550.5,232.5 C 550.037,236.828 550.87,240.828 553,244.5C 555.584,245.269 557.75,246.602 559.5,248.5C 557.187,249.668 554.854,251.002 552.5,252.5C 551.166,250.182 551.832,248.515 554.5,247.5C 552.599,246.769 550.599,246.769 548.5,247.5C 548.5,248.833 548.5,250.167 548.5,251.5C 547.5,251.5 546.5,251.5 545.5,251.5C 545.843,249.517 545.176,248.183 543.5,247.5C 547.093,245.263 548.426,241.93 547.5,237.5C 548.222,237.918 548.722,238.584 549,239.5C 549.186,236.964 549.686,234.631 550.5,232.5 Z"/></g>
<g><path style="opacity:1" fill="#c88e75" d="M 622.5,223.5 C 622.263,224.791 622.596,225.791 623.5,226.5C 622.377,228.518 622.377,230.518 623.5,232.5C 627.878,232.87 631.878,234.204 635.5,236.5C 637.818,243.871 635.151,247.871 627.5,248.5C 621.505,248.162 618.172,245.162 617.5,239.5C 618.675,239.281 619.675,239.614 620.5,240.5C 623.149,245.123 626.982,246.456 632,244.5C 632.687,242.432 632.52,240.432 631.5,238.5C 626.648,237.727 622.482,235.727 619,232.5C 618.333,230.5 618.333,228.5 619,226.5C 619.422,224.574 620.589,223.574 622.5,223.5 Z"/></g>
<g><path style="opacity:1" fill="#c18b75" d="M 570.5,226.5 C 569.503,226.47 568.836,226.97 568.5,228C 569.638,232.076 570.971,235.91 572.5,239.5C 572.838,242.325 571.838,244.492 569.5,246C 566.464,248.006 563.131,248.84 559.5,248.5C 557.75,246.602 555.584,245.269 553,244.5C 550.87,240.828 550.037,236.828 550.5,232.5C 550.816,228.017 553.149,225.183 557.5,224C 561.167,223.333 564.833,223.333 568.5,224C 569.381,224.708 570.047,225.542 570.5,226.5 Z"/></g>
<g><path style="opacity:1" fill="#35569f" d="M 557.5,226.5 C 566.84,225.81 570.673,230.143 569,239.5C 565.211,246.586 560.544,247.252 555,241.5C 552.811,235.938 553.644,230.938 557.5,226.5 Z"/></g>
<g><path style="opacity:1" fill="#385895" d="M 438.5,223.5 C 439.491,230.313 439.825,237.313 439.5,244.5C 442.187,244.664 444.854,244.497 447.5,244C 445.913,243.138 444.246,242.471 442.5,242C 444.788,241.178 447.122,240.511 449.5,240C 447.291,239.043 447.457,237.876 450,236.5C 450.236,238.119 451.069,239.119 452.5,239.5C 452.5,240.167 452.833,240.5 453.5,240.5C 454.446,243.409 456.113,245.742 458.5,247.5C 456.692,248.918 456.025,250.918 456.5,253.5C 449.172,252.446 441.839,252.279 434.5,253C 433.376,252.751 432.376,252.251 431.5,251.5C 437.5,250.833 443.5,250.167 449.5,249.5C 444.683,248.833 440.017,248.166 435.5,247.5C 440.544,247.827 445.544,247.494 450.5,246.5C 446.555,245.509 442.555,245.176 438.5,245.5C 438.5,238.167 438.5,230.833 438.5,223.5 Z"/></g>
<g><path style="opacity:1" fill="#395591" d="M 644.5,223.5 C 646.912,223.331 649.079,223.997 651,225.5C 652.567,224.144 654.4,223.477 656.5,223.5C 653.455,225.617 650.955,228.283 649,231.5C 646.793,243.156 651.627,248.489 663.5,247.5C 660.929,248.762 660.929,250.095 663.5,251.5C 663.291,252.086 662.957,252.586 662.5,253C 658.958,254.661 655.624,254.494 652.5,252.5C 660.321,250.977 660.321,249.477 652.5,248C 648.414,245.28 646.414,241.447 646.5,236.5C 646.167,237.333 645.833,238.167 645.5,239C 646.979,244.441 647.979,249.941 648.5,255.5C 645.518,255.896 642.851,255.229 640.5,253.5C 639.167,252.833 639.167,252.167 640.5,251.5C 642.641,254.019 644.641,254.019 646.5,251.5C 644.718,250.016 642.718,249.016 640.5,248.5C 642.099,248.768 643.432,248.434 644.5,247.5C 644.5,239.5 644.5,231.5 644.5,223.5 Z"/></g>
</svg>
