<?xml version="1.0" encoding="UTF-8"?>
<svg version="1.1" xmlns="http://www.w3.org/2000/svg" width="200" height="200">
<path d="M0 0 C66 0 132 0 200 0 C200 66 200 132 200 200 C134 200 68 200 0 200 C0 134 0 68 0 0 Z " fill="#FBFBFB" transform="translate(0,0)"/>
<path d="M0 0 C1.56047445 0.00015913 3.12095416 0.00585397 4.68139648 0.01586914 C5.5012352 0.01728409 6.32107391 0.01869904 7.16575623 0.02015686 C9.79470406 0.0257725 12.42356797 0.0383276 15.05249023 0.05102539 C16.8304838 0.05603838 18.60847869 0.06060163 20.38647461 0.06469727 C24.75434569 0.07574701 29.12215371 0.09302208 33.48999023 0.11352539 C33.38026719 9.53137547 33.26729177 18.94918023 33.15065098 28.36694717 C33.09652559 32.74453413 33.04334108 37.12212738 32.99267578 41.49975586 C32.71541459 65.37951381 32.22722361 89.24344644 31.48999023 113.11352539 C23.89999023 113.11352539 16.30999023 113.11352539 8.48999023 113.11352539 C8.36168891 89.76268437 8.86186435 66.4544158 9.48999023 43.11352539 C6.18999023 43.11352539 2.88999023 43.11352539 -0.51000977 43.11352539 C-0.51000977 66.21352539 -0.51000977 89.31352539 -0.51000977 113.11352539 C-8.76000977 113.11352539 -17.01000977 113.11352539 -25.51000977 113.11352539 C-25.51000977 100.90352539 -25.51000977 88.69352539 -25.51000977 76.11352539 C-29.14000977 76.11352539 -32.77000977 76.11352539 -36.51000977 76.11352539 C-36.51000977 88.32352539 -36.51000977 100.53352539 -36.51000977 113.11352539 C-49.05000977 113.11352539 -61.59000977 113.11352539 -74.51000977 113.11352539 C-74.51000977 100.24352539 -74.51000977 87.37352539 -74.51000977 74.11352539 C-63.29000977 74.11352539 -52.07000977 74.11352539 -40.51000977 74.11352539 C-40.51000977 62.89352539 -40.51000977 51.67352539 -40.51000977 40.11352539 C-28.63000977 40.11352539 -16.75000977 40.11352539 -4.51000977 40.11352539 C-4.52161133 37.30981445 -4.53321289 34.50610352 -4.54516602 31.61743164 C-4.5529561 28.91357537 -4.55903314 26.20972033 -4.56494141 23.50585938 C-4.56998221 21.62108809 -4.57681475 19.73632074 -4.58544922 17.8515625 C-4.59752594 15.14850903 -4.60324045 12.44550708 -4.60766602 9.74243164 C-4.6128273 8.89451553 -4.61798859 8.04659943 -4.62330627 7.17298889 C-4.62350171 5.15281471 -4.57207187 3.13274605 -4.51000977 1.11352539 C-3.51000977 0.11352539 -3.51000977 0.11352539 0 0 Z " fill="#1D2D20" transform="translate(118.510009765625,15.886474609375)"/>
<path d="M0 0 C1.56047445 0.00015913 3.12095416 0.00585397 4.68139648 0.01586914 C5.91115456 0.01799156 5.91115456 0.01799156 7.16575623 0.02015686 C9.79470406 0.0257725 12.42356797 0.0383276 15.05249023 0.05102539 C16.8304838 0.05603838 18.60847869 0.06060163 20.38647461 0.06469727 C24.75434569 0.07574701 29.12215371 0.09302208 33.48999023 0.11352539 C33.38026719 9.53137547 33.26729177 18.94918023 33.15065098 28.36694717 C33.09652559 32.74453413 33.04334108 37.12212738 32.99267578 41.49975586 C32.71541459 65.37951381 32.22722361 89.24344644 31.48999023 113.11352539 C23.89999023 113.11352539 16.30999023 113.11352539 8.48999023 113.11352539 C8.36168891 89.76268437 8.86186435 66.4544158 9.48999023 43.11352539 C6.18999023 43.11352539 2.88999023 43.11352539 -0.51000977 43.11352539 C-0.51000977 66.21352539 -0.51000977 89.31352539 -0.51000977 113.11352539 C-0.84000977 113.11352539 -1.17000977 113.11352539 -1.51000977 113.11352539 C-1.51000977 89.68352539 -1.51000977 66.25352539 -1.51000977 42.11352539 C1.44663543 40.63520279 4.2322876 41.05319756 7.48999023 41.11352539 C7.48999023 40.45352539 7.48999023 39.79352539 7.48999023 39.11352539 C2.53999023 39.60852539 2.53999023 39.60852539 -2.51000977 40.11352539 C-2.17952637 39.4204126 -1.84904297 38.7272998 -1.50854492 38.01318359 C-0.35949975 34.67645754 -0.36673908 32.23653695 -0.53344727 28.71899414 C-0.58500977 27.51694336 -0.63657227 26.31489258 -0.68969727 25.07641602 C-0.75415039 23.83053711 -0.81860352 22.5846582 -0.88500977 21.30102539 C-0.94172852 20.03581055 -0.99844727 18.7705957 -1.05688477 17.46704102 C-1.19809678 14.34860893 -1.34948785 11.23101334 -1.51000977 8.11352539 C-2.3535625 14.96827745 -2.79398496 21.7768291 -3.07250977 28.67602539 C-3.11569336 29.6847168 -3.15887695 30.6934082 -3.20336914 31.73266602 C-3.30830595 34.19285114 -3.41046678 36.65311714 -3.51000977 39.11352539 C-3.84000977 39.11352539 -4.17000977 39.11352539 -4.51000977 39.11352539 C-4.53465826 33.72005551 -4.55284507 28.32661814 -4.56494141 22.93310547 C-4.56998208 21.09683664 -4.57681453 19.26057185 -4.58544922 17.42431641 C-4.59752649 14.79076138 -4.60324058 12.15725923 -4.60766602 9.52368164 C-4.6128273 8.69763931 -4.61798859 7.87159698 -4.62330627 7.02052307 C-4.62350181 5.05116172 -4.57205128 3.08190926 -4.51000977 1.11352539 C-3.51000977 0.11352539 -3.51000977 0.11352539 0 0 Z " fill="#1F5E41" transform="translate(118.510009765625,15.886474609375)"/>
<path d="M0 0 C10.56 0 21.12 0 32 0 C32.02304324 7.4890528 32.04293071 14.97798092 32.05493164 22.46704102 C32.05993846 25.01099059 32.06674587 27.55493731 32.07543945 30.09887695 C32.08766572 33.77035223 32.09326498 37.44178922 32.09765625 41.11328125 C32.10281754 42.23769119 32.10797882 43.36210114 32.11329651 44.52058411 C32.11377841 51.41309142 31.72125264 58.14435636 31 65 C25.39 65 19.78 65 14 65 C14.01160156 63.10894531 14.02320312 61.21789062 14.03515625 59.26953125 C14.04453616 56.78385515 14.05363615 54.29817799 14.0625 51.8125 C14.07087891 50.56662109 14.07925781 49.32074219 14.08789062 48.03710938 C14.09111328 46.83505859 14.09433594 45.63300781 14.09765625 44.39453125 C14.10289307 43.28956299 14.10812988 42.18459473 14.11352539 41.04614258 C14.00901923 38.24200621 13.64097959 35.72582671 13 33 C12.34 33 11.68 33 11 33 C10.67 34.32 10.34 35.64 10 37 C10 35.02 10 33.04 10 31 C6.7 31 3.4 31 0 31 C-1.13865385 27.58403845 -1.02524163 25.17537791 -0.87890625 21.58203125 C-0.83580322 20.4525708 -0.7927002 19.32311035 -0.74829102 18.15942383 C-0.68697998 16.72493896 -0.62566895 15.2904541 -0.5625 13.8125 C-0.376875 9.254375 -0.19125 4.69625 0 0 Z " fill="#0B5634" transform="translate(83,61)"/>
<path d="M0 0 C11.55 0 23.1 0 35 0 C34.67 36.96 34.34 73.92 34 112 C26.74 112 19.48 112 12 112 C11.89735134 98.24508014 12.03921728 84.50265899 12.31838989 70.75067139 C12.35611912 68.83410799 12.39052461 66.91747628 12.42160034 65.00079346 C12.46694329 62.26847531 12.52486327 59.53669369 12.5859375 56.8046875 C12.59749374 55.97632385 12.60904999 55.14796021 12.62095642 54.29449463 C12.80209591 47.27096604 12.80209591 47.27096604 15 44 C15.66 44.33 16.32 44.66 17 45 C17.33 61.5 17.66 78 18 95 C18 94.34 18 93.68 18 93 C18 78 18 63 18 48 C18.64066406 47.87625 19.28132813 47.7525 19.94140625 47.625 C20.62074219 47.41875 21.30007812 47.2125 22 47 C22.309375 46.34 22.61875 45.68 22.9375 45 C24 43 24 43 26.5625 42.1875 C27.366875 42.125625 28.17125 42.06375 29 42 C29.495 42.495 29.495 42.495 30 43 C30.33 30.13 30.66 17.26 31 4 C22.75 3.67 14.5 3.34 6 3 C6 2.34 6 1.68 6 1 C4.02 1 2.04 1 0 1 C0 0.67 0 0.34 0 0 Z " fill="#0C5636" transform="translate(116,17)"/>
<path d="M0 0 C2.31 0 4.62 0 7 0 C8.13916302 3.57474725 8.03150662 6.78539382 7.87890625 10.515625 C7.83056641 11.76601562 7.78222656 13.01640625 7.73242188 14.3046875 C7.67634766 15.60664063 7.62027344 16.90859375 7.5625 18.25 C7.51029297 19.56742188 7.45808594 20.88484375 7.40429688 22.2421875 C7.2746558 25.49499995 7.13799639 28.7475313 7 32 C11.29 32 15.58 32 20 32 C19.67 31.34 19.34 30.68 19 30 C17.10466658 29.53476937 17.10466658 29.53476937 14.9375 29.375 C13.638125 29.25125 12.33875 29.1275 11 29 C11 28.01 11 27.02 11 26 C14.465 25.505 14.465 25.505 18 25 C18 24.67 18 24.34 18 24 C15.69 23.67 13.38 23.34 11 23 C11 22.01 11 21.02 11 20 C13.64 20 16.28 20 19 20 C19 19.01 19 18.02 19 17 C16.36 17 13.72 17 11 17 C11 16.01 11 15.02 11 14 C13.64 14 16.28 14 19 14 C19 13.01 19 12.02 19 11 C16.03 11 13.06 11 10 11 C10 9.68 10 8.36 10 7 C12.97 7 15.94 7 19 7 C19 6.34 19 5.68 19 5 C16.36 5 13.72 5 11 5 C10.67 3.68 10.34 2.36 10 1 C18.49208584 0.26401923 26.53095523 -0.29526567 35 1 C36.19287411 4.87684087 37 7.91621923 37 12 C36.34 12 35.68 12 35 12 C35 13.65 35 15.3 35 17 C31.7 17 28.4 17 25 17 C25.33 17.66 25.66 18.32 26 19 C28.12576782 19.46651207 28.12576782 19.46651207 30.5625 19.625 C31.38878906 19.69976562 32.21507812 19.77453125 33.06640625 19.8515625 C33.70449219 19.90054688 34.34257812 19.94953125 35 20 C35 21.32 35 22.64 35 24 C31.7 24 28.4 24 25 24 C24.67 24.66 24.34 25.32 24 26 C27.63 26 31.26 26 35 26 C35 27.32 35 28.64 35 30 C31.7 30 28.4 30 25 30 C25 30.66 25 31.32 25 32 C28.96 32 32.92 32 37 32 C37 33.98 37 35.96 37 38 C32.52084729 38.0292814 28.04171958 38.04689296 23.5625 38.0625 C22.30244141 38.07087891 21.04238281 38.07925781 19.74414062 38.08789062 C13.0710797 38.10531376 6.61231832 37.91378066 0 37 C-0.33 35.35 -0.66 33.7 -1 32 C-0.34 32 0.32 32 1 32 C1 27.71 1 23.42 1 19 C0.34 19 -0.32 19 -1 19 C-1 17.68 -1 16.36 -1 15 C-0.34 15 0.32 15 1 15 C0.67 10.05 0.34 5.1 0 0 Z " fill="#3D3A3B" transform="translate(149,145)"/>
<path d="M0 0 C3.375 0.25 3.375 0.25 7 1 C9.31999036 3.82433609 9.1773417 6.453166 9 10 C9 11.32 9 12.64 9 14 C9 15.32 9 16.64 9 18 C10.32 18 11.64 18 13 18 C12.90460938 17.11957031 12.80921875 16.23914063 12.7109375 15.33203125 C12.60007812 14.17058594 12.48921875 13.00914062 12.375 11.8125 C12.25898437 10.66394531 12.14296875 9.51539063 12.0234375 8.33203125 C11.99976574 4.96669584 12.52580201 2.98778294 14 0 C14.98097656 0.15339844 15.96195313 0.30679688 16.97265625 0.46484375 C21.11808732 1.05704819 25.25870695 1.32928282 29.4375 1.5625 C30.16904297 1.60568359 30.90058594 1.64886719 31.65429688 1.69335938 C33.43604715 1.79816821 35.21800402 1.89945521 37 2 C37 3.32 37 4.64 37 6 C30.4 6 23.8 6 17 6 C17 6.99 17 7.98 17 9 C22.94 9 28.88 9 35 9 C34.98839844 10.31355469 34.97679687 11.62710938 34.96484375 12.98046875 C34.95546172 14.71614441 34.94636196 16.45182161 34.9375 18.1875 C34.92493164 19.48397461 34.92493164 19.48397461 34.91210938 20.80664062 C34.89603188 25.00286769 34.92440962 28.90936886 36 33 C35.01 33 34.02 33 33 33 C32.67 34.65 32.34 36.3 32 38 C29.36 38 26.72 38 24 38 C24 37.01 24 36.02 24 35 C21.43106162 33.71553081 19.23423663 33.67022856 16.375 33.4375 C15.37210938 33.35371094 14.36921875 33.26992187 13.3359375 33.18359375 C12.56507812 33.12300781 11.79421875 33.06242187 11 33 C11 30.03 11 27.06 11 24 C10.34 24 9.68 24 9 24 C9 25.32 9 26.64 9 28 C8.34 28 7.68 28 7 28 C7.061875 28.928125 7.12375 29.85625 7.1875 30.8125 C7 34 7 34 5.75 35.9375 C4 37 4 37 1.8125 36.6875 C1.214375 36.460625 0.61625 36.23375 0 36 C0.32297514 34.33129513 0.66013333 32.66534667 1 31 C1.14566406 30.24074219 1.29132812 29.48148438 1.44140625 28.69921875 C1.60511719 27.89097656 1.76882812 27.08273438 1.9375 26.25 C2.09089844 25.47140625 2.24429688 24.6928125 2.40234375 23.890625 C2.59957031 23.26671875 2.79679687 22.6428125 3 22 C3.66 21.67 4.32 21.34 5 21 C4.0409375 20.4740625 4.0409375 20.4740625 3.0625 19.9375 C0.17836168 17.22815794 0.2899178 14.84141089 0 11 C0.99 11 1.98 11 3 11 C2.505 9.9275 2.01 8.855 1.5 7.75 C0.11346089 4.74583192 0 3.54065105 0 0 Z " fill="#1C1919" transform="translate(56,144)"/>
<path d="M0 0 C1.4540625 0.0309375 1.4540625 0.0309375 2.9375 0.0625 C4.29111775 6.89074952 3.82854878 13.57781705 3.5 20.5 C3.44779297 21.70849609 3.39558594 22.91699219 3.34179688 24.16210938 C3.21279246 27.12921084 3.0778565 30.09591748 2.9375 33.0625 C4.2575 33.0625 5.5775 33.0625 6.9375 33.0625 C6.9375 23.4925 6.9375 13.9225 6.9375 4.0625 C11.2275 4.0625 15.5175 4.0625 19.9375 4.0625 C19.9375 3.0725 19.9375 2.0825 19.9375 1.0625 C21.56168745 0.98159029 23.18701745 0.92335005 24.8125 0.875 C25.71742188 0.84019531 26.62234375 0.80539063 27.5546875 0.76953125 C28.73417969 0.91455078 28.73417969 0.91455078 29.9375 1.0625 C31.9375 4.0625 31.9375 4.0625 31.9375 8.0625 C30.2875 8.0625 28.6375 8.0625 26.9375 8.0625 C27.4325 13.0125 27.4325 13.0125 27.9375 18.0625 C28.2675 16.0825 28.5975 14.1025 28.9375 12.0625 C29.9275 12.0625 30.9175 12.0625 31.9375 12.0625 C31.85071237 14.35489061 31.74254727 16.6464807 31.625 18.9375 C31.53798828 20.85175781 31.53798828 20.85175781 31.44921875 22.8046875 C31.28035156 23.87976563 31.11148438 24.95484375 30.9375 26.0625 C29.9475 26.7225 28.9575 27.3825 27.9375 28.0625 C27.20784634 30.62532742 27.20784634 30.62532742 26.9375 33.0625 C28.9175 33.0625 30.8975 33.0625 32.9375 33.0625 C32.9375 34.7125 32.9375 36.3625 32.9375 38.0625 C31.29175434 38.08938151 29.64588587 38.10884123 28 38.125 C26.62521484 38.14240234 26.62521484 38.14240234 25.22265625 38.16015625 C22.9375 38.0625 22.9375 38.0625 21.9375 37.0625 C21.89657063 34.72952567 21.89508277 32.39544775 21.9375 30.0625 C21.2775 30.0625 20.6175 30.0625 19.9375 30.0625 C19.9375 32.0425 19.9375 34.0225 19.9375 36.0625 C16.9675 36.5575 16.9675 36.5575 13.9375 37.0625 C14.2675 29.8025 14.5975 22.5425 14.9375 15.0625 C13.9475 15.3925 12.9575 15.7225 11.9375 16.0625 C11.91244385 16.66312256 11.8873877 17.26374512 11.86157227 17.88256836 C11.7459472 20.58861437 11.62307064 23.29428283 11.5 26 C11.46068359 26.94552734 11.42136719 27.89105469 11.38085938 28.86523438 C11.33896484 29.76435547 11.29707031 30.66347656 11.25390625 31.58984375 C11.21724854 32.42249756 11.18059082 33.25515137 11.14282227 34.11303711 C10.9375 36.0625 10.9375 36.0625 9.9375 37.0625 C7.40700598 37.13563567 4.90445163 37.15497527 2.375 37.125 C1.30862305 37.11823242 1.30862305 37.11823242 0.22070312 37.11132812 C-1.54040013 37.09950864 -3.30146036 37.08157263 -5.0625 37.0625 C-4.90023926 36.35061523 -4.73797852 35.63873047 -4.57080078 34.90527344 C-4.06257865 32.06293986 -3.93318196 29.46254972 -3.9296875 26.578125 C-3.92839844 25.56105469 -3.92710938 24.54398438 -3.92578125 23.49609375 C-3.92964844 22.44550781 -3.93351562 21.39492187 -3.9375 20.3125 C-3.93363281 19.24644531 -3.92976563 18.18039063 -3.92578125 17.08203125 C-3.92771484 15.56416016 -3.92771484 15.56416016 -3.9296875 14.015625 C-3.93081543 13.08911133 -3.93194336 12.16259766 -3.93310547 11.20800781 C-3.82337937 9.08053517 -3.82337937 9.08053517 -5.0625 8.0625 C-4.20786158 0.08587473 -4.20786158 0.08587473 0 0 Z " fill="#171415" transform="translate(107.0625,143.9375)"/>
<path d="M0 0 C1.32 0 2.64 0 4 0 C5.04630361 3.13891082 5.12914394 5.36293046 5.1328125 8.65625 C5.13474609 10.31333984 5.13474609 10.31333984 5.13671875 12.00390625 C5.13285156 13.15761719 5.12898438 14.31132813 5.125 15.5 C5.13080078 17.23056641 5.13080078 17.23056641 5.13671875 18.99609375 C5.13542969 20.10082031 5.13414063 21.20554687 5.1328125 22.34375 C5.13168457 23.35630859 5.13055664 24.36886719 5.12939453 25.41210938 C5 28 5 28 4 31 C-5.57 30.67 -15.14 30.34 -25 30 C-25.04125 26.101875 -25.0825 22.20375 -25.125 18.1875 C-25.14320801 16.96184326 -25.16141602 15.73618652 -25.18017578 14.47338867 C-25.1851709 13.5063501 -25.19016602 12.53931152 -25.1953125 11.54296875 C-25.20578613 10.55321045 -25.21625977 9.56345215 -25.22705078 8.54370117 C-25 6 -25 6 -23 3 C-22.01 3 -21.02 3 -20 3 C-20 2.34 -20 1.68 -20 1 C-13.58311325 0.89650183 -7.37305598 1.25492456 -1 2 C-0.67 1.34 -0.34 0.68 0 0 Z " fill="#0D5A38" transform="translate(74,95)"/>
<path d="M0 0 C2.31 0 4.62 0 7 0 C8.13916302 3.57474725 8.03150662 6.78539382 7.87890625 10.515625 C7.83056641 11.76601562 7.78222656 13.01640625 7.73242188 14.3046875 C7.67634766 15.60664063 7.62027344 16.90859375 7.5625 18.25 C7.51029297 19.56742188 7.45808594 20.88484375 7.40429688 22.2421875 C7.2746558 25.49499995 7.13799639 28.7475313 7 32 C11.29 32 15.58 32 20 32 C19.67 31.01 19.34 30.02 19 29 C22.79267192 28.0639658 25.93674565 28.01723748 29.8125 28.4375 C30.78832031 28.53933594 31.76414063 28.64117187 32.76953125 28.74609375 C33.50558594 28.82988281 34.24164063 28.91367188 35 29 C35 29.33 35 29.66 35 30 C31.7 30 28.4 30 25 30 C25 30.66 25 31.32 25 32 C28.96 32 32.92 32 37 32 C37 33.98 37 35.96 37 38 C32.52084729 38.0292814 28.04171958 38.04689296 23.5625 38.0625 C22.30244141 38.07087891 21.04238281 38.07925781 19.74414062 38.08789062 C13.0710797 38.10531376 6.61231832 37.91378066 0 37 C-0.33 35.35 -0.66 33.7 -1 32 C-0.34 32 0.32 32 1 32 C1 27.71 1 23.42 1 19 C0.34 19 -0.32 19 -1 19 C-1 17.68 -1 16.36 -1 15 C-0.34 15 0.32 15 1 15 C0.67 10.05 0.34 5.1 0 0 Z " fill="#1E1A1B" transform="translate(149,145)"/>
<path d="M0 0 C1.98 0 3.96 0 6 0 C6 2.31 6 4.62 6 7 C11.28 7 16.56 7 22 7 C22.495 9.475 22.495 9.475 23 12 C14.585 12.495 14.585 12.495 6 13 C5.67 19.27 5.34 25.54 5 32 C10.94 32 16.88 32 23 32 C23 33.65 23 35.3 23 37 C11.12 37 -0.76 37 -13 37 C-13 35.35 -13 33.7 -13 32 C-8.71 32 -4.42 32 0 32 C0 21.44 0 10.88 0 0 Z " fill="#060404" transform="translate(23,144)"/>
<path d="M0 0 C0.99 0.33 1.98 0.66 3 1 C3.33 22.45 3.66 43.9 4 66 C8.29 66 12.58 66 17 66 C16.97679687 64.74703125 16.95359375 63.4940625 16.9296875 62.203125 C16.91092573 60.5520893 16.89272597 58.90104715 16.875 57.25 C16.84986328 56.0125 16.84986328 56.0125 16.82421875 54.75 C16.81777344 53.95078125 16.81132812 53.1515625 16.8046875 52.328125 C16.79421387 51.5949707 16.78374023 50.86181641 16.77294922 50.10644531 C17 48 17 48 19 44 C19.33 51.92 19.66 59.84 20 68 C12.74 68 5.48 68 -2 68 C-2.10267131 54.24204419 -1.93508444 40.50473137 -1.62667847 26.75067139 C-1.58390447 24.83407904 -1.54266419 22.91745186 -1.50296021 21.00079346 C-1.445584 18.2686239 -1.38193181 15.53667238 -1.31640625 12.8046875 C-1.29968872 11.97632385 -1.28297119 11.14796021 -1.26574707 10.29449463 C-1.1730696 6.71461678 -0.95861426 3.44839312 0 0 Z " fill="#05140A" transform="translate(130,61)"/>
<path d="M0 0 C3.63 0 7.26 0 11 0 C11.33 5.28 11.66 10.56 12 16 C12.99 16 13.98 16 15 16 C15 11.05 15 6.1 15 1 C15.33 1 15.66 1 16 1 C16.33 3.97 16.66 6.94 17 10 C17.33 8.02 17.66 6.04 18 4 C18.99 4 19.98 4 21 4 C20.91321237 6.29239061 20.80504727 8.5839807 20.6875 10.875 C20.62949219 12.15117187 20.57148438 13.42734375 20.51171875 14.7421875 C20.34285156 15.81726563 20.17398438 16.89234375 20 18 C19.01 18.66 18.02 19.32 17 20 C16.27034634 22.56282742 16.27034634 22.56282742 16 25 C17.98 25 19.96 25 22 25 C22 26.65 22 28.3 22 30 C20.35425434 30.02688151 18.70838587 30.04634123 17.0625 30.0625 C16.14597656 30.07410156 15.22945312 30.08570313 14.28515625 30.09765625 C12 30 12 30 11 29 C10.95907063 26.66702567 10.95758277 24.33294775 11 22 C10.34 22 9.68 22 9 22 C9 23.98 9 25.96 9 28 C8.67 28 8.34 28 8 28 C7.67 20.08 7.34 12.16 7 4 C4.69 4 2.38 4 0 4 C0 2.68 0 1.36 0 0 Z " fill="#989495" transform="translate(118,152)"/>
<path d="M0 0 C1.19287411 3.87684087 2 6.91621923 2 11 C1.34 11 0.68 11 0 11 C0 12.65 0 14.3 0 16 C-3.3 16 -6.6 16 -10 16 C-9.67 16.66 -9.34 17.32 -9 18 C-6.87423218 18.46651207 -6.87423218 18.46651207 -4.4375 18.625 C-3.61121094 18.69976562 -2.78492188 18.77453125 -1.93359375 18.8515625 C-1.29550781 18.90054688 -0.65742188 18.94953125 0 19 C0 20.32 0 21.64 0 23 C-0.99 22.67 -1.98 22.34 -3 22 C-2.34 22 -1.68 22 -1 22 C-1 21.34 -1 20.68 -1 20 C-4.63 20 -8.26 20 -12 20 C-11.67 18.35 -11.34 16.7 -11 15 C-8.03 15 -5.06 15 -2 15 C-2.33 14.01 -2.66 13.02 -3 12 C-3.66 12.66 -4.32 13.32 -5 14 C-8.125 13.625 -8.125 13.625 -11 13 C-10.67 11.02 -10.34 9.04 -10 7 C-10.99 7 -11.98 7 -13 7 C-13 7.66 -13 8.32 -13 9 C-13.99 8.67 -14.98 8.34 -16 8 C-17.56118428 7.93259135 -19.1250252 7.91485544 -20.6875 7.9375 C-21.49574219 7.94652344 -22.30398437 7.95554688 -23.13671875 7.96484375 C-23.75160156 7.97644531 -24.36648437 7.98804688 -25 8 C-25 7.34 -25 6.68 -25 6 C-22.03 6 -19.06 6 -16 6 C-16 5.34 -16 4.68 -16 4 C-18.64 4 -21.28 4 -24 4 C-24.33 2.68 -24.66 1.36 -25 0 C-16.56758584 -1.35520942 -8.46334215 -0.67499048 0 0 Z " fill="#423D3F" transform="translate(184,146)"/>
<path d="M0 0 C3.375 0.25 3.375 0.25 7 1 C9.31999036 3.82433609 9.1773417 6.453166 9 10 C9 11.32 9 12.64 9 14 C9 15.32 9 16.64 9 18 C10.32 18 11.64 18 13 18 C13 15.36 13 12.72 13 10 C13.33 10 13.66 10 14 10 C14 12.97 14 15.94 14 19 C13.01 19 12.02 19 11 19 C11.66 23.62 12.32 28.24 13 33 C12.34 33 11.68 33 11 33 C11 30.03 11 27.06 11 24 C10.34 24 9.68 24 9 24 C9 25.32 9 26.64 9 28 C8.34 28 7.68 28 7 28 C7.061875 28.928125 7.12375 29.85625 7.1875 30.8125 C7 34 7 34 5.75 35.9375 C4 37 4 37 1.8125 36.6875 C1.214375 36.460625 0.61625 36.23375 0 36 C0.32297514 34.33129513 0.66013333 32.66534667 1 31 C1.14566406 30.24074219 1.29132812 29.48148438 1.44140625 28.69921875 C1.60511719 27.89097656 1.76882812 27.08273438 1.9375 26.25 C2.09089844 25.47140625 2.24429688 24.6928125 2.40234375 23.890625 C2.59957031 23.26671875 2.79679687 22.6428125 3 22 C3.66 21.67 4.32 21.34 5 21 C4.0409375 20.4740625 4.0409375 20.4740625 3.0625 19.9375 C0.17836168 17.22815794 0.2899178 14.84141089 0 11 C0.99 11 1.98 11 3 11 C2.505 9.9275 2.01 8.855 1.5 7.75 C0.11346089 4.74583192 0 3.54065105 0 0 Z " fill="#968F8F" transform="translate(56,144)"/>
<path d="M0 0 C1.4540625 0.0309375 1.4540625 0.0309375 2.9375 0.0625 C4.29111775 6.89074952 3.82854878 13.57781705 3.5 20.5 C3.44779297 21.70849609 3.39558594 22.91699219 3.34179688 24.16210938 C3.21279246 27.12921084 3.0778565 30.09591748 2.9375 33.0625 C4.2575 33.3925 5.5775 33.7225 6.9375 34.0625 C5.9475 34.0625 4.9575 34.0625 3.9375 34.0625 C3.9375 34.7225 3.9375 35.3825 3.9375 36.0625 C0.98085481 37.5408226 -1.80479737 37.12282783 -5.0625 37.0625 C-4.90023926 36.35061523 -4.73797852 35.63873047 -4.57080078 34.90527344 C-4.06257865 32.06293986 -3.93318196 29.46254972 -3.9296875 26.578125 C-3.92839844 25.56105469 -3.92710938 24.54398438 -3.92578125 23.49609375 C-3.92964844 22.44550781 -3.93351562 21.39492187 -3.9375 20.3125 C-3.93363281 19.24644531 -3.92976563 18.18039063 -3.92578125 17.08203125 C-3.92771484 15.56416016 -3.92771484 15.56416016 -3.9296875 14.015625 C-3.93081543 13.08911133 -3.93194336 12.16259766 -3.93310547 11.20800781 C-3.82337937 9.08053517 -3.82337937 9.08053517 -5.0625 8.0625 C-4.20786158 0.08587473 -4.20786158 0.08587473 0 0 Z " fill="#0B0607" transform="translate(107.0625,143.9375)"/>
<path d="M0 0 C0 12.21 0 24.42 0 37 C-0.66 36.34 -1.32 35.68 -2 35 C-5.01263725 34.72108853 -5.01263725 34.72108853 -8.5390625 34.8046875 C-9.84101562 34.81113281 -11.14296875 34.81757812 -12.484375 34.82421875 C-13.86458595 34.84093071 -15.24479429 34.85786061 -16.625 34.875 C-18.01301452 34.88502994 -19.40103589 34.89415577 -20.7890625 34.90234375 C-24.19288026 34.92598137 -27.59635506 34.95893133 -31 35 C-31.33 34.34 -31.66 33.68 -32 33 C-28.45835085 32.9707933 -24.91673303 32.95313186 -21.375 32.9375 C-20.37597656 32.92912109 -19.37695312 32.92074219 -18.34765625 32.91210938 C-17.37441406 32.90888672 -16.40117188 32.90566406 -15.3984375 32.90234375 C-14.50817871 32.89710693 -13.61791992 32.89187012 -12.70068359 32.88647461 C-10 33 -10 33 -4 34 C-4 23.77 -4 13.54 -4 3 C-5.32 3 -6.64 3 -8 3 C-8.33 3.99 -8.66 4.98 -9 6 C-15.27 5.34 -21.54 4.68 -28 4 C-28 4.66 -28 5.32 -28 6 C-28.99 6.33 -29.98 6.66 -31 7 C-32.20270964 9.40541929 -32.20316663 11.10366591 -32.31640625 13.7890625 C-32.35830078 14.73007813 -32.40019531 15.67109375 -32.44335938 16.640625 C-32.48267578 17.62546875 -32.52199219 18.6103125 -32.5625 19.625 C-32.60568359 20.61757812 -32.64886719 21.61015625 -32.69335938 22.6328125 C-32.79961069 25.08839838 -32.90164964 27.54408703 -33 30 C-32.34 30.33 -31.68 30.66 -31 31 C-31.66 31 -32.32 31 -33 31 C-33.33 31.66 -33.66 32.32 -34 33 C-34 24.09 -34 15.18 -34 6 C-33.34 6 -32.68 6 -32 6 C-32 5.01 -32 4.02 -32 3 C-25.18004647 2.0549718 -18.41423497 1.67493859 -11.5390625 1.39453125 C-10.724375 1.35714844 -9.9096875 1.31976563 -9.0703125 1.28125 C-8.33570801 1.25095703 -7.60110352 1.22066406 -6.84423828 1.18945312 C-4.20204493 0.91802844 -2.80908731 0 0 0 Z " fill="#0E2F1F" transform="translate(82,92)"/>
<path d="M0 0 C0.33 0 0.66 0 1 0 C1 16.5 1 33 1 50 C-6.59 50 -14.18 50 -22 50 C-22.0229888 45.80071237 -22.04289236 41.60164422 -22.05493164 37.40234375 C-22.05995206 35.97460184 -22.06676972 34.54686504 -22.07543945 33.11914062 C-22.08760553 31.06378921 -22.09325128 29.00850593 -22.09765625 26.953125 C-22.10289307 25.71723633 -22.10812988 24.48134766 -22.11352539 23.20800781 C-22.02071737 20.5854329 -21.78356673 18.48355406 -21 16 C-20.34 16 -19.68 16 -19 16 C-14.71131949 25.54358548 -17.30395936 37.82040569 -18 48 C-12.39 48 -6.78 48 -1 48 C-0.67 32.16 -0.34 16.32 0 0 Z " fill="#000C01" transform="translate(115,78)"/>
<path d="M0 0 C12.21 0 24.42 0 37 0 C36.67 25.41 36.34 50.82 36 77 C35.67 77 35.34 77 35 77 C34.9768313 67.68145282 34.95906178 58.36291555 34.94818783 49.04434586 C34.94296893 44.71737908 34.93588926 40.390432 34.92456055 36.06347656 C34.91369645 31.88785356 34.90771567 27.71224951 34.90512276 23.53661346 C34.90327487 21.94341483 34.89966645 20.35021724 34.89426994 18.75702667 C34.8870128 16.52582048 34.88601104 14.29469266 34.88647461 12.06347656 C34.884254 10.79328674 34.88203339 9.52309692 34.87974548 8.2144165 C35 5 35 5 36 1 C26.43 1.33 16.86 1.66 7 2 C7 2.66 7 3.32 7 4 C8.98 4 10.96 4 13 4 C13 4.33 13 4.66 13 5 C10.69 5 8.38 5 6 5 C5.34 12.59 4.68 20.18 4 28 C3.67 28 3.34 28 3 28 C2.67 21.4 2.34 14.8 2 8 C1.16925009 15.35388293 1.16925009 15.35388293 0.68359375 22.69140625 C0.64169922 23.65498047 0.59980469 24.61855469 0.55664062 25.61132812 C0.51732422 26.58521484 0.47800781 27.55910156 0.4375 28.5625 C0.39431641 29.57119141 0.35113281 30.57988281 0.30664062 31.61914062 C0.20170382 34.07932575 0.09954299 36.53959175 0 39 C-0.33 39 -0.66 39 -1 39 C-1.02464849 33.60653012 -1.04283531 28.21309275 -1.05493164 22.81958008 C-1.05997231 20.98331125 -1.06680477 19.14704646 -1.07543945 17.31079102 C-1.08751672 14.67723599 -1.09323081 12.04373384 -1.09765625 9.41015625 C-1.10281754 8.58411392 -1.10797882 7.75807159 -1.11329651 6.90699768 C-1.11349205 4.93763632 -1.06204152 2.96838386 -1 1 C-0.67 0.67 -0.34 0.34 0 0 Z " fill="#3D4D41" transform="translate(115,16)"/>
<path d="M0 0 C-3 2 -3 2 -5 2 C-5.33 3.32 -5.66 4.64 -6 6 C-7.98 6 -9.96 6 -12 6 C-11.67 8.64 -11.34 11.28 -11 14 C-9.35 14 -7.7 14 -6 14 C-6.495 13.54625 -6.99 13.0925 -7.5 12.625 C-9 11 -9 11 -9 9 C-7.8553125 8.7834375 -7.8553125 8.7834375 -6.6875 8.5625 C-3.91827092 8.0367406 -3.91827092 8.0367406 -1 7 C-1 9.64 -1 12.28 -1 15 C1.97 15.33 4.94 15.66 8 16 C8.33 16.99 8.66 17.98 9 19 C5.7 19.66 2.4 20.32 -1 21 C-1.33 21.99 -1.66 22.98 -2 24 C-3.32 24 -4.64 24 -6 24 C-6.33 23.34 -6.66 22.68 -7 22 C-7.99 21.67 -8.98 21.34 -10 21 C-9.67 22.65 -9.34 24.3 -9 26 C-10.32 26 -11.64 26 -13 26 C-13 18.74 -13 11.48 -13 4 C-11.35 4 -9.7 4 -8 4 C-8 2.68 -8 1.36 -8 0 C-4.71023192 -1.09658936 -3.28696233 -0.79953138 0 0 Z " fill="#0A5332" transform="translate(62,99)"/>
<path d="M0 0 C11.55 0 23.1 0 35 0 C34.89030832 7.82545115 34.77975694 15.6508076 34.66095734 23.47611237 C34.60587301 27.12068381 34.5523508 30.76526245 34.50268555 34.40991211 C34.45473439 37.92425987 34.40238353 41.43851773 34.34705925 44.95275688 C34.31694284 46.93729756 34.29131188 48.92190467 34.26576233 50.9065094 C34.17126943 56.68989969 34.0427349 62.30392147 33 68 C32.67 68 32.34 68 32 68 C31.505 36.32 31.505 36.32 31 4 C22.75 3.67 14.5 3.34 6 3 C6 2.34 6 1.68 6 1 C4.02 1 2.04 1 0 1 C0 0.67 0 0.34 0 0 Z " fill="#011003" transform="translate(116,17)"/>
<path d="M0 0 C10.23 0.33 20.46 0.66 31 1 C31 1.33 31 1.66 31 2 C22.42 2 13.84 2 5 2 C5 3.65 5 5.3 5 7 C4.34 7 3.68 7 3 7 C3 15.91 3 24.82 3 34 C6.36551123 35.12183708 9.09060232 35.20800968 12.63671875 35.31640625 C13.80678467 35.35451416 14.97685059 35.39262207 16.18237305 35.43188477 C17.66906494 35.47498779 19.15575684 35.51809082 20.6875 35.5625 C25.410625 35.706875 30.13375 35.85125 35 36 C35 26.1 35 16.2 35 6 C35.33 6 35.66 6 36 6 C36 16.56 36 27.12 36 38 C24.12 37.67 12.24 37.34 0 37 C0 24.79 0 12.58 0 0 Z M1 1 C1 1.66 1 2.32 1 3 C1.99 3 2.98 3 4 3 C4 2.34 4 1.68 4 1 C3.01 1 2.02 1 1 1 Z " fill="#010902" transform="translate(45,91)"/>
<path d="M0 0 C0.33 0.99 0.66 1.98 1 3 C1.66 3 2.32 3 3 3 C3 4.32 3 5.64 3 7 C5.97 7 8.94 7 12 7 C12 7.99 12 8.98 12 10 C9.36 10 6.72 10 4 10 C4 10.99 4 11.98 4 13 C6.64 13 9.28 13 12 13 C12 13.99 12 14.98 12 16 C9.36 16 6.72 16 4 16 C4 16.99 4 17.98 4 19 C6.31 19 8.62 19 11 19 C11 19.99 11 20.98 11 22 C8.69 22 6.38 22 4 22 C4 22.99 4 23.98 4 25 C6.64 25 9.28 25 12 25 C12.33 25.99 12.66 26.98 13 28 C8.71 28 4.42 28 0 28 C0 18.76 0 9.52 0 0 Z " fill="#B2ABAD" transform="translate(156,149)"/>
<path d="M0 0 C1.98 0 3.96 0 6 0 C6 2.31 6 4.62 6 7 C11.28 7 16.56 7 22 7 C22.33 8.65 22.66 10.3 23 12 C14.585 12.495 14.585 12.495 6 13 C5.67 18.94 5.34 24.88 5 31 C4.67 31 4.34 31 4 31 C3.67 26.38 3.34 21.76 3 17 C2.01 16.67 1.02 16.34 0 16 C0 10.72 0 5.44 0 0 Z " fill="#2A2828" transform="translate(23,144)"/>
<path d="M0 0 C0.33 0 0.66 0 1 0 C1.33 15.84 1.66 31.68 2 48 C2.33 48 2.66 48 3 48 C3 63.84 3 79.68 3 96 C2.67 96 2.34 96 2 96 C1.67 90.39 1.34 84.78 1 79 C0.67 84.94 0.34 90.88 0 97 C-4.29 97 -8.58 97 -13 97 C-13 96.34 -13 95.68 -13 95 C-9.04 95.33 -5.08 95.66 -1 96 C-0.97528811 89.2373074 -0.95713432 82.47464107 -0.94506836 75.71191406 C-0.94003843 73.41112816 -0.93321376 71.11034545 -0.92456055 68.80957031 C-0.91243641 65.50324718 -0.90675828 62.1969663 -0.90234375 58.890625 C-0.89718246 57.86132874 -0.89202118 56.83203247 -0.88670349 55.77154541 C-0.88662796 54.81085144 -0.88655243 53.85015747 -0.88647461 52.86035156 C-0.88314369 51.59460297 -0.88314369 51.59460297 -0.87974548 50.30328369 C-0.92541314 47.98766505 -0.92541314 47.98766505 -1.56959534 45.75872803 C-1.71162888 45.17834778 -1.85366241 44.59796753 -2 44 C-1.505 43.505 -1.505 43.505 -1 43 C-0.87814857 41.65016252 -0.82233169 40.29425299 -0.79467773 38.93920898 C-0.77473251 38.07839218 -0.75478729 37.21757538 -0.73423767 36.33067322 C-0.71752518 35.39526199 -0.70081268 34.45985077 -0.68359375 33.49609375 C-0.6524221 32.06657127 -0.6524221 32.06657127 -0.62062073 30.60816956 C-0.55501823 27.5513559 -0.49619082 24.49445344 -0.4375 21.4375 C-0.39432494 19.37043337 -0.35071099 17.30337586 -0.30664062 15.23632812 C-0.19932599 10.15764405 -0.09808909 5.0788703 0 0 Z " fill="#163122" transform="translate(147,30)"/>
<path d="M0 0 C1.93166016 0.01740234 1.93166016 0.01740234 3.90234375 0.03515625 C5.19269531 0.04417969 6.48304687 0.05320313 7.8125 0.0625 C8.81152344 0.07410156 9.81054688 0.08570313 10.83984375 0.09765625 C10.82824219 1.41121094 10.81664063 2.72476563 10.8046875 4.078125 C10.79530547 5.81380066 10.78620571 7.54947786 10.77734375 9.28515625 C10.76896484 10.14947266 10.76058594 11.01378906 10.75195312 11.90429688 C10.73587563 16.10052394 10.76425337 20.00702511 11.83984375 24.09765625 C10.84984375 24.09765625 9.85984375 24.09765625 8.83984375 24.09765625 C8.83984375 25.41765625 8.83984375 26.73765625 8.83984375 28.09765625 C6.19984375 28.09765625 3.55984375 28.09765625 0.83984375 28.09765625 C0.83984375 27.76765625 0.83984375 27.43765625 0.83984375 27.09765625 C2.48984375 27.09765625 4.13984375 27.09765625 5.83984375 27.09765625 C5.83984375 24.78765625 5.83984375 22.47765625 5.83984375 20.09765625 C6.49984375 20.09765625 7.15984375 20.09765625 7.83984375 20.09765625 C7.50984375 18.11765625 7.17984375 16.13765625 6.83984375 14.09765625 C3.53984375 13.76765625 0.23984375 13.43765625 -3.16015625 13.09765625 C-2.50015625 11.11765625 -1.84015625 9.13765625 -1.16015625 7.09765625 C-0.17015625 7.09765625 0.81984375 7.09765625 1.83984375 7.09765625 C1.83984375 8.08765625 1.83984375 9.07765625 1.83984375 10.09765625 C3.15984375 9.76765625 4.47984375 9.43765625 5.83984375 9.09765625 C6.16984375 7.44765625 6.49984375 5.79765625 6.83984375 4.09765625 C4.85416667 3.90234375 2.86848958 3.70703125 0.8828125 3.51171875 C-1.16015625 3.09765625 -1.16015625 3.09765625 -4.16015625 1.09765625 C-3.16015625 0.09765625 -3.16015625 0.09765625 0 0 Z " fill="#161215" transform="translate(80.16015625,152.90234375)"/>
<path d="M0 0 C0.33 0 0.66 0 1 0 C1 2.31 1 4.62 1 7 C1.66 7 2.32 7 3 7 C3.17942163 10.94727588 3.09350689 13.5980513 1 17 C1.99 17.33 2.98 17.66 4 18 C3.34 19.98 2.68 21.96 2 24 C1.34 24 0.68 24 0 24 C0.33 24.66 0.66 25.32 1 26 C3.12576782 26.46651207 3.12576782 26.46651207 5.5625 26.625 C6.38878906 26.69976562 7.21507813 26.77453125 8.06640625 26.8515625 C8.70449219 26.90054688 9.34257813 26.94953125 10 27 C10.33 26.34 10.66 25.68 11 25 C11.33 27.31 11.66 29.62 12 32 C13.65 31.67 15.3 31.34 17 31 C17.33 30.01 17.66 29.02 18 28 C19.32 28.33 20.64 28.66 22 29 C21.01 29.99 20.02 30.98 19 32 C19.33 32.66 19.66 33.32 20 34 C20.66 34 21.32 34 22 34 C21.67 35.32 21.34 36.64 21 38 C19.515 37.505 19.515 37.505 18 37 C17.67 37.66 17.34 38.32 17 39 C16.67 37.68 16.34 36.36 16 35 C15.34 35 14.68 35 14 35 C13.67 35.66 13.34 36.32 13 37 C13 35.68 13 34.36 13 33 C12.34 33 11.68 33 11 33 C10.67 34.32 10.34 35.64 10 37 C10 35.02 10 33.04 10 31 C6.7 31 3.4 31 0 31 C-1.13865385 27.58403845 -1.02524163 25.17537791 -0.87890625 21.58203125 C-0.83056641 20.32841797 -0.78222656 19.07480469 -0.73242188 17.78320312 C-0.67634766 16.47287109 -0.62027344 15.16253906 -0.5625 13.8125 C-0.50925765 12.4772337 -0.4565174 11.14194728 -0.40429688 9.80664062 C-0.27447654 6.53752856 -0.13950464 3.26871081 0 0 Z " fill="#174D37" transform="translate(83,61)"/>
<path d="M0 0 C1.1859375 0.00257813 2.371875 0.00515625 3.59375 0.0078125 C4.7796875 0.00523437 5.965625 0.00265625 7.1875 0 C10.09375 0.1328125 10.09375 0.1328125 11.09375 1.1328125 C11.13455783 3.13239614 11.13629356 5.13326504 11.09375 7.1328125 C10.43375 7.1328125 9.77375 7.1328125 9.09375 7.1328125 C9.42375 8.1228125 9.75375 9.1128125 10.09375 10.1328125 C9.908125 10.8134375 9.7225 11.4940625 9.53125 12.1953125 C9.386875 12.8346875 9.2425 13.4740625 9.09375 14.1328125 C9.75375 14.7928125 10.41375 15.4528125 11.09375 16.1328125 C8.45375 16.1328125 5.81375 16.1328125 3.09375 16.1328125 C3.09375 15.1428125 3.09375 14.1528125 3.09375 13.1328125 C-1.36125 12.1428125 -1.36125 12.1428125 -5.90625 11.1328125 C-5.90625 10.8028125 -5.90625 10.4728125 -5.90625 10.1328125 C-2.60625 9.4728125 0.69375 8.8128125 4.09375 8.1328125 C4.09375 7.1428125 4.09375 6.1528125 4.09375 5.1328125 C3.10375 5.1328125 2.11375 5.1328125 1.09375 5.1328125 C1.09375 5.7928125 1.09375 6.4528125 1.09375 7.1328125 C-0.55625 7.1328125 -2.20625 7.1328125 -3.90625 7.1328125 C-3.94879356 5.13326504 -3.94705783 3.13239614 -3.90625 1.1328125 C-2.90625 0.1328125 -2.90625 0.1328125 0 0 Z " fill="#504C4E" transform="translate(76.90625,165.8671875)"/>
<path d="M0 0 C1.62418745 -0.08090971 3.24951745 -0.13914995 4.875 -0.1875 C5.77992188 -0.22230469 6.68484375 -0.25710937 7.6171875 -0.29296875 C8.79667969 -0.14794922 8.79667969 -0.14794922 10 0 C12 3 12 3 12 7 C10.35 7.33 8.7 7.66 7 8 C6.67 12.95 6.34 17.9 6 23 C5.01 23 4.02 23 3 23 C1.85922343 19.57767028 1.90184883 16.91326783 1.9375 13.3125 C1.94652344 12.13300781 1.95554688 10.95351562 1.96484375 9.73828125 C1.97644531 8.83464844 1.98804688 7.93101562 2 7 C-1.63 7 -5.26 7 -9 7 C-9 6.67 -9 6.34 -9 6 C-4.545 5.505 -4.545 5.505 0 5 C0 3.35 0 1.7 0 0 Z M1 1 C1.33 1.66 1.66 2.32 2 3 C2.99 2.34 3.98 1.68 5 1 C3.68 1 2.36 1 1 1 Z " fill="#141011" transform="translate(127,145)"/>
<path d="M0 0 C0.33 0.66 0.66 1.32 1 2 C5.95 2 10.9 2 16 2 C16.33 1.34 16.66 0.68 17 0 C17 0.99 17 1.98 17 3 C12.71 3 8.42 3 4 3 C4 12.57 4 22.14 4 32 C2.68 32 1.36 32 0 32 C0 21.44 0 10.88 0 0 Z " fill="#EAE7E8" transform="translate(110,145)"/>
<path d="M0 0 C0.98097656 0.15339844 1.96195312 0.30679688 2.97265625 0.46484375 C7.11808732 1.05704819 11.25870695 1.32928282 15.4375 1.5625 C16.16904297 1.60568359 16.90058594 1.64886719 17.65429688 1.69335938 C19.43604715 1.79816821 21.21800402 1.89945521 23 2 C23 3.32 23 4.64 23 6 C16.4 6 9.8 6 3 6 C3.33 7.32 3.66 8.64 4 10 C3.34 10.66 2.68 11.32 2 12 C1.34 12 0.68 12 0 12 C0 11.34 0 10.68 0 10 C-0.66 10 -1.32 10 -2 10 C-2.22036864 6.14354879 -1.60355101 3.50776784 0 0 Z " fill="#171113" transform="translate(70,144)"/>
<path d="M0 0 C1.65 0 3.3 0 5 0 C5 4 5 4 4 7 C8.25731568 7.40749675 8.25731568 7.40749675 11.875 5.5 C12.24625 5.005 12.6175 4.51 13 4 C13 5.65 13 7.3 13 9 C10.03 9 7.06 9 4 9 C3.67 10.32 3.34 11.64 3 13 C2.34 13 1.68 13 1 13 C0.67 12.01 0.34 11.02 0 10 C-2.97 10 -5.94 10 -9 10 C-9 9.01 -9 8.02 -9 7 C-6.36 7 -3.72 7 -1 7 C-1 6.01 -1 5.02 -1 4 C-3.97 4 -6.94 4 -10 4 C-9.67 3.01 -9.34 2.02 -9 1 C-7.741875 0.95875 -6.48375 0.9175 -5.1875 0.875 C-4.47980469 0.85179687 -3.77210938 0.82859375 -3.04296875 0.8046875 C-1 1 -1 1 2 3 C2 2.34 2 1.68 2 1 C1.34 0.67 0.68 0.34 0 0 Z " fill="#272626" transform="translate(169,152)"/>
<path d="M0 0 C7.06608191 -0.13794954 13.97360585 0.25194283 21 1 C21 1.66 21 2.32 21 3 C21.66 3 22.32 3 23 3 C22.67 3.99 22.34 4.98 22 6 C21.443125 5.97679688 20.88625 5.95359375 20.3125 5.9296875 C16.25122087 5.83364374 12.67303829 5.94697957 8.75 7.0625 C5.19759749 7.95060063 3.42898421 8.07155756 0 7 C0 4.69 0 2.38 0 0 Z " fill="#0C5B42" transform="translate(84,61)"/>
<path d="M0 0 C0.66 0 1.32 0 2 0 C2 9.57 2 19.14 2 29 C-2.84728341 30.61576114 -5.60528892 31.27443683 -10.4921875 31.4140625 C-11.69101563 31.45273438 -12.88984375 31.49140625 -14.125 31.53125 C-15.98125 31.57765625 -15.98125 31.57765625 -17.875 31.625 C-19.13570312 31.66367188 -20.39640625 31.70234375 -21.6953125 31.7421875 C-24.79673137 31.83616989 -27.89814886 31.92183411 -31 32 C-31 31.34 -31 30.68 -31 30 C-30.22285645 29.98018066 -29.44571289 29.96036133 -28.64501953 29.93994141 C-25.13799309 29.84492991 -21.63158206 29.73515441 -18.125 29.625 C-16.90167969 29.5940625 -15.67835937 29.563125 -14.41796875 29.53125 C-13.25136719 29.49257812 -12.08476563 29.45390625 -10.8828125 29.4140625 C-9.26463623 29.36693115 -9.26463623 29.36693115 -7.61376953 29.31884766 C-4.84238346 29.25323678 -4.84238346 29.25323678 -3 27 C-2.57446839 24.37023476 -2.57446839 24.37023476 -2.4375 21.4375 C-2.09722222 16.09722222 -2.09722222 16.09722222 -1 15 C-0.76346477 12.47403741 -0.57826308 9.96892793 -0.4375 7.4375 C-0.39431641 6.72658203 -0.35113281 6.01566406 -0.30664062 5.28320312 C-0.20028223 3.52238088 -0.09961154 1.7612168 0 0 Z " fill="#021A06" transform="translate(81,63)"/>
<path d="M0 0 C2.31 0 4.62 0 7 0 C7.33 1.32 7.66 2.64 8 4 C7.34 4 6.68 4 6 4 C6 10.93 6 17.86 6 25 C5.01 25.33 4.02 25.66 3 26 C2.63743142 24.5437328 2.28520207 23.08488815 1.9375 21.625 C1.74027344 20.81289062 1.54304687 20.00078125 1.33984375 19.1640625 C1 17 1 17 2 15 C1.93947319 12.81560378 1.93947319 12.81560378 1.625 10.4375 C1.53476563 9.63183594 1.44453125 8.82617188 1.3515625 7.99609375 C1.1979788 6.00673324 1.1979788 6.00673324 0 5 C-0.04063832 3.33382885 -0.042721 1.66611905 0 0 Z " fill="#040101" transform="translate(149,145)"/>
<path d="M0 0 C0.33 1.32 0.66 2.64 1 4 C2.32 4.33 3.64 4.66 5 5 C3.02 5.99 3.02 5.99 1 7 C1 8.65 1 10.3 1 12 C1.66 12.33 2.32 12.66 3 13 C2.34 13 1.68 13 1 13 C1 15.31 1 17.62 1 20 C-2.63 20 -6.26 20 -10 20 C-10 19.34 -10 18.68 -10 18 C-6.7 18 -3.4 18 0 18 C0 16.68 0 15.36 0 14 C-3.63 14 -7.26 14 -11 14 C-10.67 13.01 -10.34 12.02 -10 11 C-6.7 11.33 -3.4 11.66 0 12 C0 10.68 0 9.36 0 8 C-2.97 8 -5.94 8 -9 8 C-9.33 7.01 -9.66 6.02 -10 5 C-6.7 5 -3.4 5 0 5 C0 3.35 0 1.7 0 0 Z " fill="#DDD9DA" transform="translate(184,157)"/>
<path d="M0 0 C9.24 0 18.48 0 28 0 C28 1.32 28 2.64 28 4 C24.83335334 4.02940458 21.66674253 4.04693315 18.5 4.0625 C17.613125 4.07087891 16.72625 4.07925781 15.8125 4.08789062 C10.44176914 4.10763596 5.31366337 3.78835893 0 3 C0 2.01 0 1.02 0 0 Z " fill="#090708" transform="translate(157,178)"/>
<path d="M0 0 C0 0.33 0 0.66 0 1 C-3.3 1 -6.6 1 -10 1 C-10 1.66 -10 2.32 -10 3 C-6.04 3 -2.08 3 2 3 C2 4.98 2 6.96 2 9 C-7.24 9 -16.48 9 -26 9 C-26 8.67 -26 8.34 -26 8 C-17.09 8 -8.18 8 1 8 C1 6.68 1 5.36 1 4 C-0.00417969 4.08378906 -1.00835937 4.16757813 -2.04296875 4.25390625 C-10.82042354 4.92751986 -19.21969177 4.97726033 -28 4 C-28 3.67 -28 3.34 -28 3 C-23.71 3 -19.42 3 -15 3 C-15.33 2.01 -15.66 1.02 -16 0 C-11.34755986 -2.32622007 -4.9262419 -0.98524838 0 0 Z " fill="#5B5959" transform="translate(184,174)"/>
<path d="M0 0 C0 0.66 0 1.32 0 2 C3.3 2 6.6 2 10 2 C10 3.98 10 5.96 10 8 C9.01 7.67 8.02 7.34 7 7 C7 6.34 7 5.68 7 5 C0.4 5 -6.2 5 -13 5 C-13.33 3.68 -13.66 2.36 -14 1 C-4.58997722 -0.14806378 -4.58997722 -0.14806378 0 0 Z " fill="#252223" transform="translate(173,145)"/>
<path d="M0 0 C0.99 0 1.98 0 3 0 C2.91321237 2.29239061 2.80504727 4.5839807 2.6875 6.875 C2.62949219 8.15117187 2.57148438 9.42734375 2.51171875 10.7421875 C2.34285156 11.81726563 2.17398438 12.89234375 2 14 C1.01 14.66 0.02 15.32 -1 16 C-1.72965366 18.56282742 -1.72965366 18.56282742 -2 21 C-0.35 21 1.3 21 3 21 C3 22.32 3 23.64 3 25 C0.36 25 -2.28 25 -5 25 C-5 21.37 -5 17.74 -5 14 C-4.01 14 -3.02 14 -2 14 C-2 13.34 -2 12.68 -2 12 C-1.34 12 -0.68 12 0 12 C0 8.04 0 4.08 0 0 Z " fill="#0C0A0B" transform="translate(136,156)"/>
<path d="M0 0 C0.99 0.33 1.98 0.66 3 1 C4.42857143 9.42857143 4.42857143 9.42857143 2 14 C-0.64 13.34 -3.28 12.68 -6 12 C-6.33 12.99 -6.66 13.98 -7 15 C-7.33 13.68 -7.66 12.36 -8 11 C-7.01 10.67 -6.02 10.34 -5 10 C-5 8.02 -5 6.04 -5 4 C-3.35 4 -1.7 4 0 4 C0 2.68 0 1.36 0 0 Z " fill="#135736" transform="translate(144,21)"/>
<path d="M0 0 C0.99 0 1.98 0 3 0 C3.05401695 2.91691525 3.09368066 5.83282724 3.125 8.75 C3.15013672 9.9875 3.15013672 9.9875 3.17578125 11.25 C3.18222656 12.04921875 3.18867187 12.8484375 3.1953125 13.671875 C3.20578613 14.4050293 3.21625977 15.13818359 3.22705078 15.89355469 C2.96777544 18.29896076 2.19225925 19.91251494 1 22 C0.01 21.67 -0.98 21.34 -2 21 C-1.86179731 17.6871348 -1.71316222 14.37482011 -1.5625 11.0625 C-1.52318359 10.11697266 -1.48386719 9.17144531 -1.44335938 8.19726562 C-1.40146484 7.29814453 -1.35957031 6.39902344 -1.31640625 5.47265625 C-1.27974854 4.64000244 -1.24309082 3.80734863 -1.20532227 2.94946289 C-1 1 -1 1 0 0 Z " fill="#A49D9F" transform="translate(119,159)"/>
<path d="M0 0 C0.33 0 0.66 0 1 0 C1 24.42 1 48.84 1 74 C0.67 74 0.34 74 0 74 C-0.02505615 73.23333008 -0.0501123 72.46666016 -0.07592773 71.67675781 C-0.19201423 68.20100717 -0.31468366 64.72551908 -0.4375 61.25 C-0.47681641 60.0434375 -0.51613281 58.836875 -0.55664062 57.59375 C-0.59853516 56.43359375 -0.64042969 55.2734375 -0.68359375 54.078125 C-0.72025146 53.00981445 -0.75690918 51.94150391 -0.79467773 50.84082031 C-0.91302728 48.06319444 -0.91302728 48.06319444 -1.58227539 45.68261719 C-1.72012451 45.12735352 -1.85797363 44.57208984 -2 44 C-1.505 43.505 -1.505 43.505 -1 43 C-0.87814857 41.65016252 -0.82233169 40.29425299 -0.79467773 38.93920898 C-0.77473251 38.07839218 -0.75478729 37.21757538 -0.73423767 36.33067322 C-0.70916893 34.92755638 -0.70916893 34.92755638 -0.68359375 33.49609375 C-0.66281265 32.54307877 -0.64203156 31.59006378 -0.62062073 30.60816956 C-0.55501823 27.5513559 -0.49619082 24.49445344 -0.4375 21.4375 C-0.39432494 19.37043337 -0.35071099 17.30337586 -0.30664062 15.23632812 C-0.19932599 10.15764405 -0.09808909 5.0788703 0 0 Z " fill="#083820" transform="translate(147,30)"/>
<path d="M0 0 C2.71663793 2.71663793 2.30753121 4.30194653 2.4140625 8.1015625 C2.45273438 9.31328125 2.49140625 10.525 2.53125 11.7734375 C2.57765625 13.67996094 2.57765625 13.67996094 2.625 15.625 C2.66367188 16.90375 2.70234375 18.1825 2.7421875 19.5 C2.83671049 22.66652017 2.92226357 25.8330304 3 29 C1.68 29.33 0.36 29.66 -1 30 C-1.19148936 9.46808511 -1.19148936 9.46808511 0 0 Z " fill="#010E03" transform="translate(116,22)"/>
<path d="M0 0 C3.96 0 7.92 0 12 0 C10.515 1.485 10.515 1.485 9 3 C21.87 3.495 21.87 3.495 35 4 C35.33 2.68 35.66 1.36 36 0 C36 1.65 36 3.3 36 5 C24.12 5 12.24 5 0 5 C0 3.35 0 1.7 0 0 Z " fill="#181516" transform="translate(10,176)"/>
<path d="M0 0 C1.65 0 3.3 0 5 0 C4.91276622 1.77174819 4.80458345 3.54247377 4.6875 5.3125 C4.62949219 6.29863281 4.57148437 7.28476563 4.51171875 8.30078125 C3.95242979 11.25092381 3.43148365 12.2836586 1 14 C-1.1875 13.6875 -1.1875 13.6875 -3 13 C-2.17812739 8.61667943 -1.09845718 4.32059823 0 0 Z " fill="#130F10" transform="translate(59,167)"/>
<path d="M0 0 C3.63 0.33 7.26 0.66 11 1 C11 1.99 11 2.98 11 4 C8.36 4 5.72 4 3 4 C3 4.99 3 5.98 3 7 C5.31 7 7.62 7 10 7 C10 7.99 10 8.98 10 10 C6.7 10 3.4 10 0 10 C0 6.7 0 3.4 0 0 Z " fill="#D7D0D2" transform="translate(157,161)"/>
<path d="M0 0 C6.625 -0.125 6.625 -0.125 10 1 C10 1.99 10 2.98 10 4 C11.65 3.67 13.3 3.34 15 3 C15.33 2.01 15.66 1.02 16 0 C17.32 0.33 18.64 0.66 20 1 C19.01 1.99 18.02 2.98 17 4 C17.33 4.66 17.66 5.32 18 6 C18.66 6 19.32 6 20 6 C19.67 7.32 19.34 8.64 19 10 C18.01 9.67 17.02 9.34 16 9 C15.67 9.66 15.34 10.32 15 11 C14.67 9.68 14.34 8.36 14 7 C13.34 7 12.68 7 12 7 C11.67 7.66 11.34 8.32 11 9 C11 7.68 11 6.36 11 5 C10.34 5 9.68 5 9 5 C8.67 6.32 8.34 7.64 8 9 C8 6.69 8 4.38 8 2 C5.36 2 2.72 2 0 2 C0 1.34 0 0.68 0 0 Z " fill="#074125" transform="translate(85,89)"/>
<path d="M0 0 C0 0.66 0 1.32 0 2 C1.918125 1.690625 1.918125 1.690625 3.875 1.375 C6.0546875 1.0234375 6.0546875 1.0234375 8 1 C8.66 1.66 9.32 2.32 10 3 C7.58464752 4.20767624 6.52153592 3.97793036 3.8671875 3.66015625 C3.06152344 3.56669922 2.25585938 3.47324219 1.42578125 3.37695312 C0.58402344 3.27318359 -0.25773437 3.16941406 -1.125 3.0625 C-2.39923828 2.91264648 -2.39923828 2.91264648 -3.69921875 2.75976562 C-5.80012277 2.51190616 -7.90015149 2.25664815 -10 2 C-10 2.66 -10 3.32 -10 4 C-10.99 4.33 -11.98 4.66 -13 5 C-14.20270964 7.40541929 -14.20316663 9.10366591 -14.31640625 11.7890625 C-14.35830078 12.73007813 -14.40019531 13.67109375 -14.44335938 14.640625 C-14.48267578 15.62546875 -14.52199219 16.6103125 -14.5625 17.625 C-14.60568359 18.61757812 -14.64886719 19.61015625 -14.69335938 20.6328125 C-14.79961069 23.08839838 -14.90164964 25.54408703 -15 28 C-14.34 28.33 -13.68 28.66 -13 29 C-13.66 29 -14.32 29 -15 29 C-15.33 29.66 -15.66 30.32 -16 31 C-16 22.09 -16 13.18 -16 4 C-15.34 4 -14.68 4 -14 4 C-14 3.01 -14 2.02 -14 1 C-9.27616037 0.34843591 -4.78025483 -0.11950637 0 0 Z " fill="#0B3F22" transform="translate(64,94)"/>
<path d="M0 0 C0.33 0 0.66 0 1 0 C1.33 2.97 1.66 5.94 2 9 C2.33 9 2.66 9 3 9 C3 10.98 3 12.96 3 15 C2.34 15 1.68 15 1 15 C1 15.66 1 16.32 1 17 C0.01 17 -0.98 17 -2 17 C-2 20.63 -2 24.26 -2 28 C0.64 28 3.28 28 6 28 C6.33 26.68 6.66 25.36 7 24 C7 25.65 7 27.3 7 29 C5.35425434 29.02688151 3.70838587 29.04634123 2.0625 29.0625 C1.14597656 29.07410156 0.22945312 29.08570313 -0.71484375 29.09765625 C-3 29 -3 29 -4 28 C-4.07319621 25.30345146 -4.09242537 22.63308542 -4.0625 19.9375 C-4.05798828 19.17888672 -4.05347656 18.42027344 -4.04882812 17.63867188 C-4.0370068 15.75908129 -4.01907078 13.87953101 -4 12 C-3.67 12.99 -3.34 13.98 -3 15 C-2.01 15 -1.02 15 0 15 C0 10.05 0 5.1 0 0 Z " fill="#666263" transform="translate(133,153)"/>
<path d="M0 0 C0.33 0 0.66 0 1 0 C2.03965818 4.25764778 2.15018779 8.39251207 2.125 12.75 C2.12886719 13.43449219 2.13273437 14.11898437 2.13671875 14.82421875 C2.12672061 19.87327939 2.12672061 19.87327939 1 21 C-1.67058851 21.14115161 -4.32432238 21.04247107 -7 21 C-6.34 20.67 -5.68 20.34 -5 20 C-5 19.34 -5 18.68 -5 18 C-4.01 17.67 -3.02 17.34 -2 17 C-1.93941406 15.85660156 -1.87882812 14.71320313 -1.81640625 13.53515625 C-1.73201572 12.04425695 -1.64736698 10.55337225 -1.5625 9.0625 C-1.52318359 8.30775391 -1.48386719 7.55300781 -1.44335938 6.77539062 C-1.11328125 1.11328125 -1.11328125 1.11328125 0 0 Z " fill="#100C0D" transform="translate(116,160)"/>
<path d="M0 0 C0.33 0 0.66 0 1 0 C1.17258669 9.05121285 0.6171694 17.97389756 0 27 C5.61 27 11.22 27 17 27 C17 23.37 17 19.74 17 16 C17.33 16 17.66 16 18 16 C18 19.96 18 23.92 18 28 C11.4 28 4.8 28 -2 28 C-2 21.07 -2 14.14 -2 7 C-1.34 7 -0.68 7 0 7 C0 4.69 0 2.38 0 0 Z " fill="#072613" transform="translate(97,99)"/>
<path d="M0 0 C0.33 0.66 0.66 1.32 1 2 C5.95 2 10.9 2 16 2 C16.33 1.34 16.66 0.68 17 0 C17 0.99 17 1.98 17 3 C12.71 3 8.42 3 4 3 C4 12.57 4 22.14 4 32 C2.68 31.67 1.36 31.34 0 31 C0.99 31 1.98 31 3 31 C3 23.08 3 15.16 3 7 C2.01 7.33 1.02 7.66 0 8 C0 5.36 0 2.72 0 0 Z " fill="#8B8788" transform="translate(110,145)"/>
<path d="M0 0 C4.29 0 8.58 0 13 0 C13 1.65 13 3.3 13 5 C11.35 5.33 9.7 5.66 8 6 C8 5.01 8 4.02 8 3 C6.68 3 5.36 3 4 3 C4 3.66 4 4.32 4 5 C2.68 5 1.36 5 0 5 C0 3.35 0 1.7 0 0 Z " fill="#B8B4B6" transform="translate(74,157)"/>
<path d="M0 0 C2.64590014 -0.02684679 5.29153096 -0.04676357 7.9375 -0.0625 C8.69224609 -0.07087891 9.44699219 -0.07925781 10.22460938 -0.08789062 C12.14994313 -0.09652441 14.07535581 -0.05224333 16 0 C17 1 17 1 17.0625 4.0625 C17.041875 5.031875 17.02125 6.00125 17 7 C16.67 7 16.34 7 16 7 C15.87625 6.195625 15.7525 5.39125 15.625 4.5625 C15.41875 3.716875 15.2125 2.87125 15 2 C14.34 1.67 13.68 1.34 13 1 C13 2.32 13 3.64 13 5 C12.34 5 11.68 5 11 5 C11 4.01 11 3.02 11 2 C10.29875 2.495 9.5975 2.99 8.875 3.5 C5.62880281 5.1936681 3.60659844 5.25162315 0 5 C0 3.35 0 1.7 0 0 Z " fill="#0B4122" transform="translate(131,20)"/>
<path d="M0 0 C0.66 0.66 1.32 1.32 2 2 C4.89883083 2.24339551 4.89883083 2.24339551 8.125 2.125 C9.76855469 2.09792969 9.76855469 2.09792969 11.4453125 2.0703125 C12.28835937 2.04710937 13.13140625 2.02390625 14 2 C14 2.99 14 3.98 14 5 C6.08 5 -1.84 5 -10 5 C-10 4.01 -10 3.02 -10 2 C-9.04287109 1.90912109 -9.04287109 1.90912109 -8.06640625 1.81640625 C-6.82697266 1.69072266 -6.82697266 1.69072266 -5.5625 1.5625 C-4.73878906 1.48128906 -3.91507813 1.40007812 -3.06640625 1.31640625 C-1.01337975 1.21069185 -1.01337975 1.21069185 0 0 Z " fill="#1A1A19" transform="translate(170,169)"/>
<path d="M0 0 C0.66 0 1.32 0 2 0 C2 7.92 2 15.84 2 24 C3.32 24.33 4.64 24.66 6 25 C2.04 25.495 2.04 25.495 -2 26 C-1.84152588 25.44731445 -1.68305176 24.89462891 -1.51977539 24.32519531 C-0.95067733 21.77935695 -0.7896572 19.40300555 -0.68359375 16.796875 C-0.64169922 15.8171875 -0.59980469 14.8375 -0.55664062 13.828125 C-0.51732422 12.81234375 -0.47800781 11.7965625 -0.4375 10.75 C-0.39431641 9.71875 -0.35113281 8.6875 -0.30664062 7.625 C-0.20074318 5.0834613 -0.09866557 2.54182804 0 0 Z " fill="#413B3D" transform="translate(108,153)"/>
<path d="M0 0 C0.66 0 1.32 0 2 0 C2 2.64 2 5.28 2 8 C4.47266765 7.65555119 4.47266765 7.65555119 7 7 C7.33 6.34 7.66 5.68 8 5 C8.99 5 9.98 5 11 5 C11 5.99 11 6.98 11 8 C11.66 8.33 12.32 8.66 13 9 C8.38 9.66 3.76 10.32 -1 11 C-2.23825459 7.28523623 -1.70587257 4.81171187 -1 1 C-0.67 0.67 -0.34 0.34 0 0 Z " fill="#060304" transform="translate(70,166)"/>
<path d="M0 0 C0.33 0 0.66 0 1 0 C1 2.31 1 4.62 1 7 C1.99 7 2.98 7 4 7 C4 7.99 4 8.98 4 10 C6.64 10 9.28 10 12 10 C12.33 10.99 12.66 11.98 13 13 C8.71 13 4.42 13 0 13 C0 8.71 0 4.42 0 0 Z " fill="#B7B1B3" transform="translate(156,164)"/>
<path d="M0 0 C1.93166016 0.01740234 1.93166016 0.01740234 3.90234375 0.03515625 C5.19269531 0.04417969 6.48304687 0.05320313 7.8125 0.0625 C8.81152344 0.07410156 9.81054688 0.08570313 10.83984375 0.09765625 C10.83984375 2.07765625 10.83984375 4.05765625 10.83984375 6.09765625 C9.84984375 6.42765625 8.85984375 6.75765625 7.83984375 7.09765625 C7.83984375 6.10765625 7.83984375 5.11765625 7.83984375 4.09765625 C7.22496094 4.04867187 6.61007813 3.9996875 5.9765625 3.94921875 C5.16832031 3.87445313 4.36007813 3.7996875 3.52734375 3.72265625 C2.72683594 3.65304688 1.92632812 3.5834375 1.1015625 3.51171875 C-1.16015625 3.09765625 -1.16015625 3.09765625 -4.16015625 1.09765625 C-3.16015625 0.09765625 -3.16015625 0.09765625 0 0 Z " fill="#0B080A" transform="translate(80.16015625,152.90234375)"/>
<path d="M0 0 C1.65 0 3.3 0 5 0 C5 4.62 5 9.24 5 14 C3.68 14 2.36 14 1 14 C0.34 11.36 -0.32 8.72 -1 6 C-0.34 6 0.32 6 1 6 C0.67 4.02 0.34 2.04 0 0 Z " fill="#C9C3C4" transform="translate(64,148)"/>
<path d="M0 0 C3.375 0.25 3.375 0.25 7 1 C9.23892859 3.82299691 9 5.2791079 9 9 C6.625 9.125 6.625 9.125 4 9 C3.34 8.34 2.68 7.68 2 7 C2 6.01 2 5.02 2 4 C1.34 4 0.68 4 0 4 C0 2.68 0 1.36 0 0 Z " fill="#201D1E" transform="translate(56,144)"/>
<path d="M0 0 C2.31 0 4.62 0 7 0 C7.33 1.32 7.66 2.64 8 4 C7.01 4 6.02 4 5 4 C5 5.64596518 5.02748739 7.29190725 5.0625 8.9375 C5 12 5 12 4 15 C3.34 15 2.68 15 2 15 C1.93941406 14.36191406 1.87882813 13.72382813 1.81640625 13.06640625 C1.73261719 12.24011719 1.64882812 11.41382813 1.5625 10.5625 C1.48128906 9.73878906 1.40007812 8.91507813 1.31640625 8.06640625 C1.21069185 6.01337975 1.21069185 6.01337975 0 5 C-0.04063832 3.33382885 -0.042721 1.66611905 0 0 Z " fill="#181414" transform="translate(149,145)"/>
<path d="M0 0 C1.32 0.33 2.64 0.66 4 1 C2.68 1.33 1.36 1.66 0 2 C0 1.34 0 0.68 0 0 Z M-14 2 C-9.38 2 -4.76 2 0 2 C0 2.99 0 3.98 0 5 C-1.04800781 5.05607422 -1.04800781 5.05607422 -2.1171875 5.11328125 C-3.48230469 5.21189453 -3.48230469 5.21189453 -4.875 5.3125 C-6.23238281 5.39951172 -6.23238281 5.39951172 -7.6171875 5.48828125 C-10.36221601 5.7882039 -10.36221601 5.7882039 -12 9 C-12 8.34 -12 7.68 -12 7 C-12.66 7 -13.32 7 -14 7 C-14 5.35 -14 3.7 -14 2 Z " fill="#030202" transform="translate(128,146)"/>
<path d="M0 0 C10.55808656 -0.18451025 10.55808656 -0.18451025 15 1 C15 1.33 15 1.66 15 2 C11.7 2.33 8.4 2.66 5 3 C5.33 3.99 5.66 4.98 6 6 C6.66 6.33 7.32 6.66 8 7 C4.71023192 8.09658936 3.28696233 7.79953138 0 7 C0 4.69 0 2.38 0 0 Z " fill="#18563E" transform="translate(84,61)"/>
<path d="M0 0 C0.66 0 1.32 0 2 0 C2.04241723 2.33294775 2.04092937 4.66702567 2 7 C1.67 7.33 1.34 7.66 1 8 C0.63239269 10.32817964 0.29758419 12.6618385 0 15 C-0.99 15 -1.98 15 -3 15 C-2.95875 14.05125 -2.9175 13.1025 -2.875 12.125 C-2.65026182 8.89755144 -2.65026182 8.89755144 -5 7 C-5 6.01 -5 5.02 -5 4 C-3.35 3.67 -1.7 3.34 0 3 C0 2.01 0 1.02 0 0 Z " fill="#135837" transform="translate(128,21)"/>
<path d="M0 0 C2.97 0.33 5.94 0.66 9 1 C9 1.33 9 1.66 9 2 C7.35 2.33 5.7 2.66 4 3 C3.67 7.95 3.34 12.9 3 18 C2.01 18 1.02 18 0 18 C-1.28317892 14.15046324 -1.06643637 11.05261865 -1 7 C-0.67 7 -0.34 7 0 7 C0.33 8.65 0.66 10.3 1 12 C1.08159574 7.83861737 0.98248524 4.0527516 0 0 Z " fill="#221D1F" transform="translate(130,150)"/>
<path d="M0 0 C0.33 0 0.66 0 1 0 C1 1.65 1 3.3 1 5 C2.32 5 3.64 5 5 5 C5.33 4.34 5.66 3.68 6 3 C5.49396008 5.16874252 5.00016187 6.99967627 4 9 C3.01 9.33 2.02 9.66 1 10 C0.67 11.98 0.34 13.96 0 16 C1.32 16.33 2.64 16.66 4 17 C1.69 17.33 -0.62 17.66 -3 18 C-2.34 17.67 -1.68 17.34 -1 17 C-1.09539062 16.27554688 -1.19078125 15.55109375 -1.2890625 14.8046875 C-1.91485454 9.34719879 -2.36153322 5.13980761 0 0 Z " fill="#292525" transform="translate(73,157)"/>
<path d="M0 0 C1.98 0 3.96 0 6 0 C6.33 2.64 6.66 5.28 7 8 C4.625 8.125 4.625 8.125 2 8 C0 6 0 6 -0.125 2.875 C-0.08375 1.92625 -0.0425 0.9775 0 0 Z " fill="#110C0C" transform="translate(57,156)"/>
<path d="M0 0 C0.33 0 0.66 0 1 0 C1 1.65 1 3.3 1 5 C-1.97 5 -4.94 5 -8 5 C-8.33 6.32 -8.66 7.64 -9 9 C-9.66 9 -10.32 9 -11 9 C-11.33 8.01 -11.66 7.02 -12 6 C-14.97 6 -17.94 6 -21 6 C-21 5.01 -21 4.02 -21 3 C-20.15236084 3.02356567 -20.15236084 3.02356567 -19.28759766 3.04760742 C-16.73349977 3.10987045 -14.17956129 3.14896136 -11.625 3.1875 C-10.73554688 3.21263672 -9.84609375 3.23777344 -8.9296875 3.26367188 C-8.07890625 3.27333984 -7.228125 3.28300781 -6.3515625 3.29296875 C-5.56604004 3.3086792 -4.78051758 3.32438965 -3.97119141 3.34057617 C-3.32069824 3.22818604 -2.67020508 3.1157959 -2 3 C-1.34 2.01 -0.68 1.02 0 0 Z " fill="#110C0D" transform="translate(181,156)"/>
<path d="M0 0 C0.99 0.33 1.98 0.66 3 1 C3.625 3.8125 3.625 3.8125 4 7 C3.01 8.485 3.01 8.485 2 10 C1.01 10 0.02 10 -1 10 C-1.33 12.97 -1.66 15.94 -2 19 C-2.33 19 -2.66 19 -3 19 C-3 14.71 -3 10.42 -3 6 C-1.35 6 0.3 6 2 6 C1.34 4.02 0.68 2.04 0 0 Z " fill="#E1DCDE" transform="translate(137,146)"/>
<path d="M0 0 C3.96 0 7.92 0 12 0 C12.33 1.32 12.66 2.64 13 4 C9.7 3.67 6.4 3.34 3 3 C3 3.66 3 4.32 3 5 C2.01 4.67 1.02 4.34 0 4 C-1.56118428 3.93259135 -3.1250252 3.91485544 -4.6875 3.9375 C-5.49574219 3.94652344 -6.30398437 3.95554688 -7.13671875 3.96484375 C-7.75160156 3.97644531 -8.36648437 3.98804688 -9 4 C-9 3.34 -9 2.68 -9 2 C-6.03 2 -3.06 2 0 2 C0 1.34 0 0.68 0 0 Z " fill="#575354" transform="translate(168,150)"/>
<path d="M0 0 C0.33 0 0.66 0 1 0 C0.67 2.97 0.34 5.94 0 9 C-5.94 8.67 -11.88 8.34 -18 8 C-18 7.67 -18 7.34 -18 7 C-16.67935547 6.80083984 -16.67935547 6.80083984 -15.33203125 6.59765625 C-14.17058594 6.42105469 -13.00914063 6.24445313 -11.8125 6.0625 C-10.08966797 5.80146484 -10.08966797 5.80146484 -8.33203125 5.53515625 C-5.53674788 5.08620687 -2.77066414 4.57917838 0 4 C0 2.68 0 1.36 0 0 Z " fill="#13513C" transform="translate(78,117)"/>
<path d="M0 0 C0.33 0 0.66 0 1 0 C1 10.89 1 21.78 1 33 C0.67 33 0.34 33 0 33 C-0.09087891 31.86111328 -0.09087891 31.86111328 -0.18359375 30.69921875 C-0.26738281 29.70535156 -0.35117188 28.71148437 -0.4375 27.6875 C-0.51871094 26.70136719 -0.59992188 25.71523437 -0.68359375 24.69921875 C-0.91812559 21.90624401 -0.91812559 21.90624401 -2 19 C-1.92993164 16.9152832 -1.92993164 16.9152832 -1.66015625 14.55078125 C-1.5199707 13.27944336 -1.5199707 13.27944336 -1.37695312 11.98242188 C-1.22129883 10.66081055 -1.22129883 10.66081055 -1.0625 9.3125 C-0.96259766 8.41982422 -0.86269531 7.52714844 -0.75976562 6.60742188 C-0.51234698 4.40421779 -0.25887721 2.20188219 0 0 Z " fill="#063E20" transform="translate(114,78)"/>
<path d="M0 0 C0.33 0 0.66 0 1 0 C1.71961582 8.68679101 2.14368684 17.28299826 2 26 C1.34 26 0.68 26 0 26 C0 26.66 0 27.32 0 28 C-0.66 28 -1.32 28 -2 28 C-2 26.68 -2 25.36 -2 24 C-1.01 24 -0.02 24 1 24 C0.66226563 23.37738281 0.32453125 22.75476563 -0.0234375 22.11328125 C-1.40348615 17.71368617 -0.96476212 13.74371008 -0.625 9.1875 C-0.56828125 8.30384766 -0.5115625 7.42019531 -0.453125 6.50976562 C-0.31232863 4.3391549 -0.1575466 2.16945929 0 0 Z " fill="#918E91" transform="translate(91,153)"/>
<path d="M0 0 C1.9453125 -0.29296875 1.9453125 -0.29296875 4.125 -0.1875 C5.40375 -0.125625 6.6825 -0.06375 8 0 C8 0.33 8 0.66 8 1 C5.69 1 3.38 1 1 1 C0.34 8.59 -0.32 16.18 -1 24 C-1.33 24 -1.66 24 -2 24 C-2.05802698 20.56257082 -2.09360486 17.12526747 -2.125 13.6875 C-2.14175781 12.71103516 -2.15851563 11.73457031 -2.17578125 10.72851562 C-2.18222656 9.79072266 -2.18867187 8.85292969 -2.1953125 7.88671875 C-2.20578613 7.02264404 -2.21625977 6.15856934 -2.22705078 5.26831055 C-2 3 -2 3 0 0 Z " fill="#083218" transform="translate(120,20)"/>
<path d="M0 0 C3.63 0 7.26 0 11 0 C11.33 1.65 11.66 3.3 12 5 C10.68 5 9.36 5 8 5 C7.67 4.34 7.34 3.68 7 3 C4.97536745 2.34786708 4.97536745 2.34786708 3 2 C3 2.99 3 3.98 3 5 C2.01 5 1.02 5 0 5 C0 3.35 0 1.7 0 0 Z " fill="#DCD8DB" transform="translate(74,167)"/>
<path d="M0 0 C2.97 0.33 5.94 0.66 9 1 C8.34 2.98 7.68 4.96 7 7 C4.69 7 2.38 7 0 7 C0 6.34 0 5.68 0 5 C1.32 4.67 2.64 4.34 4 4 C2.68 3.67 1.36 3.34 0 3 C0 2.01 0 1.02 0 0 Z " fill="#135C41" transform="translate(120,47)"/>
<path d="M0 0 C4.62 0 9.24 0 14 0 C14 0.99 14 1.98 14 3 C9.05 3 4.1 3 -1 3 C-0.67 2.01 -0.34 1.02 0 0 Z " fill="#010101" transform="translate(31,152)"/>
<path d="M0 0 C1.4540625 0.0309375 1.4540625 0.0309375 2.9375 0.0625 C2.6075 1.3825 2.2775 2.7025 1.9375 4.0625 C0.9475 4.0625 -0.0425 4.0625 -1.0625 4.0625 C-1.0625 4.7225 -1.0625 5.3825 -1.0625 6.0625 C-0.4025 6.0625 0.2575 6.0625 0.9375 6.0625 C0.9375 6.7225 0.9375 7.3825 0.9375 8.0625 C-0.0525 7.7325 -1.0425 7.4025 -2.0625 7.0625 C-2.7225 7.7225 -3.3825 8.3825 -4.0625 9.0625 C-4.3925 8.7325 -4.7225 8.4025 -5.0625 8.0625 C-4.20786158 0.08587473 -4.20786158 0.08587473 0 0 Z " fill="#282425" transform="translate(107.0625,143.9375)"/>
<path d="M0 0 C-3 2 -3 2 -5 2 C-5.33 3.32 -5.66 4.64 -6 6 C-7.98 6 -9.96 6 -12 6 C-11.67 8.31 -11.34 10.62 -11 13 C-11.66 13 -12.32 13 -13 13 C-13 10.03 -13 7.06 -13 4 C-11.35 4 -9.7 4 -8 4 C-8 2.68 -8 1.36 -8 0 C-4.71023192 -1.09658936 -3.28696233 -0.79953138 0 0 Z " fill="#084D2B" transform="translate(62,99)"/>
<path d="M0 0 C0.66 0.33 1.32 0.66 2 1 C2.625 3.5625 2.625 3.5625 3 6 C2.34 6 1.68 6 1 6 C1 6.99 1 7.98 1 9 C2.65 9.33 4.3 9.66 6 10 C6 10.33 6 10.66 6 11 C4.35 11 2.7 11 1 11 C1 11.66 1 12.32 1 13 C2.65 13 4.3 13 6 13 C6 13.33 6 13.66 6 14 C1.545 14.495 1.545 14.495 -3 15 C-2.690625 14.38125 -2.38125 13.7625 -2.0625 13.125 C-0.5960722 8.81197706 -0.33380974 4.5240004 0 0 Z " fill="#0E452B" transform="translate(119,41)"/>
<path d="M0 0 C0.66 0 1.32 0 2 0 C2.96070434 2.88211302 3.10581883 4.69850044 3.0625 7.6875 C3.05347656 8.49574219 3.04445312 9.30398437 3.03515625 10.13671875 C3.02355469 10.75160156 3.01195312 11.36648437 3 12 C2.34 12 1.68 12 1 12 C1 13.98 1 15.96 1 18 C0.67 18 0.34 18 0 18 C0 12.06 0 6.12 0 0 Z " fill="#B6B2B3" transform="translate(126,162)"/>
<path d="M0 0 C0 3.96 0 7.92 0 12 C-0.33 12 -0.66 12 -1 12 C-1.33 9.69 -1.66 7.38 -2 5 C-3.98 5 -5.96 5 -8 5 C-7.1875 3.0625 -7.1875 3.0625 -6 1 C-3 0 -3 0 0 0 Z " fill="#074B2E" transform="translate(147,55)"/>
<path d="M0 0 C-0.20625 0.61875 -0.4125 1.2375 -0.625 1.875 C-0.74875 2.57625 -0.8725 3.2775 -1 4 C-0.34 4.66 0.32 5.32 1 6 C-1.64 6 -4.28 6 -7 6 C-7 5.01 -7 4.02 -7 3 C-7.66 2.34 -8.32 1.68 -9 1 C-3.375 -1.125 -3.375 -1.125 0 0 Z " fill="#6F6B6C" transform="translate(87,176)"/>
<path d="M0 0 C2.97 0.495 2.97 0.495 6 1 C6 1.66 6 2.32 6 3 C9.465 2.505 9.465 2.505 13 2 C13 2.99 13 3.98 13 5 C11.39592672 5.02708567 9.7917215 5.04643483 8.1875 5.0625 C6.84751953 5.07990234 6.84751953 5.07990234 5.48046875 5.09765625 C3 5 3 5 0 4 C0 2.68 0 1.36 0 0 Z " fill="#164B35" transform="translate(133,121)"/>
<path d="M0 0 C2.97 0 5.94 0 9 0 C9 1.98 9 3.96 9 6 C8.01 5.67 7.02 5.34 6 5 C6 4.34 6 3.68 6 3 C3.69 3 1.38 3 -1 3 C-0.67 2.01 -0.34 1.02 0 0 Z " fill="#050404" transform="translate(174,147)"/>
<path d="M0 0 C1.32 0 2.64 0 4 0 C5.25433458 3.76300374 5.10695422 7.27210909 5.0625 11.1875 C5.05798828 11.93708984 5.05347656 12.68667969 5.04882812 13.45898438 C5.03706354 15.30602383 5.01912865 17.15302213 5 19 C3.09391902 15.78817851 2.77733753 13.46117397 2.875 9.75 C2.90207031 8.41195312 2.90207031 8.41195312 2.9296875 7.046875 C2.95289062 6.37140625 2.97609375 5.6959375 3 5 C2.01 4.67 1.02 4.34 0 4 C0 2.68 0 1.36 0 0 Z " fill="#195035" transform="translate(74,95)"/>
<path d="M0 0 C0.33 0 0.66 0 1 0 C1.19477739 1.62414378 1.38059458 3.24936423 1.5625 4.875 C1.66691406 5.77992188 1.77132812 6.68484375 1.87890625 7.6171875 C2 10 2 10 1 12 C0.92907158 14.2072923 0.91584975 16.41667452 0.9375 18.625 C0.95103516 20.40777344 0.95103516 20.40777344 0.96484375 22.2265625 C0.97644531 23.14179688 0.98804688 24.05703125 1 25 C0.67 25 0.34 25 0 25 C0 21.04 0 17.08 0 13 C-0.66 13 -1.32 13 -2 13 C-2 11.68 -2 10.36 -2 9 C-1.34 9 -0.68 9 0 9 C0 6.03 0 3.06 0 0 Z " fill="#5F5A5C" transform="translate(150,151)"/>
<path d="M0 0 C1.4370809 -0.05422947 2.87475462 -0.09289723 4.3125 -0.125 C5.11300781 -0.14820313 5.91351563 -0.17140625 6.73828125 -0.1953125 C9 0 9 0 12 2 C11.67 2.99 11.34 3.98 11 5 C13.31 5 15.62 5 18 5 C15.64561267 6.42944945 14.51967567 7.08661261 11.75 6.625 C11.1725 6.41875 10.595 6.2125 10 6 C10 5.34 10 4.68 10 4 C9.01 4 8.02 4 7 4 C7 3.34 7 2.68 7 2 C4.69 1.67 2.38 1.34 0 1 C0 0.67 0 0.34 0 0 Z " fill="#DFDDDE" transform="translate(69,177)"/>
<path d="M0 0 C0 0.66 0 1.32 0 2 C1.32 1.67 2.64 1.34 4 1 C4 1.66 4 2.32 4 3 C4.66 3.33 5.32 3.66 6 4 C2.04 4 -1.92 4 -6 4 C-6 3.01 -6 2.02 -6 1 C-3.92446352 0.4465236 -2.15634036 0 0 0 Z " fill="#040102" transform="translate(24,176)"/>
<path d="M0 0 C0.391875 0.639375 0.78375 1.27875 1.1875 1.9375 C3.38472296 4.43778819 4.75791433 4.64950425 8 5 C7.67 5.66 7.34 6.32 7 7 C7.39938767 9.09821215 7.39938767 9.09821215 8 11 C7.34 11 6.68 11 6 11 C6 10.01 6 9.02 6 8 C4.02 8 2.04 8 0 8 C-0.33 8.66 -0.66 9.32 -1 10 C-1 9.01 -1 8.02 -1 7 C-0.01 7 0.98 7 2 7 C1.34 6.01 0.68 5.02 0 4 C0 2.68 0 1.36 0 0 Z " fill="#B1AAAB" transform="translate(57,148)"/>
<path d="M0 0 C0.6875 2.8125 0.6875 2.8125 1 6 C-0.4375 7.875 -0.4375 7.875 -2 9 C-2 6.69 -2 4.38 -2 2 C-5.3 2 -8.6 2 -12 2 C-12 1.67 -12 1.34 -12 1 C-7.95858806 0.36605303 -4.0934693 -0.12404452 0 0 Z " fill="#133A24" transform="translate(131,56)"/>
<path d="M0 0 C0.99 0 1.98 0 3 0 C3.33 0.99 3.66 1.98 4 3 C4.66 3.33 5.32 3.66 6 4 C6 4.66 6 5.32 6 6 C3.36 6 0.72 6 -2 6 C-1.34 4.02 -0.68 2.04 0 0 Z " fill="#070606" transform="translate(79,160)"/>
<path d="M0 0 C0.33 0 0.66 0 1 0 C1 2.31 1 4.62 1 7 C1.66 7 2.32 7 3 7 C3.19622241 11.21878192 2.80230168 14.17010894 1 18 C0.67 18 0.34 18 0 18 C0 12.06 0 6.12 0 0 Z " fill="#0E4225" transform="translate(83,61)"/>
<path d="M0 0 C0.33 0 0.66 0 1 0 C1.77916092 5.02125926 2.13016601 8.97703996 1 14 C0.34 13.67 -0.32 13.34 -1 13 C-1.02686553 11.02090602 -1.04633375 9.04171029 -1.0625 7.0625 C-1.07410156 5.96035156 -1.08570312 4.85820312 -1.09765625 3.72265625 C-1 1 -1 1 0 0 Z " fill="#020001" transform="translate(116,160)"/>
<path d="M0 0 C0.99 0 1.98 0 3 0 C3 1.65 3 3.3 3 5 C3.99 5.33 4.98 5.66 6 6 C6 6.66 6 7.32 6 8 C4.35 8 2.7 8 1 8 C0.67 5.36 0.34 2.72 0 0 Z " fill="#175B3A" transform="translate(50,105)"/>
<path d="M0 0 C0.99 0 1.98 0 3 0 C2.67 4.62 2.34 9.24 2 14 C1.67 14 1.34 14 1 14 C-0.20568053 9.32798795 -0.09382426 4.78503708 0 0 Z " fill="#282527" transform="translate(136,156)"/>
<path d="M0 0 C0.33 0 0.66 0 1 0 C1 6.27 1 12.54 1 19 C0.01 19 -0.98 19 -2 19 C-1.34 12.73 -0.68 6.46 0 0 Z " fill="#020E04" transform="translate(95,109)"/>
<path d="M0 0 C1.65 0 3.3 0 5 0 C5.33 2.31 5.66 4.62 6 7 C5.01 7.33 4.02 7.66 3 8 C3 6.35 3 4.7 3 3 C1.68 3.33 0.36 3.66 -1 4 C-0.67 2.68 -0.34 1.36 0 0 Z " fill="#135E3A" transform="translate(141,37)"/>
<path d="M0 0 C4.93928888 -0.3367697 5.78492722 -0.16130459 10 3 C6.37 3 2.74 3 -1 3 C-0.67 2.01 -0.34 1.02 0 0 Z " fill="#C0BBBD" transform="translate(174,168)"/>
<path d="M0 0 C1.65 0 3.3 0 5 0 C5 1.65 5 3.3 5 5 C2.03 4.505 2.03 4.505 -1 4 C-0.67 2.68 -0.34 1.36 0 0 Z " fill="#969192" transform="translate(174,155)"/>
<path d="M0 0 C1.32 0.33 2.64 0.66 4 1 C4 1.66 4 2.32 4 3 C5.32 3 6.64 3 8 3 C8 3.66 8 4.32 8 5 C5.69 5 3.38 5 1 5 C0.67 3.35 0.34 1.7 0 0 Z " fill="#176145" transform="translate(52,120)"/>
<path d="M0 0 C2.64 0.99 5.28 1.98 8 3 C8 3.33 8 3.66 8 4 C6.02 4 4.04 4 2 4 C1.67 5.32 1.34 6.64 1 8 C1 7.34 1 6.68 1 6 C0.34 6 -0.32 6 -1 6 C-0.67 4.02 -0.34 2.04 0 0 Z " fill="#EBE9E8" transform="translate(57,162)"/>
<path d="M0 0 C2.97 0.495 2.97 0.495 6 1 C6 1.33 6 1.66 6 2 C8.31 2.33 10.62 2.66 13 3 C13 3.33 13 3.66 13 4 C11.39884424 4.2493357 9.79379841 4.47378648 8.1875 4.6875 C7.29417969 4.81511719 6.40085937 4.94273437 5.48046875 5.07421875 C3 5 3 5 1.17578125 3.64453125 C0 2 0 2 0 0 Z " fill="#130F0F" transform="translate(27,175)"/>
<path d="M0 0 C0.33 0 0.66 0 1 0 C1.33 6.27 1.66 12.54 2 19 C1.01 19 0.02 19 -1 19 C-0.67 12.73 -0.34 6.46 0 0 Z " fill="#302A2C" transform="translate(122,160)"/>
<path d="M0 0 C0 0.99 0 1.98 0 3 C-3.3 3.33 -6.6 3.66 -10 4 C-10 3.01 -10 2.02 -10 1 C-3.375 0 -3.375 0 0 0 Z " fill="#D0CDCE" transform="translate(168,156)"/>
<path d="M0 0 C0.33 0 0.66 0 1 0 C0.67 2.97 0.34 5.94 0 9 C-1.32 9 -2.64 9 -4 9 C-3.67 7.35 -3.34 5.7 -3 4 C-2.01 4 -1.02 4 0 4 C0 2.68 0 1.36 0 0 Z " fill="#184933" transform="translate(78,117)"/>
<path d="M0 0 C3.63 0 7.26 0 11 0 C11 0.66 11 1.32 11 2 C8.00468461 2.99843846 6.82744268 3.00732761 3.8125 2.5625 C2.554375 2.376875 1.29625 2.19125 0 2 C0 1.34 0 0.68 0 0 Z " fill="#151012" transform="translate(172,166)"/>
<path d="M0 0 C2.31 0 4.62 0 7 0 C7 1.65 7 3.3 7 5 C5.68 5 4.36 5 3 5 C3 3.68 3 2.36 3 1 C2.01 0.67 1.02 0.34 0 0 Z " fill="#C8C5C6" transform="translate(79,158)"/>
<path d="M0 0 C0.33 0 0.66 0 1 0 C1 2.64 1 5.28 1 8 C-0.65 7.67 -2.3 7.34 -4 7 C-3.67 6.01 -3.34 5.02 -3 4 C-2.01 4 -1.02 4 0 4 C0 2.68 0 1.36 0 0 Z " fill="#13583B" transform="translate(146,47)"/>
<path d="M0 0 C2.64 0 5.28 0 8 0 C7.67 0.99 7.34 1.98 7 3 C4.69 3 2.38 3 0 3 C0 2.01 0 1.02 0 0 Z " fill="#030101" transform="translate(157,178)"/>
<path d="M0 0 C4.29 0 8.58 0 13 0 C13.33 0.99 13.66 1.98 14 3 C13.01 4.485 13.01 4.485 12 6 C11.67 4.68 11.34 3.36 11 2 C7.37 1.67 3.74 1.34 0 1 C0 0.67 0 0.34 0 0 Z " fill="#635F63" transform="translate(74,166)"/>
<path d="M0 0 C0.99 0 1.98 0 3 0 C3 1.32 3 2.64 3 4 C4.32 4 5.64 4 7 4 C7 4.66 7 5.32 7 6 C4.625 6.125 4.625 6.125 2 6 C1.34 5.34 0.68 4.68 0 4 C0 2.68 0 1.36 0 0 Z " fill="#312C2C" transform="translate(57,158)"/>
<path d="M0 0 C0.99 0.33 1.98 0.66 3 1 C3.33 2.98 3.66 4.96 4 7 C1.3333581 8.33332095 -0.16680303 7.67102033 -3 7 C-3 6.67 -3 6.34 -3 6 C-1.35 6 0.3 6 2 6 C1.34 4.02 0.68 2.04 0 0 Z M1 8 C1.33 8.66 1.66 9.32 2 10 C1.34 9.67 0.68 9.34 0 9 C0.33 8.67 0.66 8.34 1 8 Z " fill="#B0ADAE" transform="translate(137,146)"/>
<path d="M0 0 C2.97 0.33 5.94 0.66 9 1 C9 1.33 9 1.66 9 2 C7.824375 2.12375 7.824375 2.12375 6.625 2.25 C3.85250896 2.72806339 3.85250896 2.72806339 2.6875 5.0625 C2.3471875 6.0215625 2.3471875 6.0215625 2 7 C1.34 4.69 0.68 2.38 0 0 Z " fill="#3C3538" transform="translate(130,150)"/>
<path d="M0 0 C0.99 0 1.98 0 3 0 C3.1875 2.875 3.1875 2.875 3 6 C2.01 6.66 1.02 7.32 0 8 C0 5.36 0 2.72 0 0 Z " fill="#13583A" transform="translate(111,100)"/>
<path d="M0 0 C0.33 0 0.66 0 1 0 C1 1.98 1 3.96 1 6 C0.01 6.495 0.01 6.495 -1 7 C-1.99 8.485 -1.99 8.485 -3 10 C-3 8.68 -3 7.36 -3 6 C-3.66 5.67 -4.32 5.34 -5 5 C-4.01 5 -3.02 5 -2 5 C-2 4.34 -2 3.68 -2 3 C-1.34 3 -0.68 3 0 3 C0 2.01 0 1.02 0 0 Z " fill="#171717" transform="translate(136,165)"/>
<path d="M0 0 C0.33 0 0.66 0 1 0 C1.33 2.97 1.66 5.94 2 9 C1.34 9 0.68 9 0 9 C0 10.65 0 12.3 0 14 C-0.33 14 -0.66 14 -1 14 C-1.18451025 4.58997722 -1.18451025 4.58997722 0 0 Z " fill="#AEACAD" transform="translate(139,156)"/>
<path d="M0 0 C0.99 0.33 1.98 0.66 3 1 C2.67 1.66 2.34 2.32 2 3 C2.99 3.33 3.98 3.66 5 4 C5 5.32 5 6.64 5 8 C4.01 8 3.02 8 2 8 C1.34 5.36 0.68 2.72 0 0 Z " fill="#F9F6F6" transform="translate(63,154)"/>
<path d="M0 0 C0.66 0 1.32 0 2 0 C1.34 2.31 0.68 4.62 0 7 C-0.99 6.67 -1.98 6.34 -3 6 C-3 4.68 -3 3.36 -3 2 C-2.01 2 -1.02 2 0 2 C0 1.34 0 0.68 0 0 Z " fill="#03502A" transform="translate(122,35)"/>
<path d="M0 0 C0 0.99 0 1.98 0 3 C-3.3 2.67 -6.6 2.34 -10 2 C-10 1.67 -10 1.34 -10 1 C-3.375 0 -3.375 0 0 0 Z " fill="#090808" transform="translate(184,171)"/>
<path d="M0 0 C1.65 0 3.3 0 5 0 C5.33 1.32 5.66 2.64 6 4 C3.69 3.67 1.38 3.34 -1 3 C-0.67 2.01 -0.34 1.02 0 0 Z " fill="#908D8E" transform="translate(175,150)"/>
<path d="M0 0 C0.66 0.99 1.32 1.98 2 3 C0.68 3.99 -0.64 4.98 -2 6 C-3.32 5.34 -4.64 4.68 -6 4 C-5.67 3.34 -5.34 2.68 -5 2 C-3.35 2 -1.7 2 0 2 C0 1.34 0 0.68 0 0 Z " fill="#C6C3C4" transform="translate(62,178)"/>
<path d="M0 0 C2.31 0.33 4.62 0.66 7 1 C6.67 1.66 6.34 2.32 6 3 C4.02 3 2.04 3 0 3 C0 2.01 0 1.02 0 0 Z " fill="#090808" transform="translate(160,171)"/>
<path d="M0 0 C1.98 0 3.96 0 6 0 C6 0.99 6 1.98 6 3 C3.69 3 1.38 3 -1 3 C-0.67 2.01 -0.34 1.02 0 0 Z " fill="#A8A5A6" transform="translate(161,168)"/>
<path d="M0 0 C0.99 0 1.98 0 3 0 C3 1.98 3 3.96 3 6 C2.34 6 1.68 6 1 6 C1 5.01 1 4.02 1 3 C0.01 2.67 -0.98 2.34 -2 2 C-1.34 2 -0.68 2 0 2 C0 1.34 0 0.68 0 0 Z " fill="#114930" transform="translate(94,87)"/>
<path d="M0 0 C0 1.98 0 3.96 0 6 C-0.33 5.34 -0.66 4.68 -1 4 C-2.65 4.66 -4.3 5.32 -6 6 C-4.90218919 2.70656758 -3.7827394 0 0 0 Z " fill="#094C2C" transform="translate(115,61)"/>
<path d="M0 0 C2.875 -0.125 2.875 -0.125 6 0 C6.66 0.66 7.32 1.32 8 2 C4.52176885 3.15941038 2.54104422 2.70820884 -1 2 C-0.67 1.34 -0.34 0.68 0 0 Z " fill="#08503D" transform="translate(89,63)"/>
</svg>
