<?xml version="1.0" encoding="UTF-8"?>
<svg version="1.1" xmlns="http://www.w3.org/2000/svg" width="877" height="145">
<path d="M0 0 C289.41 0 578.82 0 877 0 C877 47.85 877 95.7 877 145 C587.59 145 298.18 145 0 145 C0 97.15 0 49.3 0 0 Z " fill="#F8F8F8" transform="translate(0,0)"/>
<path d="M0 0 C7.67078682 7.84512288 10.1641069 15.55277501 10.27124023 26.32275391 C9.94896883 38.76438341 2.42151622 48.43572226 -6.25 56.8125 C-6.83652344 57.38484375 -7.42304687 57.9571875 -8.02734375 58.546875 C-24.55728184 73.63773613 -45.64692939 77.77449002 -67.25 76.8125 C-77.09955431 75.9353864 -87.20842699 70.98200365 -93.85546875 63.671875 C-96.15900114 60.60049848 -97.78658943 57.34965352 -99.25 53.8125 C-99.60707031 53.02359375 -99.96414062 52.2346875 -100.33203125 51.421875 C-103.01511366 43.79507055 -101.50036805 35.69538997 -98.5078125 28.40234375 C-90.18504882 11.26572163 -75.5626464 -0.03363421 -57.84375 -6.4140625 C-37.86859472 -12.78228861 -17.64561731 -11.8768578 0 0 Z " fill="#049946" transform="translate(125.25,36.1875)"/>
<path d="M0 0 C0.66 0.33 1.32 0.66 2 1 C2 1.66 2 2.32 2 3 C1.34 3 0.68 3 0 3 C-0.2578125 3.56976563 -0.515625 4.13953125 -0.78125 4.7265625 C-2.11689115 7.21804695 -3.69832752 9.19925145 -5.5 11.375 C-9.03974256 15.8807973 -11.11004356 19.24891107 -10.875 25.125 C-9.79100628 28.68669364 -9.05388348 29.83993607 -6 32 C2.83995781 35.93512207 12.567821 35.79777439 22.0625 35.875 C22.89794342 35.88523193 23.73338684 35.89546387 24.59414673 35.90600586 C40.0395649 35.99024251 51.51135288 32.86137525 64.9675293 25.00976562 C67 24 67 24 70 24 C70 25.65 70 27.3 70 29 C62.94124392 33.14701919 55.85398389 37.14774175 48.5 40.75 C39.02062615 45.40101232 29.80365532 50.52154796 20.55029297 55.60302734 C-10.65566637 72.6966995 -10.65566637 72.6966995 -15 73 C-17.359375 71.85546875 -17.359375 71.85546875 -19.75 70.1875 C-20.94882812 69.37345703 -20.94882812 69.37345703 -22.171875 68.54296875 C-22.77515625 68.03378906 -23.3784375 67.52460937 -24 67 C-24 66.34 -24 65.68 -24 65 C-23.46632812 64.77860352 -22.93265625 64.55720703 -22.3828125 64.32910156 C-19.92063866 63.30568069 -17.46032074 62.27786733 -15 61.25 C-14.16082031 60.90195313 -13.32164063 60.55390625 -12.45703125 60.1953125 C-7.19044544 57.99069518 -2.07839478 55.60973065 3 53 C1.9378125 52.69707031 0.875625 52.39414063 -0.21875 52.08203125 C-9.07738433 49.4851739 -16.31296036 46.8668077 -23.5 40.9375 C-26.00160382 36.03852586 -25.85976823 31.3668345 -25 26 C-20.71700074 14.64001368 -10.15522926 6.03426666 0 0 Z " fill="#EEFCF5" transform="translate(62,34)"/>
<path d="M0 0 C11.22 0 22.44 0 34 0 C34 12.87 34 25.74 34 39 C32.02 39 30.04 39 28 39 C28 38.34 28 37.68 28 37 C20.41 37 12.82 37 5 37 C5 37.66 5 38.32 5 39 C3.35 39 1.7 39 0 39 C0 26.13 0 13.26 0 0 Z " fill="#0C0C0C" transform="translate(575,40)"/>
<path d="M0 0 C1.98 0 3.96 0 6 0 C6 2.64 6 5.28 6 8 C7.32 8 8.64 8 10 8 C10 9.65 10 11.3 10 13 C10.66 13 11.32 13 12 13 C12.33 9.37 12.66 5.74 13 2 C17.29 2 21.58 2 26 2 C26 4.97 26 7.94 26 11 C28.31 11 30.62 11 33 11 C32.67 12.65 32.34 14.3 32 16 C30.35425434 16.02688151 28.70838587 16.04634123 27.0625 16.0625 C26.14597656 16.07410156 25.22945313 16.08570312 24.28515625 16.09765625 C22 16 22 16 21 15 C20.85884839 12.32941149 20.95752893 9.67567762 21 7 C20.01 7 19.02 7 18 7 C17.87625 8.093125 17.7525 9.18625 17.625 10.3125 C17 14 17 14 15 17 C21.93 17.495 21.93 17.495 29 18 C27.91463082 23.51033583 26.78609311 28.06101677 24 33 C26.64 33.66 29.28 34.32 32 35 C31.34 36.98 30.68 38.96 30 41 C23.125 39.125 23.125 39.125 22 38 C17.85446999 38.39108774 14.65468023 39.04213559 11 41 C10.01 41 9.02 41 8 41 C7.505 39.515 7.505 39.515 7 38 C6.443125 38.495 5.88625 38.99 5.3125 39.5 C2.60483847 41.25632099 1.16620913 41.34229288 -2 41 C-3 40 -3 40 -3.0625 37.4375 C-3.041875 36.633125 -3.02125 35.82875 -3 35 C-2.01 35 -1.02 35 0 35 C0 32.03 0 29.06 0 26 C-1.65 26.33 -3.3 26.66 -5 27 C-5.33 25.02 -5.66 23.04 -6 21 C-4.02 20.67 -2.04 20.34 0 20 C0 18.02 0 16.04 0 14 C-1.65 14 -3.3 14 -5 14 C-5 12.02 -5 10.04 -5 8 C-3.35 8 -1.7 8 0 8 C0 5.36 0 2.72 0 0 Z " fill="#111111" transform="translate(368,38)"/>
<path d="M0 0 C0.54398438 0.38027344 1.08796875 0.76054688 1.6484375 1.15234375 C0.3284375 2.14234375 -0.9915625 3.13234375 -2.3515625 4.15234375 C-3.0115625 3.82234375 -3.6715625 3.49234375 -4.3515625 3.15234375 C-19.13814594 13.22619666 -19.13814594 13.22619666 -28.3515625 28.15234375 C-29.09998832 32.90668807 -29.45840296 37.6086416 -27.5 42.109375 C-21.19438393 50.58120612 -8.96057009 51.95999736 0.6484375 54.15234375 C-2.43803258 56.67227776 -5.51360406 58.22885248 -9.17578125 59.78125 C-10.28630859 60.25884766 -11.39683594 60.73644531 -12.54101562 61.22851562 C-14.88437958 62.22421633 -17.22813364 63.2189994 -19.57226562 64.21289062 C-20.67892578 64.68919922 -21.78558594 65.16550781 -22.92578125 65.65625 C-24.45078247 66.30315796 -24.45078247 66.30315796 -26.0065918 66.96313477 C-28.48796741 67.92895436 -28.48796741 67.92895436 -29.3515625 70.15234375 C-31.85914693 69.76781136 -33.1147559 69.38451843 -34.94921875 67.5859375 C-41.22237678 59.03771416 -43.56010916 51.87989272 -42.3515625 41.15234375 C-38.97879684 27.01340522 -29.07466422 14.71181176 -17.078125 6.80078125 C-3.65202858 -1.31642891 -3.65202858 -1.31642891 0 0 Z " fill="#0B9A4A" transform="translate(66.3515625,31.84765625)"/>
<path d="M0 0 C1.65 0 3.3 0 5 0 C5 0.99 5 1.98 5 3 C7.97 3 10.94 3 14 3 C14 4.98 14 6.96 14 9 C14.99 9 15.98 9 17 9 C17 10.32 17 11.64 17 13 C15.68 13 14.36 13 13 13 C13 14.98 13 16.96 13 19 C10.36 19 7.72 19 5 19 C5 19.66 5 20.32 5 21 C7.97 21 10.94 21 14 21 C14 22.32 14 23.64 14 25 C11.03 25 8.06 25 5 25 C5 25.66 5 26.32 5 27 C8.3 27 11.6 27 15 27 C15 28.32 15 29.64 15 31 C11.7 31 8.4 31 5 31 C5 32.32 5 33.64 5 35 C11.435 34.505 11.435 34.505 18 34 C17.67 35.98 17.34 37.96 17 40 C13.31256766 40.05850924 9.6252563 40.09376673 5.9375 40.125 C4.89916016 40.14175781 3.86082031 40.15851563 2.79101562 40.17578125 C-5.90135296 40.23097089 -5.90135296 40.23097089 -10.09375 38.90625 C-11.0528125 38.6071875 -12.011875 38.308125 -13 38 C-15.44146006 39.22338275 -15.44146006 39.22338275 -17 41 C-17.99 39.68 -18.98 38.36 -20 37 C-19.484375 36.62875 -18.96875 36.2575 -18.4375 35.875 C-16.67880871 34.01875583 -16.67880871 34.01875583 -17.25 31.1875 C-17.4975 30.135625 -17.745 29.08375 -18 28 C-18.33333333 26 -18.66666667 24 -19 22 C-17.68 22 -16.36 22 -15 22 C-14.67 22.66 -14.34 23.32 -14 24 C-13.67 22.68 -13.34 21.36 -13 20 C-14.98 20 -16.96 20 -19 20 C-19.34734012 15.8319185 -18.64652221 14.17582665 -16 11 C-15.67 10.01 -15.34 9.02 -15 8 C-16.65 8 -18.3 8 -20 8 C-20 6.35 -20 4.7 -20 3 C-16.04 3 -12.08 3 -8 3 C-8.59924224 7.19469571 -9.57499941 11.00999834 -11 15 C-10.01 15 -9.02 15 -8 15 C-8 20.94 -8 26.88 -8 33 C-5.36 33.66 -2.72 34.32 0 35 C0 33.68 0 32.36 0 31 C-2.31 31 -4.62 31 -7 31 C-7 29.68 -7 28.36 -7 27 C-4.69 27 -2.38 27 0 27 C0 26.34 0 25.68 0 25 C-1.98 25 -3.96 25 -6 25 C-6 23.68 -6 22.36 -6 21 C-4.02 21 -2.04 21 0 21 C0 20.34 0 19.68 0 19 C-1.98 19 -3.96 19 -6 19 C-6 17.68 -6 16.36 -6 15 C-4.02 15 -2.04 15 0 15 C0 14.34 0 13.68 0 13 C-2.31 13 -4.62 13 -7 13 C-7 11.68 -7 10.36 -7 9 C-4.69 9 -2.38 9 0 9 C0 8.34 0 7.68 0 7 C-1.98 7 -3.96 7 -6 7 C-6 5.68 -6 4.36 -6 3 C-4.02 3 -2.04 3 0 3 C0 2.01 0 1.02 0 0 Z " fill="#0C0C0C" transform="translate(467,38)"/>
<path d="M0 0 C0 1.32 0 2.64 0 4 C3.63 4 7.26 4 11 4 C11 5.32 11 6.64 11 8 C7.04 8 3.08 8 -1 8 C-1 8.66 -1 9.32 -1 10 C2.3 10 5.6 10 9 10 C9 10.99 9 11.98 9 13 C5.7 13 2.4 13 -1 13 C-1 13.66 -1 14.32 -1 15 C2.63 15 6.26 15 10 15 C10.495 19.455 10.495 19.455 11 24 C6.71 24 2.42 24 -2 24 C-2 24.99 -2 25.98 -2 27 C2.95 27 7.9 27 13 27 C13 28.32 13 29.64 13 31 C8.545 31.495 8.545 31.495 4 32 C6.97 32.99 9.94 33.98 13 35 C12 39 12 39 11 41 C6.38486888 39.68139111 2.90102388 37.78644563 -1 35 C-1.33 37.31 -1.66 39.62 -2 42 C-3.65 42 -5.3 42 -7 42 C-7 39.36 -7 36.72 -7 34 C-7.84304688 34.5053125 -8.68609375 35.010625 -9.5546875 35.53125 C-11.19824219 36.50578125 -11.19824219 36.50578125 -12.875 37.5 C-14.51082031 38.47453125 -14.51082031 38.47453125 -16.1796875 39.46875 C-19 41 -19 41 -21 41 C-21.66 39.35 -22.32 37.7 -23 36 C-20.03 34.68 -17.06 33.36 -14 32 C-16.97 31.67 -19.94 31.34 -23 31 C-23 29.68 -23 28.36 -23 27 C-17.72 27 -12.44 27 -7 27 C-7 26.01 -7 25.02 -7 24 C-10.63 24.33 -14.26 24.66 -18 25 C-18 21.04 -18 17.08 -18 13 C-18.66 13 -19.32 13 -20 13 C-20.33 13.99 -20.66 14.98 -21 16 C-22.32 15.34 -23.64 14.68 -25 14 C-23.46136602 10.87897942 -21.87410161 7.79389314 -20.1875 4.75 C-19.70667969 3.85796875 -19.22585938 2.9659375 -18.73046875 2.046875 C-17 0 -17 0 -14.30078125 -0.296875 C-13.54152344 -0.19890625 -12.78226563 -0.1009375 -12 0 C-11.67 0.66 -11.34 1.32 -11 2 C-11.33 2.66 -11.66 3.32 -12 4 C-10.02 4 -8.04 4 -6 4 C-6 2.68 -6 1.36 -6 0 C-3.50907189 -1.24546405 -2.58919267 -0.7767578 0 0 Z " fill="#171717" transform="translate(555,38)"/>
<path d="M0 0 C1.65 0 3.3 0 5 0 C5.33 0.66 5.66 1.32 6 2 C5.67 2.66 5.34 3.32 5 4 C10.28 4 15.56 4 21 4 C20.67 6.64 20.34 9.28 20 12 C18.35 12 16.7 12 15 12 C15 10.68 15 9.36 15 8 C13.68 8 12.36 8 11 8 C13.32446864 11.68040867 15.07965475 13.2994906 19.25 14.3125 C20.4875 14.539375 21.725 14.76625 23 15 C22.3125 17.4375 22.3125 17.4375 21 20 C19.35 20.33 17.7 20.66 16 21 C16 25.29 16 29.58 16 34 C17.32 34.66 18.64 35.32 20 36 C20 38 20 38 18.8125 39.6875 C17 41 17 41 14.6875 40.875 C12 40 12 40 9.0625 38.375 C4.81409688 36.4675537 2.26395802 37.16198453 -2.015625 38.74609375 C-3.37443698 39.27200431 -4.72679795 39.81506179 -6.0703125 40.37890625 C-8 41 -8 41 -12 41 C-12.66 39.35 -13.32 37.7 -14 36 C-11.525 35.505 -11.525 35.505 -9 35 C-9 30.05 -9 25.1 -9 20 C-10.98 20.99 -10.98 20.99 -13 22 C-13.66 20.02 -14.32 18.04 -15 16 C-14.16855469 15.59910156 -13.33710938 15.19820312 -12.48046875 14.78515625 C-4.89568969 11.03811365 -4.89568969 11.03811365 -0.75 4.0625 C-0.22585342 1.83537613 -0.22585342 1.83537613 0 0 Z " fill="#0D0D0D" transform="translate(420,38)"/>
<path d="M0 0 C1.99954746 -0.04254356 4.00041636 -0.04080783 6 0 C8.04698414 2.04698414 7.70045693 6.30411241 8 9 C9.32 8.67 10.64 8.34 12 8 C12.66 9.65 13.32 11.3 14 13 C12.68 13.99 11.36 14.98 10 16 C12.64 16.33 15.28 16.66 18 17 C18 24.92 18 32.84 18 41 C16.02 41 14.04 41 12 41 C12 40.34 12 39.68 12 39 C7.38 39 2.76 39 -2 39 C-2 39.66 -2 40.32 -2 41 C-3.65 41 -5.3 41 -7 41 C-7 35.06 -7 29.12 -7 23 C-8.98 23.33 -10.96 23.66 -13 24 C-13.66 22.35 -14.32 20.7 -15 19 C-13.02 18.67 -11.04 18.34 -9 18 C-9.26676204 16.01508358 -9.26676204 16.01508358 -10 14 C-10.99 13.67 -11.98 13.34 -13 13 C-11.54955729 8.89041233 -9.48889248 5.56741255 -7 2 C-5.02 2.66 -3.04 3.32 -1 4 C-0.67 2.68 -0.34 1.36 0 0 Z " fill="#242424" transform="translate(251,38)"/>
<path d="M0 0 C2.64 0 5.28 0 8 0 C7.34 1.65 6.68 3.3 6 5 C11.94 5 17.88 5 24 5 C24 6.65 24 8.3 24 10 C17.07 10 10.14 10 3 10 C3 10.66 3 11.32 3 12 C8.28 12 13.56 12 19 12 C19 20.91 19 29.82 19 39 C15.00889681 40.9955516 13.30013434 41.19546065 9 41 C8.67 39.02 8.34 37.04 8 35 C9.32 35 10.64 35 12 35 C12 34.01 12 33.02 12 32 C8.37 32 4.74 32 1 32 C1 34.97 1 37.94 1 41 C-0.65 41 -2.3 41 -4 41 C-4.33 35.06 -4.66 29.12 -5 23 C-6.32 24.32 -7.64 25.64 -9 27 C-10.9375 26.1875 -10.9375 26.1875 -13 25 C-13.33 24.01 -13.66 23.02 -14 22 C-13.2575 21.443125 -12.515 20.88625 -11.75 20.3125 C-8.12772023 17.26649201 -5.50757378 14.52272135 -4 10 C-7.3 10 -10.6 10 -14 10 C-14 8.02 -14 6.04 -14 4 C-9.38 4 -4.76 4 0 4 C0 2.68 0 1.36 0 0 Z " fill="#151515" transform="translate(629,38)"/>
<path d="M0 0 C1.65 0 3.3 0 5 0 C5 1.65 5 3.3 5 5 C10.28 5 15.56 5 21 5 C21 6.65 21 8.3 21 10 C15.39 10 9.78 10 4 10 C4 10.99 4 11.98 4 13 C8.62 13 13.24 13 18 13 C18.08071599 17.10455765 18.14036813 21.20753836 18.1875 25.3125 C18.21263672 26.47974609 18.23777344 27.64699219 18.26367188 28.84960938 C18.27333984 29.96787109 18.28300781 31.08613281 18.29296875 32.23828125 C18.3086792 33.26993408 18.32438965 34.30158691 18.34057617 35.36450195 C18 38 18 38 16.6809082 39.84838867 C14.16806921 41.56996624 11.95936701 41.19729113 9 41 C8.505 38.525 8.505 38.525 8 36 C9.485 35.505 9.485 35.505 11 35 C11.33 29.06 11.66 23.12 12 17 C10.68 17 9.36 17 8 17 C8.33 17.99 8.66 18.98 9 20 C8.34 20.99 7.68 21.98 7 23 C7.99 23 8.98 23 10 23 C10 24.32 10 25.64 10 27 C8.02 27 6.04 27 4 27 C4 27.66 4 28.32 4 29 C6.31 29 8.62 29 11 29 C11 30.65 11 32.3 11 34 C8.69 34 6.38 34 4 34 C4 35.65 4 37.3 4 39 C2.35 39 0.7 39 -1 39 C-1 37.02 -1 35.04 -1 33 C-2.98 33 -4.96 33 -7 33 C-7 31.68 -7 30.36 -7 29 C-5.02 29 -3.04 29 -1 29 C-1 28.34 -1 27.68 -1 27 C-2.98 27 -4.96 27 -7 27 C-7 25.35 -7 23.7 -7 22 C-6.34 21.67 -5.68 21.34 -5 21 C-4.67 20.01 -4.34 19.02 -4 18 C-5.65 17.67 -7.3 17.34 -9 17 C-9 24.92 -9 32.84 -9 41 C-10.65 41 -12.3 41 -14 41 C-14 31.76 -14 22.52 -14 13 C-9.71 13 -5.42 13 -1 13 C-1 12.01 -1 11.02 -1 10 C-6.28 10 -11.56 10 -17 10 C-17 8.35 -17 6.7 -17 5 C-11.39 5 -5.78 5 0 5 C0 3.35 0 1.7 0 0 Z " fill="#121212" transform="translate(211,38)"/>
<path d="M0 0 C5.28 0 10.56 0 16 0 C16 2.97 16 5.94 16 9 C17.98 9 19.96 9 22 9 C22 10.98 22 12.96 22 15 C20.18757948 15.02687279 18.37504767 15.04633715 16.5625 15.0625 C15.55316406 15.07410156 14.54382813 15.08570313 13.50390625 15.09765625 C11 15 11 15 10 14 C9.92820036 12.48071962 9.91607993 10.95832518 9.9375 9.4375 C9.94652344 8.61121094 9.95554687 7.78492188 9.96484375 6.93359375 C9.97644531 6.29550781 9.98804688 5.65742187 10 5 C8.68 5 7.36 5 6 5 C6.04125 6.093125 6.0825 7.18625 6.125 8.3125 C6 12 6 12 4 15 C10.93 15.495 10.93 15.495 18 16 C16.14285714 26.71428571 16.14285714 26.71428571 13 31 C17.95 31.99 17.95 31.99 23 33 C22.34 35.31 21.68 37.62 21 40 C17.61030893 39.60584988 15.3023298 39.18715654 12.375 37.375 C10.17991337 35.76609805 10.17991337 35.76609805 8.1484375 36.31640625 C5.84309574 37.04992408 3.5417524 37.78734845 1.25 38.5625 C0.45078125 38.83191406 -0.3484375 39.10132813 -1.171875 39.37890625 C-1.77515625 39.58386719 -2.3784375 39.78882813 -3 40 C-3.33 38.02 -3.66 36.04 -4 34 C-1.69 33.01 0.62 32.02 3 31 C2.67 30.0925 2.34 29.185 2 28.25 C1 25 1 25 1 21 C0.34 21 -0.32 21 -1 21 C-1.99 19.02 -2.98 17.04 -4 15 C-4 17.97 -4 20.94 -4 24 C-3.67 23.34 -3.34 22.68 -3 22 C-2.34 22 -1.68 22 -1 22 C-0.05138773 24.78654855 0.40881811 26.14344816 0 29 C-2.327103 32.35018018 -5.069678 35.17227133 -8 38 C-8.99 37.67 -9.98 37.34 -11 37 C-11.95946595 32.38034912 -11.96102244 28.31870875 -11.5625 23.625 C-11.46066406 22.37976563 -11.35882813 21.13453125 -11.25390625 19.8515625 C-11.17011719 18.91054688 -11.08632813 17.96953125 -11 17 C-12.65 17 -14.3 17 -16 17 C-16 15.35 -16 13.7 -16 12 C-14.75283203 12.03480469 -14.75283203 12.03480469 -13.48046875 12.0703125 C-12.39378906 12.08835937 -11.30710937 12.10640625 -10.1875 12.125 C-9.10855469 12.14820313 -8.02960938 12.17140625 -6.91796875 12.1953125 C-3.80597132 12.23023717 -3.80597132 12.23023717 -1 10 C-0.41810734 7.57478506 -0.41810734 7.57478506 -0.3125 4.875 C-0.209375 3.26625 -0.10625 1.6575 0 0 Z " fill="#181818" transform="translate(504,39)"/>
<path d="M0 0 C2.31 0 4.62 0 7 0 C7 1.32 7 2.64 7 4 C11.95 4 16.9 4 22 4 C22 5.98 22 7.96 22 10 C17.545 10.495 17.545 10.495 13 11 C15.31 13.64 17.62 16.28 20 19 C19.01 20.32 18.02 21.64 17 23 C15.68 22.67 14.36 22.34 13 22 C11.68 24.64 10.36 27.28 9 30 C13.62 30.99 18.24 31.98 23 33 C22.34 34.32 21.68 35.64 21 37 C20.67 37.99 20.34 38.98 20 40 C15.65976167 39.63831347 12.68301278 38.9626517 8.875 36.8125 C5.86190221 35.13788117 5.86190221 35.13788117 2.5 35.5625 C1.675 36.036875 0.85 36.51125 0 37 C-1.34284588 37.58901489 -2.69827632 38.14985015 -4.0625 38.6875 C-4.71347656 38.95949219 -5.36445313 39.23148438 -6.03515625 39.51171875 C-8.46817167 40.11634485 -9.70618217 40.01576548 -12 39 C-13.25 36.9375 -13.25 36.9375 -14 35 C-12.2097939 34.32942113 -10.41778511 33.6636531 -8.625 33 C-7.62726563 32.62875 -6.62953125 32.2575 -5.6015625 31.875 C-3 31 -3 31 -1 31 C-2.32 28.03 -3.64 25.06 -5 22 C-6.32 22.33 -7.64 22.66 -9 23 C-9.66 22.34 -10.32 21.68 -11 21 C-10.84831437 16.75280228 -7.67183599 14.01437907 -5 11 C-3.68 11.33 -2.36 11.66 -1 12 C-0.896875 12.680625 -0.79375 13.36125 -0.6875 14.0625 C0.15693671 17.67054778 1.39239001 20.65617122 3 24 C3.66 24.33 4.32 24.66 5 25 C5.12117188 24.43410156 5.24234375 23.86820313 5.3671875 23.28515625 C5.53476562 22.55167969 5.70234375 21.81820312 5.875 21.0625 C6.11863281 19.96615234 6.11863281 19.96615234 6.3671875 18.84765625 C7 17 7 17 9 16 C8.34 15.01 7.68 14.02 7 13 C7.66 12.34 8.32 11.68 9 11 C-2.385 10.505 -2.385 10.505 -14 10 C-14 8.02 -14 6.04 -14 4 C-9.38 4 -4.76 4 0 4 C0 2.68 0 1.36 0 0 Z " fill="#161616" transform="translate(293,39)"/>
<path d="M0 0 C9.9 0 19.8 0 30 0 C30.06879134 5.23323749 30.12854634 10.46491312 30.16479492 15.69824219 C30.17990173 17.47922067 30.20038835 19.26016184 30.22631836 21.04101562 C30.26261943 23.59774978 30.27970688 26.1539931 30.29296875 28.7109375 C30.30845261 29.50994476 30.32393646 30.30895203 30.33988953 31.13217163 C30.34057617 33.37646484 30.34057617 33.37646484 30 37 C26.5647952 39.29013653 25.014669 39.17842973 21 39 C20.505 36.525 20.505 36.525 20 34 C18.35 34 16.7 34 15 34 C15 33.01 15 32.02 15 31 C12.03 31 9.06 31 6 31 C6 31.99 6 32.98 6 34 C4.02 34 2.04 34 0 34 C0 28.06 0 22.12 0 16 C6.93 16 13.86 16 21 16 C21 21.61 21 27.22 21 33 C22.485 32.505 22.485 32.505 24 32 C24.33 23.09 24.66 14.18 25 5 C16.75 5 8.5 5 0 5 C0 3.35 0 1.7 0 0 Z " fill="#050505" transform="translate(746,40)"/>
<path d="M0 0 C6.27 0 12.54 0 19 0 C19.16783362 3.41661301 19.33431384 6.83328275 19.5 10.25 C19.54769531 11.21808594 19.59539063 12.18617187 19.64453125 13.18359375 C19.68964844 14.11816406 19.73476563 15.05273438 19.78125 16.015625 C19.82314453 16.87446289 19.86503906 17.73330078 19.90820312 18.61816406 C19.99013692 20.74408447 20 22.8725013 20 25 C18.02 25.99 18.02 25.99 16 27 C17.04874998 29.62187494 17.64931313 30.79371361 20.125 32.25 C20.74375 32.4975 21.3625 32.745 22 33 C21.34 34.98 20.68 36.96 20 39 C16.26275228 38.44846785 14.7764009 37.03850239 12.375 34.1875 C11.78460937 33.50042969 11.19421875 32.81335938 10.5859375 32.10546875 C7.45191229 27.94478011 6.76203592 25.23520981 7 20 C6.34 20 5.68 20 5 20 C5 23.63 5 27.26 5 31 C5.99 30.67 6.98 30.34 8 30 C8.33 31.65 8.66 33.3 9 35 C7.87926138 35.83905565 6.75325453 36.67107831 5.625 37.5 C4.99851562 37.9640625 4.37203125 38.428125 3.7265625 38.90625 C2 40 2 40 0 40 C-0.66 38.02 -1.32 36.04 -2 34 C-1.505 33.505 -1.505 33.505 -1 33 C-0.84019563 30.55391002 -0.74070553 28.13268942 -0.68359375 25.68359375 C-0.6524221 24.58701195 -0.6524221 24.58701195 -0.62062073 23.46827698 C-0.55504976 21.12478344 -0.49620568 18.78117461 -0.4375 16.4375 C-0.39432192 14.85220145 -0.35070787 13.26691471 -0.30664062 11.68164062 C-0.19853718 7.78787702 -0.09952117 3.89403042 0 0 Z " fill="#121212" transform="translate(673,39)"/>
<path d="M0 0 C1 3 1 3 0.47265625 5.41796875 C-1.50638539 8.88785343 -4.19429787 10.37784215 -7.5625 12.3125 C-9.00649631 13.17754113 -10.44910785 14.04489635 -11.890625 14.9140625 C-12.69435547 15.39520508 -13.49808594 15.87634766 -14.32617188 16.37207031 C-19.54697228 19.55069496 -24.67209061 22.88106957 -29.8125 26.1875 C-31.88129968 27.51465148 -33.95030497 28.8414825 -36.01953125 30.16796875 C-37.01162598 30.80395996 -38.0037207 31.43995117 -39.02587891 32.09521484 C-41.99890992 33.99930186 -44.97292712 35.90179458 -47.94921875 37.80078125 C-48.80217529 38.34516846 -49.65513184 38.88955566 -50.53393555 39.45043945 C-51.34773682 39.96179443 -52.16153809 40.47314941 -53 41 C-53.84836426 41.55349121 -54.69672852 42.10698242 -55.57080078 42.67724609 C-59.03507737 44.56362303 -62.34871215 44.3993504 -66.1875 44.3125 C-67.27321289 44.31733398 -67.27321289 44.31733398 -68.38085938 44.32226562 C-73.7324953 44.2675047 -73.7324953 44.2675047 -76 42 C-69.6897184 37.90726495 -63.164794 34.35026315 -56.51519775 30.84033203 C-46.67310806 25.64205217 -36.93767855 20.30678155 -27.34545898 14.6574707 C-21.65022596 11.32285766 -15.84568932 8.32691072 -9.9140625 5.4375 C-6.51591772 3.76120338 -3.254699 1.93732083 0 0 Z " fill="#EEFCF6" transform="translate(131,66)"/>
<path d="M0 0 C7.59 0 15.18 0 23 0 C21.21739173 3.56521654 19.24007711 6.71455357 17 10 C18.98 10 20.96 10 23 10 C23.0868329 13.458176 23.14033282 16.91607344 23.1875 20.375 C23.21263672 21.35984375 23.23777344 22.3446875 23.26367188 23.359375 C23.27333984 24.30039062 23.28300781 25.24140625 23.29296875 26.2109375 C23.3086792 27.08024902 23.32438965 27.94956055 23.34057617 28.84521484 C23.22818604 29.55629395 23.1157959 30.26737305 23 31 C20 33 20 33 16 33 C16.33 31.35 16.66 29.7 17 28 C16.01 27.67 15.02 27.34 14 27 C14 28.65 14 30.3 14 32 C12.35 32 10.7 32 9 32 C9 30.35 9 28.7 9 27 C7.68 27 6.36 27 5 27 C5 28.65 5 30.3 5 32 C3.35 32 1.7 32 0 32 C0 24.74 0 17.48 0 10 C1.65 9.67 3.3 9.34 5 9 C5.66 8.01 6.32 7.02 7 6 C8.98 6 10.96 6 13 6 C8.71 5.67 4.42 5.34 0 5 C0 3.35 0 1.7 0 0 Z " fill="#1B1B1B" transform="translate(333,39)"/>
<path d="M0 0 C0.11890018 5.46940807 -1.48887762 7.98189407 -5.125 12.0625 C-15.15074503 22.49874798 -29.96747913 34.62538852 -45.13671875 35.09765625 C-46.30847656 35.08605469 -47.48023437 35.07445312 -48.6875 35.0625 C-50.45673828 35.04896484 -50.45673828 35.04896484 -52.26171875 35.03515625 C-53.16535156 35.02355469 -54.06898437 35.01195312 -55 35 C-53.80690808 31.42072424 -52.9880143 31.07536967 -49.86328125 29.13671875 C-48.98607422 28.58612793 -48.10886719 28.03553711 -47.20507812 27.46826172 C-46.25052734 26.88061035 -45.29597656 26.29295898 -44.3125 25.6875 C-42.30845549 24.43381473 -40.30455348 23.17990165 -38.30078125 21.92578125 C-37.2638916 21.2807666 -36.22700195 20.63575195 -35.15869141 19.97119141 C-30.08508208 16.80498939 -25.04332583 13.58913144 -20 10.375 C-19.08774658 9.79580811 -18.17549316 9.21661621 -17.2355957 8.61987305 C-16.37409912 8.07242432 -15.51260254 7.52497559 -14.625 6.9609375 C-13.4184375 6.19668457 -13.4184375 6.19668457 -12.1875 5.41699219 C-10.29441756 4.19071423 -8.46079059 2.91071067 -6.625 1.6015625 C-4 0 -4 0 0 0 Z " fill="#0D994B" transform="translate(129,76)"/>
<path d="M0 0 C2.34126274 3.67644069 2.42157903 7.3275208 2.4375 11.5625 C2.44136719 12.26761719 2.44523437 12.97273438 2.44921875 13.69921875 C2.30652321 20.23943104 0.33715276 25.37451392 -3 31 C-3.185625 30.0409375 -3.185625 30.0409375 -3.375 29.0625 C-3.684375 28.0415625 -3.684375 28.0415625 -4 27 C-4.66 26.67 -5.32 26.34 -6 26 C-5.01 25.67 -4.02 25.34 -3 25 C-2.67 22.69 -2.34 20.38 -2 18 C-11.24960551 22.80482863 -20.39033174 27.76100248 -29.4375 32.9375 C-44.74673976 41.68144655 -60.38997154 49.80988586 -76 58 C-76 58.66 -76 59.32 -76 60 C-70.06 60 -64.12 60 -58 60 C-58 60.33 -58 60.66 -58 61 C-55.03 61.33 -52.06 61.66 -49 62 C-49 62.33 -49 62.66 -49 63 C-65.78176133 65.44098347 -81.21637159 65.06390946 -96 56 C-96.66 55.01 -97.32 54.02 -98 53 C-97.34 53 -96.68 53 -96 53 C-95.67 52.34 -95.34 51.68 -95 51 C-94.09507813 51.66708984 -94.09507813 51.66708984 -93.171875 52.34765625 C-92.37265625 52.91355469 -91.5734375 53.47945312 -90.75 54.0625 C-89.96109375 54.63097656 -89.1721875 55.19945312 -88.359375 55.78515625 C-86.18215253 57.18631663 -86.18215253 57.18631663 -84.27978516 56.78808594 C-81.09039227 55.68556289 -78.15027528 54.1596913 -75.1640625 52.60546875 C-74.49704315 52.26218033 -73.8300238 51.91889191 -73.14279175 51.56520081 C-70.96782053 50.4438291 -68.79629975 49.31596223 -66.625 48.1875 C-65.11657212 47.40715762 -63.60810834 46.62688463 -62.09960938 45.84667969 C-52.98745499 41.12364317 -43.92456985 36.32036864 -34.95288086 31.33447266 C-30.06524503 28.62829239 -25.13647542 26.04477915 -20.13671875 23.55078125 C-18.98042969 22.9690918 -17.82414062 22.38740234 -16.6328125 21.78808594 C-14.38119442 20.66036226 -12.12227952 19.54706067 -9.85546875 18.45019531 C-8.84484375 17.94198242 -7.83421875 17.43376953 -6.79296875 16.91015625 C-5.43981567 16.24705444 -5.43981567 16.24705444 -4.05932617 15.57055664 C-1.75245122 14.13080576 -1.75245122 14.13080576 -1.20043945 11.31811523 C-1.13429443 10.55313721 -1.06814941 9.78815918 -1 9 C-2.65 9.33 -4.3 9.66 -6 10 C-6 9.34 -6 8.68 -6 8 C-3.03 7.505 -3.03 7.505 0 7 C0 4.69 0 2.38 0 0 Z " fill="#279859" transform="translate(133,49)"/>
<path d="M0 0 C11.88 0 23.76 0 36 0 C36 1.65 36 3.3 36 5 C34.92621094 4.93296875 33.85242188 4.8659375 32.74609375 4.796875 C26.27419028 4.62220504 26.27419028 4.62220504 20 6 C16.57105479 9.58225126 14.72764268 13.38134234 13 18 C16.63 18 20.26 18 24 18 C23.505 17.236875 23.01 16.47375 22.5 15.6875 C21 13 21 13 21 10 C22.65 9.34 24.3 8.68 26 8 C27.13136586 9.55789683 28.25482321 11.12153857 29.375 12.6875 C30.00148437 13.55761719 30.62796875 14.42773438 31.2734375 15.32421875 C32.89415843 17.83596952 33.99858088 20.19299187 35 23 C33.02 23.66 31.04 24.32 29 25 C28.67 24.01 28.34 23.02 28 22 C25.33328914 22.31212639 22.66663095 22.62469221 20 22.9375 C19.25621094 23.02451172 18.51242188 23.11152344 17.74609375 23.20117188 C12.82778708 23.77853831 7.91315228 24.38027284 3 25 C2.1875 22.3125 2.1875 22.3125 2 19 C4.125 16.6875 4.125 16.6875 7 14 C8.83569725 11.07080116 10.3972635 8.06809559 12 5 C8.04 5 4.08 5 0 5 C0 3.35 0 1.7 0 0 Z " fill="#0B0B0B" transform="translate(153,53)"/>
<path d="M0 0 C4.29 0 8.58 0 13 0 C12.91621094 1.19238281 12.83242188 2.38476562 12.74609375 3.61328125 C12.64291864 5.17966708 12.54007111 6.74607451 12.4375 8.3125 C12.38142578 9.09818359 12.32535156 9.88386719 12.26757812 10.69335938 C12.21923828 11.45068359 12.17089844 12.20800781 12.12109375 12.98828125 C12.0739624 13.68477783 12.02683105 14.38127441 11.97827148 15.09887695 C11.90581885 17.22639828 11.90581885 17.22639828 13 20 C13.37828348 23.60824247 13.71195482 26.86087228 11.75 30 C10 31 10 31 6 31 C5.67 33.64 5.34 36.28 5 39 C3.35 39 1.7 39 0 39 C0 26.13 0 13.26 0 0 Z " fill="#0C0C0C" transform="translate(659,39)"/>
<path d="M0 0 C10.56 0 21.12 0 32 0 C32 12.21 32 24.42 32 37 C31.67 37 31.34 37 31 37 C31 25.12 31 13.24 31 1 C21.1 1 11.2 1 1 1 C1 2.65 1 4.3 1 6 C9.25 6 17.5 6 26 6 C26 14.91 26 23.82 26 33 C24.02 33.495 24.02 33.495 22 34 C22 28.39 22 22.78 22 17 C17.38 17 12.76 17 8 17 C8 16.67 8 16.34 8 16 C4.7 15.67 1.4 15.34 -2 15 C-2 13.02 -2 11.04 -2 9 C6.58 9 15.16 9 24 9 C24.33 8.34 24.66 7.68 25 7 C16.75 7 8.5 7 0 7 C0 4.69 0 2.38 0 0 Z " fill="#B7B7B7" transform="translate(745,39)"/>
<path d="M0 0 C9.9 0 19.8 0 30 0 C30.06879134 5.23323749 30.12854634 10.46491312 30.16479492 15.69824219 C30.17990173 17.47922067 30.20038835 19.26016184 30.22631836 21.04101562 C30.26261943 23.59774978 30.27970688 26.1539931 30.29296875 28.7109375 C30.30845261 29.50994476 30.32393646 30.30895203 30.33988953 31.13217163 C30.34057617 33.37646484 30.34057617 33.37646484 30 37 C26.5647952 39.29013653 25.014669 39.17842973 21 39 C20.8125 36.625 20.8125 36.625 21 34 C21.99 33.34 22.98 32.68 24 32 C24.51104922 29.19189856 24.51104922 29.19189856 24.51171875 25.8984375 C24.54716797 24.68671875 24.58261719 23.475 24.61914062 22.2265625 C24.64169922 20.95554687 24.66425781 19.68453125 24.6875 18.375 C24.72166016 17.09625 24.75582031 15.8175 24.79101562 14.5 C24.87371887 11.3336471 24.93852861 8.16683624 25 5 C16.75 5 8.5 5 0 5 C0 3.35 0 1.7 0 0 Z " fill="#060606" transform="translate(746,40)"/>
<path d="M0 0 C3.63 0 7.26 0 11 0 C11.33 6.27 11.66 12.54 12 19 C14.57211322 20.28605661 16.56906966 20.21043941 19.4453125 20.31640625 C20.52167969 20.35830078 21.59804688 20.40019531 22.70703125 20.44335938 C23.83496094 20.48267578 24.96289062 20.52199219 26.125 20.5625 C27.26066406 20.60568359 28.39632813 20.64886719 29.56640625 20.69335938 C32.37747768 20.7996604 35.18863945 20.90169405 38 21 C37.505 23.475 37.505 23.475 37 26 C32.89589245 26.05796132 28.79188984 26.09358313 24.6875 26.125 C23.52025391 26.14175781 22.35300781 26.15851563 21.15039062 26.17578125 C19.47299805 26.18544922 19.47299805 26.18544922 17.76171875 26.1953125 C16.2142395 26.21102295 16.2142395 26.21102295 14.63549805 26.22705078 C12 26 12 26 9 24 C9 23.34 9 22.68 9 22 C8.01 22 7.02 22 6 22 C5.34 23.32 4.68 24.64 4 26 C3.34 26 2.68 26 2 26 C0 23 0 23 0 20 C1.65 19.34 3.3 18.68 5 18 C5 14.04 5 10.08 5 6 C3.35 6 1.7 6 0 6 C0 4.02 0 2.04 0 0 Z " fill="#171717" transform="translate(320,52)"/>
<path d="M0 0 C2.97 0.495 2.97 0.495 6 1 C5.39644592 4.85025879 4.23227397 7.86101159 2.4375 11.3125 C1.98246094 12.19550781 1.52742187 13.07851562 1.05859375 13.98828125 C0.70925781 14.65214844 0.35992188 15.31601563 0 16 C2.97 16 5.94 16 9 16 C8.01 14.68 7.02 13.36 6 12 C6.66 10.68 7.32 9.36 8 8 C10.95820408 8.33451975 11.91277745 8.9044208 13.95703125 11.14453125 C14.56933594 12.02496094 15.18164062 12.90539062 15.8125 13.8125 C16.43769531 14.68519531 17.06289063 15.55789062 17.70703125 16.45703125 C19 19 19 19 18.69921875 21.32421875 C18.46847656 21.87722656 18.23773437 22.43023437 18 23 C16.35 23.33 14.7 23.66 13 24 C13 23.01 13 22.02 13 21 C2.605 21.99 2.605 21.99 -8 23 C-9 17 -9 17 -7.234375 14.51953125 C-6.12835937 13.27236328 -6.12835937 13.27236328 -5 12 C-4.0122214 9.92826436 -3.09431051 7.82172935 -2.25 5.6875 C-1.82203125 4.61886719 -1.3940625 3.55023438 -0.953125 2.44921875 C-0.63859375 1.64097656 -0.3240625 0.83273438 0 0 Z " fill="#121212" transform="translate(714,54)"/>
<path d="M0 0 C2.513523 0.96673961 3.73893878 1.88134695 5.4375 3.9375 C5.994375 3.256875 6.55125 2.57625 7.125 1.875 C9.4375 -0.0625 9.4375 -0.0625 12.0625 0.0625 C14.4375 0.9375 14.4375 0.9375 16.4375 2.9375 C16.7734375 5.21484375 16.7734375 5.21484375 16.8125 7.875 C16.84085938 8.75027344 16.86921875 9.62554687 16.8984375 10.52734375 C16.4375 12.9375 16.4375 12.9375 14.578125 14.7578125 C12.4375 15.9375 12.4375 15.9375 9.8125 15.875 C7.4375 14.9375 7.4375 14.9375 6.125 12.875 C5.898125 12.235625 5.67125 11.59625 5.4375 10.9375 C4.1175 12.5875 2.7975 14.2375 1.4375 15.9375 C-4.1256769 15.45374549 -4.1256769 15.45374549 -5.9375 13.3125 C-6.80828333 10.00352336 -6.92762105 7.34529647 -6.5625 3.9375 C-4.53706775 0.93685962 -3.67434422 -0.08961815 0 0 Z " fill="#EBEBEB" transform="translate(233.5625,88.0625)"/>
<path d="M0 0 C1.32 0 2.64 0 4 0 C4 2.64 4 5.28 4 8 C5.32 8 6.64 8 8 8 C8 9.32 8 10.64 8 12 C7.01 12.33 6.02 12.66 5 13 C4.26676204 15.01508358 4.26676204 15.01508358 4 17 C4.99 17 5.98 17 7 17 C6.67 18.65 6.34 20.3 6 22 C5.34 22 4.68 22 4 22 C4.02320313 23.13179687 4.04640625 24.26359375 4.0703125 25.4296875 C4.08906901 26.91145175 4.10726934 28.39322312 4.125 29.875 C4.14175781 30.62136719 4.15851563 31.36773437 4.17578125 32.13671875 C4.1933959 34.09194461 4.10320189 36.04742021 4 38 C2 40 2 40 -0.5625 40.1875 C-3 40 -3 40 -4 39 C-4.04063832 37.33382885 -4.042721 35.66611905 -4 34 C-3.01 34 -2.02 34 -1 34 C-1 31.03 -1 28.06 -1 25 C-2.65 25.33 -4.3 25.66 -6 26 C-6.33 24.02 -6.66 22.04 -7 20 C-5.02 19.67 -3.04 19.34 -1 19 C-1 17.02 -1 15.04 -1 13 C-2.65 13 -4.3 13 -6 13 C-6 11.35 -6 9.7 -6 8 C-4.02 8 -2.04 8 0 8 C0 5.36 0 2.72 0 0 Z " fill="#0E0E0E" transform="translate(369,39)"/>
<path d="M0 0 C2.94181024 0.50226028 4.35430637 1.47466122 6.5625 3.4375 C6.954375 2.9425 7.34625 2.4475 7.75 1.9375 C9.5625 0.4375 9.5625 0.4375 12.0625 0 C14.5625 0.4375 14.5625 0.4375 16.375 2 C18.00739575 5.35070706 17.95719235 7.75370474 17.5625 11.4375 C16.4375 13.875 16.4375 13.875 14.5625 15.4375 C11.5625 15.875 11.5625 15.875 8.5625 15.4375 C6.6875 13.9375 6.6875 13.9375 5.5625 12.4375 C5.19125 12.9325 4.82 13.4275 4.4375 13.9375 C2.5625 15.4375 2.5625 15.4375 -0.5 15.8125 C-1.469375 15.68875 -2.43875 15.565 -3.4375 15.4375 C-5.90553687 11.73544469 -5.99038088 8.73096556 -5.4375 4.4375 C-3.98094879 1.37107639 -3.3506196 0.60139326 0 0 Z " fill="#EAEAEA" transform="translate(517.4375,87.5625)"/>
<path d="M0 0 C2.94181024 0.50226028 4.35430637 1.47466122 6.5625 3.4375 C6.954375 2.9425 7.34625 2.4475 7.75 1.9375 C9.5625 0.4375 9.5625 0.4375 12.0625 0.0625 C15.04886722 0.51045508 15.73526949 1.08820363 17.5625 3.4375 C17.9609375 5.59375 17.9609375 5.59375 17.9375 7.9375 C17.94523438 8.7109375 17.95296875 9.484375 17.9609375 10.28125 C17.47086323 12.93341661 16.68513747 13.81759245 14.5625 15.4375 C12.0625 15.875 12.0625 15.875 9.5625 15.4375 C7.75 13.4375 7.75 13.4375 6.5625 11.4375 C6.005625 12.0975 5.44875 12.7575 4.875 13.4375 C2.5625 15.4375 2.5625 15.4375 0 16 C-2.4375 15.4375 -2.4375 15.4375 -4.25 13.3125 C-5.60890782 10.02251265 -5.88767607 7.96387922 -5.4375 4.4375 C-3.95652584 1.47555168 -3.28897239 0.59032838 0 0 Z " fill="#E8E8E8" transform="translate(718.4375,87.5625)"/>
<path d="M0 0 C3.3 0 6.6 0 10 0 C10 0.66 10 1.32 10 2 C10.99 1.34 11.98 0.68 13 0 C15.5625 -0.25 15.5625 -0.25 18 0 C20 2 20 2 20 5 C19.34 5 18.68 5 18 5 C17.67 4.34 17.34 3.68 17 3 C16.01 3 15.02 3 14 3 C14 3.66 14 4.32 14 5 C15.63631892 6.04892238 17.30485863 7.04906703 19 8 C20 9 20 9 20.125 11.5 C20 14 20 14 19 15 C17.58429877 15.08651611 16.164405 15.10704904 14.74609375 15.09765625 C13.89208984 15.09443359 13.03808594 15.09121094 12.15820312 15.08789062 C11.26037109 15.07951172 10.36253906 15.07113281 9.4375 15.0625 C8.53580078 15.05798828 7.63410156 15.05347656 6.70507812 15.04882812 C4.47002411 15.03700244 2.23500398 15.01906638 0 15 C0 10.05 0 5.1 0 0 Z " fill="#DEDEDE" transform="translate(412,88)"/>
<path d="M0 0 C2.87824511 0.43173677 3.72510401 1.13302612 5.5 3.375 C5.83 2.385 6.16 1.395 6.5 0.375 C12.5546875 0.1796875 12.5546875 0.1796875 14.5 0.375 C16.5 2.375 16.5 2.375 16.625 4.75 C16.58375 5.61625 16.5425 6.4825 16.5 7.375 C16.5 10.48757569 16.67361624 12.48265685 17.5 15.375 C13.71874975 14.11458325 13.48677673 12.68629455 11.5 9.375 C10.51 9.045 9.52 8.715 8.5 8.375 C8.5 10.685 8.5 12.995 8.5 15.375 C7.84 15.375 7.18 15.375 6.5 15.375 C6.17 14.715 5.84 14.055 5.5 13.375 C4.51 14.035 3.52 14.695 2.5 15.375 C-0.5625 15.6875 -0.5625 15.6875 -3.5 15.375 C-5.56520632 12.27719052 -5.79477024 11.4209519 -5.8125 7.875 C-5.82925781 7.1015625 -5.84601562 6.328125 -5.86328125 5.53125 C-5.25195226 1.90271666 -3.56550801 0.5348262 0 0 Z " fill="#E0E0E0" transform="translate(654.5,87.625)"/>
<path d="M0 0 C3.96 0 7.92 0 12 0 C12 1.98 12 3.96 12 6 C8.37 6 4.74 6 1 6 C1 7.32 1 8.64 1 10 C3.64 10 6.28 10 9 10 C7.43959902 13.27684206 5.8479251 16.21543944 3.75 19.1875 C3.1725 20.115625 2.595 21.04375 2 22 C2.33 22.99 2.66 23.98 3 25 C6.57410797 22.31941902 9.31941902 19.57410797 12 16 C12 18.64 12 21.28 12 24 C11.34 24 10.68 24 10 24 C10 25.32 10 26.64 10 28 C6.7 28 3.4 28 0 28 C0 18.76 0 9.52 0 0 Z " fill="#8F8F8F" transform="translate(580,44)"/>
<path d="M0 0 C2.31 0 4.62 0 7 0 C7 1.32 7 2.64 7 4 C11.95 4 16.9 4 22 4 C22 5.65 22 7.3 22 9 C10.12 9 -1.76 9 -14 9 C-14 7.35 -14 5.7 -14 4 C-9.38 4 -4.76 4 0 4 C0 2.68 0 1.36 0 0 Z " fill="#0E0E0E" transform="translate(293,39)"/>
<path d="M0 0 C0.99 0 1.98 0 3 0 C3.33 0.99 3.66 1.98 4 3 C4.391875 2.484375 4.78375 1.96875 5.1875 1.4375 C5.785625 0.963125 6.38375 0.48875 7 0 C9.6875 0.3125 9.6875 0.3125 12 1 C12.33 2.32 12.66 3.64 13 5 C12.34 4.67 11.68 4.34 11 4 C11 3.34 11 2.68 11 2 C9.68 2.33 8.36 2.66 7 3 C7 3.66 7 4.32 7 5 C8.98 5.99 10.96 6.98 13 8 C13.04254356 9.99954746 13.04080783 12.00041636 13 14 C12 15 12 15 9.27734375 15.09765625 C7.62412109 15.08025391 7.62412109 15.08025391 5.9375 15.0625 C4.28041016 15.04896484 4.28041016 15.04896484 2.58984375 15.03515625 C1.73519531 15.02355469 0.88054687 15.01195313 0 15 C-1.65 12.03 -3.3 9.06 -5 6 C-5.33 8.97 -5.66 11.94 -6 15 C-6.33 15 -6.66 15 -7 15 C-7 10.38 -7 5.76 -7 1 C-4 2 -4 2 -2.3125 5.0625 C-1.879375 6.031875 -1.44625 7.00125 -1 8 C-0.67 5.36 -0.34 2.72 0 0 Z " fill="#C4C4C4" transform="translate(365,88)"/>
<path d="M0 0 C2.97 0 5.94 0 9 0 C9 4.29 9 8.58 9 13 C9.66 13 10.32 13 11 13 C11.33 11.68 11.66 10.36 12 9 C12.66 9 13.32 9 14 9 C14.94861227 11.78654855 15.40881811 13.14344816 15 16 C12.672897 19.35018018 9.930322 22.17227133 7 25 C6.01 24.67 5.02 24.34 4 24 C3.04053405 19.38034912 3.03897756 15.31870875 3.4375 10.625 C3.59025391 8.75714844 3.59025391 8.75714844 3.74609375 6.8515625 C3.87177734 5.44003906 3.87177734 5.44003906 4 4 C2.68 4 1.36 4 0 4 C0 2.68 0 1.36 0 0 Z " fill="#0E0E0E" transform="translate(489,52)"/>
<path d="M0 0 C2.31 0 4.62 0 7 0 C7 9.24 7 18.48 7 28 C4.36 28 1.72 28 -1 28 C-0.505 19.09 -0.505 19.09 0 10 C1.65 10 3.3 10 5 10 C5 8.68 5 7.36 5 6 C3.35 5.67 1.7 5.34 0 5 C0 3.35 0 1.7 0 0 Z " fill="#8F8F8F" transform="translate(597,44)"/>
<path d="M0 0 C1.2065625 0.0309375 1.2065625 0.0309375 2.4375 0.0625 C2.71722656 0.70316406 2.99695313 1.34382813 3.28515625 2.00390625 C6.14585685 8.17602876 9.3068089 12.5971723 14.4375 17.0625 C13.6875 19.5 13.6875 19.5 12.4375 22.0625 C10.359375 22.72265625 10.359375 22.72265625 8.4375 23.0625 C2.89294644 16.474449 -1.95175689 9.69683223 -3.5625 1.0625 C-2.5625 0.0625 -2.5625 0.0625 0 0 Z " fill="#0E0E0E" transform="translate(722.5625,38.9375)"/>
<path d="M0 0 C0.33 0 0.66 0 1 0 C1 4.62 1 9.24 1 14 C-6.75 18 -6.75 18 -9 18 C-9.1546875 17.0409375 -9.1546875 17.0409375 -9.3125 16.0625 C-9.539375 15.381875 -9.76625 14.70125 -10 14 C-10.99 13.67 -11.98 13.34 -13 13 C-11.54955729 8.89041233 -9.48889248 5.56741255 -7 2 C-5.02 2.66 -3.04 3.32 -1 4 C-0.67 2.68 -0.34 1.36 0 0 Z " fill="#EDEDED" transform="translate(251,38)"/>
<path d="M0 0 C0 3 0 3 -1.5 6.125 C-3.37835613 10.38742353 -3.8978291 14.40725884 -3 19 C1.68921005 25.74073944 10.29742738 27.50502447 18 29 C21.33008828 29.34832998 24.65483346 29.50167589 28 29.625 C28.87011719 29.66367188 29.74023438 29.70234375 30.63671875 29.7421875 C32.75750486 29.83540887 34.87872185 29.91874136 37 30 C34.26708984 32.95019531 34.26708984 32.95019531 31.86328125 33.3984375 C19.28162327 33.28283268 5.91714092 31.7642841 -4 23.5 C-6.81638263 19.7127824 -6.73954718 15.56437367 -6.57421875 10.9921875 C-5.67855352 6.32497958 -3.28710809 3.32624033 0 0 Z " fill="#3A9A64" transform="translate(49,47)"/>
<path d="M0 0 C3.4375 1 3.4375 1 5.4375 2.75 C6.75115275 5.70571868 6.56864585 6.98361106 5.4375 10 C3.40531027 12.68539358 2.2411211 13.81918525 -1.0625 14.5625 C-3.5625 14 -3.5625 14 -5.875 11.8125 C-7.71206543 8.75072428 -8.276437 7.4804429 -7.5625 4 C-5.24958684 0.48437199 -4.25397332 0 0 0 Z " fill="#E4F7ED" transform="translate(93.5625,42)"/>
<path d="M0 0 C3.41378167 0.66610374 4.55523131 1.67495518 6.5625 4.5 C7.08595704 8.01464012 6.73062403 10.07034971 5.4375 13.375 C3.5625 15.5 3.5625 15.5 0.5625 16.0625 C-2.4375 15.5 -2.4375 15.5 -4.3125 13.9375 C-5.85940908 10.58586365 -5.82876176 8.15177642 -5.4375 4.5 C-3.97094972 1.48971258 -3.2944149 0.67577742 0 0 Z " fill="#E6E6E6" transform="translate(624.4375,87.5)"/>
<path d="M0 0 C2.375 0.875 2.375 0.875 4.375 2.875 C4.7109375 5.15234375 4.7109375 5.15234375 4.75 7.8125 C4.77835938 8.68777344 4.80671875 9.56304687 4.8359375 10.46484375 C4.375 12.875 4.375 12.875 2.515625 14.6953125 C0.375 15.875 0.375 15.875 -2.25 15.8125 C-4.625 14.875 -4.625 14.875 -5.9375 13.25 C-6.89650704 9.93706658 -6.99268883 7.3067624 -6.625 3.875 C-4.56869278 0.82861894 -3.73077528 -0.17765597 0 0 Z " fill="#434343" transform="translate(245.625,88.125)"/>
<path d="M0 0 C2.9375 0.875 2.9375 0.875 4.9375 3.875 C5.41675039 8.1882535 5.41010063 10.18086782 2.9375 13.8125 C2.2775 14.493125 1.6175 15.17375 0.9375 15.875 C-1.4375 15.5625 -1.4375 15.5625 -4.0625 14.875 C-6.12770632 11.77719052 -6.35727024 10.9209519 -6.375 7.375 C-6.39175781 6.6015625 -6.40851563 5.828125 -6.42578125 5.03125 C-5.74059929 0.9643635 -4.00825972 -0.16360244 0 0 Z " fill="#E5E5E5" transform="translate(351.0625,88.125)"/>
<path d="M0 0 C2.625 0.1875 2.625 0.1875 5.625 2.1875 C5.625 1.5275 5.625 0.8675 5.625 0.1875 C8.925 0.1875 12.225 0.1875 15.625 0.1875 C15.625 0.8475 15.625 1.5075 15.625 2.1875 C14.305 2.1875 12.985 2.1875 11.625 2.1875 C11.625 6.4775 11.625 10.7675 11.625 15.1875 C10.965 15.1875 10.305 15.1875 9.625 15.1875 C9.625 11.2275 9.625 7.2675 9.625 3.1875 C8.305 3.1875 6.985 3.1875 5.625 3.1875 C5.625 3.8475 5.625 4.5075 5.625 5.1875 C4.965 5.1875 4.305 5.1875 3.625 5.1875 C3.975625 5.744375 4.32625 6.30125 4.6875 6.875 C5.85172585 9.74675711 5.4956847 11.25883328 4.625 14.1875 C3.625 15.1875 3.625 15.1875 0.6875 15.375 C-2.375 15.1875 -2.375 15.1875 -4.375 13.1875 C-4.375 12.1975 -4.375 11.2075 -4.375 10.1875 C-3.715 10.1875 -3.055 10.1875 -2.375 10.1875 C-2.045 10.8475 -1.715 11.5075 -1.375 12.1875 C1.15233235 12.84305119 1.15233235 12.84305119 3.625 13.1875 C2.5274777 10.19425737 1.94817108 9.34139099 -1 7.9375 C-1.78375 7.69 -2.5675 7.4425 -3.375 7.1875 C-3.41754356 5.18795254 -3.41580783 3.18708364 -3.375 1.1875 C-2.375 0.1875 -2.375 0.1875 0 0 Z " fill="#C2C2C2" transform="translate(552.375,87.8125)"/>
<path d="M0 0 C6.0546875 -0.1953125 6.0546875 -0.1953125 8 0 C10.40450178 2.40450178 10.29609139 3.08233942 10.3125 6.375 C10.23077063 9.19466328 10.02777744 10.93300735 8.9375 13.5625 C7 15 7 15 0 15 C0 10.05 0 5.1 0 0 Z " fill="#313131" transform="translate(766,88)"/>
<path d="M0 0 C2.12507645 1.61668496 2.90844456 2.50452352 3.3984375 5.15625 C3.39070312 5.9296875 3.38296875 6.703125 3.375 7.5 C3.38273438 8.2734375 3.39046875 9.046875 3.3984375 9.84375 C2.90836323 12.49591661 2.12263747 13.38009245 0 15 C-2.5 15.4375 -2.5 15.4375 -5 15 C-7.15926208 13.21302449 -7.87841815 11.82775588 -8.28515625 9.05859375 C-8.41347709 6.02910599 -8.38184375 3.64310527 -6.8125 1 C-4.33474158 -0.36703913 -2.78844081 -0.41826612 0 0 Z " fill="#303030" transform="translate(681,88)"/>
<path d="M0 0 C2.31 0.33 4.62 0.66 7 1 C5.54488901 6.36885778 2.99676879 10.36286359 -0.125 14.875 C-0.82689453 15.90753906 -0.82689453 15.90753906 -1.54296875 16.9609375 C-2.68901697 18.64492672 -3.84364479 20.3230716 -5 22 C-6.65 21.01 -8.3 20.02 -10 19 C-9.02083009 16.14408777 -8.06960806 14.08352967 -6.125 11.75 C-3.32530795 8.12686911 -1.72700204 4.21645711 0 0 Z " fill="#131313" transform="translate(709,41)"/>
<path d="M0 0 C0 0.66 0 1.32 0 2 C-2.31 2 -4.62 2 -7 2 C-7 3.32 -7 4.64 -7 6 C-4.69 6 -2.38 6 0 6 C0 6.66 0 7.32 0 8 C-1.98 8 -3.96 8 -6 8 C-6 9.32 -6 10.64 -6 12 C-4.02 12 -2.04 12 0 12 C0 12.66 0 13.32 0 14 C-1.98 14 -3.96 14 -6 14 C-6 15.32 -6 16.64 -6 18 C-4.02 18 -2.04 18 0 18 C0 18.66 0 19.32 0 20 C-2.31 20 -4.62 20 -7 20 C-7 21.32 -7 22.64 -7 24 C-4.69 24 -2.38 24 0 24 C0 25.32 0 26.64 0 28 C-7.875 27.125 -7.875 27.125 -9 26 C-9.02172852 24.23413086 -9.02172852 24.23413086 -8.87890625 21.96484375 C-8.83056641 21.15595703 -8.78222656 20.34707031 -8.73242188 19.51367188 C-8.67634766 18.66353516 -8.62027344 17.81339844 -8.5625 16.9375 C-8.51029297 16.08349609 -8.45808594 15.22949219 -8.40429688 14.34960938 C-8.27421239 12.23278005 -8.13770029 10.11634756 -8 8 C-8.99 8 -9.98 8 -11 8 C-10.75 5.125 -10.75 5.125 -10 2 C-6.94570883 -0.48868169 -3.80818272 -0.17309921 0 0 Z " fill="#BCBCBC" transform="translate(467,45)"/>
<path d="M0 0 C0.33 0 0.66 0 1 0 C1 1.65 1 3.3 1 5 C5.62 5 10.24 5 15 5 C14.67 5.66 14.34 6.32 14 7 C12.02 7 10.04 7 8 7 C8 7.99 8 8.98 8 10 C5.69 10 3.38 10 1 10 C1 16.93 1 23.86 1 31 C0.67 31 0.34 31 0 31 C-0.33 24.4 -0.66 17.8 -1 11 C-1.99 11.33 -2.98 11.66 -4 12 C-6 11 -6 11 -6.8515625 8.93359375 C-7.10679687 8.10988281 -7.36203125 7.28617188 -7.625 6.4375 C-7.88539063 5.61121094 -8.14578125 4.78492188 -8.4140625 3.93359375 C-8.60742188 3.29550781 -8.80078125 2.65742187 -9 2 C-8 1 -8 1 -5.5625 0.75 C-4.2940625 0.87375 -4.2940625 0.87375 -3 1 C-2.34 1.99 -1.68 2.98 -1 4 C-0.67 2.68 -0.34 1.36 0 0 Z " fill="#DFDFDF" transform="translate(332,39)"/>
<path d="M0 0 C8.58 0 17.16 0 26 0 C26 1.65 26 3.3 26 5 C17.42 5 8.84 5 0 5 C0 3.35 0 1.7 0 0 Z " fill="#0E0E0E" transform="translate(158,42)"/>
<path d="M0 0 C0.66 0 1.32 0 2 0 C2.48212214 1.56159059 2.96055873 3.12431928 3.4375 4.6875 C3.83775391 5.99267578 3.83775391 5.99267578 4.24609375 7.32421875 C4.96344529 9.87025921 5.517541 12.4003423 6 15 C0.375 18 0.375 18 -3 18 C-3 13.71 -3 9.42 -3 5 C-2.01 4.67 -1.02 4.34 0 4 C0 2.68 0 1.36 0 0 Z " fill="#ECECEC" transform="translate(377,56)"/>
<path d="M0 0 C0.99 0 1.98 0 3 0 C3.66 2.31 4.32 4.62 5 7 C6.74627478 4.38058783 7.38722388 2.96175123 8 0 C8.99 0 9.98 0 11 0 C11 4.62 11 9.24 11 14 C10.34 14 9.68 14 9 14 C8.67 12.68 8.34 11.36 8 10 C7.67 11.32 7.34 12.64 7 14 C6.01 14 5.02 14 4 14 C3.67 12.68 3.34 11.36 3 10 C2.67 11.65 2.34 13.3 2 15 C1.34 15 0.68 15 0 15 C0 10.05 0 5.1 0 0 Z " fill="#454545" transform="translate(266,89)"/>
<path d="M0 0 C0.99 0 1.98 0 3 0 C4.42258812 3.82320557 5.24042276 6.91281305 5 11 C5.66 11 6.32 11 7 11 C7.144375 9.9275 7.28875 8.855 7.4375 7.75 C7.83749442 5.08337051 8.27591924 2.58600271 9 0 C9.99 0 10.98 0 12 0 C12 4.95 12 9.9 12 15 C11.34 15 10.68 15 10 15 C9.67 12.69 9.34 10.38 9 8 C8.34 10.31 7.68 12.62 7 15 C6.34 15 5.68 15 5 15 C4.34 13.35 3.68 11.7 3 10 C2.67 11.65 2.34 13.3 2 15 C1.34 15 0.68 15 0 15 C0 10.05 0 5.1 0 0 Z " fill="#3F3F3F" transform="translate(444,88)"/>
<path d="M0 0 C0 0.33 0 0.66 0 1 C-0.68707031 1.03738281 -1.37414062 1.07476562 -2.08203125 1.11328125 C-2.98308594 1.17902344 -3.88414062 1.24476562 -4.8125 1.3125 C-5.70582031 1.37050781 -6.59914062 1.42851563 -7.51953125 1.48828125 C-10.34524829 2.07122445 -11.12505566 2.89983712 -13 5 C-13.66 5 -14.32 5 -15 5 C-14.505 5.94875 -14.01 6.8975 -13.5 7.875 C-12 11 -12 11 -12 13 C-15.63 13 -19.26 13 -23 13 C-22.34 11.35 -21.68 9.7 -21 8 C-20.64035156 6.89205078 -20.64035156 6.89205078 -20.2734375 5.76171875 C-16.59900338 -2.72143133 -7.82829711 -0.66232361 0 0 Z " fill="#DFDFDF" transform="translate(189,58)"/>
<path d="M0 0 C2.31 0 4.62 0 7 0 C9 2 9 2 9.1875 4.4375 C9 7 9 7 8 10 C8.87914688 12.6569191 8.87914688 12.6569191 10 15 C9.01 14.67 8.02 14.34 7 14 C6.33333333 12.66666667 5.66666667 11.33333333 5 10 C4.01 9.67 3.02 9.34 2 9 C2 10.98 2 12.96 2 15 C1.34 15 0.68 15 0 15 C0 10.05 0 5.1 0 0 Z " fill="#2F2F2F" transform="translate(570,88)"/>
<path d="M0 0 C0.66 0.33 1.32 0.66 2 1 C2 1.66 2 2.32 2 3 C1.34 3 0.68 3 0 3 C-0.2475 3.639375 -0.495 4.27875 -0.75 4.9375 C-1.1625 5.618125 -1.575 6.29875 -2 7 C-2.59167969 7.13019531 -3.18335937 7.26039062 -3.79296875 7.39453125 C-6.73934505 8.20282917 -8.30085599 9.71413771 -10.5625 11.75 C-11.32691406 12.42546875 -12.09132813 13.1009375 -12.87890625 13.796875 C-16.43352852 17.48896885 -18.30437447 20.67861794 -18.6875 25.8125 C-18.75324219 26.60269531 -18.81898437 27.39289062 -18.88671875 28.20703125 C-18.92410156 28.79871094 -18.96148437 29.39039062 -19 30 C-19.33 30 -19.66 30 -20 30 C-20.33 28.02 -20.66 26.04 -21 24 C-21.66 24 -22.32 24 -23 24 C-20.34344105 14.55445705 -10.17127654 6.50090845 -2.3515625 1.20703125 C-1.57554688 0.80871094 -0.79953125 0.41039062 0 0 Z " fill="#C2F3DA" transform="translate(62,34)"/>
<path d="M0 0 C7.92 0 15.84 0 24 0 C24 1.32 24 2.64 24 4 C16.08 4 8.16 4 0 4 C0 2.68 0 1.36 0 0 Z " fill="#010101" transform="translate(744,49)"/>
<path d="M0 0 C2.31 0 4.62 0 7 0 C9 2 9 2 9.125 4.375 C9.08375 5.24125 9.0425 6.1075 9 7 C9 10.11257569 9.17361624 12.10765685 10 15 C6.21874975 13.73958325 5.98677673 12.31129455 4 9 C3.01 8.67 2.02 8.34 1 8 C1 10.31 1 12.62 1 15 C0.67 15 0.34 15 0 15 C0 10.05 0 5.1 0 0 Z " fill="#282828" transform="translate(662,88)"/>
<path d="M0 0 C2.31 0 4.62 0 7 0 C9 2 9 2 9.25 4.5 C9 7 9 7 7 9 C4.375 9.125 4.375 9.125 2 9 C2 10.98 2 12.96 2 15 C1.34 15 0.68 15 0 15 C0 10.05 0 5.1 0 0 Z " fill="#313131" transform="translate(698,88)"/>
<path d="M0 0 C0.99 0 1.98 0 3 0 C3.99 2.97 4.98 5.94 6 9 C6.99 6.03 7.98 3.06 9 0 C9.66 0 10.32 0 11 0 C11 4.62 11 9.24 11 14 C10.67 14 10.34 14 10 14 C9.67 11.69 9.34 9.38 9 7 C8.34 9.31 7.68 11.62 7 14 C6.01 13.67 5.02 13.34 4 13 C3.67 11.35 3.34 9.7 3 8 C2.67 9.98 2.34 11.96 2 14 C1.34 14 0.68 14 0 14 C0 9.38 0 4.76 0 0 Z " fill="#3C3C3C" transform="translate(252,89)"/>
<path d="M0 0 C0.99 0 1.98 0 3 0 C4.32 2.64 5.64 5.28 7 8 C7.33 5.36 7.66 2.72 8 0 C8.66 0 9.32 0 10 0 C10 4.95 10 9.9 10 15 C7 14 7 14 5.83203125 12.15234375 C4.88802083 10.1015625 3.94401042 8.05078125 3 6 C2.67 8.97 2.34 11.94 2 15 C1.34 15 0.68 15 0 15 C0 10.05 0 5.1 0 0 Z " fill="#404040" transform="translate(632,88)"/>
<path d="M0 0 C3 1 3 1 4.16796875 2.84765625 C5.11197917 4.8984375 6.05598958 6.94921875 7 9 C7.33 6.03 7.66 3.06 8 0 C8.66 0 9.32 0 10 0 C10 4.95 10 9.9 10 15 C9.01 15 8.02 15 7 15 C5.68 12.36 4.36 9.72 3 7 C2.67 9.64 2.34 12.28 2 15 C1.34 15 0.68 15 0 15 C0 10.05 0 5.1 0 0 Z " fill="#3D3D3D" transform="translate(291,88)"/>
<path d="M0 0 C4.52346473 2.26173236 5.05828666 3.53405933 7 8 C7.33 5.36 7.66 2.72 8 0 C8.66 0 9.32 0 10 0 C10 4.95 10 9.9 10 15 C5.60841671 13.5361389 5.12052567 11.02168662 3 7 C2.67 9.31 2.34 11.62 2 14 C1.34 14 0.68 14 0 14 C0 9.38 0 4.76 0 0 Z " fill="#3F3F3F" transform="translate(211,89)"/>
<path d="M0 0 C1.67542976 0.28604898 3.34385343 0.61781233 5 1 C4.67 2.32 4.34 3.64 4 5 C3.01 4.01 2.02 3.02 1 2 C1.33 4.31 1.66 6.62 2 9 C1.01 9.495 1.01 9.495 0 10 C0 10.99 0 11.98 0 13 C0.99 13.33 1.98 13.66 3 14 C2.67 12.68 2.34 11.36 2 10 C3.32 10.33 4.64 10.66 6 11 C6 9.68 6 8.36 6 7 C6.66 7 7.32 7 8 7 C8 9.97 8 12.94 8 16 C1.1640625 16.1953125 1.1640625 16.1953125 -1 16 C-3 14 -3 14 -3.1875 11.4375 C-3 9 -3 9 -2 8 C-1.835 6.845 -1.67 5.69 -1.5 4.5 C-1 1 -1 1 0 0 Z " fill="#303030" transform="translate(498,87)"/>
<path d="M0 0 C1.32 0 2.64 0 4 0 C4 1.65 4 3.3 4 5 C5.65 5 7.3 5 9 5 C9 3.35 9 1.7 9 0 C10.32 0.33 11.64 0.66 13 1 C12.34 2.65 11.68 4.3 11 6 C13.31 5.34 15.62 4.68 18 4 C18 4.66 18 5.32 18 6 C18.99 6 19.98 6 21 6 C20.67 6.66 20.34 7.32 20 8 C16.06165122 7.9192614 12.12486673 7.80640623 8.1875 7.6875 C7.06794922 7.66494141 5.94839844 7.64238281 4.79492188 7.61914062 C3.18520508 7.5659668 3.18520508 7.5659668 1.54296875 7.51171875 C0.55321045 7.48553467 -0.43654785 7.45935059 -1.45629883 7.43237305 C-4.32481958 6.94478784 -5.23094912 6.25128105 -7 4 C-4.69 4.33 -2.38 4.66 0 5 C0 3.35 0 1.7 0 0 Z " fill="#CDCDCD" transform="translate(338,66)"/>
<path d="M0 0 C0.66 0 1.32 0 2 0 C3.32 2.31 4.64 4.62 6 7 C6.33 4.69 6.66 2.38 7 0 C7.66 0 8.32 0 9 0 C9 4.95 9 9.9 9 15 C8.34 15 7.68 15 7 15 C5.68 12.36 4.36 9.72 3 7 C2.67 9.64 2.34 12.28 2 15 C1.34 15 0.68 15 0 15 C0 10.05 0 5.1 0 0 Z " fill="#4E4E4E" transform="translate(469,88)"/>
<path d="M0 0 C0.99 0 1.98 0 3 0 C4.32 2.64 5.64 5.28 7 8 C7.33 5.36 7.66 2.72 8 0 C8.66 0 9.32 0 10 0 C10 4.62 10 9.24 10 14 C5.60841671 12.5361389 5.12052567 10.02168662 3 6 C2.67 8.97 2.34 11.94 2 15 C1.34 15 0.68 15 0 15 C0 10.05 0 5.1 0 0 Z " fill="#2D2D2D" transform="translate(188,89)"/>
<path d="M0 0 C4.95 0 9.9 0 15 0 C15 2.64 15 5.28 15 8 C13.35 7.67 11.7 7.34 10 7 C10 5.35 10 3.7 10 2 C8.02 2 6.04 2 4 2 C3.896875 2.78375 3.79375 3.5675 3.6875 4.375 C3 7 3 7 0 9 C0 6.03 0 3.06 0 0 Z " fill="#D6D6D6" transform="translate(416,62)"/>
<path d="M0 0 C2 1.8125 2 1.8125 4 4 C4 4.99 4 5.98 4 7 C4.66 7 5.32 7 6 7 C6.99 10.3 7.98 13.6 9 17 C4.375 20 4.375 20 1 20 C0.67 20.66 0.34 21.32 0 22 C0 21.01 0 20.02 0 19 C0.66 18.4225 1.32 17.845 2 17.25 C4.38277431 15.03245411 4.38277431 15.03245411 4.25 11.25 C4.12625 9.64125 4.12625 9.64125 4 8 C3.34 8 2.68 8 2 8 C1.67 8.99 1.34 9.98 1 11 C0.67 11 0.34 11 0 11 C0 7.37 0 3.74 0 0 Z " fill="#CBCBCB" transform="translate(499,53)"/>
<path d="M0 0 C4.29238623 1.65091778 6.8793915 4.73754566 10 8 C9.1875 9.9375 9.1875 9.9375 8 12 C7.01 12.33 6.02 12.66 5 13 C3.82439821 11.73742767 2.65977135 10.46462916 1.5 9.1875 C0.8503125 8.47980469 0.200625 7.77210937 -0.46875 7.04296875 C-2 5 -2 5 -2 2 C-1.34 1.34 -0.68 0.68 0 0 Z " fill="#171717" transform="translate(264,40)"/>
<path d="M0 0 C0.66 1.32 1.32 2.64 2 4 C1.34 4 0.68 4 0 4 C0 3.34 0 2.68 0 2 C-1.65 2.33 -3.3 2.66 -5 3 C-5 5.97 -5 8.94 -5 12 C-3.35 12 -1.7 12 0 12 C0.33 11.01 0.66 10.02 1 9 C-0.32 9 -1.64 9 -3 9 C-3 8.34 -3 7.68 -3 7 C-1.02 7 0.96 7 3 7 C3.1875 9.875 3.1875 9.875 3 13 C-0.45029042 15.30019361 -1.94554358 15.43132515 -6 15 C-8.06520632 11.90219052 -8.29477024 11.0459519 -8.3125 7.5 C-8.32925781 6.7265625 -8.34601562 5.953125 -8.36328125 5.15625 C-7.53206225 0.22256302 -4.51482743 -0.36606709 0 0 Z " fill="#393939" transform="translate(657,88)"/>
<path d="M0 0 C1.890625 0.1953125 1.890625 0.1953125 4 1 C5.046875 3.1796875 5.046875 3.1796875 5.75 5.875 C6.11351562 7.20144531 6.11351562 7.20144531 6.484375 8.5546875 C7 11 7 11 7 14 C6.34 14 5.68 14 5 14 C4.67 12.68 4.34 11.36 4 10 C2.35 10 0.7 10 -1 10 C-1 11.32 -1 12.64 -1 14 C-1.66 14 -2.32 14 -3 14 C-2.48594831 9.03083364 -1.76615118 4.70973649 0 0 Z " fill="#383838" transform="translate(322,89)"/>
<path d="M0 0 C0.99 0 1.98 0 3 0 C3.67220351 1.93558599 4.33758077 3.87354372 5 5.8125 C5.556875 7.43091797 5.556875 7.43091797 6.125 9.08203125 C7 12 7 12 7 15 C6.34 15 5.68 15 5 15 C4.67 13.35 4.34 11.7 4 10 C2.35 10 0.7 10 -1 10 C-1.33 11.65 -1.66 13.3 -2 15 C-2.66 15 -3.32 15 -4 15 C-2.9318153 9.88634986 -1.76892524 4.92772031 0 0 Z " fill="#696969" transform="translate(203,89)"/>
<path d="M0 0 C3.41378167 0.66610374 4.55523131 1.67495518 6.5625 4.5 C7.08595704 8.01464012 6.73062403 10.07034971 5.4375 13.375 C3.5625 15.5 3.5625 15.5 0.5625 16.0625 C-2.4375 15.5 -2.4375 15.5 -4.3125 13.9375 C-5.85940908 10.58586365 -5.82876176 8.15177642 -5.4375 4.5 C-3.97094972 1.48971258 -3.2944149 0.67577742 0 0 Z M-1.4375 2.5 C-3.81744368 4.44332332 -3.81744368 4.44332332 -3.6875 8 C-3.81744368 11.55667668 -3.81744368 11.55667668 -1.4375 13.5 C1.86933466 13.21016731 1.86933466 13.21016731 4.5625 11.5 C4.81253964 8.04178598 4.81253964 8.04178598 4.5625 4.5 C3.9025 3.84 3.2425 3.18 2.5625 2.5 C1.2425 2.5 -0.0775 2.5 -1.4375 2.5 Z " fill="#3E3E3E" transform="translate(624.4375,87.5)"/>
<path d="M0 0 C3.53571429 0.53571429 3.53571429 0.53571429 5 2 C5.27314815 7.73611111 5.27314815 7.73611111 5 10 C4.34 10.66 3.68 11.32 3 12 C-0.53571429 11.46428571 -0.53571429 11.46428571 -2 10 C-2.27314815 4.26388889 -2.27314815 4.26388889 -2 2 C-1.34 1.34 -0.68 0.68 0 0 Z " fill="#F2F2F2" transform="translate(243,90)"/>
<path d="M0 0 C0.55171875 0.38929687 1.1034375 0.77859375 1.671875 1.1796875 C-1.82171965 4.77603494 -5.43910631 8.01420717 -9.328125 11.1796875 C-9.988125 10.8496875 -10.648125 10.5196875 -11.328125 10.1796875 C-11.953125 7.6171875 -11.953125 7.6171875 -12.328125 5.1796875 C-10.75765757 4.11872287 -9.17117983 3.08142515 -7.578125 2.0546875 C-6.69640625 1.47460938 -5.8146875 0.89453125 -4.90625 0.296875 C-2.328125 -0.8203125 -2.328125 -0.8203125 0 0 Z " fill="#121212" transform="translate(417.328125,48.8203125)"/>
<path d="M0 0 C4.70588235 0.70588235 4.70588235 0.70588235 6 2 C6.1328125 3.8125 6.1328125 3.8125 6.125 6 C6.12757813 6.721875 6.13015625 7.44375 6.1328125 8.1875 C6 10 6 10 5 11 C2.5 11.125 2.5 11.125 0 11 C-1 10 -1 10 -1.1328125 7.96875 C-1.13023437 7.1540625 -1.12765625 6.339375 -1.125 5.5 C-1.12757813 4.6853125 -1.13015625 3.870625 -1.1328125 3.03125 C-1 1 -1 1 0 0 Z " fill="#EDEDED" transform="translate(527,90)"/>
<path d="M0 0 C2.5 0.125 2.5 0.125 3.5 1.125 C3.57179964 2.64428038 3.58392007 4.16667482 3.5625 5.6875 C3.55347656 6.51378906 3.54445313 7.34007813 3.53515625 8.19140625 C3.51775391 9.14853516 3.51775391 9.14853516 3.5 10.125 C1.125 10.75 1.125 10.75 -1.5 11.125 C-3.5 9.125 -3.5 9.125 -3.73046875 7.21484375 C-3.59001726 0.17950086 -3.59001726 0.17950086 0 0 Z " fill="#ECECEC" transform="translate(730.5,89.875)"/>
<path d="M0 0 C1.65 0.33 3.3 0.66 5 1 C4.36934243 4.21852831 3.21979305 6.50801069 1.4375 9.25 C0.98246094 9.95640625 0.52742187 10.6628125 0.05859375 11.390625 C-0.46541016 12.18726563 -0.46541016 12.18726563 -1 13 C-3.475 12.01 -3.475 12.01 -6 11 C-4.54955729 6.89041233 -2.48889248 3.56741255 0 0 Z " fill="#141414" transform="translate(244,40)"/>
<path d="M0 0 C2.5 0.25 2.5 0.25 4.5 2.25 C4.5 3.24 4.5 4.23 4.5 5.25 C3.84 5.25 3.18 5.25 2.5 5.25 C2.17 4.59 1.84 3.93 1.5 3.25 C0.51 3.25 -0.48 3.25 -1.5 3.25 C-1.5 3.91 -1.5 4.57 -1.5 5.25 C0.13631892 6.29892238 1.80485863 7.29906703 3.5 8.25 C4.5 9.25 4.5 9.25 4.625 11.75 C4.5 14.25 4.5 14.25 3.5 15.25 C0.5625 15.4375 0.5625 15.4375 -2.5 15.25 C-3.16 14.59 -3.82 13.93 -4.5 13.25 C-4.5 12.26 -4.5 11.27 -4.5 10.25 C-3.84 10.25 -3.18 10.25 -2.5 10.25 C-2.5 11.24 -2.5 12.23 -2.5 13.25 C-0.85 13.25 0.8 13.25 2.5 13.25 C2.5 11.93 2.5 10.61 2.5 9.25 C0.52 8.59 -1.46 7.93 -3.5 7.25 C-4.125 4.875 -4.125 4.875 -4.5 2.25 C-2.5 0.25 -2.5 0.25 0 0 Z " fill="#3E3E3E" transform="translate(427.5,87.75)"/>
<path d="M0 0 C2.5 0.4375 2.5 0.4375 4.3125 2 C5.94489575 5.35070706 5.89469235 7.75370474 5.5 11.4375 C4.375 13.875 4.375 13.875 2.5 15.4375 C-0.5625 15.875 -0.5625 15.875 -3.5 15.4375 C-5.56520632 12.33969052 -5.79477024 11.4834519 -5.8125 7.9375 C-5.82925781 7.1640625 -5.84601562 6.390625 -5.86328125 5.59375 C-5.2517454 1.96398885 -3.54405155 0.62020902 0 0 Z M-2.5 2.4375 C-3.7245178 3.44219623 -3.7245178 3.44219623 -3.6328125 5.46875 C-3.63023437 6.2834375 -3.62765625 7.098125 -3.625 7.9375 C-3.62757813 8.7521875 -3.63015625 9.566875 -3.6328125 10.40625 C-3.7245178 12.43280377 -3.7245178 12.43280377 -2.5 13.4375 C0 13.60416667 0 13.60416667 2.5 13.4375 C4.39488952 11.54261048 3.68019112 8.86610854 3.73046875 6.34765625 C3.6702792 4.1962364 3.6702792 4.1962364 1.5 2.4375 C0.18 2.4375 -1.14 2.4375 -2.5 2.4375 Z " fill="#2F2F2F" transform="translate(529.5,87.5625)"/>
<path d="M0 0 C2.12507645 1.61668496 2.90844456 2.50452352 3.3984375 5.15625 C3.39070312 5.9296875 3.38296875 6.703125 3.375 7.5 C3.38273438 8.2734375 3.39046875 9.046875 3.3984375 9.84375 C2.90836323 12.49591661 2.12263747 13.38009245 0 15 C-2.5 15.4375 -2.5 15.4375 -5 15 C-7.15926208 13.21302449 -7.87841815 11.82775588 -8.28515625 9.05859375 C-8.41347709 6.02910599 -8.38184375 3.64310527 -6.8125 1 C-4.33474158 -0.36703913 -2.78844081 -0.41826612 0 0 Z M-6 3 C-6.22918242 7.01657143 -6.22918242 7.01657143 -6 11 C-5.34 11.66 -4.68 12.32 -4 13 C-1.39719432 12.67958603 -1.39719432 12.67958603 1 12 C1.02689216 10.52093108 1.04634621 9.04172517 1.0625 7.5625 C1.07990234 6.32693359 1.07990234 6.32693359 1.09765625 5.06640625 C1.23267348 3.00836062 1.23267348 3.00836062 0 2 C-3.28894893 1.59371033 -3.28894893 1.59371033 -6 3 Z " fill="#313131" transform="translate(733,88)"/>
<path d="M0 0 C2.625 0.375 2.625 0.375 5 1 C5 3.97 5 6.94 5 10 C2.625 10.625 2.625 10.625 0 11 C-2 9 -2 9 -2.25 5.5 C-2 2 -2 2 0 0 Z " fill="#F1F1F1" transform="translate(677,90)"/>
<path d="M0 0 C0.66 0 1.32 0 2 0 C2 4.95 2 9.9 2 15 C-1 14 -1 14 -2.16796875 12.15234375 C-3.11197917 10.1015625 -4.05598958 8.05078125 -5 6 C-5.33 8.97 -5.66 11.94 -6 15 C-6.33 15 -6.66 15 -7 15 C-7 10.38 -7 5.76 -7 1 C-4 2 -4 2 -2.3125 5.0625 C-1.879375 6.031875 -1.44625 7.00125 -1 8 C-0.67 5.36 -0.34 2.72 0 0 Z " fill="#363636" transform="translate(397,88)"/>
<path d="M0 0 C3 1 3 1 4.16796875 3.06640625 C5.11197917 5.37760417 6.05598958 7.68880208 7 10 C7.33 6.7 7.66 3.4 8 0 C8.33 0 8.66 0 9 0 C9 4.95 9 9.9 9 15 C8.34 15 7.68 15 7 15 C5.68 12.36 4.36 9.72 3 7 C2.67 9.64 2.34 12.28 2 15 C1.34 15 0.68 15 0 15 C0 10.05 0 5.1 0 0 Z " fill="#3D3D3D" transform="translate(537,88)"/>
<path d="M0 0 C1.2065625 0.0309375 1.2065625 0.0309375 2.4375 0.0625 C3.0975 1.3825 3.7575 2.7025 4.4375 4.0625 C2.4575 3.4025 0.4775 2.7425 -1.5625 2.0625 C-1.5625 3.3825 -1.5625 4.7025 -1.5625 6.0625 C-0.77875 6.18625 0.005 6.31 0.8125 6.4375 C3.4375 7.0625 3.4375 7.0625 5.4375 9.0625 C4.88194444 13.61805556 4.88194444 13.61805556 3.4375 15.0625 C0.5 15.25 0.5 15.25 -2.5625 15.0625 C-3.2225 14.4025 -3.8825 13.7425 -4.5625 13.0625 C-4.5625 12.0725 -4.5625 11.0825 -4.5625 10.0625 C-3.9025 10.0625 -3.2425 10.0625 -2.5625 10.0625 C-2.2325 10.7225 -1.9025 11.3825 -1.5625 12.0625 C0.96483235 12.71805119 0.96483235 12.71805119 3.4375 13.0625 C2.3399777 10.06925737 1.76067108 9.21639099 -1.1875 7.8125 C-1.97125 7.565 -2.755 7.3175 -3.5625 7.0625 C-3.60504356 5.06295254 -3.60330783 3.06208364 -3.5625 1.0625 C-2.5625 0.0625 -2.5625 0.0625 0 0 Z " fill="#2F2F2F" transform="translate(552.5625,87.9375)"/>
<path d="M0 0 C3 1 3 1 4.6875 4.0625 C5.120625 5.031875 5.55375 6.00125 6 7 C6.33 4.69 6.66 2.38 7 0 C7.66 0 8.32 0 9 0 C9 4.95 9 9.9 9 15 C8.34 15 7.68 15 7 15 C5.35 11.7 3.7 8.4 2 5 C1.67 7.97 1.34 10.94 1 14 C0.67 14 0.34 14 0 14 C0 9.38 0 4.76 0 0 Z " fill="#2D2D2D" transform="translate(177,89)"/>
<path d="M0 0 C1.98 0 3.96 0 6 0 C5.67 1.65 5.34 3.3 5 5 C4.01 5 3.02 5 2 5 C2 6.65 2 8.3 2 10 C3.98 10 5.96 10 8 10 C8 10.66 8 11.32 8 12 C6.02 12 4.04 12 2 12 C1.67 15.96 1.34 19.92 1 24 C0.67 24 0.34 24 0 24 C0 16.08 0 8.16 0 0 Z " fill="#C3C3C3" transform="translate(202,55)"/>
<path d="M0 0 C0.99 0 1.98 0 3 0 C3.33 2.64 3.66 5.28 4 8 C7.3 8.33 10.6 8.66 14 9 C10.31912647 11.45391569 7.55644412 11.22802759 3.3125 11.125 C2.2596582 11.11146484 2.2596582 11.11146484 1.18554688 11.09765625 C-0.54311525 11.07413704 -2.27160145 11.03826713 -4 11 C-3.51917969 10.06929687 -3.03835938 9.13859375 -2.54296875 8.1796875 C-1.16884493 5.34794879 -0.45388926 3.08644698 0 0 Z " fill="#D7D7D7" transform="translate(386,45)"/>
<path d="M0 0 C0.66 0 1.32 0 2 0 C2.33 3.96 2.66 7.92 3 12 C4.32 12 5.64 12 7 12 C7.33 8.04 7.66 4.08 8 0 C8.66 0 9.32 0 10 0 C10.08107583 1.93681161 10.13922475 3.8745934 10.1875 5.8125 C10.22230469 6.89144531 10.25710938 7.97039062 10.29296875 9.08203125 C10 12 10 12 8.6484375 13.86328125 C6.30901592 15.47648428 4.77231681 15.42651028 2 15 C-0.35119399 11.47320901 -0.21443452 9.97120515 -0.125 5.8125 C-0.10695313 4.72582031 -0.08890625 3.63914062 -0.0703125 2.51953125 C-0.04710937 1.68808594 -0.02390625 0.85664062 0 0 Z " fill="#373737" transform="translate(686,88)"/>
<path d="M0 0 C1.45823212 -0.0270043 2.91660675 -0.04639787 4.375 -0.0625 C5.18710937 -0.07410156 5.99921875 -0.08570312 6.8359375 -0.09765625 C9 0 9 0 11 1 C13.37338901 1.09802807 15.74958829 1.13077876 18.125 1.1328125 C18.8277002 1.13376923 19.53040039 1.13472595 20.25439453 1.13571167 C21.74056081 1.13639238 23.22673006 1.1345457 24.71289062 1.13037109 C26.99095319 1.12502125 29.26881859 1.13031972 31.546875 1.13671875 C32.98958377 1.13605795 34.43229242 1.13477675 35.875 1.1328125 C37.85113281 1.13112061 37.85113281 1.13112061 39.8671875 1.12939453 C42.90495023 1.21832554 42.90495023 1.21832554 45 0 C46.99960012 -0.039992 49.00047242 -0.04346799 51 0 C46.38308822 3.07794119 43.20584666 3.16037208 37.7734375 3.16796875 C36.95179108 3.17129715 36.13014465 3.17462555 35.28359985 3.17805481 C33.54014648 3.18312437 31.79668339 3.18546313 30.05322266 3.18530273 C27.40640831 3.18747423 24.76002098 3.20558763 22.11328125 3.22460938 C20.41666808 3.22754643 18.72005295 3.22952913 17.0234375 3.23046875 C15.84797867 3.24124702 15.84797867 3.24124702 14.64877319 3.25224304 C9.45463129 3.23104119 4.99629551 2.43314232 0 1 C0 0.67 0 0.34 0 0 Z " fill="#219554" transform="translate(58,67)"/>
<path d="M0 0 C0.66 0 1.32 0 2 0 C2.33 3.96 2.66 7.92 3 12 C4.32 12.33 5.64 12.66 7 13 C7.33 9.04 7.66 5.08 8 1 C8.66 1 9.32 1 10 1 C10.08142927 2.7492214 10.13938541 4.49954542 10.1875 6.25 C10.22230469 7.22453125 10.25710938 8.1990625 10.29296875 9.203125 C9.96075202 12.37468742 9.11327721 13.67040307 7 16 C4.625 15.6875 4.625 15.6875 2 15 C-0.35119399 11.47320901 -0.21443452 9.97120515 -0.125 5.8125 C-0.10695313 4.72582031 -0.08890625 3.63914062 -0.0703125 2.51953125 C-0.04710937 1.68808594 -0.02390625 0.85664062 0 0 Z " fill="#404040" transform="translate(279,88)"/>
<path d="M0 0 C2.97 0 5.94 0 9 0 C9 0.66 9 1.32 9 2 C6.69 2 4.38 2 2 2 C2 3.65 2 5.3 2 7 C3.98 7 5.96 7 8 7 C8 7.33 8 7.66 8 8 C6.02 8 4.04 8 2 8 C2 9.65 2 11.3 2 13 C4.31 13 6.62 13 9 13 C9 13.66 9 14.32 9 15 C6.03 15 3.06 15 0 15 C0 10.05 0 5.1 0 0 Z " fill="#363636" transform="translate(458,88)"/>
<path d="M0 0 C1.65 0 3.3 0 5 0 C6 1 6 1 6.1328125 3.03125 C6.13023437 3.8459375 6.12765625 4.660625 6.125 5.5 C6.12757813 6.3146875 6.13015625 7.129375 6.1328125 7.96875 C6 10 6 10 5 11 C3.35 11 1.7 11 0 11 C0 7.37 0 3.74 0 0 Z " fill="#E7E7E7" transform="translate(768,90)"/>
<path d="M0 0 C6.93 0 13.86 0 21 0 C21 5.61 21 11.22 21 17 C21.66 17.33 22.32 17.66 23 18 C22.34 18 21.68 18 21 18 C20.67 18.66 20.34 19.32 20 20 C20 19.34 20 18.68 20 18 C18.35 18 16.7 18 15 18 C15 17.67 15 17.34 15 17 C16.65 17 18.3 17 20 17 C20 11.72 20 6.44 20 1 C13.73 1 7.46 1 1 1 C1 6.61 1 12.22 1 18 C0.67 18 0.34 18 0 18 C0 12.06 0 6.12 0 0 Z " fill="#535353" transform="translate(746,56)"/>
<path d="M0 0 C1.32 0 2.64 0 4 0 C4 5.28 4 10.56 4 16 C2.68 16 1.36 16 0 16 C0 10.72 0 5.44 0 0 Z " fill="#F9F9F9" transform="translate(598,55)"/>
<path d="M0 0 C-1.00417349 2.0784056 -2.04578854 4.07460251 -3.25390625 6.04296875 C-6.57380058 11.4836314 -7.69692629 15.63545202 -8 22 C-8.66 21.67 -9.32 21.34 -10 21 C-10 18.69 -10 16.38 -10 14 C-10.99 14.33 -11.98 14.66 -13 15 C-11.58581617 10.73439116 -9.51748869 7.9940014 -6.5 4.6875 C-5.7059375 3.80449219 -4.911875 2.92148437 -4.09375 2.01171875 C-2 0 -2 0 0 0 Z " fill="#E3FBF1" transform="translate(59,40)"/>
<path d="M0 0 C1.32 0 2.64 0 4 0 C4.33 2.97 4.66 5.94 5 9 C8.63 9.33 12.26 9.66 16 10 C16 10.33 16 10.66 16 11 C9.73 11 3.46 11 -3 11 C-2.34 9.68 -1.68 8.36 -1 7 C-0.61250787 4.67504723 -0.27017161 2.34148732 0 0 Z " fill="#E7E7E7" transform="translate(510,44)"/>
<path d="M0 0 C2.9375 0.875 2.9375 0.875 4.9375 3.875 C5.41675039 8.1882535 5.41010063 10.18086782 2.9375 13.8125 C2.2775 14.493125 1.6175 15.17375 0.9375 15.875 C-1.4375 15.5625 -1.4375 15.5625 -4.0625 14.875 C-6.12770632 11.77719052 -6.35727024 10.9209519 -6.375 7.375 C-6.39175781 6.6015625 -6.40851563 5.828125 -6.42578125 5.03125 C-5.74059929 0.9643635 -4.00825972 -0.16360244 0 0 Z M-3.0625 1.875 C-5.37532587 5.34423881 -5.48728586 6.79705575 -5.0625 10.875 C-3.95600331 12.89978463 -3.95600331 12.89978463 -2.0625 13.875 C0.07495922 13.62353421 1.39675779 13.41574221 2.9375 11.875 C3.16668242 7.85842857 3.16668242 7.85842857 2.9375 3.875 C2.2775 3.215 1.6175 2.555 0.9375 1.875 C-0.3825 1.875 -1.7025 1.875 -3.0625 1.875 Z " fill="#292929" transform="translate(351.0625,88.125)"/>
<path d="M0 0 C0.33 0 0.66 0 1 0 C1 4.95 1 9.9 1 15 C0.67 15 0.34 15 0 15 C-0.33 13.02 -0.66 11.04 -1 9 C-3.31 9 -5.62 9 -8 9 C-8 6.69 -8 4.38 -8 2 C-5.36 2 -2.72 2 0 2 C0 1.34 0 0.68 0 0 Z " fill="#D5D5D5" transform="translate(468,88)"/>
<path d="M0 0 C0.33 1.32 0.66 2.64 1 4 C0.34 3.67 -0.32 3.34 -1 3 C-1 2.34 -1 1.68 -1 1 C-2.32 1.33 -3.64 1.66 -5 2 C-5 2.66 -5 3.32 -5 4 C-3.02 4.99 -1.04 5.98 1 7 C1.04254356 8.99954746 1.04080783 11.00041636 1 13 C0 14 0 14 -2.9375 14.1875 C-6 14 -6 14 -8 12 C-8 11.01 -8 10.02 -8 9 C-7.34 9 -6.68 9 -6 9 C-6 9.99 -6 10.98 -6 12 C-4.02 12 -2.04 12 0 12 C-0.72268235 8.7014861 -0.72268235 8.7014861 -4.0625 7.3125 C-5.031875 6.879375 -6.00125 6.44625 -7 6 C-7 4.02 -7 2.04 -7 0 C-4.3333581 -1.33332095 -2.83319697 -0.67102033 0 0 Z " fill="#353535" transform="translate(377,89)"/>
<path d="M0 0 C1.98 0 3.96 0 6 0 C6 2.64 6 5.28 6 8 C7.32 8 8.64 8 10 8 C11.18149786 13.77621177 10.7500904 16.86649792 8 22 C8 20.68 8 19.36 8 18 C7.01 18 6.02 18 5 18 C5.33 16.35 5.66 14.7 6 13 C6.99 13 7.98 13 9 13 C9 11.68 9 10.36 9 9 C7.68 9 6.36 9 5 9 C5 6.36 5 3.72 5 1 C3.68 1 2.36 1 1 1 C1 3.64 1 6.28 1 9 C-0.98 9 -2.96 9 -5 9 C-5 8.67 -5 8.34 -5 8 C-3.35 8 -1.7 8 0 8 C0 5.36 0 2.72 0 0 Z " fill="#6B6B6B" transform="translate(368,38)"/>
<path d="M0 0 C0.33 0 0.66 0 1 0 C1 2.64 1 5.28 1 8 C0.34 8 -0.32 8 -1 8 C-1 9.32 -1 10.64 -1 12 C-3.97 12 -6.94 12 -10 12 C-10 10.35 -10 8.7 -10 7 C-9.34 7 -8.68 7 -8 7 C-8 7.66 -8 8.32 -8 9 C-4.34853791 6.33541956 -2.18943136 3.94097645 0 0 Z " fill="#E1E1E1" transform="translate(591,60)"/>
<path d="M0 0 C0.99 0 1.98 0 3 0 C2.98839844 0.92683594 2.97679687 1.85367188 2.96484375 2.80859375 C2.95582031 4.00613281 2.94679688 5.20367187 2.9375 6.4375 C2.92589844 7.63246094 2.91429687 8.82742187 2.90234375 10.05859375 C2.66098208 12.88873341 2.66098208 12.88873341 4 14 C4.04080783 15.99958364 4.04254356 18.00045254 4 20 C2.68 20.33 1.36 20.66 0 21 C0 14.07 0 7.14 0 0 Z " fill="#969696" transform="translate(663,44)"/>
<path d="M0 0 C0.66 1.32 1.32 2.64 2 4 C-0.31 3.34 -2.62 2.68 -5 2 C-5 5.3 -5 8.6 -5 12 C-3.68 12 -2.36 12 -1 12 C-0.67 11.34 -0.34 10.68 0 10 C0.66 10 1.32 10 2 10 C1.125 13.875 1.125 13.875 0 15 C-1.99958364 15.04080783 -4.00045254 15.04254356 -6 15 C-8.62404613 11.06393081 -8.36302306 7.57409061 -8 3 C-5.95958596 -0.4364868 -3.79139375 -0.3074103 0 0 Z " fill="#383838" transform="translate(601,88)"/>
<path d="M0 0 C2.4375 0.375 2.4375 0.375 4.4375 2.375 C4.4375 3.365 4.4375 4.355 4.4375 5.375 C3.7775 5.375 3.1175 5.375 2.4375 5.375 C2.1075 4.715 1.7775 4.055 1.4375 3.375 C0.1175 3.375 -1.2025 3.375 -2.5625 3.375 C-2.5625 6.345 -2.5625 9.315 -2.5625 12.375 C-0.9125 12.705 0.7375 13.035 2.4375 13.375 C2.4375 12.385 2.4375 11.395 2.4375 10.375 C3.0975 10.375 3.7575 10.375 4.4375 10.375 C3.5625 14.25 3.5625 14.25 2.4375 15.375 C-0.5 15.625 -0.5 15.625 -3.5625 15.375 C-6.03053687 11.67294469 -6.11538088 8.66846556 -5.5625 4.375 C-4.06772272 1.22810047 -3.46330955 0.50682579 0 0 Z " fill="#343434" transform="translate(517.5625,87.625)"/>
<path d="M0 0 C1.485 0.99 1.485 0.99 3 2 C3.185625 3.2375 3.185625 3.2375 3.375 4.5 C3.684375 5.7375 3.684375 5.7375 4 7 C5.65204456 7.70211894 7.31923769 8.36971413 9 9 C9.8125 11.125 9.8125 11.125 10 13 C8.35 13 6.7 13 5 13 C4.67 12.01 4.34 11.02 4 10 C3.34 10 2.68 10 2 10 C2.33 11.32 2.66 12.64 3 14 C2.01 14.33 1.02 14.66 0 15 C0 10.05 0 5.1 0 0 Z " fill="#DADADA" transform="translate(546,88)"/>
<path d="M0 0 C0.7425 0.2475 1.485 0.495 2.25 0.75 C2.58 2.07 2.91 3.39 3.25 4.75 C2.26 4.09 1.27 3.43 0.25 2.75 C-1.90274948 3.05840599 -1.90274948 3.05840599 -3.75 3.75 C-4.01932521 8.40052872 -4.01932521 8.40052872 -2.75 12.75 C-0.58125748 12.24396008 1.24967627 11.75016187 3.25 10.75 C2.92 12.07 2.59 13.39 2.25 14.75 C-0.0625 15.375 -0.0625 15.375 -2.75 15.75 C-5.75 13.75 -5.75 13.75 -6.75 10.75 C-7.31083086 4.58086053 -7.31083086 4.58086053 -5.0625 1.25 C-2.75 -0.25 -2.75 -0.25 0 0 Z " fill="#3E3E3E" transform="translate(233.75,88.25)"/>
<path d="M0 0 C0.99 0.33 1.98 0.66 3 1 C4.33859334 3.9140571 5.08761099 6.9152562 6 10 C6.99 6.7 7.98 3.4 9 0 C9.66 0 10.32 0 11 0 C9.9318153 5.11365014 8.76892524 10.07227969 7 15 C6.01 14.67 5.02 14.34 4 14 C2.83203125 11.34765625 2.83203125 11.34765625 1.8125 8.0625 C1.46832031 6.98097656 1.12414062 5.89945312 0.76953125 4.78515625 C0 2 0 2 0 0 Z " fill="#424242" transform="translate(400,88)"/>
<path d="M0 0 C2.97 0 5.94 0 9 0 C9 0.66 9 1.32 9 2 C6.69 2 4.38 2 2 2 C2 3.65 2 5.3 2 7 C4.31 7 6.62 7 9 7 C9 7.33 9 7.66 9 8 C6.69 8 4.38 8 2 8 C2 9.98 2 11.96 2 14 C4.31 14 6.62 14 9 14 C9 14.33 9 14.66 9 15 C6.03 15 3.06 15 0 15 C0 10.05 0 5.1 0 0 Z " fill="#343434" transform="translate(412,88)"/>
<path d="M0 0 C0.33 0 0.66 0 1 0 C1 10.89 1 21.78 1 33 C-0.87233399 29.25533202 -1.22627907 28.30923722 -1.0625 24.4375 C-0.94746946 21.47171272 -1.039379 19.881863 -2 17 C-2.31032089 11.00046278 -1.50413591 5.8016671 0 0 Z " fill="#CACACA" transform="translate(672,39)"/>
<path d="M0 0 C0.763125 0.0825 1.52625 0.165 2.3125 0.25 C2.9725 1.57 3.6325 2.89 4.3125 4.25 C3.6525 4.25 2.9925 4.25 2.3125 4.25 C2.3125 3.59 2.3125 2.93 2.3125 2.25 C0.6625 2.25 -0.9875 2.25 -2.6875 2.25 C-2.6875 5.22 -2.6875 8.19 -2.6875 11.25 C-0.2125 12.24 -0.2125 12.24 2.3125 13.25 C2.3125 12.26 2.3125 11.27 2.3125 10.25 C2.9725 10.25 3.6325 10.25 4.3125 10.25 C3.4375 14.125 3.4375 14.125 2.3125 15.25 C-0.0625 15.625 -0.0625 15.625 -2.6875 15.25 C-4.98066697 12.56145941 -5.63350325 10.69097349 -6.0625 7.1875 C-5.5121869 2.87671403 -4.57626379 0.42569896 0 0 Z " fill="#333333" transform="translate(718.6875,87.75)"/>
<path d="M0 0 C0.33 0 0.66 0 1 0 C1.33 3.96 1.66 7.92 2 12 C3.32 12 4.64 12 6 12 C6.33 8.04 6.66 4.08 7 0 C7.66 0 8.32 0 9 0 C9.05386629 2.12472576 9.09273071 4.24983652 9.125 6.375 C9.14820313 7.55835937 9.17140625 8.74171875 9.1953125 9.9609375 C9 13 9 13 7 15 C3.9375 15.1875 3.9375 15.1875 1 15 C0 14 0 14 -0.09765625 10.83984375 C-0.08025391 8.90818359 -0.08025391 8.90818359 -0.0625 6.9375 C-0.05347656 5.64714844 -0.04445313 4.35679688 -0.03515625 3.02734375 C-0.02355469 2.02832031 -0.01195312 1.02929688 0 0 Z " fill="#353535" transform="translate(582,88)"/>
<path d="M0 0 C3 1 3 1 4.16796875 2.84765625 C5.11197917 4.8984375 6.05598958 6.94921875 7 9 C7.33 6.03 7.66 3.06 8 0 C8.33 0 8.66 0 9 0 C9 4.62 9 9.24 9 14 C6 13 6 13 4.83203125 11.15234375 C3.88802083 9.1015625 2.94401042 7.05078125 2 5 C1.67 7.97 1.34 10.94 1 14 C0.67 14 0.34 14 0 14 C0 9.38 0 4.76 0 0 Z " fill="#212121" transform="translate(358,89)"/>
<path d="M0 0 C0.7425 0.2475 1.485 0.495 2.25 0.75 C2.58 2.07 2.91 3.39 3.25 4.75 C2.59 4.42 1.93 4.09 1.25 3.75 C1.25 3.09 1.25 2.43 1.25 1.75 C-0.4 2.41 -2.05 3.07 -3.75 3.75 C-4.01932521 8.40052872 -4.01932521 8.40052872 -2.75 12.75 C-0.58125748 12.24396008 1.24967627 11.75016187 3.25 10.75 C2.92 12.07 2.59 13.39 2.25 14.75 C0.6 15.08 -1.05 15.41 -2.75 15.75 C-5.55548184 12.85684686 -6.68237649 11.2318175 -7.25 7.1875 C-6.75 3.75 -6.75 3.75 -5.0625 1.25 C-2.75 -0.25 -2.75 -0.25 0 0 Z " fill="#333333" transform="translate(313.75,88.25)"/>
<path d="M0 0 C0.33 0 0.66 0 1 0 C1.33 3.63 1.66 7.26 2 11 C3.32 11.33 4.64 11.66 6 12 C6.33 8.04 6.66 4.08 7 0 C7.66 0 8.32 0 9 0 C9.08107583 1.93681161 9.13922475 3.8745934 9.1875 5.8125 C9.22230469 6.89144531 9.25710937 7.97039062 9.29296875 9.08203125 C9 12 9 12 7.65234375 13.90234375 C6 15 6 15 3.375 14.75 C1 14 1 14 0 13 C-0.07258946 10.81360547 -0.08373783 8.62499611 -0.0625 6.4375 C-0.05347656 5.23996094 -0.04445312 4.04242188 -0.03515625 2.80859375 C-0.02355469 1.88175781 -0.01195312 0.95492187 0 0 Z " fill="#3F3F3F" transform="translate(165,89)"/>
<path d="M0 0 C1.9375 0.6875 1.9375 0.6875 2.9375 2.6875 C2.977492 4.68710012 2.98096799 6.68797242 2.9375 8.6875 C1.2875 9.0175 -0.3625 9.3475 -2.0625 9.6875 C-2.7225 6.7175 -3.3825 3.7475 -4.0625 0.6875 C-2.0625 -0.3125 -2.0625 -0.3125 0 0 Z " fill="#101010" transform="translate(497.0625,39.3125)"/>
<path d="M0 0 C1.2065625 0.0309375 1.2065625 0.0309375 2.4375 0.0625 C4.52980769 4.49326923 4.52980769 4.49326923 4.0625 7.375 C3.85625 7.931875 3.65 8.48875 3.4375 9.0625 C2.1175 9.3925 0.7975 9.7225 -0.5625 10.0625 C-1.5525 7.0925 -2.5425 4.1225 -3.5625 1.0625 C-2.5625 0.0625 -2.5625 0.0625 0 0 Z " fill="#151515" transform="translate(326.5625,39.9375)"/>
<path d="M0 0 C2.64 0 5.28 0 8 0 C6.28484687 3.59365417 4.65192754 7.00216887 2 10 C1.34 10 0.68 10 0 10 C0 6.7 0 3.4 0 0 Z " fill="#EFEFEF" transform="translate(581,54)"/>
<path d="M0 0 C0.78552246 0.01047363 1.57104492 0.02094727 2.38037109 0.03173828 C3.23115234 0.03818359 4.08193359 0.04462891 4.95849609 0.05126953 C6.29267578 0.07640625 6.29267578 0.07640625 7.65380859 0.10205078 C8.99958984 0.11558594 8.99958984 0.11558594 10.37255859 0.12939453 C12.59157445 0.15300108 14.81005937 0.18592768 17.02880859 0.22705078 C14.33544922 3.18603516 14.33544922 3.18603516 11.57568359 3.55517578 C10.65271484 3.52939453 9.72974609 3.50361328 8.77880859 3.47705078 C7.3228125 3.43837891 7.3228125 3.43837891 5.83740234 3.39892578 C2.51059741 3.19533827 -0.69072579 2.81024467 -3.97119141 2.22705078 C-1.97119141 0.22705078 -1.97119141 0.22705078 0 0 Z " fill="#56A87A" transform="translate(68.97119140625,76.77294921875)"/>
<path d="M0 0 C1.2065625 0.0309375 1.2065625 0.0309375 2.4375 0.0625 C2.1075 1.7125 1.7775 3.3625 1.4375 5.0625 C-1.715868 5.76324844 -4.28974974 6.0625 -7.5625 6.0625 C-7.5625 7.0525 -7.5625 8.0425 -7.5625 9.0625 C-5.9125 9.0625 -4.2625 9.0625 -2.5625 9.0625 C-2.5625 9.3925 -2.5625 9.7225 -2.5625 10.0625 C-4.5425 10.0625 -6.5225 10.0625 -8.5625 10.0625 C-8.5625 8.4125 -8.5625 6.7625 -8.5625 5.0625 C-7.5725 5.0625 -6.5825 5.0625 -5.5625 5.0625 C-5.0984375 4.1034375 -5.0984375 4.1034375 -4.625 3.125 C-3.05351796 0.07447605 -3.05351796 0.07447605 0 0 Z " fill="#282828" transform="translate(212.5625,54.9375)"/>
<path d="M0 0 C3.96 0 7.92 0 12 0 C12 1.32 12 2.64 12 4 C8.04 4 4.08 4 0 4 C0 2.68 0 1.36 0 0 Z " fill="#ACACAC" transform="translate(630,62)"/>
<path d="M0 0 C1.875 0.3125 1.875 0.3125 4 1 C6 4 6 4 5.625 6.1875 C5.41875 6.785625 5.2125 7.38375 5 8 C3.68 8.33 2.36 8.66 1 9 C-0.625 6.75 -0.625 6.75 -2 4 C-1.1875 1.6875 -1.1875 1.6875 0 0 Z " fill="#131313" transform="translate(409,39)"/>
<path d="M0 0 C0.66 0 1.32 0 2 0 C2 3.96 2 7.92 2 12 C7.445 11.505 7.445 11.505 13 11 C13 11.99 13 12.98 13 14 C7.72 14 2.44 14 -3 14 C-1.68 13.67 -0.36 13.34 1 13 C0.67 8.71 0.34 4.42 0 0 Z " fill="#929292" transform="translate(535,51)"/>
<path d="M0 0 C0.66 0.33 1.32 0.66 2 1 C2 1.66 2 2.32 2 3 C1.34 3 0.68 3 0 3 C-0.2475 3.639375 -0.495 4.27875 -0.75 4.9375 C-2.35545179 7.58649546 -3.07903955 7.26975989 -6 8 C-8.12310613 9.55070006 -10.0285611 11.25258824 -12 13 C-11.4644661 9.34051835 -10.4907862 7.40709253 -7.640625 5.04296875 C-5.12774282 3.30027786 -2.59466268 1.61807377 0 0 Z " fill="#95DFB6" transform="translate(62,34)"/>
<path d="M0 0 C3.3 0 6.6 0 10 0 C10 0.66 10 1.32 10 2 C8.68 2 7.36 2 6 2 C6 6.29 6 10.58 6 15 C5.34 15 4.68 15 4 15 C4 10.71 4 6.42 4 2 C2.68 2 1.36 2 0 2 C0 1.34 0 0.68 0 0 Z " fill="#3C3C3C" transform="translate(433,88)"/>
<path d="M0 0 C3.3 0 6.6 0 10 0 C10 0.66 10 1.32 10 2 C8.68 2 7.36 2 6 2 C6 6.29 6 10.58 6 15 C5.34 15 4.68 15 4 15 C4 10.71 4 6.42 4 2 C2.68 2 1.36 2 0 2 C0 1.34 0 0.68 0 0 Z " fill="#404040" transform="translate(604,88)"/>
<path d="M0 0 C3.93260944 -0.07421454 7.86494722 -0.12863136 11.7980957 -0.16479492 C13.79327701 -0.18728333 15.78826213 -0.22540198 17.78320312 -0.26367188 C19.03681641 -0.27333984 20.29042969 -0.28300781 21.58203125 -0.29296875 C22.73936768 -0.3086792 23.8967041 -0.32438965 25.08911133 -0.34057617 C28 0 28 0 29.90112305 1.51831055 C30.26375244 2.00726807 30.62638184 2.49622559 31 3 C30.40719238 2.9285376 29.81438477 2.8570752 29.20361328 2.78344727 C22.73565878 2.06261722 16.37869417 1.87812639 9.875 1.9375 C8.44027344 1.94426758 8.44027344 1.94426758 6.9765625 1.95117188 C4.65097242 1.96279983 2.3255224 1.97913898 0 2 C0 1.34 0 0.68 0 0 Z " fill="#D8F9EA" transform="translate(78,25)"/>
<path d="M0 0 C0.99 0.33 1.98 0.66 3 1 C3.6875 3.0625 3.6875 3.0625 4 5 C6.51083114 3.74458443 6.87125446 2.49936512 8 0 C8.66 0 9.32 0 10 0 C9.566875 0.928125 9.566875 0.928125 9.125 1.875 C7.58288195 6.15866124 6.81601453 10.52928212 6 15 C5.34 15 4.68 15 4 15 C3.87882813 14.33613281 3.75765625 13.67226562 3.6328125 12.98828125 C2.77452292 8.46575541 1.96028689 4.20061476 0 0 Z " fill="#3A3A3A" transform="translate(153,89)"/>
<path d="M0 0 C2.97 0 5.94 0 9 0 C9 1.65 9 3.3 9 5 C6.03 5 3.06 5 0 5 C0 3.35 0 1.7 0 0 Z " fill="#C3C3C3" transform="translate(752,61)"/>
<path d="M0 0 C2.56780471 3.8415976 2.22688882 7.8139175 2.125 12.25 C2.11597656 12.99507812 2.10695312 13.74015625 2.09765625 14.5078125 C2.07418358 16.33868059 2.03831525 18.16938238 2 20 C1.67 20 1.34 20 1 20 C0.67 18.02 0.34 16.04 0 14 C-0.33 14 -0.66 14 -1 14 C-1 12.35 -1 10.7 -1 9 C-2.65 9.33 -4.3 9.66 -6 10 C-6 9.34 -6 8.68 -6 8 C-4.02 7.67 -2.04 7.34 0 7 C0 4.69 0 2.38 0 0 Z " fill="#39A267" transform="translate(133,49)"/>
<path d="M0 0 C2.97 0 5.94 0 9 0 C9 0.66 9 1.32 9 2 C7.68 2 6.36 2 5 2 C5 6.29 5 10.58 5 15 C4.34 15 3.68 15 3 15 C3 10.71 3 6.42 3 2 C2.01 2 1.02 2 0 2 C0 1.34 0 0.68 0 0 Z " fill="#313131" transform="translate(756,88)"/>
<path d="M0 0 C0.66 0 1.32 0 2 0 C1.2441215 4.38409528 -0.64908838 6.03506313 -4.1875 8.5625 C-4.785625 9.036875 -5.38375 9.51125 -6 10 C-6 10.66 -6 11.32 -6 12 C-7.98 12 -9.96 12 -12 12 C-11.195625 11.236875 -10.39125 10.47375 -9.5625 9.6875 C-6.83200976 7.20569102 -6.83200976 7.20569102 -6 4 C-4.35 4 -2.7 4 -1 4 C-0.67 2.68 -0.34 1.36 0 0 Z " fill="#D0D0D0" transform="translate(423,46)"/>
<path d="M0 0 C3.63 0 7.26 0 11 0 C11 1.32 11 2.64 11 4 C7.37 4 3.74 4 0 4 C0 2.68 0 1.36 0 0 Z " fill="#F6F6F6" transform="translate(581,45)"/>
<path d="M0 0 C1.53668865 0.22467831 3.07968054 0.40796805 4.625 0.5625 C5.44226563 0.64628906 6.25953125 0.73007813 7.1015625 0.81640625 C7.72804688 0.87699219 8.35453125 0.93757813 9 1 C9 1.33 9 1.66 9 2 C0.3387414 3.25981943 -8.27001243 3.09020653 -17 3 C-13.83032834 0.20588185 -11.56266042 -0.45652515 -7.375 -0.75 C-6.41335937 -0.82734375 -5.45171875 -0.9046875 -4.4609375 -0.984375 C-2 -1 -2 -1 0 0 Z " fill="#45A46F" transform="translate(75,110)"/>
<path d="M0 0 C0.66 0 1.32 0 2 0 C2 4.29 2 8.58 2 13 C3.98 13 5.96 13 8 13 C8 13.66 8 14.32 8 15 C5.36 15 2.72 15 0 15 C0 10.05 0 5.1 0 0 Z " fill="#353535" transform="translate(747,88)"/>
<path d="M0 0 C0.66 0 1.32 0 2 0 C2.2475 1.175625 2.495 2.35125 2.75 3.5625 C3.81896129 7.90806003 5.63577541 11.21724066 8 15 C6.35 15.33 4.7 15.66 3 16 C3 14.35 3 12.7 3 11 C2.01 11 1.02 11 0 11 C0 7.37 0 3.74 0 0 Z " fill="#C1C1C1" transform="translate(678,59)"/>
<path d="M0 0 C0.53109375 0.38929687 1.0621875 0.77859375 1.609375 1.1796875 C0.289375 2.1696875 -1.030625 3.1596875 -2.390625 4.1796875 C-3.050625 3.8496875 -3.710625 3.5196875 -4.390625 3.1796875 C-6.41977345 4.17336548 -6.41977345 4.17336548 -8.515625 5.6171875 C-9.24007812 6.09027344 -9.96453125 6.56335937 -10.7109375 7.05078125 C-11.54238281 7.60958984 -11.54238281 7.60958984 -12.390625 8.1796875 C-12.390625 7.5196875 -12.390625 6.8596875 -12.390625 6.1796875 C-13.050625 5.8496875 -13.710625 5.5196875 -14.390625 5.1796875 C-12.48455215 4.11876016 -10.56529754 3.08148649 -8.640625 2.0546875 C-7.03960937 1.18457031 -7.03960937 1.18457031 -5.40625 0.296875 C-2.390625 -0.8203125 -2.390625 -0.8203125 0 0 Z " fill="#2C985C" transform="translate(66.390625,31.8203125)"/>
<path d="M0 0 C4.29 0 8.58 0 13 0 C13 0.66 13 1.32 13 2 C13.66 2.33 14.32 2.66 15 3 C10.05 3 5.1 3 0 3 C0 2.01 0 1.02 0 0 Z " fill="#B5B5B5" transform="translate(553,62)"/>
<path d="M0 0 C2.04119788 1.61594832 4.04072937 3.2856382 6 5 C6 5.66 6 6.32 6 7 C6.66 7.33 7.32 7.66 8 8 C5.59454362 9.20272819 4.05003047 9.10071472 1.375 9.0625 C0.14910156 9.04896484 0.14910156 9.04896484 -1.1015625 9.03515625 C-2.04128906 9.01775391 -2.04128906 9.01775391 -3 9 C-2.319375 8.443125 -1.63875 7.88625 -0.9375 7.3125 C-0.298125 6.549375 0.34125 5.78625 1 5 C0.85974801 2.29294488 0.85974801 2.29294488 0 0 Z " fill="#D7D7D7" transform="translate(263,46)"/>
<path d="M0 0 C0.33 0 0.66 0 1 0 C1 4.29 1 8.58 1 13 C-0.32 12.67 -1.64 12.34 -3 12 C-4.0326802 9.21176345 -4.04509293 8.1322726 -3.0625 5.25 C-2.711875 4.5075 -2.36125 3.765 -2 3 C-1.34 3 -0.68 3 0 3 C0 2.01 0 1.02 0 0 Z " fill="#CACACA" transform="translate(581,88)"/>
<path d="M0 0 C3.3 1.98 6.6 3.96 10 6 C9.67 6.99 9.34 7.98 9 9 C4.89041233 7.54955729 1.56741255 5.48889248 -2 3 C-1.34 2.67 -0.68 2.34 0 2 C0 1.34 0 0.68 0 0 Z " fill="#309D60" transform="translate(37,100)"/>
<path d="M0 0 C2.97 0 5.94 0 9 0 C7.68 0.33 6.36 0.66 5 1 C5 5.29 5 9.58 5 14 C4.34 14 3.68 14 3 14 C3 10.04 3 6.08 3 2 C2.01 2 1.02 2 0 2 C0 1.34 0 0.68 0 0 Z " fill="#404040" transform="translate(330,89)"/>
<path d="M0 0 C0.33 1.32 0.66 2.64 1 4 C3.31 4 5.62 4 8 4 C8 5.32 8 6.64 8 8 C0.125 7.125 0.125 7.125 -1 6 C-1.125 3.5 -1.125 3.5 -1 1 C-0.67 0.67 -0.34 0.34 0 0 Z " fill="#D1D1D1" transform="translate(459,65)"/>
<path d="M0 0 C3 3.46153846 3 3.46153846 3 6 C0.03 6 -2.94 6 -6 6 C-5.67 4.35 -5.34 2.7 -5 1 C-2 0 -2 0 0 0 Z " fill="#E7E7E7" transform="translate(720,64)"/>
<path d="M0 0 C0 3.20432028 -0.90112155 5.01592485 -2.19921875 7.8828125 C-3.67573921 11.78658854 -4.29842184 15.89783125 -5 20 C-5.33 20 -5.66 20 -6 20 C-7.03368414 8.51462062 -7.03368414 8.51462062 -3 3.25 C-2.0272438 2.14213878 -1.03631289 1.04864995 0 0 Z " fill="#4C9B6F" transform="translate(49,47)"/>
<path d="M0 0 C1.16945792 0.80847729 2.33550461 1.62189112 3.5 2.4375 C4.1496875 2.88996094 4.799375 3.34242187 5.46875 3.80859375 C6.22671875 4.39833984 6.22671875 4.39833984 7 5 C7 5.33 7 5.66 7 6 C3.04 6 -0.92 6 -5 6 C-3.35 4.02 -1.7 2.04 0 0 Z " fill="#C5C5C5" transform="translate(428,52)"/>
<path d="M0 0 C0 0.33 0 0.66 0 1 C-6.21147497 3.25871817 -12.41911359 3.6790596 -19 3 C-19.66 2.34 -20.32 1.68 -21 1 C-13.98441385 0.4011085 -7.04321257 -0.13810221 0 0 Z " fill="#DEFAEE" transform="translate(83,112)"/>
<path d="M0 0 C3.96 0 7.92 0 12 0 C12 0.99 12 1.98 12 3 C8.04 3 4.08 3 0 3 C0 2.01 0 1.02 0 0 Z " fill="#C2C2C2" transform="translate(630,55)"/>
<path d="M0 0 C0.99 0.33 1.98 0.66 3 1 C4.22578535 4.67735605 3.46596728 5.55066523 2 9 C2 9.99 2 10.98 2 12 C0.68 11.67 -0.64 11.34 -2 11 C-1.67 9.68 -1.34 8.36 -1 7 C-0.34 7 0.32 7 1 7 C0.67 4.69 0.34 2.38 0 0 Z " fill="#A3A3A3" transform="translate(499,89)"/>
<path d="M0 0 C0.99 0 1.98 0 3 0 C2.67 4.95 2.34 9.9 2 15 C1.34 15 0.68 15 0 15 C0 10.05 0 5.1 0 0 Z " fill="#343434" transform="translate(444,88)"/>
<path d="M0 0 C0.99 0 1.98 0 3 0 C3 4.95 3 9.9 3 15 C2.34 15 1.68 15 1 15 C0.67 10.05 0.34 5.1 0 0 Z " fill="#393939" transform="translate(453,88)"/>
<path d="M0 0 C0.99 0 1.98 0 3 0 C2.67 4.95 2.34 9.9 2 15 C1.34 15 0.68 15 0 15 C0 10.05 0 5.1 0 0 Z " fill="#4B4B4B" transform="translate(188,89)"/>
<path d="M0 0 C2.27029534 0.39143023 3.83408198 0.88741278 5.75 2.1875 C7.62122935 4.90078256 7.3872877 6.77260252 7 10 C5.5 12.875 5.5 12.875 4 15 C2.68 14.67 1.36 14.34 0 14 C0.66 13.649375 1.32 13.29875 2 12.9375 C4.34901989 11.05643683 4.34901989 11.05643683 4.5 7.5625 C3.9381042 3.5589924 3.12390012 2.44054697 0 0 Z " fill="#323232" transform="translate(624,88)"/>
<path d="M0 0 C0.66 0 1.32 0 2 0 C1.34 2.97 0.68 5.94 0 9 C1.32 9.33 2.64 9.66 4 10 C2.35 10 0.7 10 -1 10 C-1.33 11.65 -1.66 13.3 -2 15 C-2.66 15 -3.32 15 -4 15 C-2.9318153 9.88634986 -1.76892524 4.92772031 0 0 Z " fill="#343434" transform="translate(203,89)"/>
<path d="M0 0 C-1 3 -1 3 -3.3125 4.6875 C-6 6 -6 6 -10 6 C-10 5.01 -10 4.02 -10 3 C-6.27034861 0.96564469 -4.33094958 0 0 0 Z " fill="#209654" transform="translate(86,89)"/>
<path d="M0 0 C3.67230705 3.07999946 4.56802365 5.2482602 5 10 C4.67 9.34 4.34 8.68 4 8 C3.34 8 2.68 8 2 8 C1.67 8.99 1.34 9.98 1 11 C0.67 11 0.34 11 0 11 C0 7.37 0 3.74 0 0 Z " fill="#E9E9E9" transform="translate(499,53)"/>
<path d="M0 0 C1.32 0 2.64 0 4 0 C4 2.97 4 5.94 4 9 C3.01 9.495 3.01 9.495 2 10 C2 8.68 2 7.36 2 6 C1.01 6 0.02 6 -1 6 C-0.67 4.02 -0.34 2.04 0 0 Z " fill="#BBBBBB" transform="translate(219,55)"/>
<path d="M0 0 C2.97 0 5.94 0 9 0 C9 0.66 9 1.32 9 2 C7.68 2 6.36 2 5 2 C5 6.29 5 10.58 5 15 C4.67 15 4.34 15 4 15 C4 10.71 4 6.42 4 2 C2.68 2 1.36 2 0 2 C0 1.34 0 0.68 0 0 Z " fill="#262626" transform="translate(480,88)"/>
<path d="M0 0 C2.97 0 5.94 0 9 0 C9 0.66 9 1.32 9 2 C7.68 2 6.36 2 5 2 C5 6.29 5 10.58 5 15 C4.67 15 4.34 15 4 15 C4 10.71 4 6.42 4 2 C2.68 2 1.36 2 0 2 C0 1.34 0 0.68 0 0 Z " fill="#1E1E1E" transform="translate(559,88)"/>
<path d="M0 0 C0.33 0 0.66 0 1 0 C1.33 3.3 1.66 6.6 2 10 C3.98 10 5.96 10 8 10 C8 10.66 8 11.32 8 12 C5.36 12 2.72 12 0 12 C0 8.04 0 4.08 0 0 Z " fill="#B4B4B4" transform="translate(459,53)"/>
<path d="M0 0 C0.33 0 0.66 0 1 0 C1.33 2.31 1.66 4.62 2 7 C3.98 7 5.96 7 8 7 C7.67 7.99 7.34 8.98 7 10 C4.125 10.1875 4.125 10.1875 1 10 C-1.56687367 6.1496895 -0.83288724 4.41430237 0 0 Z " fill="#3C3C3C" transform="translate(525,93)"/>
<path d="M0 0 C1.98 0.495 1.98 0.495 4 1 C3.67 3.31 3.34 5.62 3 8 C2.01 8 1.02 8 0 8 C-0.79953138 4.71303767 -1.09658936 3.28976808 0 0 Z " fill="#787878" transform="translate(322,89)"/>
<path d="M0 0 C1.98 0 3.96 0 6 0 C5.67 1.65 5.34 3.3 5 5 C3.35 5 1.7 5 0 5 C0 3.35 0 1.7 0 0 Z " fill="#D1D1D1" transform="translate(663,90)"/>
<path d="M0 0 C1.98 0 3.96 0 6 0 C5.67 1.65 5.34 3.3 5 5 C3.35 5 1.7 5 0 5 C0 3.35 0 1.7 0 0 Z " fill="#D4D4D4" transform="translate(571,90)"/>
<path d="M0 0 C1.98 0 3.96 0 6 0 C6.1875 2.875 6.1875 2.875 6 6 C3 8 3 8 0.8125 7.625 C0.214375 7.41875 -0.38375 7.2125 -1 7 C-0.360625 6.731875 0.27875 6.46375 0.9375 6.1875 C3.33131686 5.11332248 3.33131686 5.11332248 4 2 C2.68 2 1.36 2 0 2 C0 1.34 0 0.68 0 0 Z " fill="#404040" transform="translate(654,95)"/>
<path d="M0 0 C0.28875 0.598125 0.5775 1.19625 0.875 1.8125 C2.04742026 4.19327792 2.04742026 4.19327792 4 7 C6.16874252 6.49396008 7.99967627 6.00016187 10 5 C9.67 6.32 9.34 7.64 9 9 C6.6875 9.625 6.6875 9.625 4 10 C1 8 1 8 0.48828125 6.0546875 C0.32552083 4.03645833 0.16276042 2.01822917 0 0 Z " fill="#313131" transform="translate(239,94)"/>
<path d="M0 0 C0.33 0 0.66 0 1 0 C1 4.95 1 9.9 1 15 C-2 15 -2 15 -4 14 C-3.34 13.01 -2.68 12.02 -2 11 C-1.55888435 9.11845117 -1.1890733 7.21937362 -0.875 5.3125 C-0.70742188 4.31863281 -0.53984375 3.32476562 -0.3671875 2.30078125 C-0.24601563 1.54152344 -0.12484375 0.78226562 0 0 Z " fill="#D0D0D0" transform="translate(536,88)"/>
<path d="M0 0 C1.32 0 2.64 0 4 0 C4 1.32 4 2.64 4 4 C5.65 4 7.3 4 9 4 C9.33 3.01 9.66 2.02 10 1 C10 2.32 10 3.64 10 5 C8.02 5.99 8.02 5.99 6 7 C3.95880212 5.38405168 1.95927063 3.7143618 0 2 C0 1.34 0 0.68 0 0 Z " fill="#BABABA" transform="translate(431,46)"/>
<path d="M0 0 C0.33 0 0.66 0 1 0 C2.33359073 6.42548263 2.33359073 6.42548263 0.875 8.9375 C-1.62012321 10.35140315 -3.17809019 10.43413997 -6 10 C-6.66 9.01 -7.32 8.02 -8 7 C-5.66666667 7 -3.33333333 7 -1 7 C-0.67 4.69 -0.34 2.38 0 0 Z " fill="#444444" transform="translate(682,93)"/>
<path d="M0 0 C2.875 0.3125 2.875 0.3125 6 1 C8.4294516 4.6441774 8.16179575 6.71241272 8 11 C7.34 10.67 6.68 10.34 6 10 C5.71125 8.865625 5.4225 7.73125 5.125 6.5625 C4.38697108 2.94113414 4.38697108 2.94113414 1.875 1.5625 C1.25625 1.376875 0.6375 1.19125 0 1 C0 0.67 0 0.34 0 0 Z " fill="#3E3E3E" transform="translate(348,88)"/>
<path d="M0 0 C0.763125 0.20625 1.52625 0.4125 2.3125 0.625 C2.6425 1.945 2.9725 3.265 3.3125 4.625 C2.3225 3.965 1.3325 3.305 0.3125 2.625 C-1.84024948 2.93340599 -1.84024948 2.93340599 -3.6875 3.625 C-4.0175 5.605 -4.3475 7.585 -4.6875 9.625 C-5.0175 9.625 -5.3475 9.625 -5.6875 9.625 C-5.98046875 3.5703125 -5.98046875 3.5703125 -5.6875 1.625 C-2.6875 -0.375 -2.6875 -0.375 0 0 Z " fill="#313131" transform="translate(233.6875,88.375)"/>
<path d="M0 0 C0.33 0 0.66 0 1 0 C1 5.61 1 11.22 1 17 C1.66 17.33 2.32 17.66 3 18 C2.34 18 1.68 18 1 18 C0.67 18.66 0.34 19.32 0 20 C0 19.34 0 18.68 0 18 C-1.65 18 -3.3 18 -5 18 C-5 17.67 -5 17.34 -5 17 C-3.35 17 -1.7 17 0 17 C0 11.39 0 5.78 0 0 Z " fill="#888888" transform="translate(766,56)"/>
<path d="M0 0 C-1.52708963 3.43595166 -3.59927045 6.11912454 -6 9 C-6.99 8.34 -7.98 7.68 -9 7 C-7.88121617 5.82737096 -6.75476949 4.66204862 -5.625 3.5 C-4.68527344 2.52546875 -4.68527344 2.52546875 -3.7265625 1.53125 C-2 0 -2 0 0 0 Z " fill="#CAF4E0" transform="translate(59,40)"/>
<path d="M0 0 C2.64 0 5.28 0 8 0 C8.33 1.32 8.66 2.64 9 4 C6.36 3.67 3.72 3.34 1 3 C0.67 2.01 0.34 1.02 0 0 Z " fill="#10944A" transform="translate(46,107)"/>
<path d="M0 0 C1.65 0 3.3 0 5 0 C5 1.65 5 3.3 5 5 C3.35 5 1.7 5 0 5 C0 3.35 0 1.7 0 0 Z " fill="#E9E9E9" transform="translate(700,90)"/>
<path d="M0 0 C1.32 0 2.64 0 4 0 C3.6875 2.875 3.6875 2.875 3 6 C2.01 6.66 1.02 7.32 0 8 C0 5.36 0 2.72 0 0 Z " fill="#F0F0F0" transform="translate(416,63)"/>
<path d="M0 0 C0.33 0 0.66 0 1 0 C1 4.95 1 9.9 1 15 C0.34 15 -0.32 15 -1 15 C-1.66 13.02 -2.32 11.04 -3 9 C-2.01 9.495 -2.01 9.495 -1 10 C-0.67 6.7 -0.34 3.4 0 0 Z " fill="#1E1E1E" transform="translate(545,88)"/>
<path d="M0 0 C2.64 0 5.28 0 8 0 C8 0.99 8 1.98 8 3 C5.36 3 2.72 3 0 3 C0 2.01 0 1.02 0 0 Z " fill="#C2C2C2" transform="translate(678,44)"/>
<path d="M0 0 C1.0625 1.8125 1.0625 1.8125 2 4 C1.67 4.99 1.34 5.98 1 7 C1.87914688 9.6569191 1.87914688 9.6569191 3 12 C0 11 0 11 -1.3125 8.8125 C-2.18142092 5.25782353 -1.3912592 3.32356365 0 0 Z " fill="#393939" transform="translate(577,91)"/>
<path d="M0 0 C0.66 0.33 1.32 0.66 2 1 C2 1.99 2 2.98 2 4 C0.35 4.66 -1.3 5.32 -3 6 C-3 5.34 -3 4.68 -3 4 C-3.66 3.67 -4.32 3.34 -5 3 C-2.625 1.4375 -2.625 1.4375 0 0 Z " fill="#329E61" transform="translate(89,85)"/>
<path d="M0 0 C-1.75 3.875 -1.75 3.875 -4 5 C-4 4.34 -4 3.68 -4 3 C-5.32 3.99 -6.64 4.98 -8 6 C-8.66 5.67 -9.32 5.34 -10 5 C-3.87096774 0 -3.87096774 0 0 0 Z " fill="#259858" transform="translate(54,38)"/>
<path d="M0 0 C0.66 0 1.32 0 2 0 C2.33 1.65 2.66 3.3 3 5 C2.67 5 2.34 5 2 5 C1.67 8.3 1.34 11.6 1 15 C0.67 15 0.34 15 0 15 C0 10.05 0 5.1 0 0 Z " fill="#272727" transform="translate(469,88)"/>
<path d="M0 0 C3 3 3 3 3.1875 6.1875 C3.0946875 7.5796875 3.0946875 7.5796875 3 9 C2.01 9 1.02 9 0 9 C0 6.03 0 3.06 0 0 Z " fill="#CDCDCD" transform="translate(664,55)"/>
<path d="M0 0 C0.66 0 1.32 0 2 0 C2.33 0.66 2.66 1.32 3 2 C6.02934491 2.65772428 6.02934491 2.65772428 9 3 C8.67 3.66 8.34 4.32 8 5 C5.125 5.125 5.125 5.125 2 5 C1.34 4.34 0.68 3.68 0 3 C0 2.01 0 1.02 0 0 Z " fill="#3D3D3D" transform="translate(548,98)"/>
<path d="M0 0 C0.33 0 0.66 0 1 0 C1.04898438 0.74765625 1.09796875 1.4953125 1.1484375 2.265625 C1.22320312 3.25046875 1.29796875 4.2353125 1.375 5.25 C1.44460937 6.22453125 1.51421875 7.1990625 1.5859375 8.203125 C1.98465249 10.89633189 2.63507063 12.66963279 4 15 C2.68 14.34 1.36 13.68 0 13 C0 8.71 0 4.42 0 0 Z " fill="#1E1E1E" transform="translate(165,89)"/>
<path d="M0 0 C0.99 0.33 1.98 0.66 3 1 C3 1.99 3 2.98 3 4 C2.34 4 1.68 4 1 4 C1 7.3 1 10.6 1 14 C0.67 14 0.34 14 0 14 C0 9.38 0 4.76 0 0 Z " fill="#181818" transform="translate(390,89)"/>
<path d="M0 0 C0.86625 0.556875 0.86625 0.556875 1.75 1.125 C1.42 3.765 1.09 6.405 0.75 9.125 C0.42 9.125 0.09 9.125 -0.25 9.125 C-0.58 6.815 -0.91 4.505 -1.25 2.125 C-2.9 1.795 -4.55 1.465 -6.25 1.125 C-2.80384615 -1.09038462 -2.80384615 -1.09038462 0 0 Z " fill="#4D4D4D" transform="translate(774.25,88.875)"/>
<path d="M0 0 C2.31 0 4.62 0 7 0 C7 0.99 7 1.98 7 3 C4.69 3 2.38 3 0 3 C0 2.01 0 1.02 0 0 Z " fill="#F8F8F8" transform="translate(753,62)"/>
<path d="M0 0 C0.66 0.66 1.32 1.32 2 2 C1.34 2.66 0.68 3.32 0 4 C0 4.66 0 5.32 0 6 C-1.98 6 -3.96 6 -6 6 C-4 4 -2 2 0 0 Z " fill="#B3B3B3" transform="translate(417,52)"/>
<path d="M0 0 C1.32 0 2.64 0 4 0 C3.67 1.65 3.34 3.3 3 5 C1.68 5.33 0.36 5.66 -1 6 C-0.67 4.02 -0.34 2.04 0 0 Z " fill="#A2A2A2" transform="translate(211,55)"/>
<path d="M0 0 C1.32 0 2.64 0 4 0 C4.93065133 2.60582371 5.14917407 3.64198224 4.0625 6.25 C3.5365625 7.11625 3.5365625 7.11625 3 8 C3 6.68 3 5.36 3 4 C2.01 4 1.02 4 0 4 C0 2.68 0 1.36 0 0 Z " fill="#9F9F9F" transform="translate(373,52)"/>
<path d="M0 0 C2.31 0 4.62 0 7 0 C7 0.99 7 1.98 7 3 C4.69 3 2.38 3 0 3 C0 2.01 0 1.02 0 0 Z " fill="#F3F3F3" transform="translate(679,51)"/>
<path d="M0 0 C2.125 0.9375 2.125 0.9375 4 2 C2.3125 3.625 2.3125 3.625 0 5 C-2.75 4.1875 -2.75 4.1875 -5 3 C-2 1 -2 1 0 0 Z " fill="#45AC72" transform="translate(64,31)"/>
<path d="M0 0 C0.33 0 0.66 0 1 0 C1.390625 5.95703125 1.390625 5.95703125 1 8 C-0.32 8.99 -1.64 9.98 -3 11 C-2.01 7.37 -1.02 3.74 0 0 Z " fill="#E4E4E4" transform="translate(411,88)"/>
<path d="M0 0 C1.32 0 2.64 0 4 0 C4 1.65 4 3.3 4 5 C1.525 4.01 1.525 4.01 -1 3 C-0.67 2.01 -0.34 1.02 0 0 Z " fill="#DFDFDF" transform="translate(372,90)"/>
<path d="M0 0 C0.99 0.33 1.98 0.66 3 1 C2.01 3.31 1.02 5.62 0 8 C-0.12375 7.360625 -0.2475 6.72125 -0.375 6.0625 C-0.684375 5.0415625 -0.684375 5.0415625 -1 4 C-1.66 3.67 -2.32 3.34 -3 3 C-2.01 2.67 -1.02 2.34 0 2 C0 1.34 0 0.68 0 0 Z " fill="#29995A" transform="translate(130,72)"/>
<path d="M0 0 C1.43655854 -0.08131463 2.8744483 -0.13933559 4.3125 -0.1875 C5.51326172 -0.23970703 5.51326172 -0.23970703 6.73828125 -0.29296875 C9.47851584 0.06198392 10.29171079 0.89366282 12 3 C3.96428571 2.19642857 3.96428571 2.19642857 0 0 Z " fill="#37A366" transform="translate(58,67)"/>
<path d="M0 0 C1.65 0 3.3 0 5 0 C5 1.32 5 2.64 5 4 C3.35 4 1.7 4 0 4 C0 2.68 0 1.36 0 0 Z " fill="#F3F3F3" transform="translate(598,45)"/>
<path d="M0 0 C2.475 0.495 2.475 0.495 5 1 C5 1.99 5 2.98 5 4 C3.35 4 1.7 4 0 4 C0 2.68 0 1.36 0 0 Z " fill="#EBEBEB" transform="translate(372,97)"/>
<path d="M0 0 C1.2065625 0.0309375 1.2065625 0.0309375 2.4375 0.0625 C3.0975 1.3825 3.7575 2.7025 4.4375 4.0625 C2.4575 3.4025 0.4775 2.7425 -1.5625 2.0625 C-1.8925 3.0525 -2.2225 4.0425 -2.5625 5.0625 C-3.125 3.125 -3.125 3.125 -3.5625 1.0625 C-2.5625 0.0625 -2.5625 0.0625 0 0 Z " fill="#3A3A3A" transform="translate(552.5625,87.9375)"/>
<path d="M0 0 C0.86625 0.556875 0.86625 0.556875 1.75 1.125 C-3 4.125 -3 4.125 -5.25 4.125 C-5.58 3.135 -5.91 2.145 -6.25 1.125 C-2.80384615 -1.09038462 -2.80384615 -1.09038462 0 0 Z " fill="#339B62" transform="translate(127.25,66.875)"/>
<path d="M0 0 C1.32 0.33 2.64 0.66 4 1 C0.535 3.97 0.535 3.97 -3 7 C-1.125 1.125 -1.125 1.125 0 0 Z " fill="#85C3A2" transform="translate(53,40)"/>
<path d="M0 0 C1.67542976 0.28604898 3.34385343 0.61781233 5 1 C4.67 2.32 4.34 3.64 4 5 C3.01 4.01 2.02 3.02 1 2 C0.67 2.99 0.34 3.98 0 5 C-0.5625 3.0625 -0.5625 3.0625 -1 1 C-0.67 0.67 -0.34 0.34 0 0 Z " fill="#373737" transform="translate(498,87)"/>
<path d="M0 0 C2.375 -0.125 2.375 -0.125 5 0 C7 2 7 2 7 5 C6.34 5 5.68 5 5 5 C4.67 4.34 4.34 3.68 4 3 C1.97536745 2.34786708 1.97536745 2.34786708 0 2 C0 1.34 0 0.68 0 0 Z " fill="#444444" transform="translate(425,88)"/>
<path d="M0 0 C2.31 0.33 4.62 0.66 7 1 C3.375 4 3.375 4 0 4 C0 2.68 0 1.36 0 0 Z " fill="#239354" transform="translate(60,85)"/>
<path d="M0 0 C1.65 0 3.3 0 5 0 C4.34 1.65 3.68 3.3 3 5 C2.01 4.34 1.02 3.68 0 3 C0 2.01 0 1.02 0 0 Z " fill="#CFCFCF" transform="translate(510,60)"/>
<path d="M0 0 C0.99 0.33 1.98 0.66 3 1 C2.67 1.99 2.34 2.98 2 4 C-0.5625 5.1875 -0.5625 5.1875 -3 6 C-3.66 5.34 -4.32 4.68 -5 4 C-4.360625 3.71125 -3.72125 3.4225 -3.0625 3.125 C-0.84793921 2.17176549 -0.84793921 2.17176549 0 0 Z " fill="#D9D9D9" transform="translate(415,44)"/>
<path d="M0 0 C0 0.66 0 1.32 0 2 C-0.66 2 -1.32 2 -2 2 C-2 2.66 -2 3.32 -2 4 C-1.34 4.33 -0.68 4.66 0 5 C-2.97 4.505 -2.97 4.505 -6 4 C-2.25 0 -2.25 0 0 0 Z " fill="#C5F3DC" transform="translate(61,105)"/>
<path d="M0 0 C0.99 0.33 1.98 0.66 3 1 C3.625 3.875 3.625 3.875 4 7 C3.34 7.66 2.68 8.32 2 9 C1.34 6.03 0.68 3.06 0 0 Z " fill="#5A5A5A" transform="translate(400,88)"/>
<path d="M0 0 C2.375 -0.125 2.375 -0.125 5 0 C7 2 7 2 7 5 C6.34 5 5.68 5 5 5 C4.67 4.34 4.34 3.68 4 3 C1.98330173 1.86649466 1.98330173 1.86649466 0 1 C0 0.67 0 0.34 0 0 Z " fill="#424242" transform="translate(515,88)"/>
<path d="M0 0 C1.65 0 3.3 0 5 0 C4.625 1.9375 4.625 1.9375 4 4 C3.01 4.495 3.01 4.495 2 5 C1.34 3.35 0.68 1.7 0 0 Z " fill="#D4D4D4" transform="translate(385,61)"/>
</svg>
