<?xml version="1.0" encoding="UTF-8"?>
<svg version="1.1" xmlns="http://www.w3.org/2000/svg" width="472" height="90">
<path d="M0 0 C155.76 0 311.52 0 472 0 C472 29.7 472 59.4 472 90 C316.24 90 160.48 90 0 90 C0 60.3 0 30.6 0 0 Z " fill="#F3F3F3" transform="translate(0,0)"/>
<path d="M0 0 C6.6 0 13.2 0 20 0 C19.34 4.29 18.68 8.58 18 13 C15.03 12.67 12.06 12.34 9 12 C10.72601379 12.81917642 12.4559647 13.63006016 14.1875 14.4375 C15.15042969 14.88996094 16.11335938 15.34242187 17.10546875 15.80859375 C19.76631586 16.90381422 22.16784755 17.54954796 25 18 C27.27330129 12.15436812 28.04027872 6.16963683 29 0 C35.93 0 42.86 0 50 0 C49.05708479 9.03627076 47.91414675 17.04223477 45.01953125 25.671875 C43.18187501 31.67066089 42.12588777 37.8332056 41 44 C40.34 44 39.68 44 39 44 C39 46.31 39 48.62 39 51 C32.07 51 25.14 51 18 51 C18.33 47.7 18.66 44.4 19 41 C19.05661545 39.29247797 19.09005223 37.58323818 19.0625 35.875 C19.041875 34.59625 19.02125 33.3175 19 32 C17.02 31.67 15.04 31.34 13 31 C13 33.64 13 36.28 13 39 C12.34 39 11.68 39 11 39 C10.01 42.96 9.02 46.92 8 51 C1.07 51 -5.86 51 -13 51 C-13.25109126 43.55095934 -13.20006081 38.78412892 -10 32 C-9.78369633 30.46451095 -9.61931765 28.92105213 -9.5 27.375 C-9.18122719 23.56273736 -8.40810263 21.08237137 -6 18 C-5.34 17.67 -4.68 17.34 -4 17 C-3.60631483 15.07530912 -3.60631483 15.07530912 -3.5 12.8125 C-3.08764486 8.18823165 -2.0874453 4.17489059 0 0 Z " fill="#A7CDFE" transform="translate(52,21)"/>
<path d="M0 0 C6.93 0 13.86 0 21 0 C20.05708479 9.03627076 18.91414675 17.04223477 16.01953125 25.671875 C14.18187501 31.67066089 13.12588777 37.8332056 12 44 C11.34 44 10.68 44 10 44 C10 46.31 10 48.62 10 51 C3.07 51 -3.86 51 -11 51 C-10.67 47.7 -10.34 44.4 -10 41 C-9.34 41 -8.68 41 -8 41 C-7.938125 39.741875 -7.87625 38.48375 -7.8125 37.1875 C-7.21175692 30.97687665 -5.52511396 25.13210746 -3.87939453 19.13623047 C-2.15673871 12.79549806 -0.93008302 6.51058116 0 0 Z " fill="#065CFB" transform="translate(81,21)"/>
<path d="M0 0 C8.58 0 17.16 0 26 0 C26 8.25 26 16.5 26 25 C24.68 25 23.36 25 22 25 C22 24.34 22 23.68 22 23 C16.06 23 10.12 23 4 23 C4 23.66 4 24.32 4 25 C2.68 25 1.36 25 0 25 C0 16.75 0 8.5 0 0 Z " fill="#86817F" transform="translate(273,24)"/>
<path d="M0 0 C8.25 0 16.5 0 25 0 C25 7.92 25 15.84 25 24 C24.01 24 23.02 24 22 24 C22 23.34 22 22.68 22 22 C15.73 22 9.46 22 3 22 C3 22.66 3 23.32 3 24 C2.01 24 1.02 24 0 24 C0 16.08 0 8.16 0 0 Z " fill="#6D6765" transform="translate(145,25)"/>
<path d="M0 0 C3.15295794 0.57006606 6.0379404 1.74093629 9 2.9375 C10.2684375 3.44603516 10.2684375 3.44603516 11.5625 3.96484375 C13.75852004 4.89744842 15.88066691 5.90599241 18 7 C17.90995971 8.45927364 17.80186312 9.91743083 17.6875 11.375 C17.62949219 12.18710937 17.57148437 12.99921875 17.51171875 13.8359375 C16.78665498 18.31915624 15.30498237 22.65005876 14 27 C7.07 27 0.14 27 -7 27 C-5.87331124 19.11317869 -5.87331124 19.11317869 -4.84375 15.1953125 C-4.62589844 14.36515625 -4.40804687 13.535 -4.18359375 12.6796875 C-3.95800781 11.83664063 -3.73242188 10.99359375 -3.5 10.125 C-3.27441406 9.25875 -3.04882812 8.3925 -2.81640625 7.5 C-1.12871469 1.12871469 -1.12871469 1.12871469 0 0 Z " fill="#065BFA" transform="translate(46,45)"/>
<path d="M0 0 C0.99 0 1.98 0 3 0 C3 0.99 3 1.98 3 3 C4.65 3.33 6.3 3.66 8 4 C7.67 2.68 7.34 1.36 7 0 C8.32 0.33 9.64 0.66 11 1 C11 1.66 11 2.32 11 3 C14.3 3 17.6 3 21 3 C21 3.99 21 4.98 21 6 C20.34 6 19.68 6 19 6 C18.67 7.98 18.34 9.96 18 12 C18.66 12.33 19.32 12.66 20 13 C20 13.66 20 14.32 20 15 C16.37 15 12.74 15 9 15 C9 15.66 9 16.32 9 17 C12.96 17 16.92 17 21 17 C21 17.66 21 18.32 21 19 C19.35 19.33 17.7 19.66 16 20 C17.98 20.33 19.96 20.66 22 21 C21.67 21.99 21.34 22.98 21 24 C15.58461538 24.36923077 15.58461538 24.36923077 12.625 22.5 C12.08875 22.005 11.5525 21.51 11 21 C10.67 22.32 10.34 23.64 10 25 C9.01 25 8.02 25 7 25 C6.67 23.35 6.34 21.7 6 20 C4.9275 20.66 3.855 21.32 2.75 22 C-0.30980686 23.88295807 -1.1335864 24 -5 24 C-5 23.34 -5 22.68 -5 22 C-3.35 21.34 -1.7 20.68 0 20 C-1.65 19.67 -3.3 19.34 -5 19 C-5 18.34 -5 17.68 -5 17 C-4.01 17 -3.02 17 -2 17 C-2.33 14.36 -2.66 11.72 -3 9 C-3.99 9.33 -4.98 9.66 -6 10 C-5.49111733 5.58968355 -2.96550928 3.10672401 0 0 Z " fill="#4E4845" transform="translate(246,24)"/>
<path d="M0 0 C1.32 0 2.64 0 4 0 C4 0.99 4 1.98 4 3 C8.29 3 12.58 3 17 3 C17 4.32 17 5.64 17 7 C15.68 7.33 14.36 7.66 13 8 C13 13.61 13 19.22 13 25 C11.35 25.33 9.7 25.66 8 26 C7.67 25.01 7.34 24.02 7 23 C7.99 22.01 8.98 21.02 10 20 C6.37 20 2.74 20 -1 20 C-1 21.98 -1 23.96 -1 26 C-2.32 26 -3.64 26 -5 26 C-5.33 22.37 -5.66 18.74 -6 15 C-7.65 15.33 -9.3 15.66 -11 16 C-9.76210371 12.28631113 -8.14775123 11.22645819 -5 9 C-4.34 9 -3.68 9 -3 9 C-3 8.01 -3 7.02 -3 6 C-5.64 6 -8.28 6 -11 6 C-11 5.34 -11 4.68 -11 4 C-7.7 3.67 -4.4 3.34 -1 3 C-0.67 2.01 -0.34 1.02 0 0 Z " fill="#766F6D" transform="translate(315,23)"/>
<path d="M0 0 C0.99 0 1.98 0 3 0 C3 1.65 3 3.3 3 5 C6.63 5 10.26 5 14 5 C14 9.29 14 13.58 14 18 C12.68 18 11.36 18 10 18 C10 17.34 10 16.68 10 16 C7.69 16 5.38 16 3 16 C3 18.97 3 21.94 3 25 C2.01 25 1.02 25 0 25 C0 22.03 0 19.06 0 16 C-4.95 16.495 -4.95 16.495 -10 17 C-10 13.04 -10 9.08 -10 5 C-6.7 5 -3.4 5 0 5 C0 3.35 0 1.7 0 0 Z " fill="#443C3A" transform="translate(124,24)"/>
<path d="M0 0 C4.62 0 9.24 0 14 0 C15.33928571 14.33035714 15.33928571 14.33035714 13 19 C13.66 19 14.32 19 15 19 C15 19.99 15 20.98 15 22 C14.26394531 21.98839844 13.52789062 21.97679688 12.76953125 21.96484375 C11.79371094 21.95582031 10.81789063 21.94679688 9.8125 21.9375 C8.84957031 21.92589844 7.88664062 21.91429688 6.89453125 21.90234375 C3.62396939 21.9339911 3.62396939 21.9339911 -1 23 C-0.67 15.41 -0.34 7.82 0 0 Z " fill="#9A9593" transform="translate(348,25)"/>
<path d="M0 0 C1.3003418 0.45826172 1.3003418 0.45826172 2.62695312 0.92578125 C3.52478516 1.25449219 4.42261719 1.58320312 5.34765625 1.921875 C6.24162109 2.23511719 7.13558594 2.54835937 8.05664062 2.87109375 C12.45803173 4.4460533 16.51153178 6.0348096 20.41015625 8.671875 C19.84409346 13.36210954 19.2247812 18.01687526 18.41015625 22.671875 C18.08015625 22.671875 17.75015625 22.671875 17.41015625 22.671875 C16.91515625 18.216875 16.91515625 18.216875 16.41015625 13.671875 C13.44015625 13.176875 13.44015625 13.176875 10.41015625 12.671875 C10.41015625 15.311875 10.41015625 17.951875 10.41015625 20.671875 C9.75015625 20.671875 9.09015625 20.671875 8.41015625 20.671875 C8.74015625 18.031875 9.07015625 15.391875 9.41015625 12.671875 C8.86488281 12.55972656 8.31960937 12.44757812 7.7578125 12.33203125 C3.95989576 11.26406465 0.5187458 9.43080595 -3.03125 7.73046875 C-5.59037094 6.48071987 -5.59037094 6.48071987 -8.58984375 6.671875 C-8.73083496 7.23173096 -8.87182617 7.79158691 -9.01708984 8.3684082 C-9.6603744 10.90861826 -10.31250299 13.44647626 -10.96484375 15.984375 C-11.1865625 16.86544922 -11.40828125 17.74652344 -11.63671875 18.65429688 C-11.85585938 19.50185547 -12.075 20.34941406 -12.30078125 21.22265625 C-12.49978027 22.00294189 -12.6987793 22.78322754 -12.90380859 23.5871582 C-13.58984375 25.671875 -13.58984375 25.671875 -15.58984375 28.671875 C-15.90777038 22.63126897 -15.04749592 19.27532196 -12.58984375 13.671875 C-12.37500562 12.13618022 -12.20994556 10.59286641 -12.08984375 9.046875 C-11.7582318 5.23658862 -11.12621108 2.67793998 -8.58984375 -0.328125 C-5.28828404 -1.61346842 -3.2832807 -1.16843689 0 0 Z " fill="#A8CBFC" transform="translate(54.58984375,39.328125)"/>
<path d="M0 0 C1.32 0 2.64 0 4 0 C4 0.99 4 1.98 4 3 C3.34 3 2.68 3 2 3 C2 4.65 2 6.3 2 8 C3.98 7.67 5.96 7.34 8 7 C8 4.69 8 2.38 8 0 C8.99 0 9.98 0 11 0 C11 1.65 11 3.3 11 5 C11.5775 4.484375 12.155 3.96875 12.75 3.4375 C15 2 15 2 17.25 2.3125 C17.8275 2.539375 18.405 2.76625 19 3 C18 5 18 5 15 6.375 C11.86591729 7.65905291 11.86591729 7.65905291 11.125 10.1875 C11.08375 10.785625 11.0425 11.38375 11 12 C13.97065509 11.65772428 13.97065509 11.65772428 17 11 C17.33 10.34 17.66 9.68 18 9 C18.99 9.33 19.98 9.66 21 10 C20.67 11.32 20.34 12.64 20 14 C16.37 14 12.74 14 9 14 C9 14.99 9 15.98 9 17 C12.96 17 16.92 17 21 17 C21 17.66 21 18.32 21 19 C17.04 19 13.08 19 9 19 C9 20.98 9 22.96 9 25 C8.01 25 7.02 25 6 25 C6 23.02 6 21.04 6 19 C2.04 19 -1.92 19 -6 19 C-6 18.34 -6 17.68 -6 17 C-2.04 17 1.92 17 6 17 C6 16.01 6 15.02 6 14 C6.66 14 7.32 14 8 14 C8 12.68 8 11.36 8 10 C5.03 9.505 5.03 9.505 2 9 C2 10.98 2 12.96 2 15 C0.68 15 -0.64 15 -2 15 C-2.33 13.35 -2.66 11.7 -3 10 C-3.99 10 -4.98 10 -6 10 C-5.75 8.125 -5.75 8.125 -5 6 C-3.66666667 5.33333333 -2.33333333 4.66666667 -1 4 C-0.19471111 1.94999129 -0.19471111 1.94999129 0 0 Z " fill="#463F3D" transform="translate(182,24)"/>
<path d="M0 0 C7.59 0 15.18 0 23 0 C23.020625 3.609375 23.04125 7.21875 23.0625 10.9375 C23.071604 12.07695068 23.08070801 13.21640137 23.09008789 14.39038086 C23.09258545 15.28120361 23.09508301 16.17202637 23.09765625 17.08984375 C23.10551147 18.46450806 23.10551147 18.46450806 23.11352539 19.86694336 C23 22 23 22 22 23 C20.33382885 23.04063832 18.66611905 23.042721 17 23 C17 22.34 17 21.68 17 21 C17.66 21 18.32 21 19 21 C19 16.71 19 12.42 19 8 C12.07 8 5.14 8 -2 8 C-2 6.68 -2 5.36 -2 4 C-1.34 3.67 -0.68 3.34 0 3 C0 2.01 0 1.02 0 0 Z " fill="#C8C4C3" transform="translate(403,25)"/>
<path d="M0 0 C5.94 0 11.88 0 18 0 C18 5.61 18 11.22 18 17 C16.02 17 14.04 17 12 17 C12.33 13.37 12.66 9.74 13 6 C14.32 6 15.64 6 17 6 C17 5.34 17 4.68 17 4 C15.35 4 13.7 4 12 4 C12 3.01 12 2.02 12 1 C11.34 1 10.68 1 10 1 C10 1.99 10 2.98 10 4 C7.03 4 4.06 4 1 4 C1 4.66 1 5.32 1 6 C3.31 6 5.62 6 8 6 C6.03681826 9.53372712 3.95929119 12.24479785 1 15 C4.26460973 13.19587357 5.88929795 12.16605307 8 9 C8.66 9 9.32 9 10 9 C10 10.98 10 12.96 10 15 C9.01 15 8.02 15 7 15 C7 15.66 7 16.32 7 17 C4.69 17 2.38 17 0 17 C0 11.39 0 5.78 0 0 Z " fill="#E7E4E3" transform="translate(277,27)"/>
<path d="M0 0 C6.6 0 13.2 0 20 0 C19.34 4.29 18.68 8.58 18 13 C11.28460827 11.70024676 5.27980887 9.70071112 -1 7 C-0.67 4.69 -0.34 2.38 0 0 Z " fill="#065BF9" transform="translate(52,21)"/>
<path d="M0 0 C6.27 0 12.54 0 19 0 C19 5.94 19 11.88 19 18 C12.73 18 6.46 18 0 18 C0 17.34 0 16.68 0 16 C5.94 16 11.88 16 18 16 C18 15.01 18 14.02 18 13 C17.34 13 16.68 13 16 13 C15.67 12.01 15.34 11.02 15 10 C15.66 10 16.32 10 17 10 C17 9.01 17 8.02 17 7 C15.02 7 13.04 7 11 7 C11 6.34 11 5.68 11 5 C13.31 5 15.62 5 18 5 C18 4.01 18 3.02 18 2 C12.72 2 7.44 2 2 2 C2 2.99 2 3.98 2 5 C3.98 5 5.96 5 8 5 C8 5.66 8 6.32 8 7 C6.02 7 4.04 7 2 7 C2 7.99 2 8.98 2 10 C3.98 10 5.96 10 8 10 C8 10.99 8 11.98 8 13 C5.36 13 2.72 13 0 13 C0 8.71 0 4.42 0 0 Z " fill="#E4E0DF" transform="translate(148,27)"/>
<path d="M0 0 C8.25 0 16.5 0 25 0 C25 7.92 25 15.84 25 24 C24.01 24 23.02 24 22 24 C22 16.74 22 9.48 22 2 C15.4 2 8.8 2 2 2 C2 8.93 2 15.86 2 23 C1.34 23 0.68 23 0 23 C0 15.41 0 7.82 0 0 Z " fill="#423B39" transform="translate(145,25)"/>
<path d="M0 0 C3.96 0 7.92 0 12 0 C12 4.62 12 9.24 12 14 C10.35 14.33 8.7 14.66 7 15 C7 14.01 7 13.02 7 12 C7.66 12 8.32 12 9 12 C9 11.34 9 10.68 9 10 C7.02 10 5.04 10 3 10 C3 11.65 3 13.3 3 15 C2.01 15 1.02 15 0 15 C0 10.05 0 5.1 0 0 Z " fill="#524B48" transform="translate(209,34)"/>
<path d="M0 0 C0.99 0 1.98 0 3 0 C3 1.32 3 2.64 3 4 C3.99 4 4.98 4 6 4 C6 3.34 6 2.68 6 2 C7.65 2.33 9.3 2.66 11 3 C8 5 8 5 5.875 6 C3.82955462 6.85860158 3.82955462 6.85860158 3 9 C4.98 9 6.96 9 9 9 C9 8.34 9 7.68 9 7 C9.99 7 10.98 7 12 7 C12 7.99 12 8.98 12 10 C9.04335481 11.4783226 6.25770263 11.06032783 3 11 C3 12.65 3 14.3 3 16 C5.31 15.34 7.62 14.68 10 14 C10 14.66 10 15.32 10 16 C9.030625 16.433125 8.06125 16.86625 7.0625 17.3125 C3.72268235 18.7014861 3.72268235 18.7014861 3 22 C4.98 22 6.96 22 9 22 C9 21.01 9 20.02 9 19 C10.32 19.33 11.64 19.66 13 20 C12.34 21.32 11.68 22.64 11 24 C9.35425434 24.02688151 7.70838587 24.04634123 6.0625 24.0625 C5.14597656 24.07410156 4.22945312 24.08570312 3.28515625 24.09765625 C1 24 1 24 0 23 C-0.08713831 21.29227642 -0.10700007 19.58101351 -0.09765625 17.87109375 C-0.09443359 16.83662109 -0.09121094 15.80214844 -0.08789062 14.73632812 C-0.07951172 13.64771484 -0.07113281 12.55910156 -0.0625 11.4375 C-0.05798828 10.34501953 -0.05347656 9.25253906 -0.04882812 8.12695312 C-0.03699826 5.41791505 -0.02051543 2.70898401 0 0 Z " fill="#4F4845" transform="translate(223,24)"/>
<path d="M0 0 C0.33 0.66 0.66 1.32 1 2 C4.3 2 7.6 2 11 2 C11 2.99 11 3.98 11 5 C10.34 5 9.68 5 9 5 C8.32198966 7.90073181 8.32198966 7.90073181 8 11 C8.66 11.66 9.32 12.32 10 13 C3.73 13 -2.54 13 -9 13 C-9 10.03 -9 7.06 -9 4 C-6.36 4 -3.72 4 -1 4 C-0.67 2.68 -0.34 1.36 0 0 Z " fill="#7F7977" transform="translate(256,25)"/>
<path d="M0 0 C4.29 0 8.58 0 13 0 C13 3.3 13 6.6 13 10 C12.34 10 11.68 10 11 10 C11 9.01 11 8.02 11 7 C8.03 7 5.06 7 2 7 C2 10.96 2 14.92 2 19 C3.32 18.67 4.64 18.34 6 18 C5.3125 19.9375 5.3125 19.9375 4 22 C2.35 22.33 0.7 22.66 -1 23 C-0.67 15.41 -0.34 7.82 0 0 Z " fill="#554E4C" transform="translate(348,25)"/>
<path d="M0 0 C0.99 0 1.98 0 3 0 C1.66511872 3.59391114 0.03977277 6.75490696 -2 10 C0.64 9.67 3.28 9.34 6 9 C6 7.68 6 6.36 6 5 C9.79379058 6.49041773 11.68343758 8.69062512 14 12 C14 12.66 14 13.32 14 14 C6.41 14 -1.18 14 -9 14 C-9 12.68 -9 11.36 -9 10 C-8.38125 9.938125 -7.7625 9.87625 -7.125 9.8125 C-4.76212503 9.19306477 -4.76212503 9.19306477 -3.9375 6.6875 C-3.628125 5.800625 -3.31875 4.91375 -3 4 C-1.5625 1.6875 -1.5625 1.6875 0 0 Z " fill="#544C4A" transform="translate(380,34)"/>
<path d="M0 0 C7.92 0 15.84 0 24 0 C24 7.59 24 15.18 24 23 C23.34 23 22.68 23 22 23 C22 16.07 22 9.14 22 2 C15.4 2 8.8 2 2 2 C2 8.93 2 15.86 2 23 C1.34 23 0.68 23 0 23 C0 15.41 0 7.82 0 0 Z " fill="#48403E" transform="translate(274,25)"/>
<path d="M0 0 C0.99 0.66 1.98 1.32 3 2 C3.39570119 5.0996593 3.49754211 7.12198451 1.9375 9.875 C-1.1069286 11.64273274 -3.5631012 11.36823916 -7 11 C-8.9375 9.875 -8.9375 9.875 -10 8 C-10.375 4.9375 -10.375 4.9375 -10 2 C-6.31282562 -0.45811625 -4.35654296 -0.31118164 0 0 Z " fill="#6C6866" transform="translate(367,57)"/>
<path d="M0 0 C0.33 0.99 0.66 1.98 1 3 C4.96 3 8.92 3 13 3 C13.33 2.01 13.66 1.02 14 0 C15 1 15 1 15.09765625 3.72265625 C15.08605469 4.82480469 15.07445312 5.92695312 15.0625 7.0625 C15.05347656 8.16722656 15.04445313 9.27195312 15.03515625 10.41015625 C15.02355469 11.26480469 15.01195312 12.11945312 15 13 C14.34 13 13.68 13 13 13 C13 11.68 13 10.36 13 9 C9.04 9 5.08 9 1 9 C1 10.65 1 12.3 1 14 C0.34 14 -0.32 14 -1 14 C-1.02694851 12.04174127 -1.04637218 10.08337774 -1.0625 8.125 C-1.07410156 7.03445312 -1.08570313 5.94390625 -1.09765625 4.8203125 C-1 2 -1 2 0 0 Z " fill="#3A3331" transform="translate(312,34)"/>
<path d="M0 0 C2.31 0 4.62 0 7 0 C7 3.96 7 7.92 7 12 C4.36 12 1.72 12 -1 12 C-1 10.35 -1 8.7 -1 7 C-2.98 7 -4.96 7 -7 7 C-7 8.32 -7 9.64 -7 11 C-7.66 11 -8.32 11 -9 11 C-9 7.7 -9 4.4 -9 1 C-8.34 1 -7.68 1 -7 1 C-7 2.32 -7 3.64 -7 5 C-4.69 5 -2.38 5 0 5 C0 3.35 0 1.7 0 0 Z " fill="#ABA7A6" transform="translate(136,56)"/>
<path d="M0 0 C3.39471203 -0.37033222 5.88907484 -0.60921702 8.9375 1.0625 C10.60921702 4.11092516 10.37033222 6.60528797 10 10 C6.32003497 12.45331002 4.34586828 12.39507893 0 12 C-2.31332486 8.53001271 -2.33957563 7.07490752 -2 3 C-1.34 2.01 -0.68 1.02 0 0 Z " fill="#E1E0DF" transform="translate(345,56)"/>
<path d="M0 0 C2 2 2 2 2.25 4.9375 C2 8 2 8 0 11 C-1.875 11.328125 -1.875 11.328125 -4 11.25 C-4.70125 11.23453125 -5.4025 11.2190625 -6.125 11.203125 C-8 11 -8 11 -10 10 C-10.29296875 3.9453125 -10.29296875 3.9453125 -10 2 C-6.32653229 -0.44897847 -4.33643601 -0.31537716 0 0 Z " fill="#5D5856" transform="translate(309,57)"/>
<path d="M0 0 C0.99 0 1.98 0 3 0 C3 0.99 3 1.98 3 3 C4.65 3.33 6.3 3.66 8 4 C7.67 2.68 7.34 1.36 7 0 C7.99 0 8.98 0 10 0 C10 1.32 10 2.64 10 4 C13.3 4 16.6 4 20 4 C20 4.33 20 4.66 20 5 C16.37 5 12.74 5 9 5 C9 6.65 9 8.3 9 10 C8.67 10 8.34 10 8 10 C8 8.35 8 6.7 8 5 C5.69 5 3.38 5 1 5 C1 7.97 1 10.94 1 14 C2.093125 13.814375 3.18625 13.62875 4.3125 13.4375 C9.60695693 12.75311778 14.72481308 13.36969274 20 14 C20 14.33 20 14.66 20 15 C16.37 15 12.74 15 9 15 C9 15.66 9 16.32 9 17 C8.34 17 7.68 17 7 17 C7 16.34 7 15.68 7 15 C4.36 15.33 1.72 15.66 -1 16 C-1 13.36 -1 10.72 -1 8 C-2.65 8.66 -4.3 9.32 -6 10 C-5.49111733 5.58968355 -2.96550928 3.10672401 0 0 Z " fill="#3B3432" transform="translate(246,24)"/>
<path d="M0 0 C7.26 0 14.52 0 22 0 C22.020625 3.609375 22.04125 7.21875 22.0625 10.9375 C22.071604 12.07695068 22.08070801 13.21640137 22.09008789 14.39038086 C22.09258545 15.28120361 22.09508301 16.17202637 22.09765625 17.08984375 C22.10551147 18.46450806 22.10551147 18.46450806 22.11352539 19.86694336 C22 22 22 22 21 23 C19.33382885 23.04063832 17.66611905 23.042721 16 23 C16 22.34 16 21.68 16 21 C16.66 20.67 17.32 20.34 18 20 C18.33 14.06 18.66 8.12 19 2 C12.73 2 6.46 2 0 2 C0 1.34 0 0.68 0 0 Z " fill="#4D4644" transform="translate(404,25)"/>
<path d="M0 0 C4.29 0 8.58 0 13 0 C13 2.97 13 5.94 13 9 C9.37 8.67 5.74 8.34 2 8 C2 8.66 2 9.32 2 10 C1.34 10 0.68 10 0 10 C0 6.7 0 3.4 0 0 Z " fill="#48413F" transform="translate(405,35)"/>
<path d="M0 0 C0.99 0 1.98 0 3 0 C3 1.65 3 3.3 3 5 C6.63 5 10.26 5 14 5 C14 9.29 14 13.58 14 18 C12.68 17.67 11.36 17.34 10 17 C10.99 17 11.98 17 13 17 C13 13.37 13 9.74 13 6 C12.01 6.495 12.01 6.495 11 7 C11 9.31 11 11.62 11 14 C8.03 14 5.06 14 2 14 C1.67 11.03 1.34 8.06 1 5 C0.67 5 0.34 5 0 5 C0 3.35 0 1.7 0 0 Z " fill="#6F6866" transform="translate(124,24)"/>
<path d="M0 0 C2.97 0 5.94 0 9 0 C9 0.66 9 1.32 9 2 C9.66 2 10.32 2 11 2 C11 5.3 11 8.6 11 12 C10.01 12 9.02 12 8 12 C8 10.68 8 9.36 8 8 C6.35 8 4.7 8 3 8 C3 9.32 3 10.64 3 12 C2.01 12 1.02 12 0 12 C0 8.04 0 4.08 0 0 Z " fill="#7F7A78" transform="translate(286,56)"/>
<path d="M0 0 C2.97 0 5.94 0 9 0 C8.91621094 0.65226562 8.83242188 1.30453125 8.74609375 1.9765625 C8.16571299 6.95755184 8.1316443 11.03796741 9 16 C8.34 16.66 7.68 17.32 7 18 C6.01 18 5.02 18 4 18 C4 17.34 4 16.68 4 16 C4.66 16 5.32 16 6 16 C5.67 15.071875 5.34 14.14375 5 13.1875 C3.56448305 8.61178972 4.14313047 6.29401079 6 2 C4.68 2 3.36 2 2 2 C2 8.93 2 15.86 2 23 C1.34 23 0.68 23 0 23 C0 15.41 0 7.82 0 0 Z " fill="#494340" transform="translate(337,25)"/>
<path d="M0 0 C6.0546875 -0.1953125 6.0546875 -0.1953125 8 0 C10 2 10 2 10.3125 5.5 C10.1578125 7.2325 10.1578125 7.2325 10 9 C6.3558226 11.4294516 4.28758728 11.16179575 0 11 C0 7.37 0 3.74 0 0 Z " fill="#544F4D" transform="translate(411,57)"/>
<path d="M0 0 C5.28 0 10.56 0 16 0 C16 0.99 16 1.98 16 3 C13.69 3 11.38 3 9 3 C9 3.99 9 4.98 9 6 C10.65 6 12.3 6 14 6 C14 6.33 14 6.66 14 7 C12.35 7.33 10.7 7.66 9 8 C8.67 9.65 8.34 11.3 8 13 C5.36 13 2.72 13 0 13 C0 12.67 0 12.34 0 12 C1.98 12 3.96 12 6 12 C6 10.68 6 9.36 6 8 C4.02 8 2.04 8 0 8 C0 7.01 0 6.02 0 5 C1.98 5 3.96 5 6 5 C6 4.34 6 3.68 6 3 C4.02 3 2.04 3 0 3 C0 2.01 0 1.02 0 0 Z " fill="#372E2C" transform="translate(150,29)"/>
<path d="M0 0 C8.25 0 16.5 0 25 0 C25 0.33 25 0.66 25 1 C20.71 1 16.42 1 12 1 C12 7.6 12 14.2 12 21 C10.68 20.01 9.36 19.02 8 18 C8.185625 17.319375 8.37125 16.63875 8.5625 15.9375 C9.16557733 12.9043392 9.16557733 12.9043392 8.4375 9.5 C7.98066139 5.84529111 8.3419107 4.21864393 10 1 C7.03 1 4.06 1 1 1 C1 8.59 1 16.18 1 24 C0.67 24 0.34 24 0 24 C0 16.08 0 8.16 0 0 Z " fill="#B5B1B0" transform="translate(336,24)"/>
<path d="M0 0 C0.66 0 1.32 0 2 0 C2 0.99 2 1.98 2 3 C3.65 3 5.3 3 7 3 C7 3.66 7 4.32 7 5 C5.68 5 4.36 5 3 5 C3 8.3 3 11.6 3 15 C1.02 15.33 -0.96 15.66 -3 16 C-3 15.34 -3 14.68 -3 14 C-2.01 14 -1.02 14 0 14 C0 12.02 0 10.04 0 8 C-0.66 8 -1.32 8 -2 8 C-2.28875 8.61875 -2.5775 9.2375 -2.875 9.875 C-4 12 -4 12 -6 14 C-6.99 14 -7.98 14 -9 14 C-7.768606 10.30581799 -5.79208646 8.64890254 -3 6 C-5.97 5.505 -5.97 5.505 -9 5 C-9 4.34 -9 3.68 -9 3 C-6.03 3 -3.06 3 0 3 C0 2.01 0 1.02 0 0 Z " fill="#463F3D" transform="translate(287,28)"/>
<path d="M0 0 C0.66 0 1.32 0 2 0 C2 2.31 2 4.62 2 7 C7.28 7 12.56 7 18 7 C18.33 5.68 18.66 4.36 19 3 C19.33 3 19.66 3 20 3 C20 5.31 20 7.62 20 10 C13.07 10 6.14 10 -1 10 C-0.67 6.7 -0.34 3.4 0 0 Z " fill="#3173EE" transform="translate(71,62)"/>
<path d="M0 0 C3.3 0 6.6 0 10 0 C10 0.99 10 1.98 10 3 C7.69 3 5.38 3 3 3 C3 3.66 3 4.32 3 5 C4.98 5 6.96 5 9 5 C9 5.66 9 6.32 9 7 C7.02 7 5.04 7 3 7 C3 7.99 3 8.98 3 10 C5.31 10 7.62 10 10 10 C10 10.66 10 11.32 10 12 C6.7 12 3.4 12 0 12 C0 8.04 0 4.08 0 0 Z " fill="#837E7C" transform="translate(227,56)"/>
<path d="M0 0 C1.00023193 0.00523682 2.00046387 0.01047363 3.03100586 0.01586914 C4.1105957 0.0190918 5.19018555 0.02231445 6.30249023 0.02563477 C8.00695312 0.03820312 8.00695312 0.03820312 9.74584961 0.05102539 C11.45611328 0.05779297 11.45611328 0.05779297 13.20092773 0.06469727 C16.02845312 0.07652792 18.85587601 0.09301129 21.68334961 0.11352539 C22.30444336 1.97290039 22.30444336 1.97290039 22.68334961 4.11352539 C20.74584961 6.36352539 20.74584961 6.36352539 18.68334961 8.11352539 C19.01334961 6.13352539 19.34334961 4.15352539 19.68334961 2.11352539 C13.08334961 2.11352539 6.48334961 2.11352539 -0.31665039 2.11352539 C-1.30665039 6.07352539 -2.29665039 10.03352539 -3.31665039 14.11352539 C-2.65665039 14.44352539 -1.99665039 14.77352539 -1.31665039 15.11352539 C-2.30665039 15.11352539 -3.29665039 15.11352539 -4.31665039 15.11352539 C-4.17638756 12.80068083 -4.02929481 10.48824949 -3.87915039 8.17602539 C-3.79793945 6.88825195 -3.71672852 5.60047852 -3.63305664 4.27368164 C-3.22096377 0.15784046 -3.22096377 0.15784046 0 0 Z " fill="#B9D5FC" transform="translate(52.316650390625,18.886474609375)"/>
<path d="M0 0 C9.28301289 2.20853111 17.50422762 5.72254616 26 10 C26 10.66 26 11.32 26 12 C22.4077002 11.36306741 19.12081759 10.4129328 15.69921875 9.15234375 C14.72275391 8.79462891 13.74628906 8.43691406 12.74023438 8.06835938 C11.73283203 7.69517578 10.72542969 7.32199219 9.6875 6.9375 C8.66076172 6.56044922 7.63402344 6.18339844 6.57617188 5.79492188 C4.04956113 4.86653932 1.52424239 3.93479871 -1 3 C-0.67 2.01 -0.34 1.02 0 0 Z " fill="#3F78E1" transform="translate(49,35)"/>
<path d="M0 0 C4.93512094 1.46719812 9.50135509 3.53889612 14.1640625 5.69140625 C18.0906951 7.50328218 22.04469104 9.2518511 26 11 C25.67 11.66 25.34 12.32 25 13 C20.38 11.68 15.76 10.36 11 9 C11 8.34 11 7.68 11 7 C10.37351562 6.86722656 9.74703125 6.73445313 9.1015625 6.59765625 C8.28429688 6.42105469 7.46703125 6.24445312 6.625 6.0625 C5.81289063 5.88847656 5.00078125 5.71445312 4.1640625 5.53515625 C2 5 2 5 0 4 C0 2.68 0 1.36 0 0 Z " fill="#1C63E6" transform="translate(47,39)"/>
<path d="M0 0 C1.37370799 4.39928913 0.24126996 7.92886029 -0.9375 12.25 C-1.618125 14.8075 -2.29875 17.365 -3 20 C-9.93 20 -16.86 20 -24 20 C-23 13 -23 13 -21 10 C-21.33 12.64 -21.66 15.28 -22 18 C-16.06 18 -10.12 18 -4 18 C-2.94530878 13.49998412 -1.95358385 9.09481104 -1.4375 4.5 C-1 1 -1 1 0 0 Z " fill="#447FEB" transform="translate(63,52)"/>
<path d="M0 0 C1.32 0 2.64 0 4 0 C4 0.99 4 1.98 4 3 C3.34 3 2.68 3 2 3 C2.185625 3.86625 2.37125 4.7325 2.5625 5.625 C3.00667933 9.05152628 2.71954492 11.64212371 2 15 C0.68 15 -0.64 15 -2 15 C-2.33 13.35 -2.66 11.7 -3 10 C-3.99 10 -4.98 10 -6 10 C-5.75 8.125 -5.75 8.125 -5 6 C-3.66666667 5.33333333 -2.33333333 4.66666667 -1 4 C-0.19471111 1.94999129 -0.19471111 1.94999129 0 0 Z " fill="#7C7573" transform="translate(182,24)"/>
<path d="M0 0 C4.59037956 1.14759489 5.33669182 2.29039218 8 6 C8.33 4.02 8.66 2.04 9 0 C9.66 0 10.32 0 11 0 C11 3.63 11 7.26 11 11 C10.01 11 9.02 11 8 11 C5.8125 8.5 5.8125 8.5 4 6 C3.67 7.65 3.34 9.3 3 11 C2.01 11 1.02 11 0 11 C0 7.37 0 3.74 0 0 Z " fill="#6F6A68" transform="translate(239,57)"/>
<path d="M0 0 C2.97 0 5.94 0 9 0 C9.38218767 1.65614657 9.71395102 3.32457024 10 5 C9 6 9 6 5.9375 6.0625 C4.968125 6.041875 3.99875 6.02125 3 6 C3 7.65 3 9.3 3 11 C2.01 11 1.02 11 0 11 C0 7.37 0 3.74 0 0 Z " fill="#888382" transform="translate(326,57)"/>
<path d="M0 0 C0.99 0 1.98 0 3 0 C5.1875 2.5 5.1875 2.5 7 5 C7.33 3.35 7.66 1.7 8 0 C8.99 0 9.98 0 11 0 C11 3.63 11 7.26 11 11 C7 10 7 10 4.75 6.9375 C3.88375 5.4834375 3.88375 5.4834375 3 4 C2.67 5.98 2.34 7.96 2 10 C1.34 10 0.68 10 0 10 C0 6.7 0 3.4 0 0 Z " fill="#7A7573" transform="translate(214,57)"/>
<path d="M0 0 C0 2.97 0 5.94 0 9 C-0.99 9 -1.98 9 -3 9 C-3 9.99 -3 10.98 -3 12 C-4.98 12 -6.96 12 -9 12 C-8.875 10.125 -8.875 10.125 -8 8 C-4.9375 6.75 -4.9375 6.75 -2 6 C-2 5.34 -2 4.68 -2 4 C-4.31 4.66 -6.62 5.32 -9 6 C-9 4.35 -9 2.7 -9 1 C-2.25 0 -2.25 0 0 0 Z " fill="#CDCAC9" transform="translate(235,34)"/>
<path d="M0 0 C0.94875 0.04125 1.8975 0.0825 2.875 0.125 C3.535 1.445 4.195 2.765 4.875 4.125 C2.565 3.795 0.255 3.465 -2.125 3.125 C-2.785 5.105 -3.445 7.085 -4.125 9.125 C-1.815 9.125 0.495 9.125 2.875 9.125 C3.205 8.465 3.535 7.805 3.875 7.125 C2.555 6.795 1.235 6.465 -0.125 6.125 C1.855 6.125 3.835 6.125 5.875 6.125 C5.875 8.105 5.875 10.085 5.875 12.125 C4.25081255 12.20590971 2.62548255 12.26414995 1 12.3125 C-0.35738281 12.36470703 -0.35738281 12.36470703 -1.7421875 12.41796875 C-2.92167969 12.27294922 -2.92167969 12.27294922 -4.125 12.125 C-6.125 9.125 -6.125 9.125 -5.875 5.5625 C-4.92743056 1.21947341 -4.52038945 0.18081558 0 0 Z " fill="#6E6967" transform="translate(258.125,55.875)"/>
<path d="M0 0 C8.8711936 2.19170665 16.82521081 6.02160259 25 10 C25 10.66 25 11.32 25 12 C16.60764702 10.08270894 8.45563042 7.37761786 1 3 C0.67 2.01 0.34 1.02 0 0 Z " fill="#3873E1" transform="translate(51,30)"/>
<path d="M0 0 C0.99 0 1.98 0 3 0 C3 1.32 3 2.64 3 4 C7.29 4 11.58 4 16 4 C16 4.66 16 5.32 16 6 C-3.00455581 7.33257403 -3.00455581 7.33257403 -11 6 C-11 5.34 -11 4.68 -11 4 C-7.7 3.67 -4.4 3.34 -1 3 C-0.67 2.01 -0.34 1.02 0 0 Z " fill="#302926" transform="translate(315,23)"/>
<path d="M0 0 C0.66 0.33 1.32 0.66 2 1 C2 1.66 2 2.32 2 3 C-0.97 2.67 -3.94 2.34 -7 2 C-6.67 3.98 -6.34 5.96 -6 8 C-4.35 8.33 -2.7 8.66 -1 9 C-1 8.34 -1 7.68 -1 7 C-1.99 7 -2.98 7 -4 7 C-4 6.34 -4 5.68 -4 5 C-2.02 5 -0.04 5 2 5 C2 6.98 2 8.96 2 11 C0.54207116 11.05399736 -0.91642712 11.09279177 -2.375 11.125 C-3.18710937 11.14820312 -3.99921875 11.17140625 -4.8359375 11.1953125 C-7 11 -7 11 -9 9 C-9.3125 5.5 -9.3125 5.5 -9 2 C-5.54337669 -0.30441554 -4.05142119 -0.25860135 0 0 Z " fill="#7F7A78" transform="translate(281,57)"/>
<path d="M0 0 C0.66 0 1.32 0 2 0 C2 1.32 2 2.64 2 4 C3.98 4 5.96 4 8 4 C8 2.68 8 1.36 8 0 C8.99 0 9.98 0 11 0 C11 3.63 11 7.26 11 11 C10.01 11 9.02 11 8 11 C8 9.35 8 7.7 8 6 C6.02 6 4.04 6 2 6 C2 7.65 2 9.3 2 11 C1.34 11 0.68 11 0 11 C0 7.37 0 3.74 0 0 Z " fill="#5F5A58" transform="translate(175,57)"/>
<path d="M0 0 C1.8125 0.125 1.8125 0.125 4 1 C6.28905989 4.67884625 7 6.61551956 7 11 C6.34 11 5.68 11 5 11 C5 10.01 5 9.02 5 8 C3.02 8 1.04 8 -1 8 C-1 8.99 -1 9.98 -1 11 C-1.99 11 -2.98 11 -4 11 C-3.48964169 6.6109185 -2.47785723 3.66291938 0 0 Z " fill="#7C7674" transform="translate(162,57)"/>
<path d="M0 0 C0.67408308 1.26691507 1.33900497 2.53870749 2 3.8125 C2.556875 4.87404297 2.556875 4.87404297 3.125 5.95703125 C4 8 4 8 4 11 C3.01 11 2.02 11 1 11 C1 10.01 1 9.02 1 8 C-0.98 8 -2.96 8 -5 8 C-5 8.99 -5 9.98 -5 11 C-5.66 11 -6.32 11 -7 11 C-6.39102647 7.44765442 -5.54266151 4.2668126 -4 1 C-2 0 -2 0 0 0 Z " fill="#837E7C" transform="translate(208,57)"/>
<path d="M0 0 C1.32 0.33 2.64 0.66 4 1 C5.125 3 5.125 3 6 5 C6.66 5.33 7.32 5.66 8 6 C8 4.02 8 2.04 8 0 C8.66 0 9.32 0 10 0 C10 3.63 10 7.26 10 11 C6.43688534 9.21844267 4.64354525 7.83236991 2 5 C2 6.98 2 8.96 2 11 C1.34 11 0.68 11 0 11 C0 7.37 0 3.74 0 0 Z " fill="#6C6765" transform="translate(146,57)"/>
<path d="M0 0 C0.99 0 1.98 0 3 0 C3 2.97 3 5.94 3 9 C4.65 8.67 6.3 8.34 8 8 C8.33 5.36 8.66 2.72 9 0 C9.66 0 10.32 0 11 0 C11.05399736 1.45792884 11.09279177 2.91642712 11.125 4.375 C11.14820313 5.18710937 11.17140625 5.99921875 11.1953125 6.8359375 C11 9 11 9 9 11 C2.67741935 11.33870968 2.67741935 11.33870968 0 10 C0 6.7 0 3.4 0 0 Z " fill="#696462" transform="translate(188,57)"/>
<path d="M0 0 C2.31 0 4.62 0 7 0 C7 2.97 7 5.94 7 9 C4.69 9 2.38 9 0 9 C0 6.03 0 3.06 0 0 Z " fill="#797370" transform="translate(247,29)"/>
<path d="M0 0 C0.99 0 1.98 0 3 0 C3 3.63 3 7.26 3 11 C-0.3 10.67 -3.6 10.34 -7 10 C-7 12.97 -7 15.94 -7 19 C-7.66 19 -8.32 19 -9 19 C-9 15.37 -9 11.74 -9 8 C-5.7 8 -2.4 8 1 8 C0.67 5.36 0.34 2.72 0 0 Z " fill="#3B3331" transform="translate(134,30)"/>
<path d="M0 0 C0.66 0 1.32 0 2 0 C1.125 3.875 1.125 3.875 0 5 C1.32 5.33 2.64 5.66 4 6 C4 5.01 4 4.02 4 3 C5.9375 3.75 5.9375 3.75 8 5 C8.33 6.32 8.66 7.64 9 9 C4.38 9 -0.24 9 -5 9 C-3.96483052 4.85932209 -2.83392052 3.09154966 0 0 Z " fill="#56504D" transform="translate(213,24)"/>
<path d="M0 0 C0.66 0 1.32 0 2 0 C2 1.65 2 3.3 2 5 C1.01 5.495 1.01 5.495 0 6 C-0.33 6.99 -0.66 7.98 -1 9 C-3.31 8.67 -5.62 8.34 -8 8 C-8.125 5.625 -8.125 5.625 -8 3 C-7.34 2.34 -6.68 1.68 -6 1 C-2.875 1.375 -2.875 1.375 0 2 C0 1.34 0 0.68 0 0 Z " fill="#D5D3D2" transform="translate(262,57)"/>
<path d="M0 0 C6.6 0 13.2 0 20 0 C20 0.99 20 1.98 20 3 C13.4 3 6.8 3 0 3 C0 2.01 0 1.02 0 0 Z " fill="#6D6866" transform="translate(401,30)"/>
<path d="M0 0 C0.99 0 1.98 0 3 0 C3 1.65 3 3.3 3 5 C3.86625 4.2265625 3.86625 4.2265625 4.75 3.4375 C7 2 7 2 9.25 2.3125 C9.8275 2.539375 10.405 2.76625 11 3 C9.48065294 6.03869411 7.01995228 6.64410306 4 8 C3.34 8 2.68 8 2 8 C1.67 9.32 1.34 10.64 1 12 C1 11.01 1 10.02 1 9 C-0.65 9.33 -2.3 9.66 -4 10 C-4.33 9.34 -4.66 8.68 -5 8 C-3.35 7.67 -1.7 7.34 0 7 C0 4.69 0 2.38 0 0 Z " fill="#433B39" transform="translate(190,24)"/>
<path d="M0 0 C0.66 0.33 1.32 0.66 2 1 C2 1.66 2 2.32 2 3 C-0.97 2.67 -3.94 2.34 -7 2 C-6.67 3.98 -6.34 5.96 -6 8 C-3.36 7.67 -0.72 7.34 2 7 C1 10 1 10 -1 11 C-6.25465839 11.44720497 -6.25465839 11.44720497 -8.875 9.875 C-10.4682099 7.21965017 -10.20214032 5.03210482 -10 2 C-6.59659693 -0.09440189 -3.95562822 -0.25797575 0 0 Z " fill="#827D7B" transform="translate(123,57)"/>
<path d="M0 0 C3.625 -0.1875 3.625 -0.1875 7 0 C7.66 1.32 8.32 2.64 9 4 C6.03 3.67 3.06 3.34 0 3 C0 4.98 0 6.96 0 9 C3.34252724 9.07427838 5.8035914 9.06546953 9 8 C8.34 9.32 7.68 10.64 7 12 C3.625 12.1875 3.625 12.1875 0 12 C-2.31332486 8.53001271 -2.33957563 7.07490752 -2 3 C-1.34 2.01 -0.68 1.02 0 0 Z " fill="#6F6A68" transform="translate(345,56)"/>
<path d="M0 0 C0.33 1.32 0.66 2.64 1 4 C3.97 4 6.94 4 10 4 C10 2.68 10 1.36 10 0 C10.66 0 11.32 0 12 0 C12 2.97 12 5.94 12 9 C11.34 9 10.68 9 10 9 C10 8.01 10 7.02 10 6 C7.03 6 4.06 6 1 6 C1.33 10.62 1.66 15.24 2 20 C1.34 20 0.68 20 0 20 C0 13.4 0 6.8 0 0 Z " fill="#393230" transform="translate(349,26)"/>
<path d="M0 0 C1 1 1 1 1.0625 3.5625 C1.041875 4.366875 1.02125 5.17125 1 6 C-1.3260857 6.38063221 -3.66055264 6.71269945 -6 7 C-7 6 -7 6 -7.0625 2.9375 C-7.041875 1.968125 -7.02125 0.99875 -7 0 C-4.31633121 -1.3418344 -2.84719317 -0.73004953 0 0 Z " fill="#E3E1E0" transform="translate(367,59)"/>
<path d="M0 0 C1 1 1 1 1.0625 3.5625 C1.041875 4.366875 1.02125 5.17125 1 6 C-1.3260857 6.38063221 -3.66055264 6.71269945 -6 7 C-7 6 -7 6 -7.0625 2.9375 C-7.041875 1.968125 -7.02125 0.99875 -7 0 C-4.31633121 -1.3418344 -2.84719317 -0.73004953 0 0 Z " fill="#E5E3E3" transform="translate(308,59)"/>
<path d="M0 0 C1.65 0 3.3 0 5 0 C5 3.63 5 7.26 5 11 C3.02 11 1.04 11 -1 11 C-0.67 7.37 -0.34 3.74 0 0 Z " fill="#ECEBEA" transform="translate(290,33)"/>
<path d="M0 0 C0.33 0 0.66 0 1 0 C1 1.65 1 3.3 1 5 C0.34 5 -0.32 5 -1 5 C-1.02578125 5.64324219 -1.0515625 6.28648438 -1.078125 6.94921875 C-1.56659816 14.73148431 -3.48444371 21.64053531 -6 29 C-6.33 29 -6.66 29 -7 29 C-7.31792663 22.95939397 -6.45765217 19.60344696 -4 14 C-3.78516187 12.46430522 -3.62010181 10.92099141 -3.5 9.375 C-3.18803128 5.57288122 -2.38713071 3.08337716 0 0 Z " fill="#C6DEFD" transform="translate(46,39)"/>
<path d="M0 0 C1.134375 0.020625 2.26875 0.04125 3.4375 0.0625 C3.4375 2.3725 3.4375 4.6825 3.4375 7.0625 C0.7975 7.0625 -1.8425 7.0625 -4.5625 7.0625 C-4.60504356 5.06295254 -4.60330783 3.06208364 -4.5625 1.0625 C-3.5625 0.0625 -3.5625 0.0625 0 0 Z " fill="#AFABA8" transform="translate(120.5625,30.9375)"/>
<path d="M0 0 C1.32 0 2.64 0 4 0 C3.835 0.763125 3.67 1.52625 3.5 2.3125 C2.90854604 5.03596236 2.90854604 5.03596236 3 8 C3.33 8.33 3.66 8.66 4 9 C4.04063832 10.66617115 4.042721 12.33388095 4 14 C3.34 14 2.68 14 2 14 C1.67 16.31 1.34 18.62 1 21 C0.67 21 0.34 21 0 21 C0 14.07 0 7.14 0 0 Z " fill="#BAB6B4" transform="translate(339,27)"/>
<path d="M0 0 C3.3 0 6.6 0 10 0 C10 0.66 10 1.32 10 2 C9.01 2 8.02 2 7 2 C7 5.3 7 8.6 7 12 C6.01 12 5.02 12 4 12 C4 9.03 4 6.06 4 3 C2.68 3 1.36 3 0 3 C0 2.01 0 1.02 0 0 Z " fill="#888583" transform="translate(397,56)"/>
<path d="M0 0 C0.33 0 0.66 0 1 0 C1 2.64 1 5.28 1 8 C3.97 8.495 3.97 8.495 7 9 C7 6.03 7 3.06 7 0 C7.99 0 8.98 0 10 0 C10.25 7.625 10.25 7.625 8 11 C4.4375 11.25 4.4375 11.25 1 11 C0 10 0 10 -0.09765625 7.71484375 C-0.08605469 6.79832031 -0.07445312 5.88179687 -0.0625 4.9375 C-0.05347656 4.01839844 -0.04445313 3.09929688 -0.03515625 2.15234375 C-0.02355469 1.44207031 -0.01195312 0.73179688 0 0 Z " fill="#797472" transform="translate(314,57)"/>
<path d="M0 0 C2.0625 0.6875 2.0625 0.6875 5.0625 2.6875 C5.0625 3.6775 5.0625 4.6675 5.0625 5.6875 C2.49036866 7.30699011 1.38580841 7.73158751 -1.6875 7.3125 C-2.43 7.10625 -3.1725 6.9 -3.9375 6.6875 C-3.9375 4.7075 -3.9375 2.7275 -3.9375 0.6875 C-1.9375 -0.3125 -1.9375 -0.3125 0 0 Z " fill="#E8E6E6" transform="translate(119.9375,58.3125)"/>
<path d="M0 0 C5.61 0 11.22 0 17 0 C16.34 3.63 15.68 7.26 15 11 C14.67 11 14.34 11 14 11 C14 8.03 14 5.06 14 2 C9.71 2 5.42 2 1 2 C1 5.3 1 8.6 1 12 C0.67 12 0.34 12 0 12 C0 8.04 0 4.08 0 0 Z " fill="#C7C3C2" transform="translate(404,33)"/>
<path d="M0 0 C1.98 0 3.96 0 6 0 C6 7.59 6 15.18 6 23 C5.34 23 4.68 23 4 23 C3.98541748 22.37432129 3.97083496 21.74864258 3.95581055 21.10400391 C3.88147196 18.27703598 3.78476766 15.45126792 3.6875 12.625 C3.66494141 11.64015625 3.64238281 10.6553125 3.61914062 9.640625 C3.58369141 8.69960938 3.54824219 7.75859375 3.51171875 6.7890625 C3.48553467 5.91975098 3.45935059 5.05043945 3.43237305 4.15478516 C3.18654782 1.61399973 3.18654782 1.61399973 0 0 Z " fill="#372F2D" transform="translate(292,25)"/>
<path d="M0 0 C5.28 0 10.56 0 16 0 C16 0.99 16 1.98 16 3 C13.69 3 11.38 3 9 3 C8.67 3.66 8.34 4.32 8 5 C7.34 5 6.68 5 6 5 C6 4.34 6 3.68 6 3 C4.02 3 2.04 3 0 3 C0 2.01 0 1.02 0 0 Z " fill="#6E6866" transform="translate(150,29)"/>
<path d="M0 0 C3.64581687 -0.02887512 7.29160463 -0.04675585 10.9375 -0.0625 C12.49887695 -0.07506836 12.49887695 -0.07506836 14.09179688 -0.08789062 C15.57583008 -0.09272461 15.57583008 -0.09272461 17.08984375 -0.09765625 C18.46450806 -0.10551147 18.46450806 -0.10551147 19.86694336 -0.11352539 C22 0 22 0 23 1 C23.76515785 6.05004181 21.3730179 9.73068655 19 14 C17.0762228 10.1524456 19.20449018 5.02434382 20 1 C13.4 1 6.8 1 0 1 C0 0.67 0 0.34 0 0 Z " fill="#9FC2FC" transform="translate(82,20)"/>
<path d="M0 0 C1.47033252 2.94066505 1 5.74474326 1 9 C1.33 9.99 1.66 10.98 2 12 C3.98 12 5.96 12 8 12 C8 11.01 8 10.02 8 9 C9.32 9.33 10.64 9.66 12 10 C11.34 11.32 10.68 12.64 10 14 C8.35425434 14.02688151 6.70838587 14.04634123 5.0625 14.0625 C4.14597656 14.07410156 3.22945312 14.08570313 2.28515625 14.09765625 C0 14 0 14 -1 13 C-1.09873816 11.00200428 -1.12971799 9.00042842 -1.125 7 C-1.12757813 5.906875 -1.13015625 4.81375 -1.1328125 3.6875 C-1 1 -1 1 0 0 Z " fill="#6A6462" transform="translate(224,34)"/>
<path d="M0 0 C0.99 0 1.98 0 3 0 C3.23074219 0.54269531 3.46148437 1.08539062 3.69921875 1.64453125 C5.76953439 6.18613276 7.23703671 8.88312742 12 11 C11.67 11.99 11.34 12.98 11 14 C8.02045283 13.67040407 7.09872963 13.11197385 5.078125 10.8203125 C4.47484375 9.93085937 3.8715625 9.04140625 3.25 8.125 C2.63640625 7.24070312 2.0228125 6.35640625 1.390625 5.4453125 C0 3 0 3 0 0 Z " fill="#504947" transform="translate(385,24)"/>
<path d="M0 0 C2.97 0.495 2.97 0.495 6 1 C6.625 3.375 6.625 3.375 7 6 C5 8 5 8 2.375 8.125 C1.59125 8.08375 0.8075 8.0425 0 8 C0 5.36 0 2.72 0 0 Z " fill="#C1BDBC" transform="translate(413,58)"/>
<path d="M0 0 C0.99 0 1.98 0 3 0 C1.54663734 4.11786086 -0.58657273 7.37985909 -3 11 C-3 11.66 -3 12.32 -3 13 C-4.65 13 -6.3 13 -8 13 C-7.67 11.68 -7.34 10.36 -7 9 C-6.34 9 -5.68 9 -5 9 C-4.731875 8.2575 -4.46375 7.515 -4.1875 6.75 C-3.0392528 4.09090121 -1.96498625 2.12218515 0 0 Z " fill="#4C4542" transform="translate(380,34)"/>
<path d="M0 0 C1.32 0.33 2.64 0.66 4 1 C2.51804579 4.21458724 0.70259491 6.93335896 -1.4375 9.75 C-2.03433594 10.54921875 -2.63117188 11.3484375 -3.24609375 12.171875 C-3.82488281 12.77515625 -4.40367187 13.3784375 -5 14 C-5.99 14 -6.98 14 -8 14 C-6.89824464 11.52105044 -5.733707 9.6754554 -4 7.5625 C-2.06299991 5.08071863 -1.01429561 2.95836218 0 0 Z " fill="#504947" transform="translate(376,24)"/>
<path d="M0 0 C1.32 0.33 2.64 0.66 4 1 C3.21302675 4.41021743 2.12880057 7.68885166 1 11 C-0.98 11 -2.96 11 -5 11 C-4.875 8.6875 -4.875 8.6875 -4 6 C-0.9375 4.1875 -0.9375 4.1875 2 3 C1.34 2.01 0.68 1.02 0 0 Z " fill="#CDCAC9" transform="translate(198,25)"/>
<path d="M0 0 C6.6 0 13.2 0 20 0 C19.34 4.29 18.68 8.58 18 13 C13.545 12.01 13.545 12.01 9 11 C13 10 13 10 17 11 C17 8.03 17 5.06 17 2 C11.39 2 5.78 2 0 2 C0 1.34 0 0.68 0 0 Z " fill="#1F63E3" transform="translate(52,21)"/>
<path d="M0 0 C0.33 1.32 0.66 2.64 1 4 C5.455 4.99 5.455 4.99 10 6 C10 6.99 10 7.98 10 9 C7.03 8.01 4.06 7.02 1 6 C1.66 7.65 2.32 9.3 3 11 C1.68 11.33 0.36 11.66 -1 12 C-1 9.37165722 -0.80210238 6.91813299 -0.5 4.3125 C-0.4071875 3.50425781 -0.314375 2.69601563 -0.21875 1.86328125 C-0.1465625 1.24839844 -0.074375 0.63351563 0 0 Z " fill="#699FF4" transform="translate(50,24)"/>
<path d="M0 0 C0.99 0 1.98 0 3 0 C3 2.97 3 5.94 3 9 C4.98 9 6.96 9 9 9 C9 9.66 9 10.32 9 11 C6.03 11 3.06 11 0 11 C0 7.37 0 3.74 0 0 Z " fill="#817D7B" transform="translate(386,57)"/>
<path d="M0 0 C0.66 0 1.32 0 2 0 C2 1.32 2 2.64 2 4 C3.98 3.34 5.96 2.68 8 2 C7.67 2.99 7.34 3.98 7 5 C6.34 5 5.68 5 5 5 C5 5.99 5 6.98 5 8 C6.65 8.33 8.3 8.66 10 9 C10 9.99 10 10.98 10 12 C6.59497074 11.71624756 5.23742254 11.23082747 2.75 8.8125 C0.86093921 5.77650944 0.32862916 3.53276352 0 0 Z " fill="#3B3331" transform="translate(353,35)"/>
<path d="M0 0 C0.66 0 1.32 0 2 0 C2 1.32 2 2.64 2 4 C4.31 4 6.62 4 9 4 C9.33 2.68 9.66 1.36 10 0 C10 3.3 10 6.6 10 10 C9.67 8.68 9.34 7.36 9 6 C6.69 6 4.38 6 2 6 C2 7.32 2 8.64 2 10 C1.34 10 0.68 10 0 10 C0 6.7 0 3.4 0 0 Z " fill="#595452" transform="translate(127,57)"/>
<path d="M0 0 C0.99 0.33 1.98 0.66 3 1 C3 1.66 3 2.32 3 3 C1.02 3 -0.96 3 -3 3 C-3 3.66 -3 4.32 -3 5 C-2.01 5 -1.02 5 0 5 C0 5.66 0 6.32 0 7 C-1.66611905 7.042721 -3.33382885 7.04063832 -5 7 C-6 6 -6 6 -6.0625 2.9375 C-6.041875 1.968125 -6.02125 0.99875 -6 0 C-3.46924326 -1.26537837 -2.64724917 -0.80219672 0 0 Z " fill="#DFDEDD" transform="translate(280,59)"/>
<path d="M0 0 C0.33 0 0.66 0 1 0 C1 4.29 1 8.58 1 13 C0.34 13 -0.32 13 -1 13 C-1.33 13.66 -1.66 14.32 -2 15 C-2.33 14.01 -2.66 13.02 -3 12 C-3.99 12 -4.98 12 -6 12 C-5.67 11.34 -5.34 10.68 -5 10 C-4.01 10.33 -3.02 10.66 -2 11 C-2.04125 9.741875 -2.0825 8.48375 -2.125 7.1875 C-2.2390374 3.70935927 -2.05925681 3.08888522 0 0 Z " fill="#E9E7E6" transform="translate(421,33)"/>
<path d="M0 0 C5.61 1.98 11.22 3.96 17 6 C16.67 6.99 16.34 7.98 16 9 C10.08030998 7.24009216 4.58365008 4.60305395 -1 2 C-0.67 1.34 -0.34 0.68 0 0 Z " fill="#9FC8FC" transform="translate(50,38)"/>
<path d="M0 0 C1.8125 0.0625 1.8125 0.0625 4 1 C5.6875 4.4375 5.6875 4.4375 7 8 C7.33 8.66 7.66 9.32 8 10 C6.35 10 4.7 10 3 10 C3 9.34 3 8.68 3 8 C2.01 8 1.02 8 0 8 C0 5.36 0 2.72 0 0 Z " fill="#BFBBB9" transform="translate(350,36)"/>
<path d="M0 0 C1.98 0 3.96 0 6 0 C6 2.31 6 4.62 6 7 C4.02 7 2.04 7 0 7 C0 4.69 0 2.38 0 0 Z " fill="#A49F9D" transform="translate(212,36)"/>
<path d="M0 0 C0.33 1.32 0.66 2.64 1 4 C3.97065509 3.65772428 3.97065509 3.65772428 7 3 C7.33 2.34 7.66 1.68 8 1 C8.99 1.33 9.98 1.66 11 2 C10.67 3.32 10.34 4.64 10 6 C6.04 6 2.08 6 -2 6 C-2 4.68 -2 3.36 -2 2 C-2.66 1.67 -3.32 1.34 -4 1 C-2.68 0.67 -1.36 0.34 0 0 Z " fill="#5F5856" transform="translate(192,32)"/>
<path d="M0 0 C0.33 0 0.66 0 1 0 C1 2.97 1 5.94 1 9 C2.32 9 3.64 9 5 9 C5 9.66 5 10.32 5 11 C1.14974121 10.39644592 -1.86101159 9.23227397 -5.3125 7.4375 C-6.19550781 6.98246094 -7.07851563 6.52742188 -7.98828125 6.05859375 C-8.65214844 5.70925781 -9.31601562 5.35992187 -10 5 C-6.06204091 3.77580837 -3.83887763 4.51679728 0 6 C0 4.02 0 2.04 0 0 Z " fill="#AFD1FD" transform="translate(70,28)"/>
<path d="M0 0 C2.31 0 4.62 0 7 0 C7 1.98 7 3.96 7 6 C4.69 6 2.38 6 0 6 C0 4.02 0 2.04 0 0 Z " fill="#E2E0DF" transform="translate(127,32)"/>
<path d="M0 0 C2.1796875 0.015625 2.1796875 0.015625 4.875 0.25 C6.20144531 0.35054687 6.20144531 0.35054687 7.5546875 0.453125 C10 1 10 1 13 4 C3.595 4.495 3.595 4.495 -6 5 C-5.67 3.68 -5.34 2.36 -5 1 C-5 1.99 -5 2.98 -5 4 C-3.35 4 -1.7 4 0 4 C-0.33 3.01 -0.66 2.02 -1 1 C-0.67 0.67 -0.34 0.34 0 0 Z " fill="#8B8684" transform="translate(377,43)"/>
<path d="M0 0 C1.79236067 0.47656412 3.58386897 0.95633498 5.375 1.4375 C6.37273438 1.70433594 7.37046875 1.97117188 8.3984375 2.24609375 C11 3 11 3 13 4 C13 4.66 13 5.32 13 6 C7.57960425 6.40652968 3.92984325 5.03993514 -1 3 C-0.67 2.01 -0.34 1.02 0 0 Z " fill="#1B62E5" transform="translate(49,35)"/>
<path d="M0 0 C2.97 0 5.94 0 9 0 C9 1.98 9 3.96 9 6 C8.67 5.34 8.34 4.68 8 4 C6.35 4 4.7 4 3 4 C3 3.01 3 2.02 3 1 C2.34 1 1.68 1 1 1 C1 1.99 1 2.98 1 4 C-1.97 4 -4.94 4 -8 4 C-8 3.67 -8 3.34 -8 3 C-5.36 3 -2.72 3 0 3 C0 2.01 0 1.02 0 0 Z " fill="#C6C2C0" transform="translate(286,27)"/>
<path d="M0 0 C0.33 0 0.66 0 1 0 C1.30600606 7.80315459 1.41565265 17.37652103 -3 24 C-3.66 24 -4.32 24 -5 24 C-5 22.68 -5 21.36 -5 20 C-4.34 20 -3.68 20 -3 20 C-2.87625 18.9275 -2.7525 17.855 -2.625 16.75 C-1.92856704 11.13816339 -0.95657732 5.57229504 0 0 Z " fill="#BAD5FD" transform="translate(96,45)"/>
<path d="M0 0 C2.31 0 4.62 0 7 0 C7 0.66 7 1.32 7 2 C5.02 2 3.04 2 1 2 C1 2.99 1 3.98 1 5 C2.98 5 4.96 5 7 5 C7 5.99 7 6.98 7 8 C4.69 8 2.38 8 0 8 C0 5.36 0 2.72 0 0 Z " fill="#F3F1EF" transform="translate(149,32)"/>
<path d="M0 0 C3.96 0 7.92 0 12 0 C12 0.99 12 1.98 12 3 C8.04 3 4.08 3 0 3 C0 2.01 0 1.02 0 0 Z " fill="#ABA6A4" transform="translate(313,38)"/>
<path d="M0 0 C0.66 0.33 1.32 0.66 2 1 C2 4.96 2 8.92 2 13 C1.34 13 0.68 13 0 13 C0 10.03 0 7.06 0 4 C-3.63 4 -7.26 4 -11 4 C-11 3.67 -11 3.34 -11 3 C-7.37 3 -3.74 3 0 3 C0 2.01 0 1.02 0 0 Z " fill="#312927" transform="translate(325,34)"/>
<path d="M0 0 C2.97 0.495 2.97 0.495 6 1 C6 2.32 6 3.64 6 5 C5.34 5 4.68 5 4 5 C4 5.99 4 6.98 4 8 C0.04 8 -3.92 8 -8 8 C-8 7.67 -8 7.34 -8 7 C-4.37 7 -0.74 7 3 7 C3 5.68 3 4.36 3 3 C2.34 3 1.68 3 1 3 C0.67 3.99 0.34 4.98 0 6 C0 4.02 0 2.04 0 0 Z " fill="#C8C5C3" transform="translate(184,33)"/>
<path d="M0 0 C3.96 0 7.92 0 12 0 C12 0.99 12 1.98 12 3 C8.04 3 4.08 3 0 3 C0 2.01 0 1.02 0 0 Z " fill="#B7B2B0" transform="translate(313,34)"/>
<path d="M0 0 C0.99 0 1.98 0 3 0 C3 3.63 3 7.26 3 11 C2.01 11 1.02 11 0 11 C0 7.37 0 3.74 0 0 Z " fill="#DBD8D7" transform="translate(143,57)"/>
<path d="M0 0 C1.32 0.33 2.64 0.66 4 1 C4 1.66 4 2.32 4 3 C3.01 3.33 2.02 3.66 1 4 C-0.22969878 7.51190809 -0.22969878 7.51190809 -1 11 C-1.99 11 -2.98 11 -4 11 C-3.48964169 6.6109185 -2.47785723 3.66291938 0 0 Z " fill="#726C6A" transform="translate(162,57)"/>
<path d="M0 0 C0.99 0.33 1.98 0.66 3 1 C3 3.31 3 5.62 3 8 C2.67 8 2.34 8 2 8 C2 6.35 2 4.7 2 3 C1.34 3 0.68 3 0 3 C-0.433125 3.928125 -0.433125 3.928125 -0.875 4.875 C-2 7 -2 7 -4 9 C-4.99 9 -5.98 9 -7 9 C-5.76465298 5.29395893 -3.80264776 3.66251537 -1 1 C-0.67 0.67 -0.34 0.34 0 0 Z " fill="#554F4C" transform="translate(285,33)"/>
<path d="M0 0 C0.99 0 1.98 0 3 0 C3 1.32 3 2.64 3 4 C6.3 4 9.6 4 13 4 C13 4.33 13 4.66 13 5 C9.37 5 5.74 5 2 5 C2 6.65 2 8.3 2 10 C1.67 10 1.34 10 1 10 C1 8.35 1 6.7 1 5 C-0.98 5 -2.96 5 -5 5 C-5 4.67 -5 4.34 -5 4 C-3.02 4 -1.04 4 1 4 C0.67 2.68 0.34 1.36 0 0 Z " fill="#37302E" transform="translate(253,24)"/>
<path d="M0 0 C0.99 0 1.98 0 3 0 C5.1875 3 5.1875 3 7 6 C6.01 6 5.02 6 4 6 C3.67 5.34 3.34 4.68 3 4 C2.67 5.98 2.34 7.96 2 10 C1.34 10 0.68 10 0 10 C0 6.7 0 3.4 0 0 Z " fill="#605A58" transform="translate(214,57)"/>
<path d="M0 0 C0.33 0 0.66 0 1 0 C1.33 2.31 1.66 4.62 2 7 C4.31 7 6.62 7 9 7 C8.67 7.99 8.34 8.98 8 10 C5.36 10 2.72 10 0 10 C0 6.7 0 3.4 0 0 Z " fill="#88817F" transform="translate(244,32)"/>
<path d="M0 0 C2.64 0 5.28 0 8 0 C8 1.32 8 2.64 8 4 C5.36 4 2.72 4 0 4 C0 2.68 0 1.36 0 0 Z " fill="#D3D1CF" transform="translate(408,37)"/>
<path d="M0 0 C1.62566606 0.47690204 3.25051311 0.95659666 4.875 1.4375 C5.77992187 1.70433594 6.68484375 1.97117187 7.6171875 2.24609375 C10 3 10 3 12 4 C12 4.66 12 5.32 12 6 C7.27536912 5.53680089 3.82942948 4.90108294 0 2 C0 1.34 0 0.68 0 0 Z " fill="#1760E7" transform="translate(51,30)"/>
<path d="M0 0 C0.99 0 1.98 0 3 0 C3.33 3.3 3.66 6.6 4 10 C2.68 10 1.36 10 0 10 C0 6.7 0 3.4 0 0 Z " fill="#7B7675" transform="translate(188,57)"/>
<path d="M0 0 C1.98 0 3.96 0 6 0 C6 1.65 6 3.3 6 5 C4.02 5 2.04 5 0 5 C0 3.35 0 1.7 0 0 Z " fill="#A49E9C" transform="translate(247,29)"/>
<path d="M0 0 C0 0.66 0 1.32 0 2 C0.99 2 1.98 2 3 2 C2.67 2.99 2.34 3.98 2 5 C2 4.34 2 3.68 2 3 C1.01 3 0.02 3 -1 3 C-1 3.66 -1 4.32 -1 5 C-2.98 5 -4.96 5 -7 5 C-6.1875 3.0625 -6.1875 3.0625 -5 1 C-2 0 -2 0 0 0 Z " fill="#C6C2C0" transform="translate(233,28)"/>
<path d="M0 0 C0.66 0 1.32 0 2 0 C2.67408308 1.26691507 3.33900497 2.53870749 4 3.8125 C4.556875 4.87404297 4.556875 4.87404297 5.125 5.95703125 C6 8 6 8 6 11 C5.01 11 4.02 11 3 11 C2.49384702 9.73160474 1.99530901 8.46016898 1.5 7.1875 C1.2215625 6.47980469 0.943125 5.77210937 0.65625 5.04296875 C0 3 0 3 0 0 Z " fill="#676160" transform="translate(206,57)"/>
<path d="M0 0 C0.33 0 0.66 0 1 0 C1.34548714 6.33393082 0.29342747 11.10261508 -2 17 C-2.33 17 -2.66 17 -3 17 C-3.40214229 10.83381819 -1.96818336 5.82254243 0 0 Z " fill="#DBEBFE" transform="translate(100,34)"/>
<path d="M0 0 C0.33 0 0.66 0 1 0 C0.91304042 2.60578866 0.80618592 5.2081279 0.6875 7.8125 C0.66494141 8.55048828 0.64238281 9.28847656 0.61914062 10.04882812 C0.3453392 15.54974762 0.3453392 15.54974762 -1.54296875 18.01171875 C-2.26419922 18.50091797 -2.26419922 18.50091797 -3 19 C-2.13329546 12.64416673 -1.06965872 6.32448699 0 0 Z " fill="#3978EC" transform="translate(81,21)"/>
<path d="M0 0 C0.33 0 0.66 0 1 0 C1.22307542 2.2277397 1.42788178 4.45731364 1.625 6.6875 C1.74101562 7.92886719 1.85703125 9.17023437 1.9765625 10.44921875 C1.99953004 13.92880169 1.54051631 15.92484721 0 19 C-0.99 18.67 -1.98 18.34 -3 18 C-3 17.01 -3 16.02 -3 15 C-2.34 14.67 -1.68 14.34 -1 14 C-0.52998967 10.72444392 -0.52998967 10.72444392 -0.375 6.9375 C-0.30023438 5.64714844 -0.22546875 4.35679688 -0.1484375 3.02734375 C-0.09945313 2.02832031 -0.05046875 1.02929688 0 0 Z " fill="#B9B5B3" transform="translate(361,25)"/>
<path d="M0 0 C5.841744 -0.35050464 9.8531808 -0.16727335 15 3 C14.67 3.66 14.34 4.32 14 5 C9.38 3.68 4.76 2.36 0 1 C0 0.67 0 0.34 0 0 Z " fill="#3370E1" transform="translate(58,47)"/>
<path d="M0 0 C0.33 0 0.66 0 1 0 C1 5.28 1 10.56 1 16 C-0.65 16.33 -2.3 16.66 -4 17 C-4.33 16.01 -4.66 15.02 -5 14 C-4.01 13.67 -3.02 13.34 -2 13 C-2 13.66 -2 14.32 -2 15 C-1.34 15 -0.68 15 0 15 C0 10.05 0 5.1 0 0 Z " fill="#6D6665" transform="translate(327,32)"/>
<path d="M0 0 C2.97 0 5.94 0 9 0 C9 0.99 9 1.98 9 3 C4.545 3.495 4.545 3.495 0 4 C0 2.68 0 1.36 0 0 Z " fill="#EEECEC" transform="translate(277,27)"/>
<path d="M0 0 C0.99 0 1.98 0 3 0 C2.34 4.62 1.68 9.24 1 14 C0.67 14 0.34 14 0 14 C-0.16947579 12.58366664 -0.33545507 11.16691467 -0.5 9.75 C-0.5928125 8.96109375 -0.685625 8.1721875 -0.78125 7.359375 C-1 5 -1 5 -1 1 C-0.67 0.67 -0.34 0.34 0 0 Z " fill="#524A48" transform="translate(246,24)"/>
<path d="M0 0 C0.99 0 1.98 0 3 0 C3 1.32 3 2.64 3 4 C7.29 4 11.58 4 16 4 C16 4.33 16 4.66 16 5 C13.54137599 5.05383848 11.0839245 5.09359038 8.625 5.125 C7.57699219 5.15013672 7.57699219 5.15013672 6.5078125 5.17578125 C4.67102514 5.19344267 2.83398037 5.10303261 1 5 C0.34 4.34 -0.32 3.68 -1 3 C-0.67 2.01 -0.34 1.02 0 0 Z " fill="#4F4946" transform="translate(315,23)"/>
<path d="M0 0 C2.97 0 5.94 0 9 0 C9 0.99 9 1.98 9 3 C6.03 3 3.06 3 0 3 C0 2.01 0 1.02 0 0 Z " fill="#BAB5B3" transform="translate(350,27)"/>
<path d="M0 0 C0.99 0 1.98 0 3 0 C3 3.63 3 7.26 3 11 C2.01 11 1.02 11 0 11 C0 9.35 0 7.7 0 6 C0.66 6 1.32 6 2 6 C1.34 5.34 0.68 4.68 0 4 C0 2.68 0 1.36 0 0 Z " fill="#807C79" transform="translate(183,57)"/>
<path d="M0 0 C6.625 -0.25 6.625 -0.25 10 2 C10.1875 5.125 10.1875 5.125 10 8 C9.01 8 8.02 8 7 8 C7 6.35 7 4.7 7 3 C5.824375 2.814375 5.824375 2.814375 4.625 2.625 C2 2 2 2 0 0 Z " fill="#5F5A58" transform="translate(360,57)"/>
<path d="M0 0 C4.24223102 -0.3636198 6.58168085 0.4606772 10 3 C10 3.66 10 4.32 10 5 C5.2482602 4.56802365 3.07999946 3.67230705 0 0 Z " fill="#BADBFD" transform="translate(65,45)"/>
<path d="M0 0 C2.64 0 5.28 0 8 0 C7.01 0.33 6.02 0.66 5 1 C5 1.99 5 2.98 5 4 C3.02 4 1.04 4 -1 4 C-0.67 2.68 -0.34 1.36 0 0 Z " fill="#DAD8D6" transform="translate(227,42)"/>
<path d="M0 0 C0.66 0 1.32 0 2 0 C2 3.63 2 7.26 2 11 C1.34 11 0.68 11 0 11 C0 8.69 0 6.38 0 4 C-0.66 3.67 -1.32 3.34 -2 3 C-1.34 2.01 -0.68 1.02 0 0 Z " fill="#271E1C" transform="translate(181,27)"/>
<path d="M0 0 C0.99 0 1.98 0 3 0 C3 3.63 3 7.26 3 11 C2.01 11 1.02 11 0 11 C0 7.37 0 3.74 0 0 Z " fill="#251C1B" transform="translate(134,30)"/>
<path d="M0 0 C0.66 0 1.32 0 2 0 C2 1.98 2 3.96 2 6 C2.99 6 3.98 6 5 6 C5 6.99 5 7.98 5 9 C2.03 8.505 2.03 8.505 -1 8 C-0.67 5.36 -0.34 2.72 0 0 Z " fill="#BFBCBC" transform="translate(421,59)"/>
<path d="M0 0 C0.66 0 1.32 0 2 0 C1.67 1.65 1.34 3.3 1 5 C-0.98 5 -2.96 5 -5 5 C-5 6.32 -5 7.64 -5 9 C-5.66 9 -6.32 9 -7 9 C-7 7.35 -7 5.7 -7 4 C-4.3333581 2.66667905 -2.83319697 3.32897967 0 4 C0 2.68 0 1.36 0 0 Z " fill="#595452" transform="translate(334,58)"/>
<path d="M0 0 C1.32 0.33 2.64 0.66 4 1 C3.01 1 2.02 1 1 1 C1 1.66 1 2.32 1 3 C3.64 3 6.28 3 9 3 C6 5 6 5 3.375 5.5 C2.199375 5.7475 2.199375 5.7475 1 6 C0.67 6.66 0.34 7.32 0 8 C0 5.36 0 2.72 0 0 Z " fill="#CFCCCA" transform="translate(240,40)"/>
<path d="M0 0 C1.65 0 3.3 0 5 0 C5 1.65 5 3.3 5 5 C3.35 5 1.7 5 0 5 C0 3.35 0 1.7 0 0 Z " fill="#F5F4F4" transform="translate(118,32)"/>
<path d="M0 0 C2.475 0.495 2.475 0.495 5 1 C5 2.32 5 3.64 5 5 C3.35 5 1.7 5 0 5 C0 3.35 0 1.7 0 0 Z " fill="#F3F2F2" transform="translate(414,60)"/>
<path d="M0 0 C1.98 0 3.96 0 6 0 C6 1.32 6 2.64 6 4 C4.02 4 2.04 4 0 4 C0 2.68 0 1.36 0 0 Z " fill="#C7C4C3" transform="translate(288,58)"/>
<path d="M0 0 C2.64 0.33 5.28 0.66 8 1 C7.67 1.99 7.34 2.98 7 4 C4.125 4.125 4.125 4.125 1 4 C0.34 3.34 -0.32 2.68 -1 2 C-0.67 1.34 -0.34 0.68 0 0 Z " fill="#746F6D" transform="translate(260,44)"/>
<path d="M0 0 C1.00289062 0.28746094 2.00578125 0.57492188 3.0390625 0.87109375 C3.80992188 1.09925781 4.58078125 1.32742187 5.375 1.5625 C3.53125 2.6171875 3.53125 2.6171875 1.375 3.5625 C-1.125 2.6875 -1.125 2.6875 -3.625 1.5625 C-4.945 1.5625 -6.265 1.5625 -7.625 1.5625 C-7.625 0.9025 -7.625 0.2425 -7.625 -0.4375 C-4.72405209 -1.88797396 -3.06527404 -0.89106803 0 0 Z " fill="#87B6FC" transform="translate(52.625,44.4375)"/>
<path d="M0 0 C0.66 0 1.32 0 2 0 C2 3.3 2 6.6 2 10 C1.01 9.01 0.02 8.02 -1 7 C-0.6875 3.3125 -0.6875 3.3125 0 0 Z " fill="#E1DFDE" transform="translate(345,28)"/>
<path d="M0 0 C0.33 0 0.66 0 1 0 C1 3.63 1 7.26 1 11 C0.01 11 -0.98 11 -2 11 C-2 9.02 -2 7.04 -2 5 C-1.34 5 -0.68 5 0 5 C0 3.35 0 1.7 0 0 Z " fill="#D8D6D5" transform="translate(285,57)"/>
<path d="M0 0 C0.66 0.33 1.32 0.66 2 1 C2 1.66 2 2.32 2 3 C0.88625 2.814375 -0.2275 2.62875 -1.375 2.4375 C-4.82568861 1.68319343 -4.82568861 1.68319343 -7 3 C-7.65555119 5.52733235 -7.65555119 5.52733235 -8 8 C-8.33 8 -8.66 8 -9 8 C-9.1875 5.125 -9.1875 5.125 -9 2 C-5.54337669 -0.30441554 -4.05142119 -0.25860135 0 0 Z " fill="#605C59" transform="translate(281,57)"/>
<path d="M0 0 C0.66 0.33 1.32 0.66 2 1 C2 1.66 2 2.32 2 3 C-0.97 2.67 -3.94 2.34 -7 2 C-7.33 3.65 -7.66 5.3 -8 7 C-8.33 7 -8.66 7 -9 7 C-9.1875 4.625 -9.1875 4.625 -9 2 C-5.54337669 -0.30441554 -4.05142119 -0.25860135 0 0 Z " fill="#615D5A" transform="translate(123,57)"/>
<path d="M0 0 C0.66 0 1.32 0 2 0 C2 1.98 2 3.96 2 6 C0.125 6.625 0.125 6.625 -2 7 C-2.66 6.34 -3.32 5.68 -4 5 C-2.71937515 3.2925002 -1.38232443 1.62626404 0 0 Z " fill="#C5C1C0" transform="translate(285,36)"/>
<path d="M0 0 C1.98 0 3.96 0 6 0 C6 0.99 6 1.98 6 3 C4.68 3.33 3.36 3.66 2 4 C2 4.99 2 5.98 2 7 C1.34 7 0.68 7 0 7 C0 4.69 0 2.38 0 0 Z " fill="#827C79" transform="translate(159,34)"/>
<path d="M0 0 C0.66 0 1.32 0 2 0 C2.19491452 1.45736087 2.38069358 2.91594593 2.5625 4.375 C2.66691406 5.18710937 2.77132812 5.99921875 2.87890625 6.8359375 C3 9 3 9 2 11 C1.34 11 0.68 11 0 11 C0 7.37 0 3.74 0 0 Z " fill="#221816" transform="translate(114,30)"/>
<path d="M0 0 C0.66 0 1.32 0 2 0 C1.34 1.32 0.68 2.64 0 4 C-2.31 4 -4.62 4 -7 4 C-7 3.01 -7 2.02 -7 1 C-5.5459375 1.0309375 -5.5459375 1.0309375 -4.0625 1.0625 C-1.12534105 1.35618499 -1.12534105 1.35618499 0 0 Z " fill="#7A7673" transform="translate(352,64)"/>
<path d="M0 0 C1.98 0.495 1.98 0.495 4 1 C2.63016497 4.16115776 2.0109362 4.9927092 -1 7 C-0.67 4.69 -0.34 2.38 0 0 Z " fill="#595250" transform="translate(376,24)"/>
<path d="M0 0 C0 0.99 0 1.98 0 3 C-3.08809695 4.76462683 -4.23312136 5 -8 5 C-8 4.34 -8 3.68 -8 3 C-5.36 2.01 -2.72 1.02 0 0 Z " fill="#5D5755" transform="translate(249,43)"/>
<path d="M0 0 C2.97 0 5.94 0 9 0 C9 0.99 9 1.98 9 3 C2.25 3.125 2.25 3.125 0 2 C0 1.34 0 0.68 0 0 Z " fill="#837E7C" transform="translate(358,65)"/>
<path d="M0 0 C2.97 0 5.94 0 9 0 C9.33 0.99 9.66 1.98 10 3 C2.25 3.125 2.25 3.125 0 2 C0 1.34 0 0.68 0 0 Z " fill="#85807E" transform="translate(299,65)"/>
<path d="M0 0 C0.33 0 0.66 0 1 0 C1 3.63 1 7.26 1 11 C-0.32 10.34 -1.64 9.68 -3 9 C-3 8.34 -3 7.68 -3 7 C-2.01 7 -1.02 7 0 7 C0 4.69 0 2.38 0 0 Z " fill="#4D4744" transform="translate(155,57)"/>
<path d="M0 0 C0.99 0.33 1.98 0.66 3 1 C2.67 2.32 2.34 3.64 2 5 C-0.31 5 -2.62 5 -5 5 C-3.35 3.35 -1.7 1.7 0 0 Z " fill="#46403D" transform="translate(200,33)"/>
<path d="M0 0 C0.33 0 0.66 0 1 0 C1 2.64 1 5.28 1 8 C2.65 8.33 4.3 8.66 6 9 C5.01 9.66 4.02 10.32 3 11 C2.01 10.67 1.02 10.34 0 10 C0 6.7 0 3.4 0 0 Z " fill="#5D5755" transform="translate(314,57)"/>
<path d="M0 0 C2.475 0.495 2.475 0.495 5 1 C5 1.99 5 2.98 5 4 C3.35 4 1.7 4 0 4 C0 2.68 0 1.36 0 0 Z " fill="#CFCBCA" transform="translate(329,58)"/>
<path d="M0 0 C2.64 0.99 5.28 1.98 8 3 C7.67 3.66 7.34 4.32 7 5 C4.69 4.34 2.38 3.68 0 3 C0 2.01 0 1.02 0 0 Z " fill="#80B4FE" transform="translate(50,38)"/>
<path d="M0 0 C1.98 0.66 3.96 1.32 6 2 C6 2.66 6 3.32 6 4 C3.125 4.125 3.125 4.125 0 4 C-0.66 3.34 -1.32 2.68 -2 2 C-1.34 2 -0.68 2 0 2 C0 1.34 0 0.68 0 0 Z " fill="#296CE7" transform="translate(56,37)"/>
<path d="M0 0 C0.66 0.66 1.32 1.32 2 2 C-1.6441774 4.4294516 -3.71241272 4.16179575 -8 4 C-5.53721199 1.53721199 -3.29323018 1.00228745 0 0 Z " fill="#7E7978" transform="translate(419,64)"/>
<path d="M0 0 C1.98 0 3.96 0 6 0 C6.66 1.32 7.32 2.64 8 4 C3.545 3.01 3.545 3.01 -1 2 C-0.67 1.34 -0.34 0.68 0 0 Z " fill="#827D7B" transform="translate(255,56)"/>
<path d="M0 0 C2.97 0.495 2.97 0.495 6 1 C6 1.99 6 2.98 6 4 C4.35 3.67 2.7 3.34 1 3 C0.67 2.01 0.34 1.02 0 0 Z " fill="#544D4B" transform="translate(357,43)"/>
<path d="M0 0 C1.98 0 3.96 0 6 0 C6 0.99 6 1.98 6 3 C4.02 3 2.04 3 0 3 C0 2.01 0 1.02 0 0 Z " fill="#BDB8B7" transform="translate(212,40)"/>
<path d="M0 0 C2.31 0.33 4.62 0.66 7 1 C7 1.99 7 2.98 7 4 C4.97954558 3.39816251 2.97888961 2.72693904 1 2 C0.67 1.34 0.34 0.68 0 0 Z " fill="#89B9FE" transform="translate(52,34)"/>
<path d="M0 0 C1.98 0 3.96 0 6 0 C6 0.99 6 1.98 6 3 C4.02 3 2.04 3 0 3 C0 2.01 0 1.02 0 0 Z " fill="#736D6B" transform="translate(150,34)"/>
<path d="M0 0 C1.9375 0.75 1.9375 0.75 4 2 C4.75 4.125 4.75 4.125 5 6 C4.01 6 3.02 6 2 6 C1.34 4.02 0.68 2.04 0 0 Z " fill="#4C4542" transform="translate(217,27)"/>
<path d="M0 0 C0.33 0 0.66 0 1 0 C1 2.64 1 5.28 1 8 C0.01 8 -0.98 8 -2 8 C-2.20086443 4.28400809 -2.1519437 3.22791555 0 0 Z " fill="#B6B2B1" transform="translate(313,57)"/>
<path d="M0 0 C0.99 0 1.98 0 3 0 C3.33 1.32 3.66 2.64 4 4 C2.35 4 0.7 4 -1 4 C-0.67 2.68 -0.34 1.36 0 0 Z " fill="#413937" transform="translate(373,43)"/>
<path d="M0 0 C0 0.66 0 1.32 0 2 C-3.465 3.485 -3.465 3.485 -7 5 C-7 4.01 -7 3.02 -7 2 C-2.25 0 -2.25 0 0 0 Z " fill="#58514F" transform="translate(233,38)"/>
<path d="M0 0 C0.66 0.33 1.32 0.66 2 1 C1.67 2.65 1.34 4.3 1 6 C-0.32 6.33 -1.64 6.66 -3 7 C-3 6.34 -3 5.68 -3 5 C-2.34 4.67 -1.68 4.34 -1 4 C-0.34786708 1.97536745 -0.34786708 1.97536745 0 0 Z " fill="#3F3836" transform="translate(344,36)"/>
<path d="M0 0 C1.65 0.33 3.3 0.66 5 1 C2.33440687 2.77706209 -0.0280615 3.87548273 -3 5 C-3 4.01 -3 3.02 -3 2 C-2.01 2 -1.02 2 0 2 C0 1.34 0 0.68 0 0 Z " fill="#58514F" transform="translate(229,26)"/>
</svg>
