<?xml version="1.0" encoding="UTF-8"?>
<svg version="1.1" xmlns="http://www.w3.org/2000/svg" width="405" height="114">
<path d="M0 0 C133.65 0 267.3 0 405 0 C405 37.62 405 75.24 405 114 C271.35 114 137.7 114 0 114 C0 76.38 0 38.76 0 0 Z " fill="#FBFDFE" transform="translate(0,0)"/>
<path d="M0 0 C13.08632596 -0.50332023 25.64615321 2.10061998 35.52734375 11.2109375 C39.76511481 16.35921109 41.79743711 23.07535118 41.4453125 29.70703125 C40.12539416 36.50345288 36.63007891 42.44490787 31.1171875 46.6328125 C7.60564672 61.81554178 -19.7399534 60.02842143 -46.13916016 54.62060547 C-51.66647235 53.42155891 -57.15644343 52.0755978 -62.64770508 50.72265625 C-79.75759847 46.56338105 -97.48299615 46.10457993 -115 45 C-115 44.34 -115 43.68 -115 43 C-107.70233333 39.35116667 -97.26122485 40.85154553 -89.28102875 40.83133507 C-86.98896248 40.82403428 -84.69709422 40.80826689 -82.40509033 40.78999329 C-75.89411341 40.73818733 -69.38324838 40.6897587 -62.87207031 40.67407227 C-22.92793996 41.90791965 -22.92793996 41.90791965 11.76953125 25.4296875 C14.6491711 22.08382024 15.86849328 19.92054701 16.5 15.5 C16.25962175 11.95858174 16.25962175 11.95858174 14.1875 9.375 C9.79663805 6.10337737 5.04550278 4.07652041 0 2 C0 1.34 0 0.68 0 0 Z " fill="#0488C3" transform="translate(132,38)"/>
<path d="M0 0 C5.96328129 0.80072328 9.65689994 4.02236629 14 8 C15.03013277 9.64821244 16.03114628 11.31503702 17 13 C18.28267276 14.19938232 19.59936343 15.362829 20.9375 16.5 C26.10195053 20.89547904 29.34741243 23.98468367 30 31 C29.34 31 28.68 31 28 31 C28 32.32 28 33.64 28 35 C27.34 35 26.68 35 26 35 C25.773125 35.556875 25.54625 36.11375 25.3125 36.6875 C20.79434216 44.64806382 13.7848187 46.65327951 5.4609375 48.99609375 C-7.3138205 52.17354808 -20.41434965 53.2000997 -33.47924805 54.4934082 C-49.05277143 56.04334344 -64.65663703 57.85242358 -80 61 C-79.67668293 58.05818704 -79.48797736 56.45795763 -77.28955078 54.39477539 C-76.55720215 53.94610107 -75.82485352 53.49742676 -75.0703125 53.03515625 C-74.25594727 52.53129395 -73.44158203 52.02743164 -72.60253906 51.50830078 C-67.55285023 48.58175504 -62.43484291 45.80236345 -57.28515625 43.05664062 C-53.36072428 40.93768849 -49.60528099 38.80382101 -46.0078125 36.16015625 C-43 34 -43 34 -41 34 C-40.67 33.01 -40.34 32.02 -40 31 C-39.34 31 -38.68 31 -38 31 C-38 30.34 -38 29.68 -38 29 C-37.01 29 -36.02 29 -35 29 C-35 29.66 -35 30.32 -35 31 C-35.99 31.66 -36.98 32.32 -38 33 C-38.2502157 36.08365871 -38.2502157 36.08365871 -38 39 C-23.5697782 34.97846278 -13.34932649 26.55304482 -5.578125 13.93359375 C-3.1759896 9.4682381 -1.50486982 4.83240807 0 0 Z " fill="#50A9DB" transform="translate(97,18)"/>
<path d="M0 0 C1.32 0 2.64 0 4 0 C4.19335938 0.64453125 4.38671875 1.2890625 4.5859375 1.953125 C5.88708247 4.34351201 5.88708247 4.34351201 9.0390625 4.609375 C10.22242188 4.65578125 11.40578125 4.7021875 12.625 4.75 C14.40777344 4.83507813 14.40777344 4.83507813 16.2265625 4.921875 C17.14179688 4.94765625 18.05703125 4.9734375 19 5 C19 6.32 19 7.64 19 9 C16.69 9.33 14.38 9.66 12 10 C13.98 11.65 15.96 13.3 18 15 C17.3125 16.875 17.3125 16.875 16 19 C13.625 20.0625 13.625 20.0625 11 21 C9.63634717 21.95824253 8.29205831 22.94721175 7 24 C8.269553 24.64834654 9.54069706 25.29357815 10.8125 25.9375 C11.52019531 26.29714844 12.22789062 26.65679687 12.95703125 27.02734375 C15.11810285 28.10730516 15.11810285 28.10730516 18 29 C17.505 30.485 17.505 30.485 17 32 C10.61587983 32.37553648 10.61587983 32.37553648 7.4375 30.4375 C5.08488807 28.75030625 5.08488807 28.75030625 2.3125 29.125 C-2.16036311 30.30651101 -6.58670309 31.61321303 -11 33 C-11 32.34 -11 31.68 -11 31 C-11.99 31.33 -12.98 31.66 -14 32 C-15.67670923 32.0817521 -17.35648404 32.10749784 -19.03515625 32.09765625 C-20.00904297 32.09443359 -20.98292969 32.09121094 -21.98632812 32.08789062 C-23.00146484 32.07951172 -24.01660156 32.07113281 -25.0625 32.0625 C-26.08150391 32.05798828 -27.10050781 32.05347656 -28.15039062 32.04882812 C-30.76697507 32.03669022 -33.38345826 32.01888256 -36 32 C-36.66 32 -37.32 32 -38 32 C-40 32 -42 32 -44 32 C-44 31.01 -44 30.02 -44 29 C-45.32 28.67 -46.64 28.34 -48 28 C-48 27.01 -48 26.02 -48 25 C-47.01 25 -46.02 25 -45 25 C-45 24.34 -45 23.68 -45 23 C-45.66 23 -46.32 23 -47 23 C-47 22.01 -47 21.02 -47 20 C-46.34 20 -45.68 20 -45 20 C-45 19.34 -45 18.68 -45 18 C-45.66 18 -46.32 18 -47 18 C-47.125 11.375 -47.125 11.375 -46 8 C-44.02 8 -42.04 8 -40 8 C-40 7.01 -40 6.02 -40 5 C-42.64 5 -45.28 5 -48 5 C-48 3.68 -48 2.36 -48 1 C-37.44 1 -26.88 1 -16 1 C-16 2.65 -16 4.3 -16 6 C-15.67 5.67 -15.34 5.34 -15 5 C-12.30345146 4.92680379 -9.63308542 4.90757463 -6.9375 4.9375 C-6.17888672 4.94201172 -5.42027344 4.94652344 -4.63867188 4.95117188 C-2.75908129 4.9629932 -0.87953101 4.98092922 1 5 C0.505 2.525 0.505 2.525 0 0 Z " fill="#EBF6FA" transform="translate(277,40)"/>
<path d="M0 0 C4.0387211 2.20095772 7.02971132 4.78918262 10.25 8.0625 C11.12140625 8.94035156 11.9928125 9.81820312 12.890625 10.72265625 C15 13 15 13 16 15 C17.32 15 18.64 15 20 15 C20 13.35 20 11.7 20 10 C21.60379341 9.94583812 23.20811406 9.90713362 24.8125 9.875 C25.70582031 9.85179687 26.59914063 9.82859375 27.51953125 9.8046875 C30 10 30 10 33 12 C29.04 11.67 25.08 11.34 21 11 C21 11.66 21 12.32 21 13 C21.58007812 13.17015625 22.16015625 13.3403125 22.7578125 13.515625 C28.974135 15.44412109 34.25502934 17.38254401 38 23 C38.73186344 27.6656294 38.11031207 30.35455311 35.4375 34.125 C28.49923625 42.46055298 18.42616817 47.25965796 7.6875 48.8125 C6.800625 48.874375 5.91375 48.93625 5 49 C5.33 48.01 5.66 47.02 6 46 C5.40050537 46.06058594 4.80101074 46.12117188 4.18334961 46.18359375 C1.43507755 46.45929578 -1.31369302 46.72968543 -4.0625 47 C-5.00544922 47.09539062 -5.94839844 47.19078125 -6.91992188 47.2890625 C-11.97512222 47.78225278 -16.92103608 48.11270932 -22 48 C-21.67 47.01 -21.34 46.02 -21 45 C-18.9375 44.3125 -18.9375 44.3125 -17 44 C-19.06277107 44.14194764 -21.12521031 44.28872216 -23.1875 44.4375 C-24.33605469 44.51871094 -25.48460938 44.59992188 -26.66796875 44.68359375 C-29.85470423 44.91454912 -29.85470423 44.91454912 -32.34375 45.53125 C-36.32844868 46.23443212 -40.27559612 46.10392048 -44.3125 46.0625 C-45.56643555 46.05573242 -45.56643555 46.05573242 -46.84570312 46.04882812 C-48.89716649 46.03710548 -50.94859273 46.01917203 -53 46 C-53 45.67 -53 45.34 -53 45 C-52.22100342 44.93006836 -51.44200684 44.86013672 -50.6394043 44.78808594 C-18.7464209 43.75136174 -18.7464209 43.75136174 8.765625 31.125 C9.9258589 29.47133329 10.97577463 27.74118313 12 26 C12.66 26 13.32 26 14 26 C14 24.68 14 23.36 14 22 C14.66 22 15.32 22 16 22 C13.01978423 13.83680028 8.82936994 9.01461038 2.0625 3.6875 C1.381875 3.130625 0.70125 2.57375 0 2 C0 1.34 0 0.68 0 0 Z " fill="#EAF8FD" transform="translate(111,27)"/>
<path d="M0 0 C5.94 0 11.88 0 18 0 C18 4 18 4 16 6.25 C15.01 7.11625 15.01 7.11625 14 8 C15.98 8 17.96 8 20 8 C20.02690844 10.62506802 20.04679404 13.24986173 20.0625 15.875 C20.07087891 16.62136719 20.07925781 17.36773437 20.08789062 18.13671875 C20.11328125 23.7734375 20.11328125 23.7734375 19 26 C19.99 26 20.98 26 22 26 C21.34 27.65 20.68 29.3 20 31 C16.56257082 31.05802698 13.12526747 31.09360486 9.6875 31.125 C8.71103516 31.14175781 7.73457031 31.15851563 6.72851562 31.17578125 C5.32182617 31.18544922 5.32182617 31.18544922 3.88671875 31.1953125 C3.02264404 31.20578613 2.15856934 31.21625977 1.26831055 31.22705078 C-1 31 -1 31 -4 29 C-6.01954441 29.33820153 -6.01954441 29.33820153 -8 30 C-8.99 30 -9.98 30 -11 30 C-11 29.01 -11 28.02 -11 27 C-9.68 26.34 -8.36 25.68 -7 25 C-7 22.03 -7 19.06 -7 16 C-8.65 16 -10.3 16 -12 16 C-12 14.35 -12 12.7 -12 11 C-9.69 11 -7.38 11 -5 11 C-5.44472656 10.52949219 -5.88945312 10.05898438 -6.34765625 9.57421875 C-6.91355469 8.95160156 -7.47945313 8.32898437 -8.0625 7.6875 C-8.63097656 7.07261719 -9.19945312 6.45773438 -9.78515625 5.82421875 C-10.38650391 4.92123047 -10.38650391 4.92123047 -11 4 C-10.67 3.01 -10.34 2.02 -10 1 C-6.84669446 1.60694155 -4.81111133 2.6416665 -2.25 4.5625 C-1.32960938 5.24505859 -1.32960938 5.24505859 -0.390625 5.94140625 C0.29773438 6.46541016 0.29773438 6.46541016 1 7 C0.67 4.69 0.34 2.38 0 0 Z " fill="#216595" transform="translate(310,41)"/>
<path d="M0 0 C10.56 0 21.12 0 32 0 C31.67 4.29 31.34 8.58 31 13 C25.72 13 20.44 13 15 13 C15 10.03 15 7.06 15 4 C14.34 4 13.68 4 13 4 C13.020625 4.969375 13.04125 5.93875 13.0625 6.9375 C13 10 13 10 12 11 C9.66702567 11.04092937 7.33294775 11.04241723 5 11 C5 11.99 5 12.98 5 14 C13.91 14 22.82 14 32 14 C32 14.99 32 15.98 32 17 C29.04160645 17.02689449 26.08345573 17.04678741 23.125 17.0625 C22.28324219 17.07087891 21.44148438 17.07925781 20.57421875 17.08789062 C19.76855469 17.09111328 18.96289062 17.09433594 18.1328125 17.09765625 C17.01737061 17.10551147 17.01737061 17.10551147 15.87939453 17.11352539 C14 17 14 17 12 16 C12 19.96 12 23.92 12 28 C18.93 28 25.86 28 33 28 C33 28.99 33 29.98 33 31 C23.33333333 31 13.66666667 31 4 31 C4 30.01 4 29.02 4 28 C2.68 27.67 1.36 27.34 0 27 C0 26.01 0 25.02 0 24 C0.99 24 1.98 24 3 24 C3 23.34 3 22.68 3 22 C2.34 22 1.68 22 1 22 C1 21.01 1 20.02 1 19 C1.66 19 2.32 19 3 19 C3 18.34 3 17.68 3 17 C2.34 17 1.68 17 1 17 C0.875 10.375 0.875 10.375 2 7 C3.98 7 5.96 7 8 7 C8 6.01 8 5.02 8 4 C5.36 4 2.72 4 0 4 C0 2.68 0 1.36 0 0 Z " fill="#1A5D8C" transform="translate(229,41)"/>
<path d="M0 0 C1.32 0 2.64 0 4 0 C4 1.32 4 2.64 4 4 C5.98 4 7.96 4 10 4 C10 4.99 10 5.98 10 7 C9.34 7 8.68 7 8 7 C7.67 8.65 7.34 10.3 7 12 C8.32 12 9.64 12 11 12 C11 9.36 11 6.72 11 4 C12.4117783 3.46605821 13.82970244 2.94834896 15.25 2.4375 C16.03890625 2.14746094 16.8278125 1.85742188 17.640625 1.55859375 C20.21966433 0.94799338 21.55747753 1.01110263 24 2 C24.33 2.66 24.66 3.32 25 4 C21.38026598 5.31626692 18.90432869 6 15 6 C15 7.98 15 9.96 15 12 C18.63 12 22.26 12 26 12 C26 13.32 26 14.64 26 16 C25.01 16 24.02 16 23 16 C23 21.61 23 27.22 23 33 C21.68 33 20.36 33 19 33 C19 27.06 19 21.12 19 15 C17.68 15 16.36 15 15 15 C15.05220703 16.08667969 15.05220703 16.08667969 15.10546875 17.1953125 C15.26631949 22.93998168 15.23466184 27.01322966 12 32 C11.01 31.67 10.02 31.34 9 31 C9 30.01 9 29.02 9 28 C8.34 28 7.68 28 7 28 C6.67 26.02 6.34 24.04 6 22 C6.66 22 7.32 22 8 22 C8.33 23.32 8.66 24.64 9 26 C9.66 26 10.32 26 11 26 C11 22.37 11 18.74 11 15 C8.69 15 6.38 15 4 15 C4 15.99 4 16.98 4 18 C5.98 18 7.96 18 10 18 C10 18.99 10 19.98 10 21 C8.02 21 6.04 21 4 21 C4.01160156 21.71027344 4.02320313 22.42054687 4.03515625 23.15234375 C4.04869141 24.53099609 4.04869141 24.53099609 4.0625 25.9375 C4.07410156 26.85402344 4.08570313 27.77054688 4.09765625 28.71484375 C4 31 4 31 3 32 C1.33382885 32.04063832 -0.33388095 32.042721 -2 32 C-2 31.01 -2 30.02 -2 29 C-1.34 29 -0.68 29 0 29 C-0.33 27.68 -0.66 26.36 -1 25 C-1.66 26.32 -2.32 27.64 -3 29 C-3.99 28.67 -4.98 28.34 -6 28 C-5.34 26.02 -4.68 24.04 -4 22 C-4.66 22 -5.32 22 -6 22 C-6 20.35 -6 18.7 -6 17 C-4.02 17 -2.04 17 0 17 C0 16.34 0 15.68 0 15 C-1.98 15 -3.96 15 -6 15 C-6 14.01 -6 13.02 -6 12 C-5.01 12 -4.02 12 -3 12 C-3.33 10.35 -3.66 8.7 -4 7 C-4.66 7 -5.32 7 -6 7 C-6 5.68 -6 4.36 -6 3 C-4.35 3 -2.7 3 -1 3 C-0.67 2.01 -0.34 1.02 0 0 Z " fill="#5E92B4" transform="translate(201,40)"/>
<path d="M0 0 C1.32 0 2.64 0 4 0 C4 0.66 4 1.32 4 2 C8.29 2 12.58 2 17 2 C16.67 3.65 16.34 5.3 16 7 C14.68 7.33 13.36 7.66 12 8 C12 7.01 12 6.02 12 5 C10.68 5 9.36 5 8 5 C10.80804268 7.96404505 13.18315774 10.44499019 17 12 C16.67 12.99 16.34 13.98 16 15 C12.5625 14.1875 12.5625 14.1875 9 13 C8.67 12.01 8.34 11.02 8 10 C7.236875 10.639375 6.47375 11.27875 5.6875 11.9375 C3 14 3 14 0 15 C6.93 15.495 6.93 15.495 14 16 C14 18.97 14 21.94 14 25 C13.01 25.33 12.02 25.66 11 26 C12.98 26.66 14.96 27.32 17 28 C16.34 29.32 15.68 30.64 15 32 C13.37433394 31.52309796 11.74948689 31.04340334 10.125 30.5625 C9.22007812 30.29566406 8.31515625 30.02882813 7.3828125 29.75390625 C5 29 5 29 3 28 C3.33 27.01 3.66 26.02 4 25 C5.65 25 7.3 25 9 25 C9 23.35 9 21.7 9 20 C7.35 20 5.7 20 4 20 C3.95875 20.721875 3.9175 21.44375 3.875 22.1875 C2.62659096 26.20024334 0.37463147 27.59881991 -3 30 C-6.47855946 31.78170119 -9.10701232 32.22245644 -13 32 C-13.33 30.68 -13.66 29.36 -14 28 C-12.35 27.67 -10.7 27.34 -9 27 C-9.33 26.67 -9.66 26.34 -10 26 C-10.07205511 24.31391034 -10.08386068 22.62499341 -10.0625 20.9375 C-10.05347656 20.01839844 -10.04445313 19.09929688 -10.03515625 18.15234375 C-10.01775391 17.08693359 -10.01775391 17.08693359 -10 16 C-7.36 16 -4.72 16 -2 16 C-2 15.34 -2 14.68 -2 14 C-2.66 14 -3.32 14 -4 14 C-4 13.34 -4 12.68 -4 12 C-6.97 12.66 -9.94 13.32 -13 14 C-12.67 12.68 -12.34 11.36 -12 10 C-10.081875 9.6596875 -10.081875 9.6596875 -8.125 9.3125 C-5.92724118 8.82563545 -5.92724118 8.82563545 -4 8 C-2.51953703 5.63276087 -2.51953703 5.63276087 -2 3 C-1.34 2.01 -0.68 1.02 0 0 Z " fill="#256592" transform="translate(382,41)"/>
<path d="M0 0 C3.15330554 0.60694155 5.18888867 1.6416665 7.75 3.5625 C8.67039062 4.24505859 8.67039062 4.24505859 9.609375 4.94140625 C10.29773438 5.46541016 10.29773438 5.46541016 11 6 C10.67 4.68 10.34 3.36 10 2 C11.32 2 12.64 2 14 2 C14 2.99 14 3.98 14 5 C14.66 5.66 15.32 6.32 16 7 C14.02 7 12.04 7 10 7 C10 12.94 10 18.88 10 25 C11.32 25 12.64 25 14 25 C14 23.35 14 21.7 14 20 C14.99 20 15.98 20 17 20 C17 21.65 17 23.3 17 25 C18.32 25 19.64 25 21 25 C21 23.35 21 21.7 21 20 C22.65 20 24.3 20 26 20 C26 20.66 26 21.32 26 22 C25.01 22 24.02 22 23 22 C23 22.99 23 23.98 23 25 C23.928125 24.814375 24.85625 24.62875 25.8125 24.4375 C29 24 29 24 32 25 C31.34 26.65 30.68 28.3 30 30 C26.56257082 30.05802698 23.12526747 30.09360486 19.6875 30.125 C18.71103516 30.14175781 17.73457031 30.15851563 16.72851562 30.17578125 C15.32182617 30.18544922 15.32182617 30.18544922 13.88671875 30.1953125 C13.02264404 30.20578613 12.15856934 30.21625977 11.26831055 30.22705078 C9 30 9 30 6 28 C3.98045559 28.33820153 3.98045559 28.33820153 2 29 C1.01 29 0.02 29 -1 29 C-1 28.01 -1 27.02 -1 26 C0.32 25.34 1.64 24.68 3 24 C3 21.03 3 18.06 3 15 C1.35 15 -0.3 15 -2 15 C-2 13.35 -2 11.7 -2 10 C0.31 10 2.62 10 5 10 C4.55527344 9.52949219 4.11054688 9.05898438 3.65234375 8.57421875 C3.08644531 7.95160156 2.52054687 7.32898437 1.9375 6.6875 C1.36902344 6.07261719 0.80054688 5.45773438 0.21484375 4.82421875 C-0.38650391 3.92123047 -0.38650391 3.92123047 -1 3 C-0.67 2.01 -0.34 1.02 0 0 Z " fill="#DAEEF5" transform="translate(300,42)"/>
<path d="M0 0 C3 1 3 1 6 3 C6.99 3.33 7.98 3.66 9 4 C9 4.66 9 5.32 9 6 C9.99 5.67 10.98 5.34 12 5 C13.98 7.31 15.96 9.62 18 12 C13.67224891 19.97217305 7.2785865 24.53869444 -1 28 C-3.84375 28.16796875 -3.84375 28.16796875 -6 28 C-6.33 26.02 -6.66 24.04 -7 22 C-5.68 21.34 -4.36 20.68 -3 20 C-3 19.34 -3 18.68 -3 18 C-3.66 18 -4.32 18 -5 18 C-4.80664062 17.3709375 -4.61328125 16.741875 -4.4140625 16.09375 C-2.7907875 10.75783615 -1.30539435 5.42240732 0 0 Z " fill="#B0E1F8" transform="translate(65,29)"/>
<path d="M0 0 C1.32 0 2.64 0 4 0 C4 2.31 4 4.62 4 7 C5.32 7 6.64 7 8 7 C8 7.99 8 8.98 8 10 C8.66 10 9.32 10 10 10 C10.33 7.03 10.66 4.06 11 1 C14.96 1 18.92 1 23 1 C23 3.97 23 6.94 23 10 C24.65 10 26.3 10 28 10 C28 11.32 28 12.64 28 14 C24.625 14.125 24.625 14.125 21 14 C19 12 19 12 18.875 8.375 C18.91625 7.26125 18.9575 6.1475 19 5 C17.35 5 15.7 5 14 5 C13.87625 6.11375 13.7525 7.2275 13.625 8.375 C13 12 13 12 11 14 C8.875 13.625 8.875 13.625 7 13 C7 12.34 7 11.68 7 11 C6.01 11 5.02 11 4 11 C4 12.65 4 14.3 4 16 C4.99 16 5.98 16 7 16 C7 16.99 7 17.98 7 19 C6.34 19.33 5.68 19.66 5 20 C4.60741061 22.52092173 4.60741061 22.52092173 4.5 25.4375 C4.22145805 30.77854195 4.22145805 30.77854195 2 33 C-0.625 33.125 -0.625 33.125 -3 33 C-3 31.68 -3 30.36 -3 29 C-2.01 29 -1.02 29 0 29 C-0.33 26.69 -0.66 24.38 -1 22 C-1.99 22 -2.98 22 -4 22 C-4 20.35 -4 18.7 -4 17 C-2.68 17 -1.36 17 0 17 C0 15.02 0 13.04 0 11 C-1.32 11 -2.64 11 -4 11 C-4 9.68 -4 8.36 -4 7 C-2.68 7 -1.36 7 0 7 C0 4.69 0 2.38 0 0 Z " fill="#2D6A95" transform="translate(337,40)"/>
<path d="M0 0 C1.5327042 0.00186896 3.065409 0.0032906 4.59811401 0.00428772 C8.59946389 0.00807528 12.6007765 0.01787271 16.60211182 0.0289917 C20.69827775 0.03928742 24.79444981 0.04380269 28.890625 0.04882812 C36.90366279 0.05949898 44.91667049 0.07652927 52.9296875 0.09765625 C52.9296875 0.42765625 52.9296875 0.75765625 52.9296875 1.09765625 C51.85589844 1.15824219 50.78210938 1.21882813 49.67578125 1.28125 C48.23957435 1.36573276 46.80337692 1.45037679 45.3671875 1.53515625 C44.66271484 1.57447266 43.95824219 1.61378906 43.23242188 1.65429688 C39.85626789 1.85655495 36.59144028 2.14925328 33.2421875 2.66015625 C30.1367848 3.07030378 27.58631431 3.04162394 24.4921875 2.66015625 C23.62722656 2.55832031 22.76226562 2.45648438 21.87109375 2.3515625 C21.23042969 2.26777344 20.58976562 2.18398437 19.9296875 2.09765625 C20.4246875 4.07765625 20.4246875 4.07765625 20.9296875 6.09765625 C22.07308594 6.36320312 23.21648437 6.62875 24.39453125 6.90234375 C25.88552041 7.25868078 27.37640029 7.61547529 28.8671875 7.97265625 C29.99930664 8.23369141 29.99930664 8.23369141 31.15429688 8.5 C33.09562295 8.9700969 35.01518294 9.52808595 36.9296875 10.09765625 C37.4246875 11.08765625 37.4246875 11.08765625 37.9296875 12.09765625 C32.89800646 11.6783495 28.24280608 10.98077524 23.3671875 9.66015625 C6.68376671 5.37488857 -10.94587811 5.1774817 -28.0703125 4.09765625 C-28.0703125 3.43765625 -28.0703125 2.77765625 -28.0703125 2.09765625 C-20.15525972 -1.85987014 -8.6757345 -0.03134769 0 0 Z " fill="#2B9F7F" transform="translate(45.0703125,78.90234375)"/>
<path d="M0 0 C10.56 0 21.12 0 32 0 C31.67 4.29 31.34 8.58 31 13 C25.72 13 20.44 13 15 13 C15 10.03 15 7.06 15 4 C14.34 4 13.68 4 13 4 C13.020625 4.969375 13.04125 5.93875 13.0625 6.9375 C13 10 13 10 12 11 C9.66702567 11.04092937 7.33294775 11.04241723 5 11 C5 10.67 5 10.34 5 10 C6.98 10 8.96 10 11 10 C11 7.03 11 4.06 11 1 C7.7 1 4.4 1 1 1 C1 1.66 1 2.32 1 3 C3.64 3 6.28 3 9 3 C8.67 4.32 8.34 5.64 8 7 C8 6.01 8 5.02 8 4 C5.36 4 2.72 4 0 4 C0 2.68 0 1.36 0 0 Z " fill="#729EBC" transform="translate(229,41)"/>
<path d="M0 0 C0.33 0.66 0.66 1.32 1 2 C-2.61973402 3.31626692 -5.09567131 4 -9 4 C-9 5.98 -9 7.96 -9 10 C-5.37 10 -1.74 10 2 10 C2 11.32 2 12.64 2 14 C1.01 14 0.02 14 -1 14 C-1 19.61 -1 25.22 -1 31 C-2.32 31 -3.64 31 -5 31 C-5 25.06 -5 19.12 -5 13 C-6.32 13 -7.64 13 -9 13 C-8.96519531 13.72445312 -8.93039063 14.44890625 -8.89453125 15.1953125 C-8.73368051 20.93998168 -8.76533816 25.01322966 -12 30 C-12.99 29.67 -13.98 29.34 -15 29 C-15 28.01 -15 27.02 -15 26 C-15.66 26 -16.32 26 -17 26 C-17.33 24.02 -17.66 22.04 -18 20 C-17.34 20 -16.68 20 -16 20 C-15.67 21.32 -15.34 22.64 -15 24 C-14.34 24 -13.68 24 -13 24 C-12.67 16.41 -12.34 8.82 -12 1 C-4 -1 -4 -1 0 0 Z " fill="#296996" transform="translate(225,42)"/>
<path d="M0 0 C1.32 0 2.64 0 4 0 C4.19335938 0.64453125 4.38671875 1.2890625 4.5859375 1.953125 C5.88708247 4.34351201 5.88708247 4.34351201 9.0390625 4.609375 C10.22242188 4.65578125 11.40578125 4.7021875 12.625 4.75 C14.40777344 4.83507813 14.40777344 4.83507813 16.2265625 4.921875 C17.14179688 4.94765625 18.05703125 4.9734375 19 5 C19 6.32 19 7.64 19 9 C16.69 9.33 14.38 9.66 12 10 C13.98 11.65 15.96 13.3 18 15 C17.67 15.99 17.34 16.98 17 18 C12.60249328 17.49259538 10.13051078 14.91706686 7 12 C7 11.34 7 10.68 7 10 C4.36 10 1.72 10 -1 10 C-1.226875 10.5775 -1.45375 11.155 -1.6875 11.75 C-3.38050483 14.652294 -5.18146859 16.18808695 -8 18 C-10.3125 17.75 -10.3125 17.75 -12 17 C-10.74381926 13.23145777 -9.33985294 12.92041544 -6 11 C-5.67 10.34 -5.34 9.68 -5 9 C-7.64 9 -10.28 9 -13 9 C-13 7.68 -13 6.36 -13 5 C-8.38 5 -3.76 5 1 5 C0.67 3.35 0.34 1.7 0 0 Z " fill="#6D97B5" transform="translate(277,40)"/>
<path d="M0 0 C5.94 0 11.88 0 18 0 C17.07905813 4.60470937 16.67152025 5.63156142 14 9 C14 9.66 14 10.32 14 11 C15.98 11.66 17.96 12.32 20 13 C19.34 14.32 18.68 15.64 18 17 C16.9790625 16.7834375 16.9790625 16.7834375 15.9375 16.5625 C9.94179974 15.41438718 5.06257605 14.88646562 -1 16 C-1.33 15.01 -1.66 14.02 -2 13 C0.31 12.34 2.62 11.68 5 11 C4.6390625 10.45730469 4.278125 9.91460937 3.90625 9.35546875 C3.21015625 8.28232422 3.21015625 8.28232422 2.5 7.1875 C1.80390625 6.12595703 1.80390625 6.12595703 1.09375 5.04296875 C0 3 0 3 0 0 Z " fill="#286894" transform="translate(345,56)"/>
<path d="M0 0 C1.65 0 3.3 0 5 0 C5.144375 1.134375 5.28875 2.26875 5.4375 3.4375 C5.61171478 6.80777201 5.61171478 6.80777201 7 8 C9.32817964 8.36760731 11.6618385 8.70241581 14 9 C14 8.34 14 7.68 14 7 C15.65 6.67 17.3 6.34 19 6 C18.67 7.32 18.34 8.64 18 10 C18.66 10.33 19.32 10.66 20 11 C19.01 11 18.02 11 17 11 C17 10.34 17 9.68 17 9 C15.35 10.32 13.7 11.64 12 13 C12 12.34 12 11.68 12 11 C6.06 11 0.12 11 -6 11 C-4.68 13.64 -3.36 16.28 -2 19 C-1.67 19.99 -1.34 20.98 -1 22 C-3.31 22.66 -5.62 23.32 -8 24 C-7.67 24.66 -7.34 25.32 -7 26 C-5.02 26 -3.04 26 -1 26 C-1.33 26.66 -1.66 27.32 -2 28 C-5.3 28 -8.6 28 -12 28 C-11.67 27.34 -11.34 26.68 -11 26 C-10.7724985 24.12943209 -10.59037189 22.25314042 -10.4375 20.375 C-10.35371094 19.37210938 -10.26992188 18.36921875 -10.18359375 17.3359375 C-10.12300781 16.56507812 -10.06242187 15.79421875 -10 15 C-9.01 14.67 -8.02 14.34 -7 14 C-7 13.01 -7 12.02 -7 11 C-7.99 11 -8.98 11 -10 11 C-10 9.35 -10 7.7 -10 6 C-9.01 6 -8.02 6 -7 6 C-6.67 6.66 -6.34 7.32 -6 8 C-4.68 7.67 -3.36 7.34 -2 7 C-1.34 4.69 -0.68 2.38 0 0 Z " fill="#F4FAFC" transform="translate(351,45)"/>
<path d="M0 0 C0.495 0.99 0.495 0.99 1 2 C0.195625 2.12375 -0.60875 2.2475 -1.4375 2.375 C-2.283125 2.58125 -3.12875 2.7875 -4 3 C-4.33 3.66 -4.66 4.32 -5 5 C0.28 5 5.56 5 11 5 C10.67 5.66 10.34 6.32 10 7 C-9.14 7 -28.28 7 -48 7 C-47.67 6.34 -47.34 5.68 -47 5 C-43.7 5 -40.4 5 -37 5 C-37 4.34 -37 3.68 -37 3 C-35.77925781 2.95101562 -34.55851562 2.90203125 -33.30078125 2.8515625 C-24.64524809 2.46998585 -16.20044946 1.94519997 -7.6640625 0.40234375 C-5.06375576 0.0096288 -2.6250242 -0.07159157 0 0 Z " fill="#FCFEFE" transform="translate(94,70)"/>
<path d="M0 0 C1.32 0 2.64 0 4 0 C4.66 1.32 5.32 2.64 6 4 C9.27773504 3.24849977 9.27773504 3.24849977 11 0 C12.32 0 13.64 0 15 0 C14.40072174 3.35595828 13.15377564 5.37801226 11 8 C12.269553 8.64834654 13.54069706 9.29357815 14.8125 9.9375 C15.52019531 10.29714844 16.22789062 10.65679687 16.95703125 11.02734375 C19.11810285 12.10730516 19.11810285 12.10730516 22 13 C21.67 13.99 21.34 14.98 21 16 C14.61587983 16.37553648 14.61587983 16.37553648 11.4375 14.4375 C9.08488807 12.75030625 9.08488807 12.75030625 6.3125 13.125 C1.83963689 14.30651101 -2.58670309 15.61321303 -7 17 C-7.33 15.68 -7.66 14.36 -8 13 C-4.7 11.68 -1.4 10.36 2 9 C1.67 7.68 1.34 6.36 1 5 C0.65939189 3.33480481 0.32441604 1.66842534 0 0 Z " fill="#2D6B96" transform="translate(273,56)"/>
<path d="M0 0 C5.28 0 10.56 0 16 0 C16.33 2.31 16.66 4.62 17 7 C18.98 7.66 20.96 8.32 23 9 C22.34 10.32 21.68 11.64 21 13 C19.37433394 12.52309796 17.74948689 12.04340334 16.125 11.5625 C15.22007812 11.29566406 14.31515625 11.02882813 13.3828125 10.75390625 C11 10 11 10 9 9 C9.33 8.01 9.66 7.02 10 6 C11.65 6 13.3 6 15 6 C15 4.35 15 2.7 15 1 C13.35 1 11.7 1 10 1 C9.95875 1.721875 9.9175 2.44375 9.875 3.1875 C8.62659096 7.20024334 6.37463147 8.59881991 3 11 C-0.47855946 12.78170119 -3.10701232 13.22245644 -7 13 C-7.33 11.68 -7.66 10.36 -8 9 C-6.35 8.67 -4.7 8.34 -3 8 C-3.33 7.34 -3.66 6.68 -4 6 C-2.68 6 -1.36 6 0 6 C0 4.02 0 2.04 0 0 Z " fill="#B1D0E3" transform="translate(376,60)"/>
<path d="M0 0 C2.97 0 5.94 0 9 0 C9.03738281 0.91523437 9.07476562 1.83046875 9.11328125 2.7734375 C9.21189453 4.55621094 9.21189453 4.55621094 9.3125 6.375 C9.39951172 8.15003906 9.39951172 8.15003906 9.48828125 9.9609375 C9.65714844 10.96382812 9.82601563 11.96671875 10 13 C13.20406462 15.13604308 13.99600747 15.24208908 17.66796875 15.1953125 C18.56064453 15.18886719 19.45332031 15.18242188 20.37304688 15.17578125 C21.76620117 15.15064453 21.76620117 15.15064453 23.1875 15.125 C24.12787109 15.11597656 25.06824219 15.10695313 26.03710938 15.09765625 C28.35832968 15.07409056 30.67903644 15.04119116 33 15 C32.67 16.32 32.34 17.64 32 19 C28.56257082 19.05802698 25.12526747 19.09360486 21.6875 19.125 C20.71103516 19.14175781 19.73457031 19.15851563 18.72851562 19.17578125 C17.32182617 19.18544922 17.32182617 19.18544922 15.88671875 19.1953125 C15.02264404 19.20578613 14.15856934 19.21625977 13.26831055 19.22705078 C11 19 11 19 8 17 C5.98045559 17.33820153 5.98045559 17.33820153 4 18 C3.01 18 2.02 18 1 18 C1 17.01 1 16.02 1 15 C2.32 14.34 3.64 13.68 5 13 C5 10.03 5 7.06 5 4 C3.35 4 1.7 4 0 4 C0 2.68 0 1.36 0 0 Z " fill="#41779C" transform="translate(298,53)"/>
<path d="M0 0 C2.475 0.495 2.475 0.495 5 1 C7.23167185 0.63143136 7.23167185 0.63143136 9 0 C10.32 1.98 11.64 3.96 13 6 C13.33 4.02 13.66 2.04 14 0 C14.99 0 15.98 0 17 0 C17 4.29 17 8.58 17 13 C13 12 13 12 11.25 9.4375 C10.63125 8.2309375 10.63125 8.2309375 10 7 C9.67 9.31 9.34 11.62 9 14 C8.443125 13.814375 7.88625 13.62875 7.3125 13.4375 C4.54961211 12.76509521 4.54961211 12.76509521 0 14 C0 9.38 0 4.76 0 0 Z " fill="#CEE1EB" transform="translate(207,79)"/>
<path d="M0 0 C3.75999106 0.93999776 5.2473603 2.51105689 7.5 5.625 C7.56641554 9.47710127 7.37229157 11.62348005 4.8125 14.5625 C1.76397123 15.96317538 -0.17926952 16.1092732 -3.5 15.625 C-6.55623277 13.53389337 -7.36463014 12.33193151 -8.0625 8.6875 C-7.19282262 3.95258981 -4.72210792 1.18052698 0 0 Z " fill="#BCE4F5" transform="translate(138.5,15.375)"/>
<path d="M0 0 C2.64 0 5.28 0 8 0 C8.33 3.63 8.66 7.26 9 11 C9.66 9.68 10.32 8.36 11 7 C11 8.65 11 10.3 11 12 C17.93 12 24.86 12 32 12 C32 12.99 32 13.98 32 15 C22.33333333 15 12.66666667 15 3 15 C3 14.01 3 13.02 3 12 C1.68 11.67 0.36 11.34 -1 11 C-1 10.01 -1 9.02 -1 8 C-0.01 8 0.98 8 2 8 C2 7.34 2 6.68 2 6 C1.34 6 0.68 6 0 6 C0 5.01 0 4.02 0 3 C0.66 3 1.32 3 2 3 C2 2.34 2 1.68 2 1 C1.34 0.67 0.68 0.34 0 0 Z " fill="#457A9E" transform="translate(230,57)"/>
<path d="M0 0 C0.33 0.99 0.66 1.98 1 3 C3.64 3 6.28 3 9 3 C9 3.99 9 4.98 9 6 C7.02 6 5.04 6 3 6 C2.67 9.3 2.34 12.6 2 16 C2.66 16.33 3.32 16.66 4 17 C3.01 17 2.02 17 1 17 C0.67 16.34 0.34 15.68 0 15 C-0.99 15 -1.98 15 -3 15 C-3 20.28 -3 25.56 -3 31 C-3.33 31 -3.66 31 -4 31 C-4 25.39 -4 19.78 -4 14 C-3.01 14 -2.02 14 -1 14 C-1 12.68 -1 11.36 -1 10 C-4.63 10 -8.26 10 -12 10 C-12 8.02 -12 6.04 -12 4 C-8.04 2.68 -4.08 1.36 0 0 Z " fill="#E8F4F9" transform="translate(228,42)"/>
<path d="M0 0 C5.28 0 10.56 0 16 0 C16 2.97 16 5.94 16 9 C10.72 9 5.44 9 0 9 C0 6.03 0 3.06 0 0 Z " fill="#226290" transform="translate(244,59)"/>
<path d="M0 0 C0.57878906 0.36609375 1.15757813 0.7321875 1.75390625 1.109375 C-0.73039532 2.76557605 -2.79097532 3.83518079 -5.51953125 4.94921875 C-6.34453125 5.29017578 -7.16953125 5.63113281 -8.01953125 5.98242188 C-9.74584512 6.68875901 -11.4724055 7.39449397 -13.19921875 8.09960938 C-17.42024891 9.84522232 -21.41050444 11.59177626 -25.24609375 14.109375 C-24.48425781 13.965 -23.72242188 13.820625 -22.9375 13.671875 C-16.59361479 12.53140126 -10.68838431 11.89463198 -4.24609375 12.109375 C-7.12168196 14.02643381 -8.25284106 14.45072221 -11.51953125 14.92578125 C-12.75703125 15.11237305 -12.75703125 15.11237305 -14.01953125 15.30273438 C-14.87804687 15.42455078 -15.7365625 15.54636719 -16.62109375 15.671875 C-18.31653053 15.92233725 -20.01184693 16.17361598 -21.70703125 16.42578125 C-22.4969043 16.54195801 -23.28677734 16.65813477 -24.10058594 16.77783203 C-26.49915924 17.14848093 -28.87381087 17.59684475 -31.24609375 18.109375 C-30.92763004 15.03437293 -30.6912126 13.5245069 -28.390625 11.37890625 C-24.08550379 8.6891069 -20.18623032 6.45668497 -15.24609375 5.109375 C-12.8278169 4.2184309 -10.54953064 3.27842401 -8.296875 2.0234375 C-7.59949219 1.63929687 -6.90210937 1.25515625 -6.18359375 0.859375 C-5.53261719 0.48296875 -4.88164063 0.1065625 -4.2109375 -0.28125 C-2.24609375 -0.890625 -2.24609375 -0.890625 0 0 Z " fill="#0E97D8" transform="translate(48.24609375,60.890625)"/>
<path d="M0 0 C2.08326131 -0.02709444 4.16662441 -0.04643873 6.25 -0.0625 C7.41015625 -0.07410156 8.5703125 -0.08570312 9.765625 -0.09765625 C12.48206252 -0.01563821 14.41313096 0.35096918 17 1 C19.95010979 1.3120808 22.91211763 1.42306014 25.875 1.5625 C27.17195801 1.62618774 27.17195801 1.62618774 28.49511719 1.69116211 C38.66068557 2.14274304 48.82703681 2.0948426 59 2 C59 1.34 59 0.68 59 0 C61.31 0 63.62 0 66 0 C49.04227774 11.30514817 20.26392069 5.05265251 1.79052734 1.3671875 C1.19965332 1.24601562 0.6087793 1.12484375 0 1 C0 0.67 0 0.34 0 0 Z " fill="#33A1C9" transform="translate(83,91)"/>
<path d="M0 0 C1.8125 1 1.8125 1 3 3 C3.55003751 6.616685 3.71020228 9.80386985 1.8125 13 C-0.66525842 14.36703913 -2.21155919 14.41826612 -5 14 C-6.8125 13 -6.8125 13 -8 11 C-8.55003751 7.383315 -8.71020228 4.19613015 -6.8125 1 C-4.33474158 -0.36703913 -2.78844081 -0.41826612 0 0 Z " fill="#4E7E9F" transform="translate(364,79)"/>
<path d="M0 0 C0.99 0 1.98 0 3 0 C3 0.66 3 1.32 3 2 C2.01 2.66 1.02 3.32 0 4 C-0.2502157 7.08365871 -0.2502157 7.08365871 0 10 C0.66 10.33 1.32 10.66 2 11 C0.25531628 11.70088156 -1.49601161 12.38524009 -3.25 13.0625 C-4.22453125 13.44535156 -5.1990625 13.82820313 -6.203125 14.22265625 C-9 15 -9 15 -11.01171875 14.43359375 C-14.16138728 13.74673087 -15.88722934 15.36935883 -18.5625 17 C-21.44140625 18.75 -21.44140625 18.75 -24 20 C-24.99 19.67 -25.98 19.34 -27 19 C-24.04533514 16.66117864 -21.02342871 14.87081842 -17.6875 13.125 C-14.27007949 11.2975024 -11.05370192 9.42941822 -7.9375 7.125 C-5 5 -5 5 -3 5 C-2.67 4.01 -2.34 3.02 -2 2 C-1.34 2 -0.68 2 0 2 C0 1.34 0 0.68 0 0 Z " fill="#4DBBED" transform="translate(59,47)"/>
<path d="M0 0 C1.32 0 2.64 0 4 0 C4 1.32 4 2.64 4 4 C5.98 4 7.96 4 10 4 C10 4.99 10 5.98 10 7 C9.34 7 8.68 7 8 7 C7.67 8.65 7.34 10.3 7 12 C7.99 12 8.98 12 10 12 C10 12.66 10 13.32 10 14 C7.69 14 5.38 14 3 14 C3.66 11.69 4.32 9.38 5 7 C3.35 7 1.7 7 0 7 C0 9.31 0 11.62 0 14 C-1.98 14 -3.96 14 -6 14 C-6 13.34 -6 12.68 -6 12 C-5.01 12 -4.02 12 -3 12 C-3.33 10.35 -3.66 8.7 -4 7 C-4.66 7 -5.32 7 -6 7 C-6 5.68 -6 4.36 -6 3 C-4.35 3 -2.7 3 -1 3 C-0.67 2.01 -0.34 1.02 0 0 Z " fill="#2C6B97" transform="translate(201,40)"/>
<path d="M0 0 C0.05382106 2.62527189 0.09358313 5.24944713 0.125 7.875 C0.14175781 8.62136719 0.15851563 9.36773437 0.17578125 10.13671875 C0.1933959 12.09194461 0.10320189 14.04742021 0 16 C-2 18 -2 18 -4.625 18.125 C-5.40875 18.08375 -6.1925 18.0425 -7 18 C-7 17.01 -7 16.02 -7 15 C-6.01 15 -5.02 15 -4 15 C-4 14.34 -4 13.68 -4 13 C-5.65 13 -7.3 13 -9 13 C-9 9.37 -9 5.74 -9 2 C-5.23312136 0.11656068 -3.97041037 -0.22057835 0 0 Z " fill="#4B84AB" transform="translate(330,49)"/>
<path d="M0 0 C4.95 0 9.9 0 15 0 C15 2.64 15 5.28 15 8 C10.05 8 5.1 8 0 8 C0 5.36 0 2.72 0 0 Z " fill="#578FB5" transform="translate(244,46)"/>
<path d="M0 0 C1.32 0 2.64 0 4 0 C4.20367187 0.64453125 4.40734375 1.2890625 4.6171875 1.953125 C5.8667935 4.31153872 5.8667935 4.31153872 8.8203125 4.609375 C9.91085937 4.65578125 11.00140625 4.7021875 12.125 4.75 C13.76855469 4.83507813 13.76855469 4.83507813 15.4453125 4.921875 C16.28835938 4.94765625 17.13140625 4.9734375 18 5 C18 5.99 18 6.98 18 8 C8.1 8 -1.8 8 -12 8 C-12 7.01 -12 6.02 -12 5 C-7.71 5 -3.42 5 1 5 C0.67 3.35 0.34 1.7 0 0 Z " fill="#206290" transform="translate(277,40)"/>
<path d="M0 0 C7 0 7 0 9 1.25 C10 3 10 3 9.75 5.0625 C9 7 9 7 8 9 C8.89363605 11.60931266 8.89363605 11.60931266 10 14 C9.01 14 8.02 14 7 14 C6.71125 13.360625 6.4225 12.72125 6.125 12.0625 C5.17176549 9.84793921 5.17176549 9.84793921 3 9 C3 10.65 3 12.3 3 14 C2.01 14 1.02 14 0 14 C0 9.38 0 4.76 0 0 Z " fill="#5282A3" transform="translate(370,79)"/>
<path d="M0 0 C3.3 0 6.6 0 10 0 C10 1.32 10 2.64 10 4 C8.68 4 7.36 4 6 4 C6 6.97 6 9.94 6 13 C5.34 12.67 4.68 12.34 4 12 C4 11.34 4 10.68 4 10 C2.01508358 10.26676204 2.01508358 10.26676204 0 11 C-0.33 11.99 -0.66 12.98 -1 14 C-1.99 14 -2.98 14 -4 14 C-3.00956295 9.16371695 -2.04301154 4.52381127 0 0 Z " fill="#719EB9" transform="translate(395,79)"/>
<path d="M0 0 C4 1 4 1 5.25 3.0625 C5.4975 3.701875 5.745 4.34125 6 5 C6.66 3.35 7.32 1.7 8 0 C8.66 0 9.32 0 10 0 C10 4.29 10 8.58 10 13 C6 12 6 12 4 9 C3.67 10.65 3.34 12.3 3 14 C2.01 14 1.02 14 0 14 C0 9.38 0 4.76 0 0 Z " fill="#5A86A4" transform="translate(255,79)"/>
<path d="M0 0 C5.94 0 11.88 0 18 0 C18 1.32 18 2.64 18 4 C15.5 6.25 15.5 6.25 13 8 C12.67 7.34 12.34 6.68 12 6 C8.97065509 5.34227572 8.97065509 5.34227572 6 5 C6 5.66 6 6.32 6 7 C5.01 6.67 4.02 6.34 3 6 C3.33 5.01 3.66 4.02 4 3 C2.68 3 1.36 3 0 3 C0 2.01 0 1.02 0 0 Z " fill="#3A7197" transform="translate(310,41)"/>
<path d="M0 0 C2.31 0 4.62 0 7 0 C9 2 9 2 9.125 5.125 C9.08375 6.07375 9.0425 7.0225 9 8 C7.02 8.33 5.04 8.66 3 9 C3 10.65 3 12.3 3 14 C2.01 14 1.02 14 0 14 C0 9.38 0 4.76 0 0 Z " fill="#628FAE" transform="translate(344,79)"/>
<path d="M0 0 C1.32 0.33 2.64 0.66 4 1 C5.75 4.0625 5.75 4.0625 7 7 C7.33 5.02 7.66 3.04 8 1 C8.66 1 9.32 1 10 1 C10 5.29 10 9.58 10 14 C7 13 7 13 5.3125 9.9375 C4.879375 8.968125 4.44625 7.99875 4 7 C3.67 9.31 3.34 11.62 3 14 C2.01 13.67 1.02 13.34 0 13 C0 8.71 0 4.42 0 0 Z " fill="#4A7A9C" transform="translate(319,79)"/>
<path d="M0 0 C1.32 0 2.64 0 4 0 C4.67260351 1.76858691 5.33788395 3.53996016 6 5.3125 C6.37125 6.29863281 6.7425 7.28476563 7.125 8.30078125 C8 11 8 11 8 14 C7.01 14 6.02 14 5 14 C4.67 13.01 4.34 12.02 4 11 C2.68 11 1.36 11 0 11 C-0.33 11.99 -0.66 12.98 -1 14 C-1.66 14 -2.32 14 -3 14 C-2.48594831 9.03083364 -1.76615118 4.70973649 0 0 Z " fill="#78A2BE" transform="translate(310,79)"/>
<path d="M0 0 C1.890625 0.23046875 1.890625 0.23046875 4 1 C5.046875 2.92578125 5.046875 2.92578125 5.75 5.3125 C5.99234375 6.09238281 6.2346875 6.87226562 6.484375 7.67578125 C7 10 7 10 7 14 C6.01 13.67 5.02 13.34 4 13 C4 12.01 4 11.02 4 10 C2.35 10 0.7 10 -1 10 C-1 11.32 -1 12.64 -1 14 C-1.99 14 -2.98 14 -4 14 C-3.46148032 8.72250715 -2.22656164 4.74354436 0 0 Z " fill="#5381A1" transform="translate(246,79)"/>
<path d="M0 0 C3.96 0 7.92 0 12 0 C12 2.97 12 5.94 12 9 C13.65 9 15.3 9 17 9 C17 10.32 17 11.64 17 13 C13.625 13.125 13.625 13.125 10 13 C8 11 8 11 7.8125 7.5 C8 4 8 4 9 2 C6.36 2 3.72 2 1 2 C0.67 3.32 0.34 4.64 0 6 C0 4.02 0 2.04 0 0 Z " fill="#39739B" transform="translate(348,41)"/>
<path d="M0 0 C0.99 0 1.98 0 3 0 C3 4.29 3 8.58 3 13 C-1 12 -1 12 -2.75 9.4375 C-3.1625 8.633125 -3.575 7.82875 -4 7 C-4.33 8.98 -4.66 10.96 -5 13 C-5.66 13 -6.32 13 -7 13 C-7 9.04 -7 5.08 -7 1 C-3 2 -3 2 -1.75 4.0625 C-1.5025 4.701875 -1.255 5.34125 -1 6 C-0.67 4.02 -0.34 2.04 0 0 Z " fill="#6C98B6" transform="translate(221,79)"/>
<path d="M0 0 C1.2065625 0.0309375 1.2065625 0.0309375 2.4375 0.0625 C2.4375 1.0525 2.4375 2.0425 2.4375 3.0625 C3.0975 3.3925 3.7575 3.7225 4.4375 4.0625 C4.251875 4.701875 4.06625 5.34125 3.875 6 C3.730625 6.680625 3.58625 7.36125 3.4375 8.0625 C3.7675 8.3925 4.0975 8.7225 4.4375 9.0625 C4.47813832 10.72867115 4.480221 12.39638095 4.4375 14.0625 C5.0975 14.3925 5.7575 14.7225 6.4375 15.0625 C5.1175 15.0625 3.7975 15.0625 2.4375 15.0625 C2.4375 13.4125 2.4375 11.7625 2.4375 10.0625 C1.4475 10.0625 0.4575 10.0625 -0.5625 10.0625 C-0.5625 11.7125 -0.5625 13.3625 -0.5625 15.0625 C-1.5525 14.4025 -2.5425 13.7425 -3.5625 13.0625 C-3.890625 10.27734375 -3.890625 10.27734375 -3.8125 7 C-3.79703125 5.91589844 -3.7815625 4.83179688 -3.765625 3.71484375 C-3.48764485 0.08506451 -3.48764485 0.08506451 0 0 Z " fill="#427BA3" transform="translate(314.5625,51.9375)"/>
<path d="M0 0 C7.26 0 14.52 0 22 0 C22 2.64 22 5.28 22 8 C21.01 8 20.02 8 19 8 C19 6.02 19 4.04 19 2 C13.72 2 8.44 2 3 2 C3 3.98 3 5.96 3 8 C2.01 8 1.02 8 0 8 C0 5.36 0 2.72 0 0 Z " fill="#195D8E" transform="translate(373,58)"/>
<path d="M0 0 C6.6 0.33 13.2 0.66 20 1 C20 4.63 20 8.26 20 12 C13.4 12 6.8 12 0 12 C0 8.04 0 4.08 0 0 Z M3 2 C3 4.97 3 7.94 3 11 C8.28 11 13.56 11 19 11 C19 8.03 19 5.06 19 2 C13.72 2 8.44 2 3 2 Z " fill="#BFE1F4" transform="translate(241,57)"/>
<path d="M0 0 C5.50588235 0.48941176 5.50588235 0.48941176 7.875 2.9375 C9 5 9 5 9 7 C6.69 7.66 4.38 8.32 2 9 C2.33 9.66 2.66 10.32 3 11 C4.98 11 6.96 11 9 11 C8.67 11.66 8.34 12.32 8 13 C4.7 13 1.4 13 -2 13 C-1.67 12.34 -1.34 11.68 -1 11 C-0.7724985 9.12943209 -0.59037189 7.25314042 -0.4375 5.375 C-0.35371094 4.37210937 -0.26992188 3.36921875 -0.18359375 2.3359375 C-0.12300781 1.56507812 -0.06242187 0.79421875 0 0 Z " fill="#EBF6FB" transform="translate(341,60)"/>
<path d="M0 0 C2.64 0 5.28 0 8 0 C8.92017937 11.63856502 8.92017937 11.63856502 6.6640625 14.9765625 C5 16.3125 5 16.3125 2 18 C1.34 17.01 0.68 16.02 0 15 C1.375 13.5 1.375 13.5 3 12 C3.66 12 4.32 12 5 12 C5 9.03 5 6.06 5 3 C3.35 3 1.7 3 0 3 C0 2.01 0 1.02 0 0 Z " fill="#23638F" transform="translate(298,54)"/>
<path d="M0 0 C1.36125 0.37125 1.36125 0.37125 2.75 0.75 C2.75 1.41 2.75 2.07 2.75 2.75 C0.77 3.08 -1.21 3.41 -3.25 3.75 C-3.25 5.73 -3.25 7.71 -3.25 9.75 C-1.93 10.41 -0.61 11.07 0.75 11.75 C0.75 10.43 0.75 9.11 0.75 7.75 C0.09 7.42 -0.57 7.09 -1.25 6.75 C0.07 6.75 1.39 6.75 2.75 6.75 C2.79254356 8.74954746 2.79080783 10.75041636 2.75 12.75 C1.75 13.75 1.75 13.75 -1.125 14.0625 C-4.25 13.75 -4.25 13.75 -6.125 12.125 C-7.58486373 9.04306546 -7.74214954 7.12473969 -7.25 3.75 C-4.97472591 0.33708887 -4.14843699 -0.31911054 0 0 Z " fill="#407396" transform="translate(275.25,79.25)"/>
<path d="M0 0 C1.32 0 2.64 0 4 0 C3.71349017 3.43811794 3.26566773 4.74171193 0.75 7.1875 C-3.57603333 10.03874924 -6.79027031 11.29769884 -12 11 C-12.33 9.68 -12.66 8.36 -13 7 C-12.38511719 6.87882812 -11.77023437 6.75765625 -11.13671875 6.6328125 C-10.32847656 6.46523437 -9.52023437 6.29765625 -8.6875 6.125 C-7.88699219 5.96257812 -7.08648437 5.80015625 -6.26171875 5.6328125 C-3.74698882 5.05521001 -3.74698882 5.05521001 -1 3 C-0.67 2.01 -0.34 1.02 0 0 Z " fill="#2D6995" transform="translate(381,62)"/>
<path d="M0 0 C2.31 0 4.62 0 7 0 C7 3.63 7 7.26 7 11 C6.34 11 5.68 11 5 11 C4.67 9.68 4.34 8.36 4 7 C3.34 7 2.68 7 2 7 C2.33 8.98 2.66 10.96 3 13 C3.99 12.67 4.98 12.34 6 12 C5.34 13.32 4.68 14.64 4 16 C4 15.34 4 14.68 4 14 C3.01 14.99 2.02 15.98 1 17 C0.34 16.67 -0.32 16.34 -1 16 C-0.67 12.7 -0.34 9.4 0 6 C1.98 6 3.96 6 6 6 C6 5.01 6 4.02 6 3 C4.02 3 2.04 3 0 3 C0 2.01 0 1.02 0 0 Z " fill="#B9DBEE" transform="translate(205,55)"/>
<path d="M0 0 C0.99 0 1.98 0 3 0 C3.33 1.32 3.66 2.64 4 4 C4.66 4 5.32 4 6 4 C6.33 3.01 6.66 2.02 7 1 C7.66 1 8.32 1 9 1 C8.79375 2.03125 8.5875 3.0625 8.375 4.125 C7.98805597 8.1234216 8.48116924 10.33693757 10 14 C9.01 14 8.02 14 7 14 C6.67 12.35 6.34 10.7 6 9 C5.34 9 4.68 9 4 9 C3.67 10.65 3.34 12.3 3 14 C2.01 14 1.02 14 0 14 C0.350625 13.29875 0.70125 12.5975 1.0625 11.875 C2.48128315 7.52406501 1.41477857 4.24433571 0 0 Z " fill="#517E9E" transform="translate(195,79)"/>
<path d="M0 0 C2.05078125 0.03255208 4.1015625 0.06510417 6.15234375 0.09765625 C6.15234375 1.08765625 6.15234375 2.07765625 6.15234375 3.09765625 C4.17234375 3.09765625 2.19234375 3.09765625 0.15234375 3.09765625 C0.16394531 3.80792969 0.17554688 4.51820312 0.1875 5.25 C0.20103516 6.62865234 0.20103516 6.62865234 0.21484375 8.03515625 C0.22644531 8.95167969 0.23804688 9.86820313 0.25 10.8125 C0.15234375 13.09765625 0.15234375 13.09765625 -0.84765625 14.09765625 C-2.5138274 14.13829457 -4.1815372 14.14037725 -5.84765625 14.09765625 C-5.84765625 13.10765625 -5.84765625 12.11765625 -5.84765625 11.09765625 C-4.85765625 11.09765625 -3.86765625 11.09765625 -2.84765625 11.09765625 C-2.85925781 10.38738281 -2.87085938 9.67710938 -2.8828125 8.9453125 C-2.89634766 7.56666016 -2.89634766 7.56666016 -2.91015625 6.16015625 C-2.92175781 5.24363281 -2.93335938 4.32710937 -2.9453125 3.3828125 C-2.82618856 0.59531224 -2.79215837 0.14757708 0 0 Z " fill="#2B6893" transform="translate(204.84765625,57.90234375)"/>
<path d="M0 0 C0.66 0 1.32 0 2 0 C1.61479436 2.53910197 1.29902057 3.72751123 -0.62890625 5.484375 C-1.26699219 5.90203125 -1.90507812 6.3196875 -2.5625 6.75 C-3.20316406 7.17796875 -3.84382813 7.6059375 -4.50390625 8.046875 C-4.99761719 8.36140625 -5.49132812 8.6759375 -6 9 C-6 8.34 -6 7.68 -6 7 C-8.97 7.66 -11.94 8.32 -15 9 C-14.67 7.68 -14.34 6.36 -14 5 C-13.39671875 4.87882812 -12.7934375 4.75765625 -12.171875 4.6328125 C-11.37265625 4.46523438 -10.5734375 4.29765625 -9.75 4.125 C-8.96109375 3.96257813 -8.1721875 3.80015625 -7.359375 3.6328125 C-4.62386185 2.89911527 -2.03571952 2.03571952 0 0 Z " fill="#3E759B" transform="translate(384,46)"/>
<path d="M0 0 C3.3 0 6.6 0 10 0 C10.33 0.99 10.66 1.98 11 3 C9.68 3 8.36 3 7 3 C7 6.63 7 10.26 7 14 C6.01 14 5.02 14 4 14 C4 10.37 4 6.74 4 3 C2.68 3 1.36 3 0 3 C0 2.01 0 1.02 0 0 Z " fill="#5884A3" transform="translate(283,79)"/>
<path d="M0 0 C1.32 0.33 2.64 0.66 4 1 C3.34 1 2.68 1 2 1 C2 2.65 2 4.3 2 6 C2.99 5.67 3.98 5.34 5 5 C5.73323796 2.98491642 5.73323796 2.98491642 6 1 C6.99 1 7.98 1 9 1 C9 4.66666667 9 8.33333333 9 12 C8.01 12 7.02 12 6 12 C5.67 10.68 5.34 9.36 5 8 C4.01 8 3.02 8 2 8 C2 9.32 2 10.64 2 12 C1.34 12 0.68 12 0 12 C0 8.04 0 4.08 0 0 Z " fill="#3E7297" transform="translate(296,80)"/>
<path d="M0 0 C0.6875 1.8125 0.6875 1.8125 1 4 C-0.4375 5.75 -0.4375 5.75 -2 7 C-1.67 7.66 -1.34 8.32 -1 9 C-1.99 9.33 -2.98 9.66 -4 10 C2.93 10.495 2.93 10.495 10 11 C10 13.97 10 16.94 10 20 C9.67 20 9.34 20 9 20 C9 17.36 9 14.72 9 12 C1.74 12 -5.52 12 -13 12 C-13 14.64 -13 17.28 -13 20 C-13.33 20 -13.66 20 -14 20 C-14 17.03 -14 14.06 -14 11 C-11.36 11 -8.72 11 -6 11 C-6.33 10.01 -6.66 9.02 -7 8 C-5.47005208 6.79557292 -3.94010417 5.59114583 -2.41015625 4.38671875 C-0.72844923 2.94316909 -0.72844923 2.94316909 0 0 Z " fill="#3C749B" transform="translate(386,46)"/>
<path d="M0 0 C3.96086075 2.17598454 6.98822036 4.69024054 10.1875 7.875 C11.47720703 9.13957031 11.47720703 9.13957031 12.79296875 10.4296875 C16.11744976 14.30138397 17 16.84447333 17 21.9375 C16.27336163 26.78482181 13.63685518 28.9048041 10 32 C9.34 31.67 8.68 31.34 8 31 C9.28062485 29.2925002 10.61767557 27.62626404 12 26 C12.66 26 13.32 26 14 26 C14 24.68 14 23.36 14 22 C14.66 22 15.32 22 16 22 C13.01978423 13.83680028 8.82936994 9.01461038 2.0625 3.6875 C1.381875 3.130625 0.70125 2.57375 0 2 C0 1.34 0 0.68 0 0 Z " fill="#ADDAF0" transform="translate(111,27)"/>
<path d="M0 0 C1.98 0 3.96 0 6 0 C5.63692621 2.68674602 5.33095772 4.55872304 3.6875 6.75 C1.64099873 8.26592687 0.56931574 8.92443189 -2 9 C-4.75 7.25 -4.75 7.25 -7 5 C-7 4.01 -7 3.02 -7 2 C-4.36 2 -1.72 2 1 2 C1.33 2.66 1.66 3.32 2 4 C2.66 4 3.32 4 4 4 C4 3.01 4 2.02 4 1 C2.68 0.67 1.36 0.34 0 0 Z " fill="#316C95" transform="translate(357,56)"/>
<path d="M0 0 C4.22489602 0.53280216 6.54080716 1.87678199 9.8125 4.5625 C10.60269531 5.20316406 11.39289063 5.84382813 12.20703125 6.50390625 C12.79871094 6.99761719 13.39039062 7.49132812 14 8 C10.59962331 8 10.0231467 7.51043804 7.4375 5.5 C5.00245996 3.45917864 5.00245996 3.45917864 2 3 C1.731875 3.86625 1.46375 4.7325 1.1875 5.625 C-0.80695881 11.29346189 -3.6080137 16.08746812 -7 21 C-7.99 20.67 -8.98 20.34 -10 20 C-9.61328125 19.47792969 -9.2265625 18.95585938 -8.828125 18.41796875 C-4.69841714 12.58117867 -2.16072283 6.79992186 0 0 Z " fill="#ABD8EF" transform="translate(97,18)"/>
<path d="M0 0 C3.3 0 6.6 0 10 0 C10 0.99 10 1.98 10 3 C9.01 3 8.02 3 7 3 C7 6.3 7 9.6 7 13 C6.01 13.33 5.02 13.66 4 14 C4 10.37 4 6.74 4 3 C2.68 3 1.36 3 0 3 C0 2.01 0 1.02 0 0 Z " fill="#5B87A6" transform="translate(381,79)"/>
<path d="M0 0 C0.99 0 1.98 0 3 0 C3 0.66 3 1.32 3 2 C2.01 2.66 1.02 3.32 0 4 C-0.2502157 7.08365871 -0.2502157 7.08365871 0 10 C0.66 10.33 1.32 10.66 2 11 C-0.31 11.33 -2.62 11.66 -5 12 C-4.67 11.01 -4.34 10.02 -4 9 C-4.5775 9.350625 -5.155 9.70125 -5.75 10.0625 C-8.39786506 11.16577711 -9.33185326 10.80156509 -12 10 C-10.87926138 9.16094435 -9.75325453 8.32892169 -8.625 7.5 C-7.99851562 7.0359375 -7.37203125 6.571875 -6.7265625 6.09375 C-5 5 -5 5 -3 5 C-2.67 4.01 -2.34 3.02 -2 2 C-1.34 2 -0.68 2 0 2 C0 1.34 0 0.68 0 0 Z " fill="#6AC6EF" transform="translate(59,47)"/>
<path d="M0 0 C0.66 0 1.32 0 2 0 C2 2.97 2 5.94 2 9 C7.61 9 13.22 9 19 9 C19 9.33 19 9.66 19 10 C10.09 10 1.18 10 -8 10 C-8 9.01 -8 8.02 -8 7 C-4.535 6.505 -4.535 6.505 -1 6 C-0.67 4.02 -0.34 2.04 0 0 Z " fill="#B0D4ED" transform="translate(242,45)"/>
<path d="M0 0 C5.28 0 10.56 0 16 0 C16 2.97 16 5.94 16 9 C15.67 9 15.34 9 15 9 C15 6.36 15 3.72 15 1 C14.01 1 13.02 1 12 1 C12 1.99 12 2.98 12 4 C10.35 4 8.7 4 7 4 C7 4.99 7 5.98 7 7 C5.68 7 4.36 7 3 7 C3 5.02 3 3.04 3 1 C2.01 0.67 1.02 0.34 0 0 Z " fill="#6898B9" transform="translate(244,59)"/>
<path d="M0 0 C1.32 0 2.64 0 4 0 C4 1.32 4 2.64 4 4 C5.98 4 7.96 4 10 4 C10 4.99 10 5.98 10 7 C4.72 7 -0.56 7 -6 7 C-6 5.68 -6 4.36 -6 3 C-4.35 3 -2.7 3 -1 3 C-0.67 2.01 -0.34 1.02 0 0 Z " fill="#27658F" transform="translate(201,40)"/>
<path d="M0 0 C0 0.66 0 1.32 0 2 C-10.02466238 4.07002769 -19.75361366 5.53571062 -30 6 C-30 5.34 -30 4.68 -30 4 C-29.38479492 3.91435791 -28.76958984 3.82871582 -28.13574219 3.74047852 C-25.34017963 3.35003829 -22.54509064 2.95630373 -19.75 2.5625 C-18.78191406 2.42779297 -17.81382813 2.29308594 -16.81640625 2.15429688 C-15.88183594 2.02216797 -14.94726562 1.89003906 -13.984375 1.75390625 C-12.69611816 1.57323608 -12.69611816 1.57323608 -11.38183594 1.38891602 C-9.02674936 1.03968742 -9.02674936 1.03968742 -6.86035156 0.45678711 C-4.53992797 -0.11296519 -2.37949441 -0.06609707 0 0 Z " fill="#6DA2C1" transform="translate(119,69)"/>
<path d="M0 0 C3.125 0.375 3.125 0.375 6 1 C6 1.66 6 2.32 6 3 C4.02 3 2.04 3 0 3 C0 3.66 0 4.32 0 5 C1.98 5.66 3.96 6.32 6 7 C6.042721 8.66611905 6.04063832 10.33382885 6 12 C5 13 5 13 1.4375 13.0625 C0.303125 13.041875 -0.83125 13.02125 -2 13 C-2 12.34 -2 11.68 -2 11 C-0.35 11 1.3 11 3 11 C3.33 10.34 3.66 9.68 4 9 C3.195625 8.773125 2.39125 8.54625 1.5625 8.3125 C-1 7 -1 7 -1.9375 4.5 C-1.958125 3.675 -1.97875 2.85 -2 2 C-1.34 1.34 -0.68 0.68 0 0 Z " fill="#467699" transform="translate(335,79)"/>
<path d="M0 0 C6.6 0 13.2 0 20 0 C20 0.99 20 1.98 20 3 C17.04160645 3.02689449 14.08345573 3.04678741 11.125 3.0625 C9.86236328 3.07506836 9.86236328 3.07506836 8.57421875 3.08789062 C7.76855469 3.09111328 6.96289062 3.09433594 6.1328125 3.09765625 C5.01737061 3.10551147 5.01737061 3.10551147 3.87939453 3.11352539 C2 3 2 3 0 2 C0 1.34 0 0.68 0 0 Z " fill="#5688AB" transform="translate(241,55)"/>
<path d="M0 0 C-2.87558821 1.91705881 -4.00674731 2.34134721 -7.2734375 2.81640625 C-8.0984375 2.94080078 -8.9234375 3.06519531 -9.7734375 3.19335938 C-10.63195312 3.31517578 -11.49046875 3.43699219 -12.375 3.5625 C-14.07043678 3.81296225 -15.76575318 4.06424098 -17.4609375 4.31640625 C-18.25081055 4.43258301 -19.04068359 4.54875977 -19.85449219 4.66845703 C-22.25306549 5.03910593 -24.62771712 5.48746975 -27 6 C-27 5.01 -27 4.02 -27 3 C-24 1 -24 1 -21.609375 1.43359375 C-20.74828125 1.62050781 -19.8871875 1.80742188 -19 2 C-16.61954581 1.69795979 -16.61954581 1.69795979 -14.25 1.0625 C-9.37765188 -0.02755987 -4.9829963 -0.16074182 0 0 Z " fill="#2788BF" transform="translate(44,73)"/>
<path d="M0 0 C8.25 0 16.5 0 25 0 C21.16457543 2.55694972 19.34097467 2.04045639 14.8125 1.625 C12.90404297 1.45871094 12.90404297 1.45871094 10.95703125 1.2890625 C9.98121094 1.19367188 9.00539063 1.09828125 8 1 C8 2.32 8 3.64 8 5 C5.69 5 3.38 5 1 5 C0.67 3.35 0.34 1.7 0 0 Z " fill="#069583" transform="translate(57,80)"/>
<path d="M0 0 C0.99 0 1.98 0 3 0 C3.05389087 1.95803507 3.09274217 3.91648909 3.125 5.875 C3.14820313 6.96554688 3.17140625 8.05609375 3.1953125 9.1796875 C3 12 3 12 1 14 C-2.125 13.625 -2.125 13.625 -5 13 C-5 12.34 -5 11.68 -5 11 C-3.35 11 -1.7 11 0 11 C0 7.37 0 3.74 0 0 Z " fill="#4D7C9E" transform="translate(231,79)"/>
<path d="M0 0 C1.26092972 0.00212242 1.26092972 0.00212242 2.54733276 0.00428772 C5.23732025 0.00989388 7.92722509 0.02244739 10.6171875 0.03515625 C12.43880088 0.04017046 14.26041557 0.0447335 16.08203125 0.04882812 C20.55211527 0.05986531 25.02213736 0.07713405 29.4921875 0.09765625 C29.4921875 0.42765625 29.4921875 0.75765625 29.4921875 1.09765625 C13.6521875 1.59265625 13.6521875 1.59265625 -2.5078125 2.09765625 C-2.5078125 2.42765625 -2.5078125 2.75765625 -2.5078125 3.09765625 C-5.1478125 3.09765625 -7.7878125 3.09765625 -10.5078125 3.09765625 C-10.5078125 2.43765625 -10.5078125 1.77765625 -10.5078125 1.09765625 C-7.22889325 -0.54180338 -3.60167716 -0.02264553 0 0 Z " fill="#189765" transform="translate(27.5078125,79.90234375)"/>
<path d="M0 0 C2.64 0 5.28 0 8 0 C8 2.64 8 5.28 8 8 C6.02 8 4.04 8 2 8 C2 7.34 2 6.68 2 6 C1.34 6 0.68 6 0 6 C0 5.01 0 4.02 0 3 C0.66 3 1.32 3 2 3 C2 2.34 2 1.68 2 1 C1.34 0.67 0.68 0.34 0 0 Z " fill="#437CA3" transform="translate(230,57)"/>
<path d="M0 0 C4.571279 0.54855348 8.67435795 1.41744803 13 3 C12.34 4.32 11.68 5.64 11 7 C9.37433394 6.52309796 7.74948689 6.04340334 6.125 5.5625 C5.22007812 5.29566406 4.31515625 5.02882813 3.3828125 4.75390625 C1 4 1 4 -1 3 C-0.67 2.01 -0.34 1.02 0 0 Z " fill="#40779C" transform="translate(386,66)"/>
<path d="M0 0 C0.99 0.33 1.98 0.66 3 1 C2.34 1 1.68 1 1 1 C1 1.66 1 2.32 1 3 C-5.10797151 7.71451793 -12.43692857 12.16652814 -20 14 C-22.28515625 13.59375 -22.28515625 13.59375 -24 13 C-22.9378125 12.56429687 -21.875625 12.12859375 -20.78125 11.6796875 C-10.49096147 7.4256069 -10.49096147 7.4256069 -1.48046875 0.96875 C-0.99191406 0.6490625 -0.50335938 0.329375 0 0 Z " fill="#2E92CA" transform="translate(80,46)"/>
<path d="M0 0 C0 0.66 0 1.32 0 2 C-0.99 2.33 -1.98 2.66 -3 3 C-3.33 2.67 -3.66 2.34 -4 2 C-4.99 4.64 -5.98 7.28 -7 10 C-7.99 9.67 -8.98 9.34 -10 9 C-10.25 3.375 -10.25 3.375 -8 0 C-5.0187907 -1.19248372 -3.02213602 -0.97140086 0 0 Z " fill="#AADAF1" transform="translate(141,18)"/>
<path d="M0 0 C1.4540625 0.0309375 1.4540625 0.0309375 2.9375 0.0625 C2.2775 0.7225 1.6175 1.3825 0.9375 2.0625 C1.9275 2.3925 2.9175 2.7225 3.9375 3.0625 C3.9375 5.3725 3.9375 7.6825 3.9375 10.0625 C3.6075 10.0625 3.2775 10.0625 2.9375 10.0625 C2.9375 8.0825 2.9375 6.1025 2.9375 4.0625 C1.9475 4.5575 1.9475 4.5575 0.9375 5.0625 C0.9375 6.3825 0.9375 7.7025 0.9375 9.0625 C-2.9375 8.1875 -2.9375 8.1875 -4.0625 7.0625 C-4.1875 4.0625 -4.1875 4.0625 -4.0625 1.0625 C-3.0625 0.0625 -3.0625 0.0625 0 0 Z " fill="#B1CBDD" transform="translate(275.0625,81.9375)"/>
<path d="M0 0 C0.66 0 1.32 0 2 0 C2.433125 0.45375 2.86625 0.9075 3.3125 1.375 C5.35628817 3.34309231 7.34530324 4.06726871 10 5 C10 5.33 10 5.66 10 6 C4.39 6 -1.22 6 -7 6 C-5.62209707 3.24419414 -3.62850007 2.51138754 -1 1 C-0.67 0.67 -0.34 0.34 0 0 Z " fill="#C0DDEE" transform="translate(388,51)"/>
<path d="M0 0 C0.66 0.33 1.32 0.66 2 1 C2.4140625 3.06640625 2.4140625 3.06640625 2.625 5.5625 C2.69976562 6.38878906 2.77453125 7.21507813 2.8515625 8.06640625 C2.90054687 8.70449219 2.94953125 9.34257813 3 10 C2.34 9.67 1.68 9.34 1 9 C1 8.34 1 7.68 1 7 C-0.98491642 7.26676204 -0.98491642 7.26676204 -3 8 C-3.33 8.99 -3.66 9.98 -4 11 C-4.99 11 -5.98 11 -7 11 C-6.6875 8.125 -6.6875 8.125 -6 5 C-5.01 4.34 -4.02 3.68 -3 3 C-3 3.66 -3 4.32 -3 5 C-2.01 5 -1.02 5 0 5 C0 3.35 0 1.7 0 0 Z " fill="#5180A0" transform="translate(398,82)"/>
<path d="M0 0 C1.65 0 3.3 0 5 0 C6.125 5.75 6.125 5.75 5 8 C3.35 8 1.7 8 0 8 C-1.125 2.25 -1.125 2.25 0 0 Z " fill="#C2DFEE" transform="translate(359,82)"/>
<path d="M0 0 C2.475 0.495 2.475 0.495 5 1 C5.05416188 2.60379341 5.09286638 4.20811406 5.125 5.8125 C5.14820313 6.70582031 5.17140625 7.59914063 5.1953125 8.51953125 C5 11 5 11 3 14 C-0.06603774 8.72641509 -0.06603774 8.72641509 0.25 5.25 C1 3 1 3 2 1 C1.34 0.67 0.68 0.34 0 0 Z " fill="#E1F1F6" transform="translate(202,79)"/>
<path d="M0 0 C1.65 0 3.3 0 5 0 C5 0.66 5 1.32 5 2 C4.01 2 3.02 2 2 2 C2 2.99 2 3.98 2 5 C2.928125 4.814375 3.85625 4.62875 4.8125 4.4375 C8 4 8 4 11 5 C10.67 5.66 10.34 6.32 10 7 C3.4 7 -3.2 7 -10 7 C-10 6.67 -10 6.34 -10 6 C-6.7 5.67 -3.4 5.34 0 5 C0 3.35 0 1.7 0 0 Z " fill="#B9DEF1" transform="translate(321,62)"/>
<path d="M0 0 C4.62 0 9.24 0 14 0 C14 2.31 14 4.62 14 7 C13.01 7 12.02 7 11 7 C11 5.02 11 3.04 11 1 C8.03 1 5.06 1 2 1 C2 1.66 2 2.32 2 3 C2.99 3.33 3.98 3.66 5 4 C4.01 4 3.02 4 2 4 C2.33 4.99 2.66 5.98 3 7 C2.01 7 1.02 7 0 7 C0 4.69 0 2.38 0 0 Z " fill="#1E5C88" transform="translate(245,46)"/>
<path d="M0 0 C0.33 0.99 0.66 1.98 1 3 C2.65 3 4.3 3 6 3 C6 3.33 6 3.66 6 4 C4.35 4 2.7 4 1 4 C1 5.32 1 6.64 1 8 C2.32 8.33 3.64 8.66 5 9 C3.68 9 2.36 9 1 9 C1 10.65 1 12.3 1 14 C0.34 14 -0.32 14 -1 14 C-1 12.35 -1 10.7 -1 9 C-2.65 9 -4.3 9 -6 9 C-5.0409375 8.5978125 -5.0409375 8.5978125 -4.0625 8.1875 C-1.66868314 7.11332248 -1.66868314 7.11332248 -1 4 C-2.65 4 -4.3 4 -6 4 C-6 3.67 -6 3.34 -6 3 C-5.195625 2.87625 -4.39125 2.7525 -3.5625 2.625 C-2.716875 2.41875 -1.87125 2.2125 -1 2 C-0.67 1.34 -0.34 0.68 0 0 Z " fill="#185B8A" transform="translate(320,52)"/>
<path d="M0 0 C0.99 0 1.98 0 3 0 C3.39832031 0.48082031 3.79664063 0.96164063 4.20703125 1.45703125 C6.99371739 3.85515984 10.16800791 3.57248392 13.6875 3.6875 C14.7403418 3.73874023 14.7403418 3.73874023 15.81445312 3.79101562 C17.54241387 3.87329947 19.27118072 3.9383324 21 4 C21 4.33 21 4.66 21 5 C15.39 5 9.78 5 4 5 C4.33 6.65 4.66 8.3 5 10 C3.68 9.34 2.36 8.68 1 8 C1.66 8 2.32 8 3 8 C3 7.01 3 6.02 3 5 C2.01 5 1.02 5 0 5 C0 3.35 0 1.7 0 0 Z " fill="#A0C4DB" transform="translate(341,51)"/>
<path d="M0 0 C2.64 0 5.28 0 8 0 C8.05399736 1.45792884 8.09279177 2.91642712 8.125 4.375 C8.14820313 5.18710938 8.17140625 5.99921875 8.1953125 6.8359375 C8 9 8 9 6 11 C2.375 11.125 2.375 11.125 -1 11 C-1 10.67 -1 10.34 -1 10 C0.98 9.67 2.96 9.34 5 9 C5.33 7.35 5.66 5.7 6 4 C4.02 3.34 2.04 2.68 0 2 C0 1.34 0 0.68 0 0 Z " fill="#CDE2EC" transform="translate(335,82)"/>
<path d="M0 0 C0.66 0.33 1.32 0.66 2 1 C1.67 1.99 1.34 2.98 1 4 C1.66 4.33 2.32 4.66 3 5 C2.01 5 1.02 5 0 5 C0 4.34 0 3.68 0 3 C-1.65 4.32 -3.3 5.64 -5 7 C-5.33 6.34 -5.66 5.68 -6 5 C-8.54941373 4.68758629 -11.00361513 4.48696579 -13.5625 4.375 C-14.62887695 4.31699219 -14.62887695 4.31699219 -15.71679688 4.2578125 C-17.47742425 4.16328217 -19.23867728 4.08054183 -21 4 C-20.01 3.01 -19.02 2.02 -18 1 C-18 1.66 -18 2.32 -18 3 C-16.02 3 -14.04 3 -12 3 C-11.67 2.34 -11.34 1.68 -11 1 C-10.67 1.33 -10.34 1.66 -10 2 C-7.67182036 2.36760731 -5.3381615 2.70241581 -3 3 C-3 2.34 -3 1.68 -3 1 C-2.01 0.67 -1.02 0.34 0 0 Z " fill="#CAE3F1" transform="translate(368,51)"/>
<path d="M0 0 C2.66355234 -0.39169887 4.39224373 -0.40564529 6.66796875 1.11328125 C8.1510888 2.36389317 9.57954352 3.67864514 11 5 C10.67 5.99 10.34 6.98 10 8 C5.60249328 7.49259538 3.13051078 4.91706686 0 2 C0 1.34 0 0.68 0 0 Z " fill="#2F6C96" transform="translate(284,50)"/>
<path d="M0 0 C1.65 0 3.3 0 5 0 C5.12375 0.70125 5.2475 1.4025 5.375 2.125 C6.03838345 5.17656387 6.97211955 8.05340938 8 11 C7.01 11 6.02 11 5 11 C4.731875 10.401875 4.46375 9.80375 4.1875 9.1875 C3.12897949 6.95745037 3.12897949 6.95745037 1.375 5.5 C0 4 0 4 0 0 Z " fill="#729DB9" transform="translate(372,82)"/>
<path d="M0 0 C0.33 0 0.66 0 1 0 C0.88541307 1.43836751 0.75790884 2.87570966 0.625 4.3125 C0.55539063 5.11300781 0.48578125 5.91351563 0.4140625 6.73828125 C0 9 0 9 -2 12 C-2.99 11.67 -3.98 11.34 -5 11 C-5 10.01 -5 9.02 -5 8 C-5.66 8 -6.32 8 -7 8 C-7.33 6.02 -7.66 4.04 -8 2 C-7.34 2 -6.68 2 -6 2 C-5.67 3.32 -5.34 4.64 -5 6 C-3.68 5.67 -2.36 5.34 -1 5 C-0.67 3.35 -0.34 1.7 0 0 Z " fill="#356D95" transform="translate(215,60)"/>
<path d="M0 0 C1.65 0 3.3 0 5 0 C5 1.65 5 3.3 5 5 C4.2575 5.0825 3.515 5.165 2.75 5.25 C-0.11719068 5.78089547 -0.11719068 5.78089547 -1.9375 8 C-4.53860145 10.5222802 -6.45840313 10.67803665 -10 11 C-9.01 10.34 -8.02 9.68 -7 9 C-3.23729409 6.33857387 -1.35769621 4.44336943 0 0 Z " fill="#C3DEEC" transform="translate(386,61)"/>
<path d="M0 0 C-1.48985569 3.79235994 -3.58658047 5.80565887 -7 8 C-9.3125 7.75 -9.3125 7.75 -11 7 C-9.2417258 1.7251774 -5.34498543 0 0 0 Z " fill="#2E6A95" transform="translate(276,50)"/>
<path d="M0 0 C0.99 0 1.98 0 3 0 C3 4.62 3 9.24 3 14 C2.01 14 1.02 14 0 14 C0 9.38 0 4.76 0 0 Z " fill="#5684A3" transform="translate(207,79)"/>
<path d="M0 0 C0 0.66 0 1.32 0 2 C-1.91425781 2.19916016 -1.91425781 2.19916016 -3.8671875 2.40234375 C-5.53647996 2.58052665 -7.20574964 2.75892314 -8.875 2.9375 C-9.71675781 3.02451172 -10.55851562 3.11152344 -11.42578125 3.20117188 C-12.63427734 3.33168945 -12.63427734 3.33168945 -13.8671875 3.46484375 C-14.61081543 3.543396 -15.35444336 3.62194824 -16.12060547 3.70288086 C-18.08446316 3.91637347 -18.08446316 3.91637347 -20 5 C-22.3400417 4.71758117 -24.67504723 4.38749213 -27 4 C-27 3.67 -27 3.34 -27 3 C-24.00114586 2.49212954 -21.00121874 1.99353375 -18 1.5 C-16.74123047 1.28537109 -16.74123047 1.28537109 -15.45703125 1.06640625 C-10.22817799 0.21519758 -5.29724973 -0.14714583 0 0 Z " fill="#C5E8F7" transform="translate(57,73)"/>
<path d="M0 0 C-1.44930671 3.59584747 -3.22752078 5.18832656 -6.4375 7.3125 C-7.21996094 7.84488281 -8.00242188 8.37726563 -8.80859375 8.92578125 C-11 10 -11 10 -14 9 C-11.80838894 6.71935474 -9.50936252 4.73729511 -7 2.8125 C-6.319375 2.28269531 -5.63875 1.75289062 -4.9375 1.20703125 C-3 0 -3 0 0 0 Z " fill="#428DB9" transform="translate(137,58)"/>
<path d="M0 0 C1.65 0 3.3 0 5 0 C5 0.99 5 1.98 5 3 C5.66 3.33 6.32 3.66 7 4 C7 4.99 7 5.98 7 7 C4.125 7.125 4.125 7.125 1 7 C0.34 6.34 -0.32 5.68 -1 5 C-0.625 2.375 -0.625 2.375 0 0 Z " fill="#5B95BC" transform="translate(312,52)"/>
<path d="M0 0 C-0.57344937 2.86724686 -0.8614515 3.8614515 -3 6 C-3.33 5.34 -3.66 4.68 -4 4 C-7.02934491 3.34227572 -7.02934491 3.34227572 -10 3 C-10 3.66 -10 4.32 -10 5 C-10.99 4.67 -11.98 4.34 -13 4 C-12.67 3.01 -12.34 2.02 -12 1 C-7.915021 0.45533613 -4.1274515 0 0 0 Z " fill="#286B99" transform="translate(326,43)"/>
<path d="M0 0 C0.66 0 1.32 0 2 0 C2 4.62 2 9.24 2 14 C1.01 13.67 0.02 13.34 -1 13 C-1.02686553 11.02090602 -1.04633375 9.04171029 -1.0625 7.0625 C-1.07410156 5.96035156 -1.08570313 4.85820313 -1.09765625 3.72265625 C-1 1 -1 1 0 0 Z " fill="#5886A5" transform="translate(238,79)"/>
<path d="M0 0 C8.25552919 -0.34937193 15.2370239 0.05602712 23 3 C23 3.33 23 3.66 23 4 C15.21191437 3.48351265 7.65074958 2.55123466 0 1 C0 0.67 0 0.34 0 0 Z " fill="#54B2B6" transform="translate(83,91)"/>
<path d="M0 0 C-7.30934715 3.50848663 -13.99054432 3.30372936 -22 3 C-18.4545337 0.89931122 -15.05365912 0.38361935 -11 -0.1875 C-9.1746875 -0.45626953 -9.1746875 -0.45626953 -7.3125 -0.73046875 C-4.45458405 -0.96301144 -2.66256967 -0.93855581 0 0 Z " fill="#42A6D5" transform="translate(123,76)"/>
<path d="M0 0 C1.32 0.33 2.64 0.66 4 1 C4 5.29 4 9.58 4 14 C3.34 14 2.68 14 2 14 C0 12 0 12 -0.1953125 9.1796875 C-0.17210937 8.08914062 -0.14890625 6.99859375 -0.125 5.875 C-0.10695312 4.77929688 -0.08890625 3.68359375 -0.0703125 2.5546875 C-0.04710937 1.71164063 -0.02390625 0.86859375 0 0 Z " fill="#E9F6FD" transform="translate(234,79)"/>
<path d="M0 0 C0 2.31 0 4.62 0 7 C0.66 7.33 1.32 7.66 2 8 C1.01 8 0.02 8 -1 8 C-1.33 7.34 -1.66 6.68 -2 6 C-2.99 6 -3.98 6 -5 6 C-5 11.28 -5 16.56 -5 22 C-5.33 22 -5.66 22 -6 22 C-6 16.39 -6 10.78 -6 5 C-5.01 5 -4.02 5 -3 5 C-3 3.68 -3 2.36 -3 1 C-1 0 -1 0 0 0 Z " fill="#D7EAF6" transform="translate(230,51)"/>
<path d="M0 0 C0.33 1.32 0.66 2.64 1 4 C1.66 4 2.32 4 3 4 C2.67 2.68 2.34 1.36 2 0 C2.99 0.33 3.98 0.66 5 1 C5.125 3.875 5.125 3.875 5 7 C4.34 7.66 3.68 8.32 3 9 C2.01 9 1.02 9 0 9 C0 8.01 0 7.02 0 6 C-0.66 6 -1.32 6 -2 6 C-2 5.34 -2 4.68 -2 4 C-1.34 4 -0.68 4 0 4 C0 2.68 0 1.36 0 0 Z " fill="#A0D3EB" transform="translate(140,21)"/>
<path d="M0 0 C0.33 0.99 0.66 1.98 1 3 C2.32 3 3.64 3 5 3 C5.33 2.34 5.66 1.68 6 1 C6.66 3.31 7.32 5.62 8 8 C7.34 8 6.68 8 6 8 C5.67 7.34 5.34 6.68 5 6 C3.68 6 2.36 6 1 6 C0.67 6.99 0.34 7.98 0 9 C-0.66 9 -1.32 9 -2 9 C-1.125 1.125 -1.125 1.125 0 0 Z " fill="#3E7194" transform="translate(309,84)"/>
<path d="M0 0 C14.78132118 0.59453303 14.78132118 0.59453303 21 4 C17.95501389 4.95827504 15.97726069 4.99431517 12.890625 4.22265625 C11.75947266 3.94711914 11.75947266 3.94711914 10.60546875 3.66601562 C9.82816406 3.46685547 9.05085938 3.26769531 8.25 3.0625 C7.06083984 2.76956055 7.06083984 2.76956055 5.84765625 2.47070312 C3.89637115 1.98875921 1.94789217 1.49547912 0 1 C0 0.67 0 0.34 0 0 Z " fill="#3AA494" transform="translate(62,86)"/>
<path d="M0 0 C0.99 0 1.98 0 3 0 C3 2.31 3 4.62 3 7 C0.36 7 -2.28 7 -5 7 C-4.34 5.68 -3.68 4.36 -3 3 C-2.01 3 -1.02 3 0 3 C0 2.01 0 1.02 0 0 Z " fill="#35749E" transform="translate(256,60)"/>
<path d="M0 0 C2.97 1.65 5.94 3.3 9 5 C8.67 5.99 8.34 6.98 8 8 C4.5625 7.1875 4.5625 7.1875 1 6 C0.67 5.01 0.34 4.02 0 3 C-0.66 2.67 -1.32 2.34 -2 2 C-1.34 2 -0.68 2 0 2 C0 1.34 0 0.68 0 0 Z " fill="#377098" transform="translate(390,48)"/>
<path d="M0 0 C3.77068832 -0.086985 7.54111932 -0.14038579 11.3125 -0.1875 C12.38435547 -0.21263672 13.45621094 -0.23777344 14.56054688 -0.26367188 C15.58857422 -0.27333984 16.61660156 -0.28300781 17.67578125 -0.29296875 C19.0975769 -0.31653442 19.0975769 -0.31653442 20.5480957 -0.34057617 C23 0 23 0 26 3 C17.42 2.34 8.84 1.68 0 1 C0 0.67 0 0.34 0 0 Z " fill="#3AA678" transform="translate(30,83)"/>
<path d="M0 0 C0.33 0 0.66 0 1 0 C1 2.31 1 4.62 1 7 C2.98 7 4.96 7 7 7 C4 9 4 9 2 9 C2.33 9.66 2.66 10.32 3 11 C4.98 11 6.96 11 9 11 C8.67 11.66 8.34 12.32 8 13 C4.7 13 1.4 13 -2 13 C-1.67 12.34 -1.34 11.68 -1 11 C-0.7724985 9.12943209 -0.59037189 7.25314042 -0.4375 5.375 C-0.35371094 4.37210937 -0.26992188 3.36921875 -0.18359375 2.3359375 C-0.12300781 1.56507812 -0.06242187 0.79421875 0 0 Z " fill="#BEDCEC" transform="translate(341,60)"/>
<path d="M0 0 C2.35964273 0.40683495 3.85934088 0.89814339 5.8125 2.3125 C7 4 7 4 6.6875 6.1875 C6.460625 6.785625 6.23375 7.38375 6 8 C3.11562221 6.70700306 1.12780579 5.34058637 -1 3 C-0.67 2.01 -0.34 1.02 0 0 Z " fill="#3B7298" transform="translate(300,42)"/>
<path d="M0 0 C3.3 0 6.6 0 10 0 C10 2.64 10 5.28 10 8 C8.02 8 6.04 8 4 8 C5.32 7.67 6.64 7.34 8 7 C8 5.35 8 3.7 8 2 C5.36 2 2.72 2 0 2 C0 1.34 0 0.68 0 0 Z " fill="#1B5E8C" transform="translate(230,42)"/>
<path d="M0 0 C0.66 0.33 1.32 0.66 2 1 C2.08685287 4.29150125 2.14033895 7.5827096 2.1875 10.875 C2.21263672 11.81214844 2.23777344 12.74929687 2.26367188 13.71484375 C2.27333984 14.61074219 2.28300781 15.50664063 2.29296875 16.4296875 C2.3086792 17.25710449 2.32438965 18.08452148 2.34057617 18.93701172 C2.22818604 19.61779785 2.1157959 20.29858398 2 21 C1.01 21.66 0.02 22.32 -1 23 C-0.67 15.41 -0.34 7.82 0 0 Z " fill="#1B5E8C" transform="translate(213,44)"/>
<path d="M0 0 C2.31 0 4.62 0 7 0 C4 2 4 2 2 3 C2 5.97 2 8.94 2 12 C2.33 12 2.66 12 3 12 C3 13.65 3 15.3 3 17 C2.01 17 1.02 17 0 17 C0 11.39 0 5.78 0 0 Z " fill="#1D5D89" transform="translate(310,50)"/>
<path d="M0 0 C0.33 0.66 0.66 1.32 1 2 C-1.97 2.66 -4.94 3.32 -8 4 C-8 3.34 -8 2.68 -8 2 C-9.32 1.67 -10.64 1.34 -12 1 C-3.61572052 -1.37554585 -3.61572052 -1.37554585 0 0 Z " fill="#376F96" transform="translate(225,42)"/>
<path d="M0 0 C1.32 0.33 2.64 0.66 4 1 C3.855625 1.515625 3.71125 2.03125 3.5625 2.5625 C2.84190099 5.68509571 2.42733561 8.82550692 2 12 C1.34 12 0.68 12 0 12 C0 8.04 0 4.08 0 0 Z " fill="#2F6991" transform="translate(214,80)"/>
<path d="M0 0 C1.60379341 -0.05416188 3.20811406 -0.09286638 4.8125 -0.125 C5.70582031 -0.14820313 6.59914062 -0.17140625 7.51953125 -0.1953125 C10 0 10 0 13 2 C9.04 1.67 5.08 1.34 1 1 C1 1.66 1 2.32 1 3 C2.32 3.66 3.64 4.32 5 5 C4.01 5 3.02 5 2 5 C2.33 5.99 2.66 6.98 3 8 C1.68 7.67 0.36 7.34 -1 7 C-0.67 4.69 -0.34 2.38 0 0 Z " fill="#90BED9" transform="translate(131,37)"/>
<path d="M0 0 C0.99 0.33 1.98 0.66 3 1 C2.814375 1.94875 2.62875 2.8975 2.4375 3.875 C1.71313368 6.89868793 1.71313368 6.89868793 3 9 C3.99 9.66 4.98 10.32 6 11 C3.625 11.125 3.625 11.125 1 11 C-1 9 -1 9 -1.23046875 7.08984375 C-1.11111111 1.11111111 -1.11111111 1.11111111 0 0 Z " fill="#346A8F" transform="translate(357,81)"/>
<path d="M0 0 C0.66 0.66 1.32 1.32 2 2 C1.34 2.66 0.68 3.32 0 4 C-0.433125 5.11375 -0.433125 5.11375 -0.875 6.25 C-2.19763804 9.48311522 -4.00597038 12.14189088 -6 15 C-6.99 14.67 -7.98 14.34 -9 14 C-8.40251953 13.11248047 -8.40251953 13.11248047 -7.79296875 12.20703125 C-5.09974702 8.19013364 -2.42960803 4.18432495 0 0 Z " fill="#8CC6E4" transform="translate(96,24)"/>
<path d="M0 0 C2.875 -0.125 2.875 -0.125 6 0 C6.66 0.66 7.32 1.32 8 2 C7.34 2 6.68 2 6 2 C5.67 3.65 5.34 5.3 5 7 C4.01 7 3.02 7 2 7 C2.04125 6.21625 2.0825 5.4325 2.125 4.625 C2.28728734 1.83883881 2.28728734 1.83883881 0 0 Z " fill="#9DBED2" transform="translate(296,79)"/>
<path d="M0 0 C1.32 0.33 2.64 0.66 4 1 C3.67 3.31 3.34 5.62 3 8 C2.01 8 1.02 8 0 8 C-1.125 6.25 -1.125 6.25 -2 4 C-1.125 1.75 -1.125 1.75 0 0 Z " fill="#7CA8C2" transform="translate(246,79)"/>
<path d="M0 0 C0.33 0.99 0.66 1.98 1 3 C1.7425 2.649375 2.485 2.29875 3.25 1.9375 C6.19167576 0.93465599 7.17803942 0.87121577 10 2 C10.99 2.66 11.98 3.32 13 4 C12.14535156 4.04898438 11.29070313 4.09796875 10.41015625 4.1484375 C9.30542969 4.22320312 8.20070313 4.29796875 7.0625 4.375 C5.96035156 4.44460937 4.85820312 4.51421875 3.72265625 4.5859375 C2.82417969 4.72257812 1.92570312 4.85921875 1 5 C0.67 5.66 0.34 6.32 0 7 C0 4.69 0 2.38 0 0 Z " fill="#BAE9EF" transform="translate(16,76)"/>
<path d="M0 0 C1.74991334 -0.02715383 3.49994945 -0.04646551 5.25 -0.0625 C6.71179688 -0.07990234 6.71179688 -0.07990234 8.203125 -0.09765625 C10.65758678 -0.01195577 12.66168914 0.29293934 15 1 C15 1.99 15 2.98 15 4 C14.01 4.33 13.02 4.66 12 5 C12 4.01 12 3.02 12 2 C8.04 2 4.08 2 0 2 C0 1.34 0 0.68 0 0 Z " fill="#165D8E" transform="translate(346,56)"/>
<path d="M0 0 C1.32 0 2.64 0 4 0 C3.67 0.66 3.34 1.32 3 2 C2.34 1.67 1.68 1.34 1 1 C1.226875 1.763125 1.45375 2.52625 1.6875 3.3125 C1.790625 4.199375 1.89375 5.08625 2 6 C0.5625 7.8125 0.5625 7.8125 -1 9 C-1.99 8.67 -2.98 8.34 -4 8 C-2.87548273 5.0280615 -1.77706209 2.66559313 0 0 Z " fill="#346D94" transform="translate(382,41)"/>
<path d="M0 0 C2.96175123 0.61277612 4.38058783 1.25372522 7 3 C7 3.99 7 4.98 7 6 C3.31245243 5.50168276 1.39509338 4.89932357 -1 2 C-0.67 1.34 -0.34 0.68 0 0 Z " fill="#3F7498" transform="translate(370,41)"/>
<path d="M0 0 C1.32 0.33 2.64 0.66 4 1 C3.34 1 2.68 1 2 1 C2 2.65 2 4.3 2 6 C2.66 6.33 3.32 6.66 4 7 C3.34 7 2.68 7 2 7 C2 8.65 2 10.3 2 12 C1.34 12 0.68 12 0 12 C0 8.04 0 4.08 0 0 Z " fill="#2E6790" transform="translate(296,80)"/>
<path d="M0 0 C0 0.33 0 0.66 0 1 C-1.670625 1.2165625 -1.670625 1.2165625 -3.375 1.4375 C-6.82142047 1.78372035 -6.82142047 1.78372035 -9 3 C-11.7235195 2.91075148 -14.41013311 2.76646668 -17.125 2.5625 C-18.25615234 2.48418945 -18.25615234 2.48418945 -19.41015625 2.40429688 C-21.2737937 2.27454996 -23.13694996 2.13792512 -25 2 C-25 1.67 -25 1.34 -25 1 C-8.29157175 -0.14806378 -8.29157175 -0.14806378 0 0 Z " fill="#0C8FBD" transform="translate(107,79)"/>
<path d="M0 0 C3.375 -0.1875 3.375 -0.1875 7 0 C7.66 0.99 8.32 1.98 9 3 C7.02 3 5.04 3 3 3 C2.67 4.32 2.34 5.64 2 7 C1.67 6.01 1.34 5.02 1 4 C0.34 4.99 -0.32 5.98 -1 7 C-0.67 4.69 -0.34 2.38 0 0 Z " fill="#306C96" transform="translate(231,48)"/>
<path d="M0 0 C2.87447909 2.87447909 3.81220805 4.25388693 5 8 C5 9.32 5 10.64 5 12 C4.01 11.67 3.02 11.34 2 11 C1.34 7.37 0.68 3.74 0 0 Z " fill="#3B6F93" transform="translate(248,81)"/>
<path d="M0 0 C0.66 0.33 1.32 0.66 2 1 C1.67 3.64 1.34 6.28 1 9 C-1.97 9 -4.94 9 -8 9 C-8 8.34 -8 7.68 -8 7 C-4.535 6.505 -4.535 6.505 -1 6 C-0.67 4.02 -0.34 2.04 0 0 Z " fill="#F0FDFE" transform="translate(242,45)"/>
<path d="M0 0 C0.33 0.99 0.66 1.98 1 3 C-0.45381897 3.69699552 -1.91322953 4.38233866 -3.375 5.0625 C-4.18710937 5.44535156 -4.99921875 5.82820313 -5.8359375 6.22265625 C-6.55007812 6.47917969 -7.26421875 6.73570313 -8 7 C-8.66 6.67 -9.32 6.34 -10 6 C-8.71283353 4.99421411 -7.42011342 3.99553202 -6.125 3 C-5.40570312 2.443125 -4.68640625 1.88625 -3.9453125 1.3125 C-2 0 -2 0 0 0 Z " fill="#31A2D9" transform="translate(27,69)"/>
<path d="M0 0 C0.33 1.32 0.66 2.64 1 4 C1.99 4 2.98 4 4 4 C4 4.66 4 5.32 4 6 C1.29120665 7.35439668 -1.00933268 7.06501451 -4 7 C-4 6.01 -4 5.02 -4 4 C-2.68 4 -1.36 4 0 4 C0 2.68 0 1.36 0 0 Z " fill="#306B94" transform="translate(233,61)"/>
<path d="M0 0 C0.33 0 0.66 0 1 0 C1.18451025 9.41002278 1.18451025 9.41002278 0 14 C-0.66 13.67 -1.32 13.34 -2 13 C-2.05416188 11.39620659 -2.09286638 9.79188594 -2.125 8.1875 C-2.14820313 7.29417969 -2.17140625 6.40085937 -2.1953125 5.48046875 C-2 3 -2 3 0 0 Z " fill="#286793" transform="translate(240,55)"/>
<path d="M0 0 C0.66 0 1.32 0 2 0 C1.61402985 2.79828356 1.19863427 3.8205884 -0.9375 5.75 C-3 7 -3 7 -5 7 C-5.33 5.68 -5.66 4.36 -6 3 C-5.38125 2.87625 -4.7625 2.7525 -4.125 2.625 C-1.80879168 2.12802644 -1.80879168 2.12802644 0 0 Z " fill="#CDE8F5" transform="translate(384,46)"/>
<path d="M0 0 C0.33 0 0.66 0 1 0 C1 3.96 1 7.92 1 12 C0.01 11.34 -0.98 10.68 -2 10 C-2.1875 6.375 -2.1875 6.375 -2 3 C-1.34 3 -0.68 3 0 3 C0 2.01 0 1.02 0 0 Z " fill="#D4E9F5" transform="translate(369,80)"/>
<path d="M0 0 C0.99 0 1.98 0 3 0 C3 0.99 3 1.98 3 3 C2.34 3 1.68 3 1 3 C0.67 4.98 0.34 6.96 0 9 C-0.99 9 -1.98 9 -3 9 C-2.01 6.03 -1.02 3.06 0 0 Z " fill="#437699" transform="translate(198,84)"/>
<path d="M0 0 C3.11223313 4.14964417 3.52003578 6.00837213 4 11 C2.68 11.33 1.36 11.66 0 12 C0 8.04 0 4.08 0 0 Z " fill="#DEF4FE" transform="translate(265,80)"/>
<path d="M0 0 C0.99 0 1.98 0 3 0 C3.33 1.98 3.66 3.96 4 6 C3.67 5.34 3.34 4.68 3 4 C2.34 4 1.68 4 1 4 C1 6.64 1 9.28 1 12 C0.67 12 0.34 12 0 12 C0 8.04 0 4.08 0 0 Z " fill="#376D92" transform="translate(256,80)"/>
<path d="M0 0 C0 1.32 0 2.64 0 4 C-1.32 4 -2.64 4 -4 4 C-4.33 4.99 -4.66 5.98 -5 7 C-5.33 5.02 -5.66 3.04 -6 1 C-3 0 -3 0 0 0 Z " fill="#B4CDDB" transform="translate(405,79)"/>
<path d="M0 0 C0.53625 0.391875 1.0725 0.78375 1.625 1.1875 C-1.27592502 3.12145001 -2.27174737 3.48881941 -5.5625 3.8125 C-6.820625 3.93625 -8.07875 4.06 -9.375 4.1875 C-7.56285219 0.56320439 -3.85577013 -1.31907925 0 0 Z " fill="#22A6E5" transform="translate(48.375,60.8125)"/>
<path d="M0 0 C2.31 0 4.62 0 7 0 C6.34 1.65 5.68 3.3 5 5 C3.0625 4.1875 3.0625 4.1875 1 3 C0.67 2.01 0.34 1.02 0 0 Z " fill="#C6E4F2" transform="translate(350,59)"/>
<path d="M0 0 C3 1 3 1 4.1875 2.8125 C5 5 5 5 5 9 C4.01 9 3.02 9 2 9 C1.34 6.03 0.68 3.06 0 0 Z " fill="#488FB8" transform="translate(134,46)"/>
<path d="M0 0 C0.66 0.33 1.32 0.66 2 1 C2.4140625 3.06640625 2.4140625 3.06640625 2.625 5.5625 C2.69976562 6.38878906 2.77453125 7.21507813 2.8515625 8.06640625 C2.90054687 8.70449219 2.94953125 9.34257813 3 10 C2.34 9.67 1.68 9.34 1 9 C1 8.34 1 7.68 1 7 C0.01 6.67 -0.98 6.34 -2 6 C-1.34 6 -0.68 6 0 6 C0 4.02 0 2.04 0 0 Z " fill="#376C92" transform="translate(398,82)"/>
<path d="M0 0 C1.485 0.99 1.485 0.99 3 2 C3 2.66 3 3.32 3 4 C3.99 3.67 4.98 3.34 6 3 C5.34 4.32 4.68 5.64 4 7 C4 6.34 4 5.68 4 5 C3.01 5.99 2.02 6.98 1 8 C0.34 7.67 -0.32 7.34 -1 7 C-0.67 4.69 -0.34 2.38 0 0 Z " fill="#C5E1F1" transform="translate(205,64)"/>
<path d="M0 0 C-1.43011973 0.86646667 -2.86940619 1.71781829 -4.3125 2.5625 C-5.51326172 3.27599609 -5.51326172 3.27599609 -6.73828125 4.00390625 C-9 5 -9 5 -12 4 C-5.03867403 -1.46961326 -5.03867403 -1.46961326 0 0 Z " fill="#3EAEE0" transform="translate(44,62)"/>
<path d="M0 0 C2.64 0 5.28 0 8 0 C7.01 0.495 7.01 0.495 6 1 C6 1.66 6 2.32 6 3 C6.99 3.33 7.98 3.66 9 4 C2.25 3.125 2.25 3.125 0 2 C0 1.34 0 0.68 0 0 Z " fill="#1B76B1" transform="translate(132,38)"/>
<path d="M0 0 C0.33 0 0.66 0 1 0 C1.05399736 1.45792884 1.09279177 2.91642712 1.125 4.375 C1.14820313 5.18710938 1.17140625 5.99921875 1.1953125 6.8359375 C1 9 1 9 -1 11 C-1.66 9.35 -2.32 7.7 -3 6 C-2.34 5.34 -1.68 4.68 -1 4 C-0.3574765 1.93125966 -0.3574765 1.93125966 0 0 Z " fill="#74A1C0" transform="translate(262,80)"/>
<path d="M0 0 C-0.99 1.485 -0.99 1.485 -2 3 C-3.9453125 3.29296875 -3.9453125 3.29296875 -6.125 3.1875 C-7.40375 3.125625 -8.6825 3.06375 -10 3 C-10 2.34 -10 1.68 -10 1 C-6.78548731 -0.60725635 -3.56387464 -0.05748185 0 0 Z " fill="#4CA37A" transform="translate(27,80)"/>
<path d="M0 0 C2.31 0 4.62 0 7 0 C6.67 1.32 6.34 2.64 6 4 C4.35 4 2.7 4 1 4 C0.67 2.68 0.34 1.36 0 0 Z " fill="#427599" transform="translate(368,69)"/>
<path d="M0 0 C0.99 0 1.98 0 3 0 C3.33 1.98 3.66 3.96 4 6 C1.69 6 -0.62 6 -3 6 C-2.01 5.67 -1.02 5.34 0 5 C0 3.35 0 1.7 0 0 Z " fill="#EBFCFF" transform="translate(314,62)"/>
<path d="M0 0 C0 0.66 0 1.32 0 2 C0.66 2 1.32 2 2 2 C2 2.66 2 3.32 2 4 C-0.64 4 -3.28 4 -6 4 C-6 3.01 -6 2.02 -6 1 C-3.92446352 0.4465236 -2.15634036 0 0 0 Z " fill="#C2DEED" transform="translate(378,53)"/>
<path d="M0 0 C2.64 0 5.28 0 8 0 C8 0.66 8 1.32 8 2 C6.6078125 2.1546875 6.6078125 2.1546875 5.1875 2.3125 C1.96745642 3.0070192 0.97420135 3.47740939 -1 6 C-0.67 4.02 -0.34 2.04 0 0 Z " fill="#165C8D" transform="translate(349,43)"/>
<path d="M0 0 C0.33 2.31 0.66 4.62 1 7 C0.01 7.495 0.01 7.495 -1 8 C-1.66 7.67 -2.32 7.34 -3 7 C-3 5.02 -3 3.04 -3 1 C-1 0 -1 0 0 0 Z " fill="#98D1EB" transform="translate(134,20)"/>
<path d="M0 0 C0.99 0.33 1.98 0.66 3 1 C2.34 2.98 1.68 4.96 1 7 C0.01 6.67 -0.98 6.34 -2 6 C-1.34 4.02 -0.68 2.04 0 0 Z " fill="#366C91" transform="translate(197,62)"/>
<path d="M0 0 C3.1875 1.9375 3.1875 1.9375 6 4 C5.401875 4.28875 4.80375 4.5775 4.1875 4.875 C1.80672208 6.04742026 1.80672208 6.04742026 -1 8 C-0.34 6.02 0.32 4.04 1 2 C-0.32 1.67 -1.64 1.34 -3 1 C-2.01 0.67 -1.02 0.34 0 0 Z " fill="#B7D4E5" transform="translate(287,54)"/>
<path d="M0 0 C0.99 0.33 1.98 0.66 3 1 C3 2.65 3 4.3 3 6 C1.02 6 -0.96 6 -3 6 C-3 5.34 -3 4.68 -3 4 C-2.01 4 -1.02 4 0 4 C0 2.68 0 1.36 0 0 Z " fill="#1F608D" transform="translate(198,48)"/>
<path d="M0 0 C0.33 0 0.66 0 1 0 C1 2.64 1 5.28 1 8 C-0.32 8 -1.64 8 -3 8 C-2.67 6.35 -2.34 4.7 -2 3 C-1.34 3 -0.68 3 0 3 C0 2.01 0 1.02 0 0 Z " fill="#C9E5F2" transform="translate(211,44)"/>
<path d="M0 0 C0.99 0 1.98 0 3 0 C3 2.31 3 4.62 3 7 C2.01 6.67 1.02 6.34 0 6 C0 4.02 0 2.04 0 0 Z " fill="#F8FEFF" transform="translate(360,83)"/>
<path d="M0 0 C0.66 0 1.32 0 2 0 C2 2.31 2 4.62 2 7 C1.01 7 0.02 7 -1 7 C-1.04254356 5.00045254 -1.04080783 2.99958364 -1 1 C-0.67 0.67 -0.34 0.34 0 0 Z " fill="#1D6292" transform="translate(393,59)"/>
<path d="M0 0 C1.32 0.33 2.64 0.66 4 1 C3.01 1 2.02 1 1 1 C1.020625 2.11375 1.04125 3.2275 1.0625 4.375 C1 8 1 8 0 10 C-0.99 10 -1.98 10 -3 10 C-3 9.01 -3 8.02 -3 7 C-2.01 7 -1.02 7 0 7 C0 4.69 0 2.38 0 0 Z " fill="#3C7197" transform="translate(337,40)"/>
<path d="M0 0 C1.32 0 2.64 0 4 0 C4 0.99 4 1.98 4 3 C5.32 2.67 6.64 2.34 8 2 C8 2.66 8 3.32 8 4 C5.6875 4.6875 5.6875 4.6875 3 5 C1.1875 3.6875 1.1875 3.6875 0 2 C0 1.34 0 0.68 0 0 Z " fill="#ABD0E5" transform="translate(390,46)"/>
<path d="M0 0 C2.64 0 5.28 0 8 0 C7.67 0.66 7.34 1.32 7 2 C5.35 2 3.7 2 2 2 C2 2.66 2 3.32 2 4 C1.01 3.67 0.02 3.34 -1 3 C-0.67 2.01 -0.34 1.02 0 0 Z " fill="#79A8C8" transform="translate(314,44)"/>
<path d="M0 0 C1.98 0.495 1.98 0.495 4 1 C4 2.65 4 4.3 4 6 C2.35 6 0.7 6 -1 6 C-0.01 5.67 0.98 5.34 2 5 C1.34 3.35 0.68 1.7 0 0 Z " fill="#D1E8F1" transform="translate(303,87)"/>
<path d="M0 0 C0.99 0.66 1.98 1.32 3 2 C3.1875 4.625 3.1875 4.625 3 7 C1.35 7 -0.3 7 -2 7 C-1.34 6.67 -0.68 6.34 0 6 C0 4.02 0 2.04 0 0 Z " fill="#C2DCEC" transform="translate(353,81)"/>
<path d="M0 0 C0.99 0 1.98 0 3 0 C3 2.31 3 4.62 3 7 C2.01 7 1.02 7 0 7 C0 4.69 0 2.38 0 0 Z " fill="#A3CDE5" transform="translate(235,58)"/>
<path d="M0 0 C0.99 0 1.98 0 3 0 C3 0.66 3 1.32 3 2 C1.04072937 3.7143618 -0.95880212 5.38405168 -3 7 C-3.66 6.34 -4.32 5.68 -5 5 C-4.34 5 -3.68 5 -3 5 C-2.67 4.01 -2.34 3.02 -2 2 C-1.34 2 -0.68 2 0 2 C0 1.34 0 0.68 0 0 Z " fill="#8ED2F1" transform="translate(59,47)"/>
<path d="M0 0 C1.65 0 3.3 0 5 0 C5.33 1.98 5.66 3.96 6 6 C5.01 6 4.02 6 3 6 C3 4.68 3 3.36 3 2 C2.01 2 1.02 2 0 2 C0 1.34 0 0.68 0 0 Z " fill="#3E80AC" transform="translate(247,47)"/>
<path d="M0 0 C0 2.31 0 4.62 0 7 C-0.99 7 -1.98 7 -3 7 C-3 5.02 -3 3.04 -3 1 C-1 0 -1 0 0 0 Z " fill="#216290" transform="translate(259,46)"/>
<path d="M0 0 C0.99 0.33 1.98 0.66 3 1 C2.67 2.32 2.34 3.64 2 5 C2.66 5 3.32 5 4 5 C4 5.66 4 6.32 4 7 C2.68 6.67 1.36 6.34 0 6 C0 4.02 0 2.04 0 0 Z " fill="#E3F7FC" transform="translate(271,83)"/>
<path d="M0 0 C0 0.66 0 1.32 0 2 C-2.875 2.125 -2.875 2.125 -6 2 C-6.66 1.34 -7.32 0.68 -8 0 C-5.13822943 -1.43088528 -3.06624227 -0.59991697 0 0 Z " fill="#5885A4" transform="translate(278,80)"/>
<path d="M0 0 C0 0.33 0 0.66 0 1 C-5.16569441 2.79217969 -8.51053913 3.12029814 -14 2 C-14 1.67 -14 1.34 -14 1 C-9.23692563 0.04738513 -4.8333472 -0.08333357 0 0 Z " fill="#D4F1FC" transform="translate(44,75)"/>
<path d="M0 0 C2.64 0.33 5.28 0.66 8 1 C8 1.66 8 2.32 8 3 C5.36 2.67 2.72 2.34 0 2 C0 1.34 0 0.68 0 0 Z " fill="#25638E" transform="translate(391,68)"/>
<path d="M0 0 C1.65 0 3.3 0 5 0 C5 1.65 5 3.3 5 5 C3.68 4.67 2.36 4.34 1 4 C0.67 2.68 0.34 1.36 0 0 Z " fill="#F1FDFF" transform="translate(386,61)"/>
<path d="M0 0 C0.99 0 1.98 0 3 0 C3 0.99 3 1.98 3 3 C2.34 3 1.68 3 1 3 C1 3.99 1 4.98 1 6 C-0.32 6 -1.64 6 -3 6 C-3 5.34 -3 4.68 -3 4 C-2.01 4 -1.02 4 0 4 C0 2.68 0 1.36 0 0 Z " fill="#508AB0" transform="translate(250,60)"/>
<path d="M0 0 C1.32 0 2.64 0 4 0 C4 0.99 4 1.98 4 3 C4.66 3.66 5.32 4.32 6 5 C4.35 5 2.7 5 1 5 C0.67 3.35 0.34 1.7 0 0 Z " fill="#C8E5F1" transform="translate(310,44)"/>
<path d="M0 0 C1.32 0 2.64 0 4 0 C4 0.66 4 1.32 4 2 C3.01 2 2.02 2 1 2 C1 2.66 1 3.32 1 4 C-1.31 4 -3.62 4 -6 4 C-6 3.67 -6 3.34 -6 3 C-4.35 3 -2.7 3 -1 3 C-0.67 2.01 -0.34 1.02 0 0 Z " fill="#7CA4BF" transform="translate(201,40)"/>
<path d="M0 0 C0.5625 1.9375 0.5625 1.9375 1 4 C0 5 0 5 -3.5625 5.0625 C-4.696875 5.041875 -5.83125 5.02125 -7 5 C-7 4.34 -7 3.68 -7 3 C-6.21625 3.061875 -5.4325 3.12375 -4.625 3.1875 C-3.75875 3.125625 -2.8925 3.06375 -2 3 C-1.34 2.01 -0.68 1.02 0 0 Z " fill="#326589" transform="translate(340,87)"/>
<path d="M0 0 C0.33 0 0.66 0 1 0 C1 3.96 1 7.92 1 12 C0.01 11.67 -0.98 11.34 -2 11 C-2 10.34 -2 9.68 -2 9 C-1.34 9 -0.68 9 0 9 C0 6.03 0 3.06 0 0 Z " fill="#275E85" transform="translate(222,80)"/>
<path d="M0 0 C0.33 1.32 0.66 2.64 1 4 C0.01 4.495 0.01 4.495 -1 5 C-1.33 4.01 -1.66 3.02 -2 2 C-4.00016466 0.79117904 -4.00016466 0.79117904 -6 0 C-3.50907189 -1.24546405 -2.58919267 -0.7767578 0 0 Z " fill="#44789B" transform="translate(379,81)"/>
<path d="M0 0 C2.31 0 4.62 0 7 0 C7 2.64 7 5.28 7 8 C6.67 8 6.34 8 6 8 C5.7525 7.05125 5.505 6.1025 5.25 5.125 C4.3142923 1.91306809 4.3142923 1.91306809 1.875 0.625 C1.25625 0.41875 0.6375 0.2125 0 0 Z " fill="#9AC4E0" transform="translate(195,61)"/>
<path d="M0 0 C0.66 0.99 1.32 1.98 2 3 C1.01 3.99 0.02 4.98 -1 6 C-1.99 5.67 -2.98 5.34 -4 5 C-3.67 4.01 -3.34 3.02 -3 2 C-2.01 2.33 -1.02 2.66 0 3 C0 2.01 0 1.02 0 0 Z " fill="#BFDDEC" transform="translate(377,44)"/>
<path d="M0 0 C1.65 0 3.3 0 5 0 C5 1.65 5 3.3 5 5 C4.67 4.01 4.34 3.02 4 2 C2.68 2.99 1.36 3.98 0 5 C0 3.35 0 1.7 0 0 Z " fill="#BDDDEF" transform="translate(351,45)"/>
</svg>
