<?xml version="1.0" encoding="UTF-8"?>
<svg version="1.1" xmlns="http://www.w3.org/2000/svg" width="214" height="100">
<path d="M0 0 C70.62 0 141.24 0 214 0 C214 33 214 66 214 100 C143.38 100 72.76 100 0 100 C0 67 0 34 0 0 Z " fill="#FCFCFC" transform="translate(0,0)"/>
<path d="M0 0 C0.92941406 0.03351562 1.85882813 0.06703125 2.81640625 0.1015625 C5.4375 0.375 5.4375 0.375 7.71484375 0.9609375 C8.28332031 1.09757812 8.85179688 1.23421875 9.4375 1.375 C9.7675 1.045 10.0975 0.715 10.4375 0.375 C12.12358966 0.30294489 13.81250659 0.29113932 15.5 0.3125 C16.41910156 0.32152344 17.33820312 0.33054687 18.28515625 0.33984375 C18.99542969 0.35144531 19.70570312 0.36304687 20.4375 0.375 C20.7675 2.025 21.0975 3.675 21.4375 5.375 C21.7675 3.725 22.0975 2.075 22.4375 0.375 C27.3875 0.375 32.3375 0.375 37.4375 0.375 C37.54562003 3.12605422 37.62484945 5.87285087 37.6875 8.625 C37.73777344 9.79095703 37.73777344 9.79095703 37.7890625 10.98046875 C37.85209605 14.66793146 37.83839834 16.75105989 35.80859375 19.91015625 C32.74706118 21.80154787 30.81994022 21.74947616 27.25 21.5625 C25.31342942 21.47585779 23.37573943 21.40725512 21.4375 21.375 C21.1075 21.705 20.7775 22.035 20.4375 22.375 C18.31569862 22.47505826 16.19056461 22.50581087 14.06640625 22.5078125 C12.77025391 22.50910156 11.47410156 22.51039062 10.13867188 22.51171875 C9.4598999 22.50962402 8.78112793 22.5075293 8.08178711 22.50537109 C6.01213211 22.5000313 3.942695 22.50531193 1.87304688 22.51171875 C0.57560547 22.51042969 -0.72183594 22.50914063 -2.05859375 22.5078125 C-3.25669678 22.50668457 -4.4547998 22.50555664 -5.68920898 22.50439453 C-8.5625 22.375 -8.5625 22.375 -10.5625 21.375 C-10.69809675 18.81071485 -10.79683188 16.25364784 -10.875 13.6875 C-10.91689453 12.96626953 -10.95878906 12.24503906 -11.00195312 11.50195312 C-11.09520961 7.41731896 -10.86935297 5.79830257 -8.390625 2.37890625 C-5.21034104 0.12547301 -3.83582355 -0.20272781 0 0 Z " fill="#ABD6EF" transform="translate(46.5625,23.625)"/>
<path d="M0 0 C1.6097168 0.00966797 1.6097168 0.00966797 3.25195312 0.01953125 C4.9312793 0.04466797 4.9312793 0.04466797 6.64453125 0.0703125 C7.77568359 0.07933594 8.90683594 0.08835937 10.07226562 0.09765625 C12.86739953 0.12124388 15.6621097 0.1541595 18.45703125 0.1953125 C18.45703125 0.8553125 18.45703125 1.5153125 18.45703125 2.1953125 C18.9871582 2.03232666 19.51728516 1.86934082 20.06347656 1.70141602 C23.01072802 1.07823647 25.7409227 1.08344406 28.75390625 1.09765625 C29.95917969 1.10087891 31.16445312 1.10410156 32.40625 1.10742188 C33.66050781 1.11580078 34.91476563 1.12417969 36.20703125 1.1328125 C38.11162109 1.13958008 38.11162109 1.13958008 40.0546875 1.14648438 C43.18884961 1.15826694 46.32291666 1.17471834 49.45703125 1.1953125 C49.12703125 2.5153125 48.79703125 3.8353125 48.45703125 5.1953125 C45.81703125 5.1953125 43.17703125 5.1953125 40.45703125 5.1953125 C40.12703125 7.1753125 39.79703125 9.1553125 39.45703125 11.1953125 C42.09703125 11.1953125 44.73703125 11.1953125 47.45703125 11.1953125 C47.12703125 12.1853125 46.79703125 13.1753125 46.45703125 14.1953125 C42.82703125 14.1953125 39.19703125 14.1953125 35.45703125 14.1953125 C34.96203125 11.7203125 34.96203125 11.7203125 34.45703125 9.1953125 C33.81894531 9.20691406 33.18085938 9.21851563 32.5234375 9.23046875 C31.69714844 9.23949219 30.87085938 9.24851562 30.01953125 9.2578125 C28.78396484 9.27521484 28.78396484 9.27521484 27.5234375 9.29296875 C25.45703125 9.1953125 25.45703125 9.1953125 24.45703125 8.1953125 C24.12703125 9.1853125 23.79703125 10.1753125 23.45703125 11.1953125 C26.75703125 11.1953125 30.05703125 11.1953125 33.45703125 11.1953125 C33.45703125 12.1853125 33.45703125 13.1753125 33.45703125 14.1953125 C25.20703125 14.1953125 16.95703125 14.1953125 8.45703125 14.1953125 C8.45703125 13.2053125 8.45703125 12.2153125 8.45703125 11.1953125 C10.10703125 11.1953125 11.75703125 11.1953125 13.45703125 11.1953125 C13.78703125 9.2153125 14.11703125 7.2353125 14.45703125 5.1953125 C12.47703125 5.5253125 10.49703125 5.8553125 8.45703125 6.1953125 C7.46703125 10.1553125 6.47703125 14.1153125 5.45703125 18.1953125 C4.46703125 18.1953125 3.47703125 18.1953125 2.45703125 18.1953125 C2.78703125 13.9053125 3.11703125 9.6153125 3.45703125 5.1953125 C0.15703125 5.1953125 -3.14296875 5.1953125 -6.54296875 5.1953125 C-6.54296875 7.1753125 -6.54296875 9.1553125 -6.54296875 11.1953125 C-3.90296875 11.1953125 -1.26296875 11.1953125 1.45703125 11.1953125 C1.45703125 12.1853125 1.45703125 13.1753125 1.45703125 14.1953125 C-2.50296875 14.1953125 -6.46296875 14.1953125 -10.54296875 14.1953125 C-10.71952043 9.69324465 -10.71996163 6.20556255 -8.54296875 2.1953125 C-5.14399202 -0.07067198 -3.97977702 -0.04211404 0 0 Z " fill="#FAB5BC" transform="translate(137.54296875,29.8046875)"/>
<path d="M0 0 C4.95 0 9.9 0 15 0 C15.10812003 2.75105422 15.18734945 5.49785087 15.25 8.25 C15.30027344 9.41595703 15.30027344 9.41595703 15.3515625 10.60546875 C15.41488491 14.30982962 15.41063203 16.37243029 13.34375 19.53125 C10.41942699 21.36382576 8.67424058 21.41305908 5.25 21.25 C4.26515625 21.21390625 3.2803125 21.1778125 2.265625 21.140625 C1.51796875 21.09421875 0.7703125 21.0478125 0 21 C-0.39252444 18.62673685 -0.76427274 16.25312786 -1.125 13.875 C-1.29322266 12.87726562 -1.29322266 12.87726562 -1.46484375 11.859375 C-2.19570116 6.8895446 -1.69636043 5.08908128 0 0 Z " fill="#F9B2B9" transform="translate(69,24)"/>
<path d="M0 0 C1.12591553 0.00523682 2.25183105 0.01047363 3.41186523 0.01586914 C4.62680664 0.0190918 5.84174805 0.02231445 7.09350586 0.02563477 C8.37290039 0.03401367 9.65229492 0.04239258 10.97045898 0.05102539 C12.2537207 0.05553711 13.53698242 0.06004883 14.85913086 0.06469727 C18.04211921 0.07652994 21.22501661 0.09301471 24.40795898 0.11352539 C24.07795898 1.43352539 23.74795898 2.75352539 23.40795898 4.11352539 C20.76795898 4.11352539 18.12795898 4.11352539 15.40795898 4.11352539 C15.07795898 6.09352539 14.74795898 8.07352539 14.40795898 10.11352539 C17.04795898 10.11352539 19.68795898 10.11352539 22.40795898 10.11352539 C22.07795898 11.10352539 21.74795898 12.09352539 21.40795898 13.11352539 C17.77795898 13.11352539 14.14795898 13.11352539 10.40795898 13.11352539 C10.07795898 11.46352539 9.74795898 9.81352539 9.40795898 8.11352539 C8.76987305 8.12512695 8.13178711 8.13672852 7.47436523 8.14868164 C6.64807617 8.15770508 5.82178711 8.16672852 4.97045898 8.17602539 C3.73489258 8.19342773 3.73489258 8.19342773 2.47436523 8.21118164 C0.40795898 8.11352539 0.40795898 8.11352539 -0.59204102 7.11352539 C-0.92204102 8.10352539 -1.25204102 9.09352539 -1.59204102 10.11352539 C1.70795898 10.11352539 5.00795898 10.11352539 8.40795898 10.11352539 C8.40795898 11.10352539 8.40795898 12.09352539 8.40795898 13.11352539 C3.78795898 13.11352539 -0.83204102 13.11352539 -5.59204102 13.11352539 C-5.59204102 0.24491844 -5.59204102 0.24491844 0 0 Z " fill="#FAA4AC" transform="translate(162.592041015625,30.886474609375)"/>
<path d="M0 0 C1.28132812 0.00902344 2.56265625 0.01804688 3.8828125 0.02734375 C4.87023437 0.03894531 5.85765625 0.05054688 6.875 0.0625 C7.07051338 1.66570974 7.25611983 3.27012986 7.4375 4.875 C7.54191406 5.76832031 7.64632812 6.66164063 7.75390625 7.58203125 C7.875 10.0625 7.875 10.0625 6.875 13.0625 C5.885 13.0625 4.895 13.0625 3.875 13.0625 C3.875 13.7225 3.875 14.3825 3.875 15.0625 C5.195 15.0625 6.515 15.0625 7.875 15.0625 C7.875 15.7225 7.875 16.3825 7.875 17.0625 C2.925 17.3925 -2.025 17.7225 -7.125 18.0625 C-9.82817557 12.65614886 -10.1238664 11.05569838 -9.125 5.0625 C-8.465 5.0625 -7.805 5.0625 -7.125 5.0625 C-7.125 4.4025 -7.125 3.7425 -7.125 3.0625 C-7.785 3.0625 -8.445 3.0625 -9.125 3.0625 C-9.125 2.4025 -9.125 1.7425 -9.125 1.0625 C-6.12186252 -0.43906874 -3.33432478 -0.03031204 0 0 Z " fill="#D5D4D3" transform="translate(193.125,50.9375)"/>
<path d="M0 0 C2.97 0.495 2.97 0.495 6 1 C6 1.66 6 2.32 6 3 C6.66 2.34 7.32 1.68 8 1 C10.625 0.875 10.625 0.875 13 1 C12.34 2.65 11.68 4.3 11 6 C11.66 6 12.32 6 13 6 C13 7.65 13 9.3 13 11 C13.12375 10.360625 13.2475 9.72125 13.375 9.0625 C13.58125 8.381875 13.7875 7.70125 14 7 C14.66 6.67 15.32 6.34 16 6 C16 5.34 16 4.68 16 4 C15.34 3.67 14.68 3.34 14 3 C14 2.34 14 1.68 14 1 C17.28696233 0.20046862 18.71023192 -0.09658936 22 1 C23.52785142 4.4376657 22.61190477 7.40505949 22 11 C22.33 11.99 22.66 12.98 23 14 C18.38 14 13.76 14 9 14 C9 12.02 9 10.04 9 8 C6.87635519 7.77390663 6.87635519 7.77390663 5.375 9.5 C4.92125 9.995 4.4675 10.49 4 11 C4.66 11.33 5.32 11.66 6 12 C6 12.66 6 13.32 6 14 C4.02 14 2.04 14 0 14 C0 9.38 0 4.76 0 0 Z " fill="#656261" transform="translate(77,52)"/>
<path d="M0 0 C0.99 0 1.98 0 3 0 C3 0.66 3 1.32 3 2 C4.98 2 6.96 2 9 2 C9 5.63 9 9.26 9 13 C9.66 13 10.32 13 11 13 C10.67 14.32 10.34 15.64 10 17 C7.03 17 4.06 17 1 17 C0.67 15.68 0.34 14.36 0 13 C-1.98 13.33 -3.96 13.66 -6 14 C-6 10.04 -6 6.08 -6 2 C-4.02 2 -2.04 2 0 2 C0 1.34 0 0.68 0 0 Z " fill="#959393" transform="translate(152,51)"/>
<path d="M0 0 C0.88300781 0.04511719 1.76601563 0.09023438 2.67578125 0.13671875 C3.67158203 0.22373047 3.67158203 0.22373047 4.6875 0.3125 C4.6875 2.2925 4.6875 4.2725 4.6875 6.3125 C1.7175 6.3125 -1.2525 6.3125 -4.3125 6.3125 C-4.3125 9.6125 -4.3125 12.9125 -4.3125 16.3125 C-1.3425 16.3125 1.6275 16.3125 4.6875 16.3125 C4.6875 17.9625 4.6875 19.6125 4.6875 21.3125 C-0.3125 21.3125 -5.3125 21.3125 -10.3125 21.3125 C-10.44809675 18.74821485 -10.54683188 16.19114784 -10.625 13.625 C-10.66689453 12.90376953 -10.70878906 12.18253906 -10.75195312 11.43945312 C-10.84547188 7.34333158 -10.62162227 5.73643911 -8.125 2.3125 C-5.01842555 0.10338039 -3.73893648 -0.24926243 0 0 Z " fill="#61A2D1" transform="translate(46.3125,23.6875)"/>
<path d="M0 0 C4.62 0 9.24 0 14 0 C14.09765625 10.05859375 14.09765625 10.05859375 14 13 C13 14 13 14 10.05859375 14.09765625 C6.70572917 14.06510417 3.35286458 14.03255208 0 14 C0 9.38 0 4.76 0 0 Z " fill="#D2D1D0" transform="translate(53,52)"/>
<path d="M0 0 C0 0.66 0 1.32 0 2 C1.65 2 3.3 2 5 2 C5 5.3 5 8.6 5 12 C3.35 12 1.7 12 0 12 C0 12.66 0 13.32 0 14 C-0.99 14 -1.98 14 -3 14 C-3 13.34 -3 12.68 -3 12 C-4.98 12 -6.96 12 -9 12 C-9 8.37 -9 4.74 -9 1 C-5.94152152 0.45627049 -3.11227195 0 0 0 Z " fill="#787675" transform="translate(45,52)"/>
<path d="M0 0 C2.97 0 5.94 0 9 0 C10.66251802 5.57432514 11.18609365 9.3067505 10 15 C5.71 15 1.42 15 -3 15 C-3 14.34 -3 13.68 -3 13 C-2.34 12.67 -1.68 12.34 -1 12 C-0.53101037 9.1840151 -0.53101037 9.1840151 -0.375 5.9375 C-0.30023438 4.83277344 -0.22546875 3.72804687 -0.1484375 2.58984375 C-0.09945312 1.73519531 -0.05046875 0.88054688 0 0 Z " fill="#DAF3FA" transform="translate(58,30)"/>
<path d="M0 0 C1.51400391 0.01740234 1.51400391 0.01740234 3.05859375 0.03515625 C4.07050781 0.04417969 5.08242187 0.05320312 6.125 0.0625 C7.29869141 0.07990234 7.29869141 0.07990234 8.49609375 0.09765625 C8.16609375 1.74765625 7.83609375 3.39765625 7.49609375 5.09765625 C5.18609375 5.09765625 2.87609375 5.09765625 0.49609375 5.09765625 C0.49609375 6.08765625 0.49609375 7.07765625 0.49609375 8.09765625 C3.46609375 8.59265625 3.46609375 8.59265625 6.49609375 9.09765625 C6.49609375 10.41765625 6.49609375 11.73765625 6.49609375 13.09765625 C2.53609375 13.09765625 -1.42390625 13.09765625 -5.50390625 13.09765625 C-5.68181829 8.56089928 -5.55001875 5.18988125 -3.50390625 1.09765625 C-2.50390625 0.09765625 -2.50390625 0.09765625 0 0 Z " fill="#FCC8CE" transform="translate(192.50390625,30.90234375)"/>
<path d="M0 0 C0.89203125 0.03609375 1.7840625 0.0721875 2.703125 0.109375 C3.71632813 0.17898437 3.71632813 0.17898437 4.75 0.25 C4.75 2.23 4.75 4.21 4.75 6.25 C1.78 6.25 -1.19 6.25 -4.25 6.25 C-4.19199219 6.92546875 -4.13398437 7.6009375 -4.07421875 8.296875 C-4.02910156 9.18890625 -3.98398438 10.0809375 -3.9375 11 C-3.87949219 11.88171875 -3.82148437 12.7634375 -3.76171875 13.671875 C-4.25 16.25 -4.25 16.25 -6.76953125 18.578125 C-7.99736328 19.40570313 -7.99736328 19.40570313 -9.25 20.25 C-9.3581866 17.66554227 -9.43737237 15.08562648 -9.5 12.5 C-9.53351563 11.77039062 -9.56703125 11.04078125 -9.6015625 10.2890625 C-9.66483324 6.80917181 -9.53213034 4.66797087 -7.5625 1.75 C-4.7829453 -0.0529544 -3.28093082 -0.17268057 0 0 Z " fill="#488CC0" transform="translate(95.25,23.75)"/>
<path d="M0 0 C0.99 0 1.98 0 3 0 C3 0.99 3 1.98 3 3 C4.98 3 6.96 3 9 3 C9 5.97 9 8.94 9 12 C7.02 12 5.04 12 3 12 C3 13.98 3 15.96 3 18 C2.01 18 1.02 18 0 18 C-0.125 12.25 -0.125 12.25 1 10 C2.98 10 4.96 10 7 10 C7 8.35 7 6.7 7 5 C5.35 5 3.7 5 2 5 C1.67 6.32 1.34 7.64 1 9 C1 7.68 1 6.36 1 5 C-0.65 5 -2.3 5 -4 5 C-4 6.65 -4 8.3 -4 10 C-2.68 10.33 -1.36 10.66 0 11 C-1.98 11.33 -3.96 11.66 -6 12 C-6 9.03 -6 6.06 -6 3 C-4.02 3 -2.04 3 0 3 C0 2.01 0 1.02 0 0 Z " fill="#5E5C5A" transform="translate(133,51)"/>
<path d="M0 0 C1.51400391 0.01740234 1.51400391 0.01740234 3.05859375 0.03515625 C4.07050781 0.04417969 5.08242187 0.05320312 6.125 0.0625 C7.29869141 0.07990234 7.29869141 0.07990234 8.49609375 0.09765625 C8.16609375 1.08765625 7.83609375 2.07765625 7.49609375 3.09765625 C4.85609375 3.42765625 2.21609375 3.75765625 -0.50390625 4.09765625 C-0.83390625 6.07765625 -1.16390625 8.05765625 -1.50390625 10.09765625 C1.13609375 10.09765625 3.77609375 10.09765625 6.49609375 10.09765625 C6.49609375 11.08765625 6.49609375 12.07765625 6.49609375 13.09765625 C2.53609375 13.09765625 -1.42390625 13.09765625 -5.50390625 13.09765625 C-5.68181829 8.56089928 -5.55001875 5.18988125 -3.50390625 1.09765625 C-2.50390625 0.09765625 -2.50390625 0.09765625 0 0 Z " fill="#C0202C" transform="translate(132.50390625,30.90234375)"/>
<path d="M0 0 C4.62 0 9.24 0 14 0 C14.09765625 10.05859375 14.09765625 10.05859375 14 13 C13 14 13 14 10.05859375 14.09765625 C6.70572917 14.06510417 3.35286458 14.03255208 0 14 C0 9.38 0 4.76 0 0 Z M2 2 C2 5.3 2 8.6 2 12 C5.3 12 8.6 12 12 12 C12 8.7 12 5.4 12 2 C8.7 2 5.4 2 2 2 Z " fill="#5B5958" transform="translate(53,52)"/>
<path d="M0 0 C5.28 0 10.56 0 16 0 C16 0.66 16 1.32 16 2 C13.69 2 11.38 2 9 2 C9 5.3 9 8.6 9 12 C11.64 12 14.28 12 17 12 C17 12.66 17 13.32 17 14 C11.06 14 5.12 14 -1 14 C-1 13.34 -1 12.68 -1 12 C1.64 12 4.28 12 7 12 C7 8.7 7 5.4 7 2 C4.69 2 2.38 2 0 2 C0 1.34 0 0.68 0 0 Z " fill="#514F4E" transform="translate(165,53)"/>
<path d="M0 0 C0.66 0 1.32 0 2 0 C2 0.99 2 1.98 2 3 C2.66 3 3.32 3 4 3 C4 2.34 4 1.68 4 1 C4.66 1 5.32 1 6 1 C6 5.29 6 9.58 6 14 C3 13 3 13 1 12 C1 12.66 1 13.32 1 14 C0.34 14 -0.32 14 -1 14 C-1.02694851 12.04174127 -1.04637218 10.08337774 -1.0625 8.125 C-1.07410156 7.03445312 -1.08570312 5.94390625 -1.09765625 4.8203125 C-1 2 -1 2 0 0 Z " fill="#5D5A58" transform="translate(70,52)"/>
<path d="M0 0 C2.97 0.495 2.97 0.495 6 1 C6 1.66 6 2.32 6 3 C7.65 2.67 9.3 2.34 11 2 C10.01 3.485 10.01 3.485 9 5 C8.34 5 7.68 5 7 5 C6.87625 5.61875 6.7525 6.2375 6.625 6.875 C6 9 6 9 4 11 C4.66 11.33 5.32 11.66 6 12 C6 12.66 6 13.32 6 14 C4.02 14 2.04 14 0 14 C0 9.38 0 4.76 0 0 Z " fill="#D6D5D5" transform="translate(77,52)"/>
<path d="M0 0 C3.3 0 6.6 0 10 0 C9.67 4.29 9.34 8.58 9 13 C9.99 13.33 10.98 13.66 12 14 C10.68 14 9.36 14 8 14 C8 12.68 8 11.36 8 10 C4.04 10 0.08 10 -4 10 C-4 9.67 -4 9.34 -4 9 C-0.04 9 3.92 9 8 9 C8 8.01 8 7.02 8 6 C5.36 6 2.72 6 0 6 C0 4.02 0 2.04 0 0 Z " fill="#FCE2E5" transform="translate(131,35)"/>
<path d="M0 0 C0.99 0.33 1.98 0.66 3 1 C2.690625 1.680625 2.38125 2.36125 2.0625 3.0625 C0.86629351 6.36965912 0.40994603 9.51545878 0 13 C-0.99 12.67 -1.98 12.34 -3 12 C-2.67 11.34 -2.34 10.68 -2 10 C-4.64 10 -7.28 10 -10 10 C-9.67 8.02 -9.34 6.04 -9 4 C-6.36 3.67 -3.72 3.34 -1 3 C-0.67 2.01 -0.34 1.02 0 0 Z " fill="#FEEBEE" transform="translate(187,31)"/>
<path d="M0 0 C0.99 0 1.98 0 3 0 C3 0.66 3 1.32 3 2 C4.65 2 6.3 2 8 2 C8 4.97 8 7.94 8 11 C6.35 11 4.7 11 3 11 C3.99 10.67 4.98 10.34 6 10 C6 8.02 6 6.04 6 4 C4.68 4 3.36 4 2 4 C2 5.65 2 7.3 2 9 C1.67 9 1.34 9 1 9 C1 7.35 1 5.7 1 4 C-0.32 4 -1.64 4 -3 4 C-3 5.98 -3 7.96 -3 10 C-2.01 10.33 -1.02 10.66 0 11 C-1.65 11 -3.3 11 -5 11 C-5 8.03 -5 5.06 -5 2 C-3.35 2 -1.7 2 0 2 C0 1.34 0 0.68 0 0 Z " fill="#575553" transform="translate(42,52)"/>
<path d="M0 0 C2.97 0 5.94 0 9 0 C8.01 0.33 7.02 0.66 6 1 C6 1.66 6 2.32 6 3 C6.99 3 7.98 3 9 3 C9 3.66 9 4.32 9 5 C8.01 5 7.02 5 6 5 C6 5.66 6 6.32 6 7 C7.32 7 8.64 7 10 7 C10 7.66 10 8.32 10 9 C6.37 9 2.74 9 -1 9 C-0.67 6.03 -0.34 3.06 0 0 Z " fill="#6E6C6B" transform="translate(191,59)"/>
<path d="M0 0 C-0.99 0.495 -0.99 0.495 -2 1 C-2 1.99 -2 2.98 -2 4 C-1.34 4 -0.68 4 0 4 C0 8 0 8 -1 11 C-1.34820041 12.66362417 -1.68404492 14.32995171 -2 16 C-2.66 16 -3.32 16 -4 16 C-7.12923476 11.30614786 -6.92995171 9.57971023 -6 4 C-5.34 4 -4.68 4 -4 4 C-4 3.34 -4 2.68 -4 2 C-4.66 2 -5.32 2 -6 2 C-6 1.34 -6 0.68 -6 0 C-3.50907189 -1.24546405 -2.58919267 -0.7767578 0 0 Z " fill="#565352" transform="translate(190,52)"/>
<path d="M0 0 C0.99 0 1.98 0 3 0 C3 1.98 3 3.96 3 6 C6.3 6 9.6 6 13 6 C13 6.99 13 7.98 13 9 C8.38 9 3.76 9 -1 9 C-1 2 -1 2 0 0 Z " fill="#C61E2A" transform="translate(158,35)"/>
<path d="M0 0 C2.64 0 5.28 0 8 0 C8 2.64 8 5.28 8 8 C5.36 8 2.72 8 0 8 C0 5.36 0 2.72 0 0 Z " fill="#FDFEFE" transform="translate(43,31)"/>
<path d="M0 0 C4.62 0 9.24 0 14 0 C10 5 10 5 7.421875 5.48828125 C6.09929687 5.40126953 6.09929687 5.40126953 4.75 5.3125 C3.85796875 5.26738281 2.9659375 5.22226562 2.046875 5.17578125 C1.37140625 5.11777344 0.6959375 5.05976562 0 5 C0 3.35 0 1.7 0 0 Z " fill="#CF0F1D" transform="translate(70,40)"/>
<path d="M0 0 C0 4.62 0 9.24 0 14 C-1.65 14 -3.3 14 -5 14 C-5.62851994 4.85154314 -5.62851994 4.85154314 -3.0625 1.375 C-1 0 -1 0 0 0 Z " fill="#CC0D1C" transform="translate(84,25)"/>
<path d="M0 0 C1.65 0 3.3 0 5 0 C5.1357675 1.58093717 5.23234745 3.16526952 5.3125 4.75 C5.37050781 5.63171875 5.42851563 6.5134375 5.48828125 7.421875 C5 10 5 10 0 14 C0 9.38 0 4.76 0 0 Z " fill="#0B67AC" transform="translate(52,31)"/>
<path d="M0 0 C1.32257812 0.08701172 1.32257812 0.08701172 2.671875 0.17578125 C3.56390625 0.22089844 4.4559375 0.26601563 5.375 0.3125 C6.05046875 0.37050781 6.7259375 0.42851562 7.421875 0.48828125 C7.421875 2.13828125 7.421875 3.78828125 7.421875 5.48828125 C2.801875 5.48828125 -1.818125 5.48828125 -6.578125 5.48828125 C-2.578125 0.48828125 -2.578125 0.48828125 0 0 Z " fill="#216BA3" transform="translate(59.578125,23.51171875)"/>
<path d="M0 0 C1.32257812 0.08701172 1.32257812 0.08701172 2.671875 0.17578125 C3.56390625 0.22089844 4.4559375 0.26601563 5.375 0.3125 C6.05046875 0.37050781 6.7259375 0.42851562 7.421875 0.48828125 C7.421875 2.13828125 7.421875 3.78828125 7.421875 5.48828125 C2.801875 5.48828125 -1.818125 5.48828125 -6.578125 5.48828125 C-2.578125 0.48828125 -2.578125 0.48828125 0 0 Z " fill="#1C67A1" transform="translate(43.578125,23.51171875)"/>
<path d="M0 0 C1.65 0 3.3 0 5 0 C4.01 0.33 3.02 0.66 2 1 C2 1.99 2 2.98 2 4 C3.32 4 4.64 4 6 4 C6 2.68 6 1.36 6 0 C8.31 0 10.62 0 13 0 C13 0.66 13 1.32 13 2 C11.35 2 9.7 2 8 2 C8 2.66 8 3.32 8 4 C8.99 4.33 9.98 4.66 11 5 C6.545 5.495 6.545 5.495 2 6 C2 6.66 2 7.32 2 8 C2.99 8.33 3.98 8.66 5 9 C3.35 9.33 1.7 9.66 0 10 C0 6.7 0 3.4 0 0 Z " fill="#565352" transform="translate(147,54)"/>
<path d="M0 0 C3.63 0 7.26 0 11 0 C11 1.65 11 3.3 11 5 C9.02 5 7.04 5 5 5 C5 5.66 5 6.32 5 7 C3.35 7 1.7 7 0 7 C0 4.69 0 2.38 0 0 Z " fill="#BEBCBC" transform="translate(129,56)"/>
<path d="M0 0 C1.4540625 0.0309375 1.4540625 0.0309375 2.9375 0.0625 C2.6075 2.0425 2.2775 4.0225 1.9375 6.0625 C0.2875 6.0625 -1.3625 6.0625 -3.0625 6.0625 C-3.0625 7.0525 -3.0625 8.0425 -3.0625 9.0625 C-1.0825 9.0625 0.8975 9.0625 2.9375 9.0625 C2.9375 9.3925 2.9375 9.7225 2.9375 10.0625 C0.6275 10.0625 -1.6825 10.0625 -4.0625 10.0625 C-4.0625 11.0525 -4.0625 12.0425 -4.0625 13.0625 C-4.7225 13.0625 -5.3825 13.0625 -6.0625 13.0625 C-5.75490822 11.08256459 -5.4412932 9.10356401 -5.125 7.125 C-4.95097656 6.02285156 -4.77695313 4.92070313 -4.59765625 3.78515625 C-3.86917921 0.07896284 -3.86917921 0.07896284 0 0 Z " fill="#FECBD2" transform="translate(149.0625,34.9375)"/>
<path d="M0 0 C0.99 0 1.98 0 3 0 C3 1.65 3 3.3 3 5 C5.64 5 8.28 5 11 5 C11 5.99 11 6.98 11 8 C7.04 8 3.08 8 -1 8 C-1.04241723 5.66705225 -1.04092937 3.33297433 -1 1 C-0.67 0.67 -0.34 0.34 0 0 Z " fill="#BC2B37" transform="translate(188,36)"/>
<path d="M0 0 C0.99 0 1.98 0 3 0 C3 1.98 3 3.96 3 6 C5.64 6 8.28 6 11 6 C10.67 6.99 10.34 7.98 10 9 C6.37 9 2.74 9 -1 9 C-0.67 6.03 -0.34 3.06 0 0 Z " fill="#C41B28" transform="translate(174,35)"/>
<path d="M0 0 C1.65 0 3.3 0 5 0 C5.13595863 1.41396973 5.23243845 2.83176684 5.3125 4.25 C5.37050781 5.03890625 5.42851563 5.8278125 5.48828125 6.640625 C5 9 5 9 0 13 C0 8.71 0 4.42 0 0 Z " fill="#1167A9" transform="translate(86,31)"/>
<path d="M0 0 C3.3 0 6.6 0 10 0 C10 1.65 10 3.3 10 5 C9.34 4.67 8.68 4.34 8 4 C7.67 4.66 7.34 5.32 7 6 C4.69 6 2.38 6 0 6 C0 4.02 0 2.04 0 0 Z " fill="#989796" transform="translate(48,70)"/>
<path d="M0 0 C2.97 0 5.94 0 9 0 C9 1.98 9 3.96 9 6 C6.03 6 3.06 6 0 6 C0 4.02 0 2.04 0 0 Z " fill="#797877" transform="translate(191,51)"/>
<path d="M0 0 C1.21236328 0.04060547 1.21236328 0.04060547 2.44921875 0.08203125 C3.06410156 0.11683594 3.67898437 0.15164062 4.3125 0.1875 C4.3125 1.8375 4.3125 3.4875 4.3125 5.1875 C0.3525 5.1875 -3.6075 5.1875 -7.6875 5.1875 C-7.6875 3.1875 -7.6875 3.1875 -6.48046875 1.57421875 C-4.17167958 -0.21144608 -2.88126329 -0.12527232 0 0 Z " fill="#1367A8" transform="translate(62.6875,39.8125)"/>
<path d="M0 0 C0 1.65 0 3.3 0 5 C-3.96 5 -7.92 5 -12 5 C-12 3 -12 3 -10.5 1.375 C-6.87989192 -0.61605945 -4.10006991 -0.2050035 0 0 Z " fill="#0F64A6" transform="translate(51,40)"/>
<path d="M0 0 C2.64 0 5.28 0 8 0 C7.67 2.64 7.34 5.28 7 8 C4.69 8 2.38 8 0 8 C0 5.36 0 2.72 0 0 Z " fill="#5F5D5C" transform="translate(56,55)"/>
<path d="M0 0 C1.98738098 0.01761863 3.97253109 0.16698176 5.953125 0.33203125 C5.953125 1.98203125 5.953125 3.63203125 5.953125 5.33203125 C1.993125 5.33203125 -1.966875 5.33203125 -6.046875 5.33203125 C-3.15469741 0.51173527 -3.15469741 0.51173527 0 0 Z " fill="#0E65A7" transform="translate(94.046875,39.66796875)"/>
<path d="M0 0 C3.96 0 7.92 0 12 0 C10.5 2.5 10.5 2.5 8 5 C5.19861435 5.45442324 2.86199125 5.23849927 0 5 C0 3.35 0 1.7 0 0 Z " fill="#D00A19" transform="translate(70,24)"/>
<path d="M0 0 C2.31 0 4.62 0 7 0 C7 0.66 7 1.32 7 2 C7.66 2 8.32 2 9 2 C9 1.34 9 0.68 9 0 C9.66 0 10.32 0 11 0 C11 1.65 11 3.3 11 5 C10.34 5 9.68 5 9 5 C9 4.34 9 3.68 9 3 C8.34 3 7.68 3 7 3 C7 3.66 7 4.32 7 5 C5.0085944 5.38133299 3.00720923 5.71325582 1 6 C0 5 0 5 -0.0625 2.4375 C-0.041875 1.633125 -0.02125 0.82875 0 0 Z " fill="#B3B3B2" transform="translate(74,70)"/>
<path d="M0 0 C0.99 0 1.98 0 3 0 C2.34 2.97 1.68 5.94 1 9 C-1.64 9 -4.28 9 -7 9 C-7 8.01 -7 7.02 -7 6 C-5.35 6 -3.7 6 -2 6 C-1.855625 5.195625 -1.71125 4.39125 -1.5625 3.5625 C-1 1 -1 1 0 0 Z " fill="#C81D2A" transform="translate(153,35)"/>
<path d="M0 0 C0.99 0 1.98 0 3 0 C3.19294408 4.82360189 2.75747614 8.49646738 1 13 C0.01 13 -0.98 13 -2 13 C-2.19294408 8.17639811 -1.75747614 4.50353262 0 0 Z " fill="#CB1E2B" transform="translate(142,35)"/>
<path d="M0 0 C1.32 0 2.64 0 4 0 C4.10824843 1.6026782 4.18570645 3.20745748 4.25 4.8125 C4.29640625 5.70582031 4.3428125 6.59914063 4.390625 7.51953125 C4 10 4 10 0 13 C0 8.71 0 4.42 0 0 Z " fill="#0B67AC" transform="translate(37,31)"/>
<path d="M0 0 C0.93423645 3.01031744 1.04449911 3.86650268 0 7 C-0.99 7 -1.98 7 -3 7 C-3.33 6.34 -3.66 5.68 -4 5 C-4.66 5.66 -5.32 6.32 -6 7 C-6.66 6.34 -7.32 5.68 -8 5 C-7.34 5 -6.68 5 -6 5 C-6 4.34 -6 3.68 -6 3 C-6.66 2.67 -7.32 2.34 -8 2 C-8 1.34 -8 0.68 -8 0 C-4.71023192 -1.09658936 -3.28696233 -0.79953138 0 0 Z " fill="#5B5958" transform="translate(99,53)"/>
<path d="M0 0 C0.268125 0.639375 0.53625 1.27875 0.8125 1.9375 C1.88667752 4.33131686 1.88667752 4.33131686 5 5 C5.33 6.65 5.66 8.3 6 10 C3.03 10 0.06 10 -3 10 C-2.01 9.67 -1.02 9.34 0 9 C0 8.34 0 7.68 0 7 C-0.99 6.67 -1.98 6.34 -3 6 C-3 5.34 -3 4.68 -3 4 C-2.01 4 -1.02 4 0 4 C0 2.68 0 1.36 0 0 Z " fill="#565352" transform="translate(94,56)"/>
<path d="M0 0 C0.33 0 0.66 0 1 0 C1 1.65 1 3.3 1 5 C-0.65 5 -2.3 5 -4 5 C-4 5.99 -4 6.98 -4 8 C-1.36 7.34 1.28 6.68 4 6 C3.67 7.32 3.34 8.64 3 10 C0.03 10 -2.94 10 -6 10 C-6 8.02 -6 6.04 -6 4 C-4.02 4 -2.04 4 0 4 C0 2.68 0 1.36 0 0 Z " fill="#555252" transform="translate(159,58)"/>
<path d="M0 0 C0.66 0 1.32 0 2 0 C2 0.99 2 1.98 2 3 C2.66 3 3.32 3 4 3 C4 2.34 4 1.68 4 1 C4.66 1 5.32 1 6 1 C6 2.65 6 4.3 6 6 C5.34 6 4.68 6 4 6 C4 6.66 4 7.32 4 8 C3.01 8 2.02 8 1 8 C1 7.34 1 6.68 1 6 C0.34 6 -0.32 6 -1 6 C-0.67 4.02 -0.34 2.04 0 0 Z " fill="#858483" transform="translate(70,52)"/>
<path d="M0 0 C3.96 0 7.92 0 12 0 C12.33 0.99 12.66 1.98 13 3 C8.71 3 4.42 3 0 3 C0 2.01 0 1.02 0 0 Z " fill="#C1111E" transform="translate(143,31)"/>
<path d="M0 0 C2.97851562 0.1953125 2.97851562 0.1953125 5.95703125 0.390625 C5.95703125 1.710625 5.95703125 3.030625 5.95703125 4.390625 C2.32703125 4.390625 -1.30296875 4.390625 -5.04296875 4.390625 C-2.04296875 0.390625 -2.04296875 0.390625 0 0 Z " fill="#0666AF" transform="translate(93.04296875,24.609375)"/>
<path d="M0 0 C3.63 0 7.26 0 11 0 C11.33 0.99 11.66 1.98 12 3 C7.71 3 3.42 3 -1 3 C-0.67 2.01 -0.34 1.02 0 0 Z " fill="#C21622" transform="translate(160,31)"/>
<path d="M0 0 C2.6015625 -0.29296875 2.6015625 -0.29296875 5.625 -0.1875 C7.12933594 -0.14689453 7.12933594 -0.14689453 8.6640625 -0.10546875 C9.43492187 -0.07066406 10.20578125 -0.03585938 11 0 C11 0.99 11 1.98 11 3 C6.71 3 2.42 3 -2 3 C-1.34 2.01 -0.68 1.02 0 0 Z " fill="#BE1C28" transform="translate(176,31)"/>
<path d="M0 0 C2.31 0 4.62 0 7 0 C7 1.65 7 3.3 7 5 C4.69 5 2.38 5 0 5 C0 3.35 0 1.7 0 0 Z " fill="#2972A9" transform="translate(60,32)"/>
<path d="M0 0 C3.63 0 7.26 0 11 0 C11 0.99 11 1.98 11 3 C7.04 3 3.08 3 -1 3 C-0.67 2.01 -0.34 1.02 0 0 Z " fill="#BF1D29" transform="translate(190,31)"/>
<path d="M0 0 C0.78375 0.185625 1.5675 0.37125 2.375 0.5625 C4.97089775 1.25962266 4.97089775 1.25962266 7 0 C7 1.65 7 3.3 7 5 C4.69 5.33 2.38 5.66 0 6 C0 4.02 0 2.04 0 0 Z " fill="#8E8D8C" transform="translate(86,70)"/>
<path d="M0 0 C2 0 4 0 6 0 C5.34 1.32 4.68 2.64 4 4 C4.66 4.33 5.32 4.66 6 5 C6 5.66 6 6.32 6 7 C4.02 7 2.04 7 0 7 C0 4.69 0 2.38 0 0 Z " fill="#666463" transform="translate(77,59)"/>
<path d="M0 0 C1.32 0.66 2.64 1.32 4 2 C3.835 2.763125 3.67 3.52625 3.5 4.3125 C2.90854604 7.03596236 2.90854604 7.03596236 3 10 C2.01 10.33 1.02 10.66 0 11 C-1.24546405 8.50907189 -0.7767578 7.58919267 0 5 C-0.66 5 -1.32 5 -2 5 C-1.34 3.35 -0.68 1.7 0 0 Z " fill="#B5B3B3" transform="translate(90,53)"/>
<path d="M0 0 C0.33 1.32 0.66 2.64 1 4 C3.97 4 6.94 4 10 4 C10.33 5.65 10.66 7.3 11 9 C10.34 9 9.68 9 9 9 C9 8.01 9 7.02 9 6 C5.7 6 2.4 6 -1 6 C-0.67 4.02 -0.34 2.04 0 0 Z " fill="#FFDAE2" transform="translate(162,35)"/>
<path d="M0 0 C1.98 0 3.96 0 6 0 C6 1.65 6 3.3 6 5 C4.02 5 2.04 5 0 5 C0 3.35 0 1.7 0 0 Z " fill="#C71927" transform="translate(70,32)"/>
<path d="M0 0 C2.31 0 4.62 0 7 0 C7 2.97 7 5.94 7 9 C6.01 8.67 5.02 8.34 4 8 C4.33 6.02 4.66 4.04 5 2 C3.02 2 1.04 2 -1 2 C-0.67 1.34 -0.34 0.68 0 0 Z " fill="#FFEFF3" transform="translate(71,30)"/>
<path d="M0 0 C2.97 0 5.94 0 9 0 C9 0.66 9 1.32 9 2 C6.69 2 4.38 2 2 2 C2 3.98 2 5.96 2 8 C1.34 7.67 0.68 7.34 0 7 C0 4.69 0 2.38 0 0 Z " fill="#EEFFFF" transform="translate(58,30)"/>
<path d="M0 0 C1.98 0 3.96 0 6 0 C5.67 1.65 5.34 3.3 5 5 C3.35 5 1.7 5 0 5 C0 3.35 0 1.7 0 0 Z " fill="#FFF4F6" transform="translate(146,35)"/>
<path d="M0 0 C2.97 0 5.94 0 9 0 C8.01 0.33 7.02 0.66 6 1 C6 1.66 6 2.32 6 3 C6.99 3 7.98 3 9 3 C9 3.66 9 4.32 9 5 C6.6875 5.625 6.6875 5.625 4 6 C3.01 5.34 2.02 4.68 1 4 C1.99 4 2.98 4 4 4 C4 3.01 4 2.02 4 1 C2.68 0.67 1.36 0.34 0 0 Z " fill="#4F4D4C" transform="translate(191,59)"/>
<path d="M0 0 C0.99 0 1.98 0 3 0 C3 1.98 3 3.96 3 6 C4.98 6 6.96 6 9 6 C9 6.33 9 6.66 9 7 C6.03 7 3.06 7 0 7 C0 4.69 0 2.38 0 0 Z " fill="#CD0C1B" transform="translate(188,36)"/>
<path d="M0 0 C2.97 0 5.94 0 9 0 C9 0.99 9 1.98 9 3 C6.03 3 3.06 3 0 3 C0 2.01 0 1.02 0 0 Z " fill="#C0222E" transform="translate(163,36)"/>
<path d="M0 0 C0.99 0.33 1.98 0.66 3 1 C2.34 4.63 1.68 8.26 1 12 C0.01 12 -0.98 12 -2 12 C-1.34 8.04 -0.68 4.08 0 0 Z " fill="#FDCCD3" transform="translate(156,32)"/>
<path d="M0 0 C0 0.99 0 1.98 0 3 C-2.97 3 -5.94 3 -9 3 C-9 2.34 -9 1.68 -9 1 C-6.04335481 -0.4783226 -3.25770263 -0.06032783 0 0 Z " fill="#0367B2" transform="translate(65,25)"/>
<path d="M0 0 C1.65 0 3.3 0 5 0 C5 1.98 5 3.96 5 6 C3.35 6 1.7 6 0 6 C0 4.02 0 2.04 0 0 Z " fill="#878685" transform="translate(36,70)"/>
<path d="M0 0 C0.66 0 1.32 0 2 0 C2.33 1.98 2.66 3.96 3 6 C5.97 6.495 5.97 6.495 9 7 C9 7.33 9 7.66 9 8 C6.03 8 3.06 8 0 8 C0 5.36 0 2.72 0 0 Z " fill="#D20818" transform="translate(128,35)"/>
<path d="M0 0 C3.625 -0.1875 3.625 -0.1875 7 0 C7 0.99 7 1.98 7 3 C4.03 3 1.06 3 -2 3 C-1.34 2.01 -0.68 1.02 0 0 Z " fill="#0367B2" transform="translate(42,25)"/>
<path d="M0 0 C1.65 0 3.3 0 5 0 C4.01 0.33 3.02 0.66 2 1 C2 2.65 2 4.3 2 6 C3.32 6.33 4.64 6.66 6 7 C4.02 7.33 2.04 7.66 0 8 C0 5.36 0 2.72 0 0 Z " fill="#514E4E" transform="translate(127,55)"/>
<path d="M0 0 C2.97 0.495 2.97 0.495 6 1 C4.515 2.485 4.515 2.485 3 4 C3.99 4.66 4.98 5.32 6 6 C4.02 6 2.04 6 0 6 C0 4.02 0 2.04 0 0 Z " fill="#595756" transform="translate(77,52)"/>
<path d="M0 0 C1.65 0 3.3 0 5 0 C4.34 1.65 3.68 3.3 3 5 C3.66 5 4.32 5 5 5 C4.67 5.99 4.34 6.98 4 8 C4 7.34 4 6.68 4 6 C2.68 6 1.36 6 0 6 C0.66 4.68 1.32 3.36 2 2 C1.34 1.34 0.68 0.68 0 0 Z " fill="#5A5857" transform="translate(85,53)"/>
<path d="M0 0 C0.99 0 1.98 0 3 0 C3 1.98 3 3.96 3 6 C2.01 6 1.02 6 0 6 C0 4.02 0 2.04 0 0 Z " fill="#F9F9F8" transform="translate(45,56)"/>
<path d="M0 0 C0.99 0 1.98 0 3 0 C3 1.98 3 3.96 3 6 C2.01 6 1.02 6 0 6 C0 4.02 0 2.04 0 0 Z " fill="#F9F8F9" transform="translate(39,56)"/>
<path d="M0 0 C0.66 0 1.32 0 2 0 C2 0.99 2 1.98 2 3 C2.66 3 3.32 3 4 3 C4 2.34 4 1.68 4 1 C4.66 1 5.32 1 6 1 C6 1.99 6 2.98 6 4 C3.69 4 1.38 4 -1 4 C-0.67 2.68 -0.34 1.36 0 0 Z " fill="#5A5756" transform="translate(70,52)"/>
<path d="M0 0 C0.33 0.66 0.66 1.32 1 2 C1.66 2 2.32 2 3 2 C3 1.34 3 0.68 3 0 C3.66 0 4.32 0 5 0 C5 1.65 5 3.3 5 5 C4.34 5 3.68 5 3 5 C3 4.34 3 3.68 3 3 C2.34 3 1.68 3 1 3 C0.67 3.66 0.34 4.32 0 5 C0 3.35 0 1.7 0 0 Z " fill="#737271" transform="translate(80,70)"/>
<path d="M0 0 C1.32 0.33 2.64 0.66 4 1 C3.67 2.65 3.34 4.3 3 6 C2.01 6 1.02 6 0 6 C0 4.02 0 2.04 0 0 Z " fill="#7B7A78" transform="translate(96,54)"/>
</svg>
